<?xml version="1.0" encoding="UTF-8"?>
<svg width="45px" height="49px" viewBox="0 0 45 49" version="1.1" xmlns="http://www.w3.org/2000/svg" xmlns:xlink="http://www.w3.org/1999/xlink">
    <!-- Generator: Sketch 51.3 (57544) - http://www.bohemiancoding.com/sketch -->
    <title>2of3_green</title>
    <desc>Created with Sketch.</desc>
    <defs></defs>
    <g id="Page-1" stroke="none" stroke-width="1" fill="none" fill-rule="evenodd">
        <g id="UI" transform="translate(-1654.000000, -90.000000)" fill="#48751E">
            <g id="scoreboard" transform="translate(1436.000000, 80.000000)">
                <g id="score">
                    <g id="Gretchen" transform="translate(6.682946, 0.000000)">
                        <path d="M218.063827,25.2571683 L217.948194,25.141536 L218.063827,25.2571683 Z M215.4621,29.5355637 C215.153745,29.8439181 214.816488,29.9691852 214.450317,29.9113687 C214.084146,29.8535523 213.804704,29.6319259 213.611983,29.246483 L213.380718,29.0152183 C213.265085,28.8995855 213.168726,28.7935902 213.091637,28.6972295 C213.014549,28.6008688 212.91819,28.4563298 212.802557,28.2636083 C211.993126,26.9916466 211.588417,25.6040728 211.588417,24.1008453 L211.588417,18.4926784 C211.588417,17.4519824 211.800408,16.4498458 212.224395,15.4862384 L212.340027,15.2549738 C212.686926,14.4455436 213.187994,13.7132129 213.843247,13.0579599 C215.385019,11.5161881 217.196574,10.7453138 219.277966,10.7453138 C220.164485,10.7453138 221.185893,10.9573042 222.342222,11.3812915 C222.380766,11.4198358 222.438582,11.4391076 222.51567,11.4391076 C222.939658,11.7089177 223.344367,11.9787237 223.72981,12.2485338 C224.115253,12.5183438 224.442874,12.8074217 224.712684,13.1157761 L225.348662,13.7517538 C225.425751,13.8288424 225.502838,13.9348376 225.579927,14.0697426 C225.657015,14.2046476 225.714831,14.3106429 225.753375,14.3877315 C226.215907,15.0429845 226.543528,15.6982277 226.73625,16.3534807 C226.928971,17.0087337 227.02533,17.7217925 227.02533,18.4926784 L227.02533,24.1008453 C227.02533,24.2550225 227.006059,24.4091973 226.967514,24.5633745 C226.92897,24.7175517 226.890426,24.8909984 226.851882,25.0837199 L226.851882,25.488433 C226.620616,26.3749518 226.485713,26.8374764 226.447169,26.8760206 L226.447169,26.8182045 C225.714827,29.0152293 225.011404,31.1447697 224.336879,33.2068895 C223.662354,35.2690093 222.987839,37.3214622 222.313314,39.3643098 C221.638789,41.4071575 220.964274,43.4596104 220.289749,45.5217302 C219.615223,47.58385 218.911801,49.7133904 218.179459,51.9104152 L225.869007,51.9104152 C226.177362,51.9104152 226.447168,52.0260463 226.678434,52.2573121 C226.909699,52.4885779 227.02533,52.7583839 227.02533,53.0667383 L227.02533,56.8247883 C227.02533,57.1331426 226.909699,57.4029486 226.678434,57.6342144 C226.447168,57.8654802 226.177362,57.9811113 225.869007,57.9811113 L212.74474,57.9811113 C212.436386,57.9811113 212.16658,57.8654802 211.935314,57.6342144 C211.704049,57.4029486 211.588417,57.1331426 211.588417,56.8247883 L211.588417,52.7198413 L220.72337,24.9680876 C220.72337,24.9295433 220.733006,24.833184 220.752278,24.6790068 C220.77155,24.5248296 220.81973,24.3899266 220.896818,24.2742937 C220.896818,24.2357494 220.906454,24.2068417 220.925726,24.1875695 C220.944998,24.1682974 220.954634,24.1393896 220.954634,24.1008453 L220.954634,18.4926784 C220.954634,18.4155898 220.916091,18.2806868 220.839002,18.0879653 C220.761913,17.8952438 220.684826,17.7217971 220.607737,17.5676199 L220.434289,17.3941714 C220.395745,17.3556272 220.386109,17.3363553 220.405381,17.3363553 C220.424653,17.3363553 220.415017,17.3170834 220.376473,17.2785391 C220.299384,17.2014505 220.241569,17.1629068 220.203024,17.1629068 C220.16448,17.1629068 220.106664,17.1243631 220.029576,17.0472745 C219.913943,17.0472745 219.817584,17.0087308 219.740495,16.9316422 L219.624863,16.8160099 L219.277966,16.8160099 C218.815434,16.8160099 218.410725,16.9894566 218.063827,17.3363553 C217.986738,17.4134439 217.938558,17.4905313 217.919286,17.5676199 C217.900014,17.6447085 217.871106,17.7217959 217.832562,17.7988845 L217.71693,17.9145168 C217.678385,18.0301497 217.659114,18.2228683 217.659114,18.4926784 L217.659114,24.1008453 C217.659114,24.4091996 217.736201,24.7175494 217.890378,25.0259037 L218.00601,25.141536 C218.314365,25.3342575 218.478176,25.6040635 218.497448,25.9509622 C218.51672,26.2978608 218.391453,26.6062106 218.121643,26.8760206 L215.4621,29.5355637 Z M239.605162,58.4870027 C239.540921,58.7439646 239.380322,58.8724437 239.12336,58.8724437 L237.557506,58.8724437 C237.396905,58.8724437 237.268426,58.8162341 237.172065,58.7038132 C237.075704,58.5913924 237.043585,58.4548834 237.075705,58.2942822 L241.532367,36.4445941 C241.596607,36.1876321 241.757206,36.0591531 242.014168,36.0591531 L243.531842,36.0591531 C243.692443,36.0591531 243.820922,36.1153626 243.917283,36.2277835 C244.013644,36.3402044 244.045764,36.4767134 244.013643,36.6373146 L239.605162,58.4870027 Z M251.409293,51.6695146 C251.537774,51.6695146 251.650193,51.7176942 251.746554,51.8140549 C251.842914,51.9104157 251.891094,52.0228348 251.891094,52.1513158 L251.891094,54.102611 C251.891094,54.2953325 251.955333,54.4559313 252.083814,54.5844123 C252.212295,54.7128933 252.372894,54.7771328 252.565616,54.7771328 C252.758337,54.7771328 252.918936,54.7128933 253.047417,54.5844123 C253.191958,54.4398712 253.264228,54.2792724 253.264228,54.102611 L253.264228,47.0924024 C253.264228,46.8996809 253.191958,46.7310521 253.047417,46.586511 C252.918936,46.4580301 252.758337,46.3937905 252.565616,46.3937905 L251.409293,46.3937905 C251.216571,46.3937905 251.076047,46.325536 250.987717,46.189025 C250.899386,46.0525139 250.895371,45.8959301 250.975672,45.7192687 L251.385203,44.707486 C251.658225,43.8884198 251.923213,43.1295903 252.180175,42.430975 C252.437137,41.7323596 252.702125,40.9735302 252.975147,40.1544639 L249.843438,40.1544639 C249.714958,40.1544639 249.602538,40.1062843 249.506178,40.0099236 C249.409817,39.9135628 249.361637,39.8011436 249.361637,39.6726627 L249.361637,38.1068085 C249.361637,37.9783275 249.409817,37.8659083 249.506178,37.7695476 C249.602538,37.6731869 249.714958,37.6250072 249.843438,37.6250072 L255.311883,37.6250072 C255.440364,37.6250072 255.552783,37.6731869 255.649144,37.7695476 C255.745505,37.8659083 255.793684,37.9783275 255.793684,38.1068085 L255.793684,39.793113 L254.22783,44.3461351 C254.308131,44.4264357 254.408505,44.5067351 254.528956,44.5870357 C254.649407,44.6673363 254.749781,44.7476358 254.830082,44.8279364 C255.472487,45.4542812 255.793684,46.2090956 255.793684,47.0924024 L255.793684,54.102611 C255.793684,54.9698577 255.472487,55.7246721 254.830082,56.367077 C254.203737,56.9934218 253.448922,57.3065895 252.565616,57.3065895 C251.698369,57.3065895 250.943555,56.9934218 250.30115,56.367077 C249.674805,55.6925519 249.361637,54.9377374 249.361637,54.102611 L249.361637,52.1513158 C249.361637,52.0228348 249.409817,51.9104157 249.506178,51.8140549 C249.602538,51.7176942 249.714958,51.6695146 249.843438,51.6695146 L251.409293,51.6695146 Z" id="2of3_green"></path>
                    </g>
                </g>
            </g>
        </g>
    </g>
</svg>