<?xml version="1.0" encoding="UTF-8"?>
<svg width="40px" height="49px" viewBox="0 0 40 49" version="1.1" xmlns="http://www.w3.org/2000/svg" xmlns:xlink="http://www.w3.org/1999/xlink">
    <!-- Generator: Sketch 51.3 (57544) - http://www.bohemiancoding.com/sketch -->
    <title>1of3_green</title>
    <desc>Created with Sketch.</desc>
    <defs></defs>
    <g id="Page-1" stroke="none" stroke-width="1" fill="none" fill-rule="evenodd">
        <g id="UI" transform="translate(-1654.000000, -90.000000)" fill="#48751E">
            <g id="scoreboard" transform="translate(1436.000000, 80.000000)">
                <g id="score">
                    <g id="Gretchen" transform="translate(6.682946, 0.000000)">
                        <path d="M211.588417,15.3706061 C211.588417,15.2549732 211.636597,15.1007983 211.732958,14.9080768 C211.829319,14.7153554 211.916042,14.5804524 211.99313,14.5033638 L216.329342,10.7453138 L219.277966,10.7453138 C219.58632,10.7453138 219.856126,10.8609449 220.087392,11.0922107 C220.318658,11.3234765 220.434289,11.5932825 220.434289,11.9016368 L220.434289,56.8247883 C220.434289,57.1331426 220.318658,57.4029486 220.087392,57.6342144 C219.856126,57.8654802 219.58632,57.9811113 219.277966,57.9811113 L215.519916,57.9811113 C215.211561,57.9811113 214.941755,57.8654802 214.71049,57.6342144 C214.479224,57.4029486 214.363593,57.1331426 214.363593,56.8247883 L214.363593,20.3427953 C214.209416,20.4584282 214.064877,20.5933312 213.929972,20.7475084 C213.795067,20.9016855 213.650528,21.0365886 213.49635,21.1522214 C213.072363,21.4991201 212.648382,21.5762075 212.224395,21.3834861 C211.800408,21.1907646 211.588417,20.8245993 211.588417,20.2849791 L211.588417,15.3706061 Z M234.343892,58.4870027 C234.279651,58.7439646 234.119052,58.8724437 233.86209,58.8724437 L232.296236,58.8724437 C232.135635,58.8724437 232.007156,58.8162341 231.910795,58.7038132 C231.814434,58.5913924 231.782315,58.4548834 231.814435,58.2942822 L236.271097,36.4445941 C236.335337,36.1876321 236.495936,36.0591531 236.752898,36.0591531 L238.270572,36.0591531 C238.431173,36.0591531 238.559652,36.1153626 238.656013,36.2277835 C238.752374,36.3402044 238.784494,36.4767134 238.752373,36.6373146 L234.343892,58.4870027 Z M246.148023,51.6695146 C246.276504,51.6695146 246.388923,51.7176942 246.485284,51.8140549 C246.581644,51.9104157 246.629824,52.0228348 246.629824,52.1513158 L246.629824,54.102611 C246.629824,54.2953325 246.694063,54.4559313 246.822544,54.5844123 C246.951025,54.7128933 247.111624,54.7771328 247.304346,54.7771328 C247.497067,54.7771328 247.657666,54.7128933 247.786147,54.5844123 C247.930688,54.4398712 248.002958,54.2792724 248.002958,54.102611 L248.002958,47.0924024 C248.002958,46.8996809 247.930688,46.7310521 247.786147,46.586511 C247.657666,46.4580301 247.497067,46.3937905 247.304346,46.3937905 L246.148023,46.3937905 C245.955301,46.3937905 245.814777,46.325536 245.726447,46.189025 C245.638116,46.0525139 245.634101,45.8959301 245.714402,45.7192687 L246.123933,44.707486 C246.396955,43.8884198 246.661943,43.1295903 246.918905,42.430975 C247.175867,41.7323596 247.440855,40.9735302 247.713877,40.1544639 L244.582169,40.1544639 C244.453688,40.1544639 244.341268,40.1062843 244.244908,40.0099236 C244.148547,39.9135628 244.100367,39.8011436 244.100367,39.6726627 L244.100367,38.1068085 C244.100367,37.9783275 244.148547,37.8659083 244.244908,37.7695476 C244.341268,37.6731869 244.453688,37.6250072 244.582169,37.6250072 L250.050613,37.6250072 C250.179094,37.6250072 250.291513,37.6731869 250.387874,37.7695476 C250.484235,37.8659083 250.532414,37.9783275 250.532414,38.1068085 L250.532414,39.793113 L248.96656,44.3461351 C249.046861,44.4264357 249.147235,44.5067351 249.267686,44.5870357 C249.388137,44.6673363 249.488511,44.7476358 249.568812,44.8279364 C250.211217,45.4542812 250.532414,46.2090956 250.532414,47.0924024 L250.532414,54.102611 C250.532414,54.9698577 250.211217,55.7246721 249.568812,56.367077 C248.942467,56.9934218 248.187653,57.3065895 247.304346,57.3065895 C246.437099,57.3065895 245.682285,56.9934218 245.03988,56.367077 C244.413535,55.6925519 244.100367,54.9377374 244.100367,54.102611 L244.100367,52.1513158 C244.100367,52.0228348 244.148547,51.9104157 244.244908,51.8140549 C244.341268,51.7176942 244.453688,51.6695146 244.582169,51.6695146 L246.148023,51.6695146 Z" id="1of3_green"></path>
                    </g>
                </g>
            </g>
        </g>
    </g>
</svg>