<?xml version="1.0" encoding="UTF-8"?>
<svg width="1226px" height="775px" viewBox="0 0 1226 775" version="1.1" xmlns="http://www.w3.org/2000/svg" xmlns:xlink="http://www.w3.org/1999/xlink">
    <!-- Generator: Sketch 51.3 (57544) - http://www.bohemiancoding.com/sketch -->
    <title>bus_round_win_card_bertha</title>
    <desc>Created with Sketch.</desc>
    <defs></defs>
    <g id="Page-1" stroke="none" stroke-width="1" fill="none" fill-rule="evenodd">
        <g id="round_win_screen_bertha" transform="translate(-290.000000, -267.000000)">
            <g id="bus_round_win_card_bertha" transform="translate(235.000000, 261.000000)">
                <g id="button_play_next_round" transform="translate(57.000000, 735.000000)" fill-rule="nonzero" stroke="#272727" stroke-linecap="round" stroke-linejoin="round" stroke-opacity="0.626075634" stroke-width="3.97350993">
                    <g id="lines_r" transform="translate(852.000000, 0.000000)">
                        <path d="M0.397350993,22.8 L369.602649,22.8" id="Line-2"></path>
                        <path d="M0.397350993,1.2 L333.84106,1.2" id="Line-2"></path>
                        <path d="M0.794701987,43.7986755 L334.238411,43.7986755" id="Line-2"></path>
                    </g>
                    <g id="lines_l" transform="translate(185.000000, 22.500000) scale(-1, 1) translate(-185.000000, -22.500000) ">
                        <path d="M0.397350993,22.8 L369.602649,22.8" id="Line-2"></path>
                        <path d="M0.397350993,1.2 L333.84106,1.2" id="Line-2"></path>
                        <path d="M0.794701987,43.7986755 L334.238411,43.7986755" id="Line-2"></path>
                    </g>
                </g>
                <g id="score_bertha" transform="translate(810.000000, 246.543213)">
                    <g id="text" transform="translate(11.000000, 242.000000)" fill="#A52E09">
                        <path d="M20.66384,34.923285 C20.8520409,34.923285 21.0590589,34.8103662 21.2849,34.584525 C21.3601804,34.5092447 21.39782,34.3963258 21.39782,34.245765 L21.39782,23.236065 C21.39782,23.0855043 21.3225408,22.9349458 21.17198,22.784385 C21.0214192,22.6338243 20.8520409,22.558545 20.66384,22.558545 L18.1796,22.558545 L18.1796,34.923285 L20.66384,34.923285 Z M18.1796,40.851585 L18.1796,56.829765 L20.66384,56.829765 C20.8896811,56.829765 21.0590594,56.7733056 21.17198,56.660385 C21.3225408,56.5098243 21.39782,56.340446 21.39782,56.152245 L21.39782,41.529105 C21.39782,41.3409041 21.3225408,41.1715258 21.17198,41.020965 C21.0590594,40.9080445 20.8896811,40.851585 20.66384,40.851585 L18.1796,40.851585 Z M27.32612,34.245765 C27.32612,35.5631716 26.9497238,36.7676396 26.19692,37.859205 C26.9497238,38.9507705 27.32612,40.1740583 27.32612,41.529105 L27.32612,56.152245 C27.32612,58.0342544 26.6674266,59.5962988 25.35002,60.838425 L25.35002,60.781965 C24.0326134,62.0993716 22.470569,62.758065 20.66384,62.758065 L13.3805,62.758065 C13.0793785,62.758065 12.8159011,62.6451462 12.59006,62.419305 C12.3642189,62.1934639 12.2513,61.9299865 12.2513,61.628865 L12.2513,17.759445 C12.2513,17.4583235 12.3642189,17.1948462 12.59006,16.969005 C12.8159011,16.7431639 13.0793785,16.630245 13.3805,16.630245 L20.66384,16.630245 C22.470569,16.630245 24.0326134,17.2889384 25.35002,18.606345 C26.6674266,19.9237516 27.32612,21.4669762 27.32612,23.236065 L27.32612,34.245765 Z M38.6176,34.923285 L44.77174,34.923285 C45.0728615,34.923285 45.3363389,35.0362039 45.56218,35.262045 C45.7880211,35.4878862 45.90094,35.7513635 45.90094,36.052485 L45.90094,39.722385 C45.90094,40.0235065 45.7880211,40.2869839 45.56218,40.512825 C45.3363389,40.7386662 45.0728615,40.851585 44.77174,40.851585 L38.6176,40.851585 L38.6176,56.829765 L46.63492,56.829765 C46.9360415,56.829765 47.1995189,56.9426839 47.42536,57.168525 C47.6512011,57.3943662 47.76412,57.6578435 47.76412,57.958965 L47.76412,61.628865 C47.76412,61.9299865 47.6512011,62.1934639 47.42536,62.419305 C47.1995189,62.6451462 46.9360415,62.758065 46.63492,62.758065 L33.8185,62.758065 C33.5173785,62.758065 33.2539011,62.6451462 33.02806,62.419305 C32.8022189,62.1934639 32.6893,61.9299865 32.6893,61.628865 L32.6893,17.759445 C32.6893,17.4583235 32.8022189,17.1948462 33.02806,16.969005 C33.2539011,16.7431639 33.5173785,16.630245 33.8185,16.630245 L46.63492,16.630245 C46.9360415,16.630245 47.1995189,16.7431639 47.42536,16.969005 C47.6512011,17.1948462 47.76412,17.4583235 47.76412,17.759445 L47.76412,21.429345 C47.76412,21.7304665 47.6512011,21.9939439 47.42536,22.219785 C47.1995189,22.4456262 46.9360415,22.558545 46.63492,22.558545 L38.6176,22.558545 L38.6176,34.923285 Z M54.2565,62.758065 C53.9553785,62.758065 53.6919011,62.6451462 53.46606,62.419305 C53.2402189,62.1934639 53.1273,61.9299865 53.1273,61.628865 L53.1273,17.759445 C53.1273,17.4583235 53.2402189,17.1948462 53.46606,16.969005 C53.6919011,16.7431639 53.9553785,16.630245 54.2565,16.630245 L61.53984,16.630245 C63.346569,16.630245 64.9086134,17.2889384 66.22602,18.606345 C67.5434266,19.9237516 68.20212,21.4669762 68.20212,23.236065 L68.20212,41.529105 C68.20212,43.3734743 67.5434266,44.9543384 66.22602,46.271745 C65.9625387,46.5352264 65.6520118,46.7798839 65.29443,47.005725 C64.9368482,47.2315662 64.6075015,47.4197643 64.30638,47.570325 C64.9462632,49.8663765 65.6049566,52.1623936 66.28248,54.458445 C66.9600034,56.7544965 67.6186968,59.0505136 68.25858,61.346565 C68.3715006,61.7229669 68.324451,62.0523136 68.11743,62.334615 C67.910409,62.6169164 67.5998821,62.758065 67.18584,62.758065 L63.40302,62.758065 C63.1771789,62.758065 62.960751,62.6733759 62.75373,62.503995 C62.546709,62.3346142 62.4055604,62.1370062 62.33028,61.911165 L59.0556,50.280405 L59.0556,61.628865 C59.0556,61.9299865 58.9426811,62.1934639 58.71684,62.419305 C58.4909989,62.6451462 58.2275215,62.758065 57.9264,62.758065 L54.2565,62.758065 Z M59.0556,22.558545 L59.0556,42.206625 L61.53984,42.206625 C61.7656811,42.206625 61.9350594,42.1501656 62.04798,42.037245 C62.1985408,41.8866843 62.27382,41.717306 62.27382,41.529105 L62.27382,23.236065 C62.27382,23.0855043 62.1985408,22.9349458 62.04798,22.784385 C61.8974192,22.6338243 61.7280409,22.558545 61.53984,22.558545 L59.0556,22.558545 Z M79.26776,62.758065 C78.9666385,62.758065 78.7031611,62.6451462 78.47732,62.419305 C78.2514789,62.1934639 78.13856,61.9299865 78.13856,61.628865 L78.13856,22.558545 L74.6945,22.558545 C74.3933785,22.558545 74.1299011,22.4456262 73.90406,22.219785 C73.6782189,21.9939439 73.5653,21.7304665 73.5653,21.429345 L73.5653,17.759445 C73.5653,17.4583235 73.6782189,17.1948462 73.90406,16.969005 C74.1299011,16.7431639 74.3933785,16.630245 74.6945,16.630245 L87.51092,16.630245 C87.8120415,16.630245 88.0755189,16.7431639 88.30136,16.969005 C88.5272011,17.1948462 88.64012,17.4583235 88.64012,17.759445 L88.64012,21.429345 C88.64012,21.7304665 88.5272011,21.9939439 88.30136,22.219785 C88.0755189,22.4456262 87.8120415,22.558545 87.51092,22.558545 L84.0104,22.558545 L84.0104,61.628865 C84.0104,61.9299865 83.8974811,62.1934639 83.67164,62.419305 C83.4457989,62.6451462 83.1823215,62.758065 82.8812,62.758065 L79.26776,62.758065 Z M107.94892,16.630245 C108.250042,16.630245 108.513519,16.7431639 108.73936,16.969005 C108.965201,17.1948462 109.07812,17.4583235 109.07812,17.759445 L109.07812,61.628865 C109.07812,61.9299865 108.965201,62.1934639 108.73936,62.419305 C108.513519,62.6451462 108.250042,62.758065 107.94892,62.758065 L104.27902,62.758065 C103.977898,62.758065 103.714421,62.6451462 103.48858,62.419305 C103.262739,62.1934639 103.14982,61.9299865 103.14982,61.628865 L103.14982,40.851585 L99.9316,40.851585 L99.9316,61.628865 C99.9316,61.9299865 99.8186811,62.1934639 99.59284,62.419305 C99.3669989,62.6451462 99.1035215,62.758065 98.8024,62.758065 L95.1325,62.758065 C94.8313785,62.758065 94.5679011,62.6451462 94.34206,62.419305 C94.1162189,62.1934639 94.0033,61.9299865 94.0033,61.628865 L94.0033,17.759445 C94.0033,17.4583235 94.1162189,17.1948462 94.34206,16.969005 C94.5679011,16.7431639 94.8313785,16.630245 95.1325,16.630245 L98.8024,16.630245 C99.1035215,16.630245 99.3669989,16.7431639 99.59284,16.969005 C99.8186811,17.1948462 99.9316,17.4583235 99.9316,17.759445 L99.9316,34.923285 L103.14982,34.923285 L103.14982,17.759445 C103.14982,17.4583235 103.262739,17.1948462 103.48858,16.969005 C103.714421,16.7431639 103.977898,16.630245 104.27902,16.630245 L107.94892,16.630245 Z M115.5705,62.758065 C115.269378,62.758065 115.005901,62.6545561 114.78006,62.447535 C114.554219,62.240514 114.4413,61.9864465 114.4413,61.685325 L117.5466,17.702985 C117.58424,17.4018635 117.706569,17.1477961 117.91359,16.940775 C118.120611,16.733754 118.374678,16.630245 118.6758,16.630245 L127.65294,16.630245 C127.954062,16.630245 128.217539,16.733754 128.44338,16.940775 C128.669221,17.1477961 128.78214,17.4018635 128.78214,17.702985 L130.36302,61.572405 C130.36302,61.8735265 130.250101,62.1464138 130.02426,62.391075 C129.798419,62.6357363 129.534942,62.758065 129.23382,62.758065 L125.56392,62.758065 C125.262798,62.758065 124.999321,62.6545561 124.77348,62.447535 C124.547639,62.240514 124.43472,61.9864465 124.43472,61.685325 L124.15242,53.555085 L120.9342,53.555085 L120.3696,61.685325 C120.33196,61.9864465 120.209631,62.240514 120.00261,62.447535 C119.795589,62.6545561 119.541522,62.758065 119.2404,62.758065 L115.5705,62.758065 Z M123.1926,22.558545 L123.13614,22.558545 C123.06086,22.558545 123.02322,22.7279233 123.02322,23.066685 L123.07968,24.195885 C123.07968,23.9324037 123.08909,23.6689264 123.10791,23.405445 C123.12673,23.1419637 123.15496,22.8596665 123.1926,22.558545 Z M123.92658,47.626785 C123.738379,43.6745653 123.587821,39.7600444 123.4749,35.883105 C123.361979,32.0061656 123.230241,28.1104646 123.07968,24.195885 C122.778558,28.185745 122.477442,32.081446 122.17632,35.883105 C121.875198,39.684764 121.592901,43.5992849 121.32942,47.626785 L123.92658,47.626785 Z" id="text-outlines"></path>
                    </g>
                    <g id="bus_right" fill-rule="nonzero">
                        <ellipse id="Oval" stroke="#8E2707" stroke-width="5.203125" stroke-linecap="round" stroke-linejoin="round" transform="translate(117.187500, 117.064846) scale(-1, 1) translate(-117.187500, -117.064846) " cx="117.1875" cy="117.064846" rx="117.1875" ry="117.064846"></ellipse>
                        <path d="M184.304864,167.746672 C183.614842,168.320264 182.735029,168.606999 181.847622,168.560396 C181.036444,180.512464 178.261165,189.317064 174.96226,189.317064 L162.136907,189.317064 C161.320118,189.317064 160.535428,188.777317 159.804703,187.783689 L148.604751,197.028713 C147.785417,197.705034 146.701365,197.978385 145.655245,197.772451 L31.7650269,175.352588 C30.1123123,175.027243 28.921875,173.590791 28.921875,171.921873 L28.921875,92.2024854 C28.921875,91.9345829 28.9529505,91.6675673 29.0144903,91.4066905 L34.8594673,66.6289161 C39.0879966,57.2862488 45.4478003,51.2912313 53.9388785,48.6438637 C78.5316646,44.2629303 96.8170209,42.1295286 127.858035,37.015439 C134.945171,35.849498 139.333253,35.849498 145.583255,38.8179082 C169.34644,53.5158526 191.297027,67.470529 213.229572,81.7060789 C214.484198,82.9442977 216.204745,85.3286312 216.421875,89.3649439 L216.421875,139.41811 C216.421875,140.4519 215.960153,141.432739 215.16065,142.097338 L212.570413,144.250511 C212.148117,150.730179 210.699476,155.504773 208.977328,155.504773 L202.285839,155.504773 C201.726826,155.504773 201.196631,155.00169 200.721004,154.10051 L184.304864,167.746672 Z M52.8834853,55.9851465 C51.9049574,56.1297577 51.1188461,56.8663251 50.9109307,57.8333828 L49.8273896,62.8731578 C49.7743288,63.1199543 49.7609974,63.3736378 49.7878984,63.6246364 C49.927524,64.9274105 51.09682,65.8703287 52.3995942,65.7307031 L92.4741732,61.4356857 C93.5832768,61.3168168 94.4597714,60.4413502 94.5799416,59.3323868 L95.2965364,52.719458 C95.3182616,52.5189716 95.3143358,52.3165334 95.2848538,52.1170401 C95.0933019,50.8208829 93.8872753,49.9254233 92.591118,50.1169752 L52.8834853,55.9851465 Z M101.933807,49.0207604 C100.868734,49.1609104 100.030753,49.9992556 99.8910664,51.0643889 L99.0530089,57.4547032 C99.0288697,57.6387681 99.0264184,57.8250303 99.0457055,58.0096667 C99.1818315,59.3128111 100.348591,60.2588665 101.651735,60.1227405 L123.277723,57.8636978 C124.363891,57.750237 125.232287,56.9099496 125.381413,55.8281011 L126.345428,48.83455 C126.374391,48.6244319 126.375046,48.4113786 126.347374,48.2010865 C126.176437,46.9020498 124.984788,45.9875441 123.685752,46.1584808 L101.933807,49.0207604 Z M75.8255644,90.0979081 L78.4261206,75.1058281 C78.4819197,74.7841487 78.491985,74.4563171 78.4560236,74.1318741 C78.2431809,72.2116161 76.4989207,70.8258314 74.5601093,71.0366373 L41.5300575,74.6279761 C40.538933,74.7357405 39.7238164,75.4501607 39.4952594,76.411403 L35.7726876,92.0674223 L75.8255644,90.0979081 Z M75.6622391,92.661801 L35.5149063,94.4628339 L35.8857198,109.178351 C35.9174168,110.436227 36.9509874,111.442352 38.2213746,111.451985 L72.5283367,111.712127 C72.5692815,111.712438 72.6102286,111.712043 72.6511596,111.710943 C74.6009014,111.658548 76.1385948,110.050622 76.085694,108.119538 L75.6622391,92.661801 Z M132.84471,87.2941142 L134.549264,71.512311 C134.582536,71.2042571 134.584734,70.8936861 134.555823,70.5852007 C134.315467,68.0204993 132.02143,66.1343808 129.431949,66.372437 L87.4518549,70.2317515 C85.906739,70.3737971 84.6362544,71.4981403 84.3205167,73.0028979 L80.7847013,89.8540532 L132.84471,87.2941142 Z M132.651716,90.1052196 L80.6734944,92.4369931 L81.591709,108.190853 C81.6994244,110.038932 83.2423138,111.483887 85.1113523,111.487087 L128.1932,111.56086 C128.21989,111.560906 128.24658,111.560727 128.273267,111.560323 C130.873576,111.52098 132.949341,109.401291 132.909617,106.825865 L132.651716,90.1052196 Z M38.7625843,157.836655 C41.525735,157.836655 43.7657112,154.965602 43.7657112,151.423979 C43.7657112,147.882356 41.525735,145.011303 38.7625843,145.011303 C35.9994335,145.011303 33.7594573,147.882356 33.7594573,151.423979 C33.7594573,154.965602 35.9994335,157.836655 38.7625843,157.836655 Z M127.641663,170.662007 C132.030197,170.662007 135.587806,166.746935 135.587806,161.917449 C135.587806,157.087963 132.030197,153.172891 127.641663,153.172891 C123.25313,153.172891 119.69552,157.087963 119.69552,161.917449 C119.69552,166.746935 123.25313,170.662007 127.641663,170.662007 Z M66.9995603,132.955063 C66.8209542,132.944952 66.642098,132.939893 66.4632059,132.939893 C61.2222659,132.939893 56.9736445,137.188515 56.9736445,142.429455 L56.9736445,155.190662 C56.9736445,159.820828 60.3151209,163.775023 64.8804283,164.547295 L90.274262,168.842942 C90.8625816,168.942463 91.458209,168.992486 92.0548867,168.992486 C97.9509443,168.992486 102.730643,164.212787 102.730643,158.316729 L102.730643,145.066319 C102.730643,139.404671 98.3108821,134.727627 92.6582855,134.407628 L66.9995603,132.955063 Z M68.9492686,136.864419 L89.7508008,138.023181 C94.3326449,138.278415 97.917203,142.06821 97.917203,146.657158 L97.917203,156.216177 C97.917203,160.991984 94.0456467,164.86354 89.2698401,164.86354 C88.7500685,164.86354 88.2313554,164.816677 87.7200001,164.72352 L67.1441124,160.975071 C63.4904525,160.309459 60.8352032,157.126783 60.8352032,153.412989 L60.8352032,144.539066 C60.8352032,140.293904 64.2765865,136.852521 68.521748,136.852521 C68.6643376,136.852521 68.8068997,136.856488 68.9492686,136.864419 Z M206.220186,88.6332938 C206.220186,87.6688225 205.636298,86.8003445 204.743151,86.436347 L199.025012,84.1059467 C198.882867,84.0480164 198.73083,84.018225 198.577334,84.018225 C197.922217,84.018225 197.391139,84.5493026 197.391139,85.2044201 L197.391139,103.030315 C197.391139,103.646697 197.863221,104.160372 198.477412,104.212294 L204.93407,104.758124 C204.967303,104.760934 205.00064,104.76234 205.033991,104.76234 C205.689109,104.76234 206.220186,104.231263 206.220186,103.576145 L206.220186,88.6332938 Z M209.031266,88.1839473 C208.889121,88.126017 208.737084,88.0962255 208.583588,88.0962255 C207.92847,88.0962255 207.397393,88.6273032 207.397393,89.2824207 L207.397393,103.876219 C207.397393,104.492601 207.869475,105.006276 208.483666,105.058199 L212.682479,105.413156 C212.715712,105.415965 212.749049,105.417372 212.7824,105.417372 C213.437518,105.417372 213.968595,104.886294 213.968595,104.231177 L213.968595,93.7441148 C213.968595,91.59869 212.66976,89.6667982 210.682994,88.8571013 L209.031266,88.1839473 Z M196.213933,84.5552932 C196.213933,83.5908219 195.630044,82.722344 194.736897,82.3583464 L188.430155,79.7880638 C188.28801,79.7301334 188.135973,79.700342 187.982477,79.700342 C187.327359,79.700342 186.796282,80.2314197 186.796282,80.8865372 L186.796282,102.134652 C186.796282,102.751034 187.268364,103.264709 187.882555,103.316631 L194.927816,103.91222 C194.961049,103.915029 194.994386,103.916436 195.027737,103.916436 C195.682855,103.916436 196.213933,103.385358 196.213933,102.730241 L196.213933,84.5552932 Z M185.619075,80.2374103 C185.619075,79.272939 185.035187,78.404461 184.14204,78.0404634 L172.8931,73.4560121 C172.750956,73.3980818 172.598919,73.3682903 172.445423,73.3682903 C171.790305,73.3682903 171.259227,73.899368 171.259227,74.5544855 L171.259227,100.821187 C171.259227,101.437569 171.73131,101.951244 172.345501,102.003166 L184.332959,103.016557 C184.366192,103.019366 184.399529,103.020773 184.43288,103.020773 C185.087998,103.020773 185.619075,102.489695 185.619075,101.834577 L185.619075,80.2374103 Z" id="bus-outline" fill="#8E2707"></path>
                    </g>
                </g>
                <g id="score_gretchen" transform="translate(285.000000, 246.000000)">
                    <g id="text" transform="translate(0.000000, 242.054608)" fill="#48751E">
                        <path d="M18.8574158,41.6466473 C18.5562885,41.6466473 18.3304464,41.5713666 18.1798828,41.420803 L18.1798828,56.0442246 C18.1798828,56.4959156 18.3304442,56.8723191 18.6315715,57.1734464 C18.9326988,57.4745737 19.3091023,57.6251351 19.7607932,57.6251351 C20.2124842,57.6251351 20.5888877,57.4745737 20.890015,57.1734464 C21.2287832,56.8346782 21.3981648,56.4582747 21.3981648,56.0442246 L21.3981648,41.6466473 L18.8574158,41.6466473 Z M19.7607932,17.4248407 C21.8310435,17.4248407 23.6001398,18.1776477 25.0681355,19.6832842 C26.573772,21.1512799 27.326579,22.9203762 27.326579,24.9906265 L27.326579,27.7007587 C27.326579,28.001886 27.2136579,28.2653684 26.9878124,28.4912139 C26.761967,28.7170594 26.4984845,28.8299804 26.1973572,28.8299804 L22.5273865,28.8299804 C22.2262592,28.8299804 21.9627768,28.7170594 21.7369313,28.4912139 C21.5110858,28.2653684 21.3981648,28.001886 21.3981648,27.7007587 L21.3981648,24.9906265 C21.3981648,24.5389355 21.2287832,24.1437119 20.890015,23.8049436 C20.5888877,23.5038163 20.2124842,23.3532549 19.7607932,23.3532549 C19.3843841,23.3532549 19.0079806,23.5038163 18.6315715,23.8049436 C18.3304442,24.1060709 18.1798828,24.5012946 18.1798828,24.9906265 L18.1798828,35.9440775 C18.4057282,35.7935138 18.6315703,35.7182331 18.8574158,35.7182331 L26.1973572,35.7182331 C26.4984845,35.7182331 26.761967,35.8311542 26.9878124,36.0569996 C27.2136579,36.2828451 27.326579,36.5463276 27.326579,36.8474549 L27.326579,62.4243275 C27.326579,62.7254548 27.2136579,62.9889373 26.9878124,63.2147828 C26.761967,63.4406282 26.4984845,63.5535493 26.1973572,63.5535493 L22.5273865,63.5535493 C22.2639001,63.5535493 22.0004177,63.4594484 21.7369313,63.2712439 C21.3981631,63.3465257 21.06881,63.4123963 20.7488623,63.4688577 C20.4289145,63.525319 20.0995614,63.5535493 19.7607932,63.5535493 C17.7281839,63.5535493 15.9590875,62.8195625 14.453451,61.3515669 C12.9854554,59.7706485 12.2514686,58.0015521 12.2514686,56.0442246 L12.2514686,24.9906265 C12.2514686,22.9203762 12.9854554,21.1512799 14.453451,19.6832842 C15.9590875,18.1776477 17.7281839,17.4248407 19.7607932,17.4248407 Z M33.8190166,63.5535493 C33.5178893,63.5535493 33.2544069,63.4406282 33.0285614,63.2147828 C32.8027159,62.9889373 32.6897948,62.7254548 32.6897948,62.4243275 L32.6897948,18.5540625 C32.6897948,18.2529352 32.8027159,17.9894527 33.0285614,17.7636073 C33.2544069,17.5377618 33.5178893,17.4248407 33.8190166,17.4248407 L41.1024969,17.4248407 C42.9092607,17.4248407 44.4713352,18.0835468 45.7887672,19.4009788 C47.1061991,20.7184108 47.7649052,22.2616651 47.7649052,24.030788 L47.7649052,42.3241804 C47.7649052,44.1685851 47.1061991,45.7494798 45.7887672,47.0669117 C45.5252808,47.3303981 45.2147479,47.5750604 44.8571592,47.8009059 C44.4995705,48.0267513 44.1702175,48.2149531 43.8690902,48.3655167 C44.5089857,50.6616124 45.1676918,52.9576737 45.8452283,55.2537694 C46.5227647,57.5498651 47.1814708,59.8459264 47.8213663,62.1420221 C47.9342891,62.5184312 47.8872386,62.8477843 47.6802136,63.1300911 C47.4731886,63.412398 47.1626557,63.5535493 46.7486057,63.5535493 L42.9657128,63.5535493 C42.7398673,63.5535493 42.5234353,63.4688585 42.3164103,63.2994744 C42.1093853,63.1300903 41.9682339,62.9324785 41.8929521,62.706633 L38.618209,51.0756489 L38.618209,62.4243275 C38.618209,62.7254548 38.505288,62.9889373 38.2794425,63.2147828 C38.053597,63.4406282 37.7901146,63.5535493 37.4889873,63.5535493 L33.8190166,63.5535493 Z M38.618209,23.3532549 L38.618209,43.0017134 L41.1024969,43.0017134 C41.3283424,43.0017134 41.4977239,42.9452529 41.6106467,42.8323301 C41.7612103,42.6817665 41.836491,42.5123849 41.836491,42.3241804 L41.836491,24.030788 C41.836491,23.8802243 41.7612103,23.7296629 41.6106467,23.5790993 C41.460083,23.4285356 41.2907015,23.3532549 41.1024969,23.3532549 L38.618209,23.3532549 Z M59.0565353,35.7182331 L65.2107939,35.7182331 C65.5119212,35.7182331 65.7754036,35.8311542 66.0012491,36.0569996 C66.2270946,36.2828451 66.3400156,36.5463276 66.3400156,36.8474549 L66.3400156,40.5174256 C66.3400156,40.8185529 66.2270946,41.0820353 66.0012491,41.3078808 C65.7754036,41.5337263 65.5119212,41.6466473 65.2107939,41.6466473 L59.0565353,41.6466473 L59.0565353,57.6251351 L67.0740098,57.6251351 C67.3751371,57.6251351 67.6386195,57.7380561 67.864465,57.9639016 C68.0903105,58.1897471 68.2032315,58.4532295 68.2032315,58.7543568 L68.2032315,62.4243275 C68.2032315,62.7254548 68.0903105,62.9889373 67.864465,63.2147828 C67.6386195,63.4406282 67.3751371,63.5535493 67.0740098,63.5535493 L54.2573429,63.5535493 C53.9562156,63.5535493 53.6927331,63.4406282 53.4668876,63.2147828 C53.2410422,62.9889373 53.1281211,62.7254548 53.1281211,62.4243275 L53.1281211,18.5540625 C53.1281211,18.2529352 53.2410422,17.9894527 53.4668876,17.7636073 C53.6927331,17.5377618 53.9562156,17.4248407 54.2573429,17.4248407 L67.0740098,17.4248407 C67.3751371,17.4248407 67.6386195,17.5377618 67.864465,17.7636073 C68.0903105,17.9894527 68.2032315,18.2529352 68.2032315,18.5540625 L68.2032315,22.2240332 C68.2032315,22.5251605 68.0903105,22.7886429 67.864465,23.0144884 C67.6386195,23.2403339 67.3751371,23.3532549 67.0740098,23.3532549 L59.0565353,23.3532549 L59.0565353,35.7182331 Z M79.2690172,63.5535493 C78.9678899,63.5535493 78.7044075,63.4406282 78.478562,63.2147828 C78.2527165,62.9889373 78.1397955,62.7254548 78.1397955,62.4243275 L78.1397955,23.3532549 L74.6956691,23.3532549 C74.3945418,23.3532549 74.1310594,23.2403339 73.9052139,23.0144884 C73.6793684,22.7886429 73.5664474,22.5251605 73.5664474,22.2240332 L73.5664474,18.5540625 C73.5664474,18.2529352 73.6793684,17.9894527 73.9052139,17.7636073 C74.1310594,17.5377618 74.3945418,17.4248407 74.6956691,17.4248407 L87.512336,17.4248407 C87.8134633,17.4248407 88.0769458,17.5377618 88.3027912,17.7636073 C88.5286367,17.9894527 88.6415578,18.2529352 88.6415578,18.5540625 L88.6415578,22.2240332 C88.6415578,22.5251605 88.5286367,22.7886429 88.3027912,23.0144884 C88.0769458,23.2403339 87.8134633,23.3532549 87.512336,23.3532549 L84.0117486,23.3532549 L84.0117486,62.4243275 C84.0117486,62.7254548 83.8988275,62.9889373 83.6729821,63.2147828 C83.4471366,63.4406282 83.1836541,63.5535493 82.8825268,63.5535493 L79.2690172,63.5535493 Z M101.514098,17.4248407 C103.584349,17.4248407 105.353445,18.1776477 106.821441,19.6832842 C108.327077,21.1512799 109.079884,22.9203762 109.079884,24.9906265 L109.079884,27.7007587 C109.079884,28.001886 108.966963,28.2653684 108.741118,28.4912139 C108.515272,28.7170594 108.25179,28.8299804 107.950662,28.8299804 L104.280692,28.8299804 C103.979564,28.8299804 103.716082,28.7170594 103.490236,28.4912139 C103.264391,28.2653684 103.15147,28.001886 103.15147,27.7007587 L103.15147,24.9906265 C103.15147,24.5389355 102.982088,24.1437119 102.64332,23.8049436 C102.342193,23.5038163 101.965789,23.3532549 101.514098,23.3532549 C101.137689,23.3532549 100.761286,23.5038163 100.384877,23.8049436 C100.083749,24.1060709 99.9331879,24.5012946 99.9331879,24.9906265 L99.9331879,56.0442246 C99.9331879,56.4959156 100.083749,56.8723191 100.384877,57.1734464 C100.686004,57.4745737 101.062407,57.6251351 101.514098,57.6251351 C101.965789,57.6251351 102.342193,57.4745737 102.64332,57.1734464 C102.982088,56.8346782 103.15147,56.4582747 103.15147,56.0442246 L103.15147,53.2776313 C103.15147,52.976504 103.264391,52.7130216 103.490236,52.4871761 C103.716082,52.2613306 103.979564,52.1484096 104.280692,52.1484096 L107.950662,52.1484096 C108.25179,52.1484096 108.515272,52.2613306 108.741118,52.4871761 C108.966963,52.7130216 109.079884,52.976504 109.079884,53.2776313 L109.079884,56.0442246 C109.079884,58.076834 108.327077,59.8459303 106.821441,61.3515669 C105.353445,62.8195625 103.584349,63.5535493 101.514098,63.5535493 C99.481489,63.5535493 97.7123926,62.8195625 96.2067561,61.3515669 C94.7387605,59.7706485 94.0047737,58.0015521 94.0047737,56.0442246 L94.0047737,24.9906265 C94.0047737,22.9203762 94.7387605,21.1512799 96.2067561,19.6832842 C97.7123926,18.1776477 99.481489,17.4248407 101.514098,17.4248407 Z M128.388989,17.4248407 C128.690116,17.4248407 128.953598,17.5377618 129.179444,17.7636073 C129.405289,17.9894527 129.51821,18.2529352 129.51821,18.5540625 L129.51821,62.4243275 C129.51821,62.7254548 129.405289,62.9889373 129.179444,63.2147828 C128.953598,63.4406282 128.690116,63.5535493 128.388989,63.5535493 L124.719018,63.5535493 C124.417891,63.5535493 124.154408,63.4406282 123.928563,63.2147828 C123.702717,62.9889373 123.589796,62.7254548 123.589796,62.4243275 L123.589796,41.6466473 L120.371514,41.6466473 L120.371514,62.4243275 C120.371514,62.7254548 120.258593,62.9889373 120.032748,63.2147828 C119.806902,63.4406282 119.54342,63.5535493 119.242292,63.5535493 L115.572322,63.5535493 C115.271194,63.5535493 115.007712,63.4406282 114.781866,63.2147828 C114.556021,62.9889373 114.4431,62.7254548 114.4431,62.4243275 L114.4431,18.5540625 C114.4431,18.2529352 114.556021,17.9894527 114.781866,17.7636073 C115.007712,17.5377618 115.271194,17.4248407 115.572322,17.4248407 L119.242292,17.4248407 C119.54342,17.4248407 119.806902,17.5377618 120.032748,17.7636073 C120.258593,17.9894527 120.371514,18.2529352 120.371514,18.5540625 L120.371514,35.7182331 L123.589796,35.7182331 L123.589796,18.5540625 C123.589796,18.2529352 123.702717,17.9894527 123.928563,17.7636073 C124.154408,17.5377618 124.417891,17.4248407 124.719018,17.4248407 L128.388989,17.4248407 Z M140.80984,35.7182331 L146.964099,35.7182331 C147.265226,35.7182331 147.528709,35.8311542 147.754554,36.0569996 C147.9804,36.2828451 148.093321,36.5463276 148.093321,36.8474549 L148.093321,40.5174256 C148.093321,40.8185529 147.9804,41.0820353 147.754554,41.3078808 C147.528709,41.5337263 147.265226,41.6466473 146.964099,41.6466473 L140.80984,41.6466473 L140.80984,57.6251351 L148.827315,57.6251351 C149.128442,57.6251351 149.391925,57.7380561 149.61777,57.9639016 C149.843616,58.1897471 149.956537,58.4532295 149.956537,58.7543568 L149.956537,62.4243275 C149.956537,62.7254548 149.843616,62.9889373 149.61777,63.2147828 C149.391925,63.4406282 149.128442,63.5535493 148.827315,63.5535493 L136.010648,63.5535493 C135.709521,63.5535493 135.446038,63.4406282 135.220193,63.2147828 C134.994347,62.9889373 134.881426,62.7254548 134.881426,62.4243275 L134.881426,18.5540625 C134.881426,18.2529352 134.994347,17.9894527 135.220193,17.7636073 C135.446038,17.5377618 135.709521,17.4248407 136.010648,17.4248407 L148.827315,17.4248407 C149.128442,17.4248407 149.391925,17.5377618 149.61777,17.7636073 C149.843616,17.9894527 149.956537,18.2529352 149.956537,18.5540625 L149.956537,22.2240332 C149.956537,22.5251605 149.843616,22.7886429 149.61777,23.0144884 C149.391925,23.2403339 149.128442,23.3532549 148.827315,23.3532549 L140.80984,23.3532549 L140.80984,35.7182331 Z M156.448974,63.5535493 C156.147847,63.5535493 155.884364,63.4406282 155.658519,63.2147828 C155.432674,62.9889373 155.319752,62.7254548 155.319752,62.4243275 L155.319752,18.5540625 C155.319752,18.2529352 155.432674,17.9894527 155.658519,17.7636073 C155.884364,17.5377618 156.147847,17.4248407 156.448974,17.4248407 L160.118945,17.4248407 C160.7212,17.4248407 161.097603,17.7259635 161.248167,18.3282181 L164.466449,33.6291729 L164.466449,18.5540625 C164.466449,18.2529352 164.57937,17.9894527 164.805215,17.7636073 C165.031061,17.5377618 165.294543,17.4248407 165.59567,17.4248407 L169.265641,17.4248407 C169.566768,17.4248407 169.830251,17.5377618 170.056096,17.7636073 C170.281942,17.9894527 170.394863,18.2529352 170.394863,18.5540625 L170.394863,62.4243275 C170.394863,62.7254548 170.281942,62.9889373 170.056096,63.2147828 C169.830251,63.4406282 169.566768,63.5535493 169.265641,63.5535493 L165.539209,63.5535493 C164.936955,63.5535493 164.560551,63.2524265 164.409988,62.6501719 L161.248167,47.3492172 L161.248167,62.4243275 C161.248167,62.7254548 161.135246,62.9889373 160.9094,63.2147828 C160.683555,63.4406282 160.420072,63.5535493 160.118945,63.5535493 L156.448974,63.5535493 Z" id="text-outlines"></path>
                    </g>
                    <g id="bus_left" transform="translate(10.125000, 0.000000)" fill-rule="nonzero">
                        <ellipse id="Oval" stroke="#48751E" stroke-width="5.203125" stroke-linecap="round" stroke-linejoin="round" transform="translate(117.187500, 117.064846) scale(-1, 1) translate(-117.187500, -117.064846) " cx="117.1875" cy="117.064846" rx="117.1875" ry="117.064846"></ellipse>
                        <path d="M174.304864,167.746672 C173.614842,168.320264 172.735029,168.606999 171.847622,168.560396 C171.036444,180.512464 168.261165,189.317064 164.96226,189.317064 L152.136907,189.317064 C151.320118,189.317064 150.535428,188.777317 149.804703,187.783689 L138.604751,197.028713 C137.785417,197.705034 136.701365,197.978385 135.655245,197.772451 L21.7650269,175.352588 C20.1123123,175.027243 18.921875,173.590791 18.921875,171.921873 L18.921875,92.2024854 C18.921875,91.9345829 18.9529505,91.6675673 19.0144903,91.4066905 L24.8594673,66.6289161 C29.0879966,57.2862488 35.4478003,51.2912313 43.9388785,48.6438637 C68.5316646,44.2629303 86.8170209,42.1295286 117.858035,37.015439 C124.945171,35.849498 129.333253,35.849498 135.583255,38.8179082 C159.34644,53.5158526 181.297027,67.470529 203.229572,81.7060789 C204.484198,82.9442977 206.204745,85.3286312 206.421875,89.3649439 L206.421875,139.41811 C206.421875,140.4519 205.960153,141.432739 205.16065,142.097338 L202.570413,144.250511 C202.148117,150.730179 200.699476,155.504773 198.977328,155.504773 L192.285839,155.504773 C191.726826,155.504773 191.196631,155.00169 190.721004,154.10051 L174.304864,167.746672 Z M42.8834853,55.9851465 C41.9049574,56.1297577 41.1188461,56.8663251 40.9109307,57.8333828 L39.8273896,62.8731578 C39.7743288,63.1199543 39.7609974,63.3736378 39.7878984,63.6246364 C39.927524,64.9274105 41.09682,65.8703287 42.3995942,65.7307031 L82.4741732,61.4356857 C83.5832768,61.3168168 84.4597714,60.4413502 84.5799416,59.3323868 L85.2965364,52.719458 C85.3182616,52.5189716 85.3143358,52.3165334 85.2848538,52.1170401 C85.0933019,50.8208829 83.8872753,49.9254233 82.591118,50.1169752 L42.8834853,55.9851465 Z M91.9338065,49.0207604 C90.868734,49.1609104 90.0307533,49.9992556 89.8910664,51.0643889 L89.0530089,57.4547032 C89.0288697,57.6387681 89.0264184,57.8250303 89.0457055,58.0096667 C89.1818315,59.3128111 90.3485907,60.2588665 91.6517352,60.1227405 L113.277723,57.8636978 C114.363891,57.750237 115.232287,56.9099496 115.381413,55.8281011 L116.345428,48.83455 C116.374391,48.6244319 116.375046,48.4113786 116.347374,48.2010865 C116.176437,46.9020498 114.984788,45.9875441 113.685752,46.1584808 L91.9338065,49.0207604 Z M65.8255644,90.0979081 L68.4261206,75.1058281 C68.4819197,74.7841487 68.491985,74.4563171 68.4560236,74.1318741 C68.2431809,72.2116161 66.4989207,70.8258314 64.5601093,71.0366373 L31.5300575,74.6279761 C30.538933,74.7357405 29.7238164,75.4501607 29.4952594,76.411403 L25.7726876,92.0674223 L65.8255644,90.0979081 Z M65.6622391,92.661801 L25.5149063,94.4628339 L25.8857198,109.178351 C25.9174168,110.436227 26.9509874,111.442352 28.2213746,111.451985 L62.5283367,111.712127 C62.5692815,111.712438 62.6102286,111.712043 62.6511596,111.710943 C64.6009014,111.658548 66.1385948,110.050622 66.085694,108.119538 L65.6622391,92.661801 Z M122.84471,87.2941142 L124.549264,71.512311 C124.582536,71.2042571 124.584734,70.8936861 124.555823,70.5852007 C124.315467,68.0204993 122.02143,66.1343808 119.431949,66.372437 L77.4518549,70.2317515 C75.906739,70.3737971 74.6362544,71.4981403 74.3205167,73.0028979 L70.7847013,89.8540532 L122.84471,87.2941142 Z M122.651716,90.1052196 L70.6734944,92.4369931 L71.591709,108.190853 C71.6994244,110.038932 73.2423138,111.483887 75.1113523,111.487087 L118.1932,111.56086 C118.21989,111.560906 118.24658,111.560727 118.273267,111.560323 C120.873576,111.52098 122.949341,109.401291 122.909617,106.825865 L122.651716,90.1052196 Z M28.7625843,157.836655 C31.525735,157.836655 33.7657112,154.965602 33.7657112,151.423979 C33.7657112,147.882356 31.525735,145.011303 28.7625843,145.011303 C25.9994335,145.011303 23.7594573,147.882356 23.7594573,151.423979 C23.7594573,154.965602 25.9994335,157.836655 28.7625843,157.836655 Z M117.641663,170.662007 C122.030197,170.662007 125.587806,166.746935 125.587806,161.917449 C125.587806,157.087963 122.030197,153.172891 117.641663,153.172891 C113.25313,153.172891 109.69552,157.087963 109.69552,161.917449 C109.69552,166.746935 113.25313,170.662007 117.641663,170.662007 Z M56.9995603,132.955063 C56.8209542,132.944952 56.642098,132.939893 56.4632059,132.939893 C51.2222659,132.939893 46.9736445,137.188515 46.9736445,142.429455 L46.9736445,155.190662 C46.9736445,159.820828 50.3151209,163.775023 54.8804283,164.547295 L80.274262,168.842942 C80.8625816,168.942463 81.458209,168.992486 82.0548867,168.992486 C87.9509443,168.992486 92.7306433,164.212787 92.7306433,158.316729 L92.7306433,145.066319 C92.7306433,139.404671 88.3108821,134.727627 82.6582855,134.407628 L56.9995603,132.955063 Z M58.9492686,136.864419 L79.7508008,138.023181 C84.3326449,138.278415 87.917203,142.06821 87.917203,146.657158 L87.917203,156.216177 C87.917203,160.991984 84.0456467,164.86354 79.2698401,164.86354 C78.7500685,164.86354 78.2313554,164.816677 77.7200001,164.72352 L57.1441124,160.975071 C53.4904525,160.309459 50.8352032,157.126783 50.8352032,153.412989 L50.8352032,144.539066 C50.8352032,140.293904 54.2765865,136.852521 58.521748,136.852521 C58.6643376,136.852521 58.8068997,136.856488 58.9492686,136.864419 Z M196.220186,88.6332938 C196.220186,87.6688225 195.636298,86.8003445 194.743151,86.436347 L189.025012,84.1059467 C188.882867,84.0480164 188.73083,84.018225 188.577334,84.018225 C187.922217,84.018225 187.391139,84.5493026 187.391139,85.2044201 L187.391139,103.030315 C187.391139,103.646697 187.863221,104.160372 188.477412,104.212294 L194.93407,104.758124 C194.967303,104.760934 195.00064,104.76234 195.033991,104.76234 C195.689109,104.76234 196.220186,104.231263 196.220186,103.576145 L196.220186,88.6332938 Z M199.031266,88.1839473 C198.889121,88.126017 198.737084,88.0962255 198.583588,88.0962255 C197.92847,88.0962255 197.397393,88.6273032 197.397393,89.2824207 L197.397393,103.876219 C197.397393,104.492601 197.869475,105.006276 198.483666,105.058199 L202.682479,105.413156 C202.715712,105.415965 202.749049,105.417372 202.7824,105.417372 C203.437518,105.417372 203.968595,104.886294 203.968595,104.231177 L203.968595,93.7441148 C203.968595,91.59869 202.66976,89.6667982 200.682994,88.8571013 L199.031266,88.1839473 Z M186.213933,84.5552932 C186.213933,83.5908219 185.630044,82.722344 184.736897,82.3583464 L178.430155,79.7880638 C178.28801,79.7301334 178.135973,79.700342 177.982477,79.700342 C177.327359,79.700342 176.796282,80.2314197 176.796282,80.8865372 L176.796282,102.134652 C176.796282,102.751034 177.268364,103.264709 177.882555,103.316631 L184.927816,103.91222 C184.961049,103.915029 184.994386,103.916436 185.027737,103.916436 C185.682855,103.916436 186.213933,103.385358 186.213933,102.730241 L186.213933,84.5552932 Z M175.619075,80.2374103 C175.619075,79.272939 175.035187,78.404461 174.14204,78.0404634 L162.8931,73.4560121 C162.750956,73.3980818 162.598919,73.3682903 162.445423,73.3682903 C161.790305,73.3682903 161.259227,73.899368 161.259227,74.5544855 L161.259227,100.821187 C161.259227,101.437569 161.73131,101.951244 162.345501,102.003166 L174.332959,103.016557 C174.366192,103.019366 174.399529,103.020773 174.43288,103.020773 C175.087998,103.020773 175.619075,102.489695 175.619075,101.834577 L175.619075,80.2374103 Z" id="bus-outline" fill="#3E6817" transform="translate(112.671875, 117.064846) scale(-1, 1) translate(-112.671875, -117.064846) "></path>
                    </g>
                </g>
                <g id="header">
                    <g id="lines_r" transform="translate(1155.000000, 37.000000)" fill-rule="nonzero" stroke="#272727" stroke-linecap="round" stroke-linejoin="round" stroke-opacity="0.626075634" stroke-width="3.97350993">
                        <path d="M0.397350993,22.8 L119.602649,22.8" id="Line-2"></path>
                        <path d="M0.397350993,1.2 L83.8410596,1.2" id="Line-2"></path>
                        <path d="M0.794701987,43.7986755 L84.2384106,43.7986755" id="Line-2"></path>
                    </g>
                    <g id="text" fill="#A52E09">
                        <path d="M291.52,45.44 C292.240004,45.44 292.919997,45.1200032 293.56,44.48 C294.040002,44.1599984 294.28,43.600004 294.28,42.8 L294.28,19.4 C294.28,18.7599968 294.000003,18.1600028 293.44,17.6 C292.879997,17.0399972 292.240004,16.76 291.52,16.76 L285.04,16.76 L285.04,45.44 L291.52,45.44 Z M285.04,55.64 L285.04,92 L291.52,92 C292.320004,92 292.959998,91.7600024 293.44,91.28 C294.000003,90.7199972 294.28,90.0800036 294.28,89.36 L294.28,58.28 C294.28,57.5599964 294.000003,56.9200028 293.44,56.36 C292.959998,55.8799976 292.320004,55.64 291.52,55.64 L285.04,55.64 Z M304.48,42.8 C304.48,45.6800144 303.600009,48.2399888 301.84,50.48 C303.600009,52.7200112 304.48,55.3199852 304.48,58.28 L304.48,89.36 C304.48,92.960018 303.200013,95.959988 300.64,98.36 C298.079987,100.920013 295.040018,102.2 291.52,102.2 L276.04,102.2 C275.239996,102.2 274.84,101.800004 274.84,101 L274.84,7.76 C274.84,6.959996 275.239996,6.56 276.04,6.56 L291.52,6.56 C295.040018,6.56 298.079987,7.8399872 300.64,10.4 C303.200013,12.9600128 304.48,15.9599828 304.48,19.4 L304.48,42.8 Z M339.54,96.2 C340.100003,96.7600028 340.100003,97.3199972 339.54,97.88 C338.979997,98.4400028 338.580001,98.7999992 338.34,98.96 C337.619996,99.4400024 337.3,99.6400004 337.38,99.56 C334.499986,101.320009 331.740013,102.2 329.1,102.2 C325.09998,102.2 321.620015,100.760014 318.66,97.88 C315.779986,94.7599844 314.34,91.2800192 314.34,87.44 L314.34,52.52 C314.34,48.4399796 315.779986,44.9600144 318.66,42.08 C321.620015,39.1199852 325.09998,37.64 329.1,37.64 C333.18002,37.64 336.659986,39.1199852 339.54,42.08 C342.500015,44.9600144 343.98,48.4399796 343.98,52.52 L343.98,73.76 C343.98,74.560004 343.580004,74.96 342.78,74.96 L324.54,74.96 L324.54,87.44 C324.54,88.7200064 324.979996,89.7999956 325.86,90.68 C326.740004,91.5600044 327.819994,92 329.1,92 C329.980004,92 330.819996,91.7600024 331.62,91.28 L331.86,91.16 L332.34,90.68 C332.900003,90.1199972 333.459997,90.1199972 334.02,90.68 L339.54,96.2 Z M333.78,64.88 L333.78,52.52 C333.78,51.2399936 333.300005,50.1200048 332.34,49.16 C331.459996,48.2799956 330.380006,47.84 329.1,47.84 C327.819994,47.84 326.740004,48.2799956 325.86,49.16 C324.979996,50.0400044 324.54,51.1599932 324.54,52.52 L324.54,64.88 L333.78,64.88 Z M362.6,37.64 C363.160003,37.64 363.519999,37.9199972 363.68,38.48 C365.120007,37.9199972 366.679992,37.64 368.36,37.64 C369.960008,37.64 371.959988,38.0799956 374.36,38.96 L374.96,39.2 C376.96001,40.2400052 378.279997,41.1999956 378.92,42.08 C379.400002,42.6400028 379.360003,43.1999972 378.8,43.76 L373.28,49.16 C372.719997,49.7200028 372.160003,49.7200028 371.6,49.16 L370.64,48.44 C370.479999,48.44 370.320001,48.3600008 370.16,48.2 C369.999999,48.1199996 369.88,48.08 369.8,48.08 C369.479998,47.9199992 369.000003,47.84 368.36,47.84 C367.079994,47.84 366.000004,48.2799956 365.12,49.16 C364.639998,49.6400024 364.36,50.079998 364.28,50.48 L364.04,50.72 C363.879999,51.2000024 363.8,51.7999964 363.8,52.52 L363.8,101 C363.8,101.800004 363.400004,102.2 362.6,102.2 L354.8,102.2 C353.999996,102.2 353.6,101.800004 353.6,101 L353.6,38.84 C353.6,38.039996 353.999996,37.64 354.8,37.64 L362.6,37.64 Z M383.02,38.84 C383.02,38.039996 383.419996,37.64 384.22,37.64 L388.78,37.64 L388.78,19.4 C388.78,18.8399972 389.019998,18.4800008 389.5,18.32 L397.18,14.48 C397.580002,14.3199992 397.959998,14.339999 398.32,14.54 C398.680002,14.740001 398.86,15.0799976 398.86,15.56 L398.86,37.64 L403.3,37.64 C404.100004,37.64 404.5,38.039996 404.5,38.84 L404.5,46.64 C404.5,47.440004 404.100004,47.84 403.3,47.84 L398.86,47.84 L398.86,101 C398.86,101.800004 398.460004,102.2 397.66,102.2 L389.98,102.2 C389.179996,102.2 388.78,101.800004 388.78,101 L388.78,47.84 L384.22,47.84 C383.419996,47.84 383.02,47.440004 383.02,46.64 L383.02,38.84 Z M412.8,102.2 C411.999996,102.2 411.6,101.800004 411.6,101 L411.6,7.76 C411.6,6.959996 411.999996,6.56 412.8,6.56 L420.6,6.56 C421.400004,6.56 421.8,6.959996 421.8,7.76 L421.8,38.36 C423.240007,37.8799976 424.759992,37.64 426.36,37.64 C430.44002,37.64 433.919986,39.1199852 436.8,42.08 C439.760015,44.9600144 441.24,48.4399796 441.24,52.52 L441.24,101 C441.24,101.800004 440.840004,102.2 440.04,102.2 L432.24,102.2 C431.439996,102.2 431.04,101.800004 431.04,101 L431.04,52.52 C431.04,51.2399936 430.560005,50.1200048 429.6,49.16 C428.719996,48.2799956 427.640006,47.84 426.36,47.84 C425.079994,47.84 424.000004,48.2799956 423.12,49.16 C422.239996,50.0400044 421.8,51.1599932 421.8,52.52 L421.8,101 C421.8,101.800004 421.400004,102.2 420.6,102.2 L412.8,102.2 Z M480.74,101.36 C480.74,102.160004 480.340004,102.56 479.54,102.56 L471.74,102.56 C470.939996,102.56 470.54,102.160004 470.54,101.36 C469.739996,101.600001 468.960004,101.799999 468.2,101.96 C467.439996,102.120001 466.660004,102.2 465.86,102.2 C461.85998,102.2 458.380015,100.760014 455.42,97.88 C452.539986,94.7599844 451.1,91.2800192 451.1,87.44 C451.1,77.9999528 452.899982,71.2400204 456.5,67.16 C458.180008,65.3199908 460.179988,63.4400096 462.5,61.52 C464.820012,59.5999904 467.499985,57.6000104 470.54,55.52 L470.54,52.52 C470.54,51.2399936 470.060005,50.1200048 469.1,49.16 C468.219996,48.2799956 467.140006,47.84 465.86,47.84 C464.579994,47.84 463.500004,48.2799956 462.62,49.16 C461.739996,50.0400044 461.3,51.1599932 461.3,52.52 C461.3,53.320004 460.900004,53.72 460.1,53.72 L452.3,53.72 C451.499996,53.72 451.1,53.320004 451.1,52.52 C451.1,48.4399796 452.539986,44.9600144 455.42,42.08 C458.380015,39.1199852 461.85998,37.64 465.86,37.64 C469.94002,37.64 473.419986,39.1199852 476.3,42.08 C479.260015,44.9600144 480.74,48.4399796 480.74,52.52 L480.74,101.36 Z M470.54,67.88 C467.899987,69.9600104 465.780008,72.199988 464.18,74.6 C462.25999,77.400014 461.3,81.6799712 461.3,87.44 C461.3,88.7200064 461.739996,89.7999956 462.62,90.68 C463.500004,91.5600044 464.579994,92 465.86,92 C467.140006,92 468.219996,91.5600044 469.1,90.68 C470.060005,89.7199952 470.54,88.640006 470.54,87.44 L470.54,67.88 Z M530.58,102.2 C529.779996,102.2 529.38,101.800004 529.38,101 L529.38,16.76 L520.86,16.76 C520.059996,16.76 519.66,16.360004 519.66,15.56 L519.66,7.76 C519.66,6.959996 520.059996,6.56 520.86,6.56 L548.1,6.56 C548.900004,6.56 549.3,6.959996 549.3,7.76 L549.3,15.56 C549.3,16.360004 548.900004,16.76 548.1,16.76 L539.46,16.76 L539.46,101 C539.46,101.800004 539.060004,102.2 538.26,102.2 L530.58,102.2 Z M588.8,101.36 C588.8,102.160004 588.400004,102.56 587.6,102.56 L579.8,102.56 C578.999996,102.56 578.6,102.160004 578.6,101.36 C577.799996,101.600001 577.020004,101.799999 576.26,101.96 C575.499996,102.120001 574.720004,102.2 573.92,102.2 C569.91998,102.2 566.440015,100.760014 563.48,97.88 C560.599986,94.7599844 559.16,91.2800192 559.16,87.44 C559.16,77.9999528 560.959982,71.2400204 564.56,67.16 C566.240008,65.3199908 568.239988,63.4400096 570.56,61.52 C572.880012,59.5999904 575.559985,57.6000104 578.6,55.52 L578.6,52.52 C578.6,51.2399936 578.120005,50.1200048 577.16,49.16 C576.279996,48.2799956 575.200006,47.84 573.92,47.84 C572.639994,47.84 571.560004,48.2799956 570.68,49.16 C569.799996,50.0400044 569.36,51.1599932 569.36,52.52 C569.36,53.320004 568.960004,53.72 568.16,53.72 L560.36,53.72 C559.559996,53.72 559.16,53.320004 559.16,52.52 C559.16,48.4399796 560.599986,44.9600144 563.48,42.08 C566.440015,39.1199852 569.91998,37.64 573.92,37.64 C578.00002,37.64 581.479986,39.1199852 584.36,42.08 C587.320015,44.9600144 588.8,48.4399796 588.8,52.52 L588.8,101.36 Z M578.6,67.88 C575.959987,69.9600104 573.840008,72.199988 572.24,74.6 C570.31999,77.400014 569.36,81.6799712 569.36,87.44 C569.36,88.7200064 569.799996,89.7999956 570.68,90.68 C571.560004,91.5600044 572.639994,92 573.92,92 C575.200006,92 576.279996,91.5600044 577.16,90.68 C578.120005,89.7199952 578.6,88.640006 578.6,87.44 L578.6,67.88 Z M620.86,54.92 C622.94001,61.9600352 624.559994,69.3199616 625.72,77 C626.880006,84.6800384 627.939995,92.6399588 628.9,100.88 C628.98,101.280002 628.900001,101.599999 628.66,101.84 C628.419999,102.080001 628.100002,102.2 627.7,102.2 L619.9,102.2 C619.259997,102.2 618.860001,101.840004 618.7,101.12 C618.059997,95.5999724 617.360004,90.1800266 616.6,84.86 C615.839996,79.5399734 614.900006,74.2000268 613.78,68.84 L608.86,78.68 L608.86,101 C608.86,101.800004 608.460004,102.2 607.66,102.2 L599.86,102.2 C599.059996,102.2 598.66,101.800004 598.66,101 L598.66,7.76 C598.66,6.959996 599.059996,6.56 599.86,6.56 L607.66,6.56 C608.460004,6.56 608.86,6.959996 608.86,7.76 L608.86,56.36 C610.300007,53.4799856 611.779992,50.4600158 613.3,47.3 C614.820008,44.1399842 616.299993,41.160014 617.74,38.36 C617.900001,37.8799976 618.259997,37.64 618.82,37.64 L627.46,37.64 C627.940002,37.64 628.299999,37.8199982 628.54,38.18 C628.780001,38.5400018 628.780001,38.919998 628.54,39.32 L620.86,54.92 Z M663.36,96.2 C663.920003,96.7600028 663.920003,97.3199972 663.36,97.88 C662.799997,98.4400028 662.400001,98.7999992 662.16,98.96 C661.439996,99.4400024 661.12,99.6400004 661.2,99.56 C658.319986,101.320009 655.560013,102.2 652.92,102.2 C648.91998,102.2 645.440015,100.760014 642.48,97.88 C639.599986,94.7599844 638.16,91.2800192 638.16,87.44 L638.16,52.52 C638.16,48.4399796 639.599986,44.9600144 642.48,42.08 C645.440015,39.1199852 648.91998,37.64 652.92,37.64 C657.00002,37.64 660.479986,39.1199852 663.36,42.08 C666.320015,44.9600144 667.8,48.4399796 667.8,52.52 L667.8,73.76 C667.8,74.560004 667.400004,74.96 666.6,74.96 L648.36,74.96 L648.36,87.44 C648.36,88.7200064 648.799996,89.7999956 649.68,90.68 C650.560004,91.5600044 651.639994,92 652.92,92 C653.800004,92 654.639996,91.7600024 655.44,91.28 L655.68,91.16 L656.16,90.68 C656.720003,90.1199972 657.279997,90.1199972 657.84,90.68 L663.36,96.2 Z M657.6,64.88 L657.6,52.52 C657.6,51.2399936 657.120005,50.1200048 656.16,49.16 C655.279996,48.2799956 654.200006,47.84 652.92,47.84 C651.639994,47.84 650.560004,48.2799956 649.68,49.16 C648.799996,50.0400044 648.36,51.1599932 648.36,52.52 L648.36,64.88 L657.6,64.88 Z M733.86,38.84 C733.86,38.039996 734.259996,37.64 735.06,37.64 L739.62,37.64 L739.62,19.4 C739.62,18.8399972 739.859998,18.4800008 740.34,18.32 L748.02,14.48 C748.420002,14.3199992 748.799998,14.339999 749.16,14.54 C749.520002,14.740001 749.7,15.0799976 749.7,15.56 L749.7,37.64 L754.14,37.64 C754.940004,37.64 755.34,38.039996 755.34,38.84 L755.34,46.64 C755.34,47.440004 754.940004,47.84 754.14,47.84 L749.7,47.84 L749.7,101 C749.7,101.800004 749.300004,102.2 748.5,102.2 L740.82,102.2 C740.019996,102.2 739.62,101.800004 739.62,101 L739.62,47.84 L735.06,47.84 C734.259996,47.84 733.86,47.440004 733.86,46.64 L733.86,38.84 Z M763.64,102.2 C762.839996,102.2 762.44,101.800004 762.44,101 L762.44,7.76 C762.44,6.959996 762.839996,6.56 763.64,6.56 L771.44,6.56 C772.240004,6.56 772.64,6.959996 772.64,7.76 L772.64,38.36 C774.080007,37.8799976 775.599992,37.64 777.2,37.64 C781.28002,37.64 784.759986,39.1199852 787.64,42.08 C790.600015,44.9600144 792.08,48.4399796 792.08,52.52 L792.08,101 C792.08,101.800004 791.680004,102.2 790.88,102.2 L783.08,102.2 C782.279996,102.2 781.88,101.800004 781.88,101 L781.88,52.52 C781.88,51.2399936 781.400005,50.1200048 780.44,49.16 C779.559996,48.2799956 778.480006,47.84 777.2,47.84 C775.919994,47.84 774.840004,48.2799956 773.96,49.16 C773.079996,50.0400044 772.64,51.1599932 772.64,52.52 L772.64,101 C772.64,101.800004 772.240004,102.2 771.44,102.2 L763.64,102.2 Z M827.14,96.2 C827.700003,96.7600028 827.700003,97.3199972 827.14,97.88 C826.579997,98.4400028 826.180001,98.7999992 825.94,98.96 C825.219996,99.4400024 824.9,99.6400004 824.98,99.56 C822.099986,101.320009 819.340013,102.2 816.7,102.2 C812.69998,102.2 809.220015,100.760014 806.26,97.88 C803.379986,94.7599844 801.94,91.2800192 801.94,87.44 L801.94,52.52 C801.94,48.4399796 803.379986,44.9600144 806.26,42.08 C809.220015,39.1199852 812.69998,37.64 816.7,37.64 C820.78002,37.64 824.259986,39.1199852 827.14,42.08 C830.100015,44.9600144 831.58,48.4399796 831.58,52.52 L831.58,73.76 C831.58,74.560004 831.180004,74.96 830.38,74.96 L812.14,74.96 L812.14,87.44 C812.14,88.7200064 812.579996,89.7999956 813.46,90.68 C814.340004,91.5600044 815.419994,92 816.7,92 C817.580004,92 818.419996,91.7600024 819.22,91.28 L819.46,91.16 L819.94,90.68 C820.500003,90.1199972 821.059997,90.1199972 821.62,90.68 L827.14,96.2 Z M821.38,64.88 L821.38,52.52 C821.38,51.2399936 820.900005,50.1200048 819.94,49.16 C819.059996,48.2799956 817.980006,47.84 816.7,47.84 C815.419994,47.84 814.340004,48.2799956 813.46,49.16 C812.579996,50.0400044 812.14,51.1599932 812.14,52.52 L812.14,64.88 L821.38,64.88 Z M871.46,102.2 C870.659996,102.2 870.26,101.800004 870.26,101 L870.26,7.76 C870.26,6.959996 870.659996,6.56 871.46,6.56 L886.94,6.56 C890.460018,6.56 893.499987,7.8399872 896.06,10.4 C898.620013,12.9600128 899.9,15.9599828 899.9,19.4 L899.9,58.28 C899.9,61.8000176 898.620013,64.8399872 896.06,67.4 C894.539992,68.7600068 893.020008,69.7199972 891.5,70.28 C892.940007,75.4000256 894.379993,80.459975 895.82,85.46 C897.260007,90.460025 898.699993,95.5199744 900.14,100.64 C900.300001,101.040002 900.240001,101.399998 899.96,101.72 C899.679999,102.040002 899.340002,102.2 898.94,102.2 L890.9,102.2 C890.259997,102.2 889.860001,101.920003 889.7,101.36 L881.18,71.12 L880.46,71.12 L880.46,101 C880.46,101.800004 880.060004,102.2 879.26,102.2 L871.46,102.2 Z M880.46,16.76 L880.46,60.92 L886.94,60.92 C887.740004,60.92 888.379998,60.6800024 888.86,60.2 C889.420003,59.6399972 889.7,59.0000036 889.7,58.28 L889.7,19.4 C889.7,18.7599968 889.420003,18.1600028 888.86,17.6 C888.299997,17.0399972 887.660004,16.76 886.94,16.76 L880.46,16.76 Z M924.52,37.64 C928.60002,37.64 932.079986,39.1199852 934.96,42.08 C937.920015,44.9600144 939.4,48.4399796 939.4,52.52 L939.4,87.44 C939.4,91.44002 937.920015,94.9199852 934.96,97.88 C932.079986,100.760014 928.60002,102.2 924.52,102.2 C920.51998,102.2 917.040015,100.760014 914.08,97.88 C911.199986,94.7599844 909.76,91.2800192 909.76,87.44 L909.76,52.52 C909.76,48.4399796 911.199986,44.9600144 914.08,42.08 C917.040015,39.1199852 920.51998,37.64 924.52,37.64 Z M924.52,47.84 C923.239994,47.84 922.160004,48.2799956 921.28,49.16 C920.399996,50.0400044 919.96,51.1599932 919.96,52.52 L919.96,87.44 C919.96,88.7200064 920.399996,89.7999956 921.28,90.68 C922.160004,91.5600044 923.239994,92 924.52,92 C925.800006,92 926.879996,91.5600044 927.76,90.68 C928.720005,89.7199952 929.2,88.640006 929.2,87.44 L929.2,52.52 C929.2,51.2399936 928.720005,50.1200048 927.76,49.16 C926.879996,48.2799956 925.800006,47.84 924.52,47.84 Z M977.7,37.64 C978.500004,37.64 978.9,38.039996 978.9,38.84 L978.9,101 C978.9,101.800004 978.500004,102.2 977.7,102.2 L969.9,102.2 C969.259997,102.2 968.860001,101.920003 968.7,101.36 C967.259993,101.920003 965.700008,102.2 964.02,102.2 C960.01998,102.2 956.540015,100.760014 953.58,97.88 C950.699986,94.7599844 949.26,91.2800192 949.26,87.44 L949.26,38.84 C949.26,38.039996 949.659996,37.64 950.46,37.64 L958.26,37.64 C959.060004,37.64 959.46,38.039996 959.46,38.84 L959.46,87.44 C959.46,88.7200064 959.899996,89.7999956 960.78,90.68 C961.660004,91.5600044 962.739994,92 964.02,92 C965.300006,92 966.379996,91.5600044 967.26,90.68 C968.220005,89.7199952 968.7,88.640006 968.7,87.44 L968.7,38.84 C968.7,38.039996 969.099996,37.64 969.9,37.64 L977.7,37.64 Z M989.96,102.2 C989.159996,102.2 988.76,101.800004 988.76,101 L988.76,38.84 C988.76,38.039996 989.159996,37.64 989.96,37.64 L997.76,37.64 C998.320003,37.64 998.679999,37.9199972 998.84,38.48 C1000.28001,37.9199972 1001.83999,37.64 1003.52,37.64 C1007.60002,37.64 1011.07999,39.1199852 1013.96,42.08 C1016.92001,44.9600144 1018.4,48.4399796 1018.4,52.52 L1018.4,101 C1018.4,101.800004 1018,102.2 1017.2,102.2 L1009.4,102.2 C1008.6,102.2 1008.2,101.800004 1008.2,101 L1008.2,52.52 C1008.2,51.2399936 1007.72,50.1200048 1006.76,49.16 C1005.88,48.2799956 1004.80001,47.84 1003.52,47.84 C1002.23999,47.84 1001.16,48.2799956 1000.28,49.16 C999.399996,50.0400044 998.96,51.1599932 998.96,52.52 L998.96,101 C998.96,101.800004 998.560004,102.2 997.76,102.2 L989.96,102.2 Z M1043.02,37.64 C1044.70001,37.64 1046.25999,37.8799976 1047.7,38.36 L1047.7,7.76 C1047.7,6.959996 1048.1,6.56 1048.9,6.56 L1056.7,6.56 C1057.5,6.56 1057.9,6.959996 1057.9,7.76 L1057.9,101 C1057.9,101.800004 1057.5,102.2 1056.7,102.2 L1048.9,102.2 C1048.26,102.2 1047.86,101.920003 1047.7,101.36 C1046.25999,101.920003 1044.70001,102.2 1043.02,102.2 C1039.01998,102.2 1035.54001,100.760014 1032.58,97.88 C1029.69999,94.7599844 1028.26,91.2800192 1028.26,87.44 L1028.26,52.52 C1028.26,48.4399796 1029.69999,44.9600144 1032.58,42.08 C1035.54001,39.1199852 1039.01998,37.64 1043.02,37.64 Z M1043.02,47.84 C1041.73999,47.84 1040.66,48.2799956 1039.78,49.16 C1038.9,50.0400044 1038.46,51.1599932 1038.46,52.52 L1038.46,87.44 C1038.46,88.7200064 1038.9,89.7999956 1039.78,90.68 C1040.66,91.5600044 1041.73999,92 1043.02,92 C1044.30001,92 1045.38,91.5600044 1046.26,90.68 C1047.22,89.7199952 1047.7,88.640006 1047.7,87.44 L1047.7,52.52 C1047.7,51.2399936 1047.22,50.1200048 1046.26,49.16 C1045.38,48.2799956 1044.30001,47.84 1043.02,47.84 Z" id="text-outlines"></path>
                        <path d="M702.908606,72.2106342 C704.23668,74.4297566 705,77.0257278 705,79.799982 C705,79.8050287 704.999997,80.7478076 704.999997,82 C704.999992,84.4082153 705,87.3910127 705,87.4 C705,90.1742541 704.23668,92.7702254 702.908606,94.9893477 C702.276845,96.0024735 701.503977,96.9660232 700.59,97.88 C699.766651,98.7033488 698.894269,99.4090049 697.97285,99.9969693 C695.928148,101.26132 693.5526,102.041748 691.006035,102.178424 C690.731854,102.192392 690.454844,102.199578 690.175007,102.199982 C685.777411,102.192708 681.829641,100.267479 679.123479,97.2160886 C677.917691,95.7881401 677.003977,94.287183 676.382334,92.7132078 C675.848803,91.3265851 675.517987,89.8393542 675.42619,88.2878195 C675.420528,88.1921215 675.567489,88 675.645264,88 L685.284668,88 C685.395544,88 685.649945,88.2409335 685.671742,88.358428 C685.836233,89.2451314 686.248984,90.0189841 686.91,90.68 C687.790004,91.5600044 688.869994,92 690.15,92 C691.430006,92 692.509996,91.5600044 693.39,90.68 C694.350005,89.7199952 694.83,88.640006 694.83,87.44 L694.83,79.759982 C694.83,78.559976 694.350005,77.4799868 693.39,76.519982 C692.509996,75.6399776 691.430006,75.199982 690.15,75.199982 C685.61943,74.7524414 681.862549,72.7612305 679.055635,70.0646841 C678.46761,69.3977058 677.950176,68.7059274 677.503334,67.9893477 C676.17526,65.7702254 675.41194,63.1742541 675.41194,60.4 C675.41194,60.3949532 675.411943,59.4521743 675.411944,58.199982 C675.411948,55.7917666 675.41194,52.8089693 675.41194,52.799982 C675.41194,50.0257278 676.17526,47.4297566 677.503334,45.2106342 C678.135095,44.1975085 678.907964,43.2339588 679.82194,42.319982 C680.645289,41.4966331 681.517672,40.7909771 682.43909,40.2030127 C684.483792,38.938662 686.85934,38.1582342 689.405905,38.021558 C689.680086,38.00759 689.957097,38.0004039 690.236933,38 C694.634529,38.0072744 698.582299,39.9325029 701.288461,42.9838934 C702.49425,44.4118418 703.407964,45.9127989 704.029607,47.4867742 C704.554961,48.8521468 704.883766,50.3150676 704.981362,51.8408758 C704.988994,51.9601988 704.816985,52.199982 704.726196,52.199982 C700.467242,52.199982 697.261798,52.199982 695.109863,52.199982 C695.004079,52.199982 694.765824,51.9856761 694.747317,51.8808704 C694.587831,50.9777074 694.172708,50.1907494 693.50194,49.519982 C692.621936,48.6399776 691.541947,48.199982 690.26194,48.199982 C688.981934,48.199982 687.901945,48.6399776 687.02194,49.519982 C686.061936,50.4799868 685.58194,51.559976 685.58194,52.759982 L685.58194,60.44 C685.58194,61.640006 686.061936,62.7199952 687.02194,63.68 C687.901945,64.5600044 688.981934,65 690.26194,65 C694.792511,65.4475406 698.549392,67.4387515 701.356306,70.1352979 C701.944331,70.8022761 702.461764,71.4940545 702.908606,72.2106342 Z" id="s"></path>
                    </g>
                    <g id="lines_l" transform="translate(119.000000, 59.000000) scale(-1, 1) translate(-119.000000, -59.000000) translate(59.000000, 37.000000)" fill-rule="nonzero" stroke="#272727" stroke-linecap="round" stroke-linejoin="round" stroke-opacity="0.626075634" stroke-width="3.97350993">
                        <path d="M0.397350993,22.8 L119.602649,22.8" id="Line-2"></path>
                        <path d="M0.397350993,1.2 L83.8410596,1.2" id="Line-2"></path>
                        <path d="M0.794701987,43.7986755 L84.2384106,43.7986755" id="Line-2"></path>
                    </g>
                </g>
            </g>
        </g>
    </g>
</svg>