<?xml version="1.0" encoding="UTF-8"?>
<svg width="1226px" height="814px" viewBox="0 0 1226 814" version="1.1" xmlns="http://www.w3.org/2000/svg" xmlns:xlink="http://www.w3.org/1999/xlink">
    <!-- Generator: Sketch 51.3 (57544) - http://www.bohemiancoding.com/sketch -->
    <title>bus_game_win_card_gretchen</title>
    <desc>Created with Sketch.</desc>
    <defs></defs>
    <g id="Page-1" stroke="none" stroke-width="1" fill="none" fill-rule="evenodd">
        <g id="game_win_screen_gretchen" transform="translate(-290.000000, -228.000000)">
            <g id="bus_game_win_card_gretchen" transform="translate(235.000000, 219.000000)">
                <g id="button_play_next_round" transform="translate(57.000000, 777.000000)" fill-rule="nonzero" stroke="#272727" stroke-linecap="round" stroke-linejoin="round" stroke-opacity="0.626075634" stroke-width="3.97350993">
                    <g id="lines_r" transform="translate(852.000000, 0.000000)">
                        <path d="M0.397350993,22.8 L369.602649,22.8" id="Line-2"></path>
                        <path d="M0.397350993,1.2 L333.84106,1.2" id="Line-2"></path>
                        <path d="M0.794701987,43.7986755 L334.238411,43.7986755" id="Line-2"></path>
                    </g>
                    <g id="lines_l" transform="translate(185.000000, 22.500000) scale(-1, 1) translate(-185.000000, -22.500000) ">
                        <path d="M0.397350993,22.8 L369.602649,22.8" id="Line-2"></path>
                        <path d="M0.397350993,1.2 L333.84106,1.2" id="Line-2"></path>
                        <path d="M0.794701987,43.7986755 L334.238411,43.7986755" id="Line-2"></path>
                    </g>
                </g>
                <g id="bus" transform="translate(388.000000, 254.000000)">
                    <path d="M550.453784,308.895622 C550.88971,308.895622 551.271139,309.059118 551.598084,309.386115 C551.925028,309.713112 552.088498,310.094603 552.088498,310.530599 L552.088498,317.152257 C552.088498,317.806251 552.306458,318.351238 552.742384,318.787235 C553.17831,319.223231 553.723209,319.441225 554.377098,319.441225 C555.030986,319.441225 555.575886,319.223231 556.011811,318.787235 C556.502228,318.296739 556.747433,317.751752 556.747433,317.152257 L556.747433,293.363337 C556.747433,292.709343 556.502228,292.137107 556.011811,291.646611 C555.575886,291.210615 555.030986,290.99262 554.377098,290.99262 L550.453784,290.99262 C549.799895,290.99262 549.323109,290.761001 549.023409,290.297755 C548.72371,289.834509 548.710088,289.303147 548.982542,288.703652 L550.372048,285.2702 C551.298391,282.490724 552.197475,279.915661 553.069326,277.544932 C553.941178,275.174203 554.840262,272.599139 555.766604,269.819664 L545.140964,269.819664 C544.705038,269.819664 544.323609,269.656168 543.996664,269.329171 C543.66972,269.002174 543.50625,268.620683 543.50625,268.184687 L543.50625,262.871011 C543.50625,262.435014 543.66972,262.053524 543.996664,261.726526 C544.323609,261.399529 544.705038,261.236033 545.140964,261.236033 L563.694967,261.236033 C564.130893,261.236033 564.512322,261.399529 564.839267,261.726526 C565.166211,262.053524 565.329681,262.435014 565.329681,262.871011 L565.329681,268.593431 L560.016861,284.043967 C560.289314,284.316464 560.629876,284.588958 561.038557,284.861455 C561.447237,285.133953 561.787799,285.406446 562.060253,285.678944 C564.239882,287.804425 565.329681,290.365864 565.329681,293.363337 L565.329681,317.152257 C565.329681,320.095231 564.239882,322.65667 562.060253,324.836651 C559.935114,326.962132 557.374088,328.024856 554.377098,328.024856 C551.434598,328.024856 548.873572,326.962132 546.693942,324.836651 C544.568803,322.547671 543.50625,319.986232 543.50625,317.152257 L543.50625,310.530599 C543.50625,310.094603 543.66972,309.713112 543.996664,309.386115 C544.323609,309.059118 544.705038,308.895622 545.140964,308.895622 L550.453784,308.895622 Z M583.114006,328.740159 C583.023188,329.103489 582.796146,329.285151 582.432875,329.285151 L580.2192,329.285151 C579.992155,329.285151 579.810522,329.205674 579.674295,329.046717 C579.538068,328.88776 579.49266,328.694744 579.538069,328.467663 L585.838529,297.573404 C585.929347,297.210074 586.156388,297.028412 586.51966,297.028412 L588.665222,297.028412 C588.892266,297.028412 589.073899,297.107889 589.210126,297.266846 C589.346353,297.425803 589.391761,297.618819 589.346352,297.8459 L583.114006,328.740159 Z M599.80171,319.100605 C599.983346,319.100605 600.142274,319.168729 600.278501,319.304977 C600.414728,319.441226 600.482841,319.600181 600.482841,319.781846 L600.482841,322.54087 C600.482841,322.813367 600.573657,323.040445 600.755293,323.22211 C600.936929,323.403776 601.16397,323.494607 601.436424,323.494607 C601.708877,323.494607 601.935919,323.403776 602.117554,323.22211 C602.321895,323.017737 602.424063,322.790659 602.424063,322.54087 L602.424063,312.62882 C602.424063,312.356322 602.321895,312.117891 602.117554,311.913517 C601.935919,311.731852 601.708877,311.641021 601.436424,311.641021 L599.80171,311.641021 C599.529256,311.641021 599.330595,311.544513 599.20572,311.351494 C599.080846,311.158475 599.07517,310.937074 599.188692,310.687284 L599.767653,309.256679 C600.153629,308.098565 600.528247,307.025621 600.891519,306.037818 C601.254791,305.050014 601.629409,303.977071 602.015385,302.818956 L597.588035,302.818956 C597.406399,302.818956 597.24747,302.750833 597.111243,302.614584 C596.975016,302.478335 596.906904,302.319381 596.906904,302.137716 L596.906904,299.923684 C596.906904,299.742019 596.975016,299.583064 597.111243,299.446815 C597.24747,299.310567 597.406399,299.242443 597.588035,299.242443 L605.318869,299.242443 C605.500505,299.242443 605.659434,299.310567 605.795661,299.446815 C605.931888,299.583064 606,299.742019 606,299.923684 L606,302.308026 L603.786325,308.745749 C603.899847,308.85929 604.041748,308.972829 604.212032,309.086369 C604.382315,309.19991 604.524216,309.313449 604.637738,309.426989 C605.545917,310.312607 606,311.379873 606,312.62882 L606,322.54087 C606,323.767109 605.545917,324.834375 604.637738,325.7427 C603.752264,326.628318 602.68517,327.07112 601.436424,327.07112 C600.210382,327.07112 599.143288,326.628318 598.235109,325.7427 C597.349634,324.788959 596.906904,323.721693 596.906904,322.54087 L596.906904,319.781846 C596.906904,319.600181 596.975016,319.441226 597.111243,319.304977 C597.24747,319.168729 597.406399,319.100605 597.588035,319.100605 L599.80171,319.100605 Z" id="3of3_green" fill="#48751E"></path>
                    <path d="M138.710199,311.020949 L99.8451257,278.734678 C98.7190821,280.866836 97.4638511,282.057108 96.1403923,282.057108 L80.2983488,282.057108 C76.2211767,282.057108 72.7915323,270.760612 71.79175,255.429979 L65.6593857,250.335657 C63.7665684,248.763243 62.6734453,246.442618 62.6734453,243.996712 L62.6734453,125.572937 C63.1874995,116.023184 67.2608794,110.381947 70.2311948,107.452371 C122.156313,73.7716336 174.124143,40.7554313 230.383284,5.98068675 C245.180111,-1.04245229 255.56886,-1.04245229 272.347594,1.71611732 C345.836936,13.8158473 389.127364,18.8633897 447.350579,29.2285016 C467.453135,35.4920667 482.509917,49.6760367 492.520925,71.7804114 L506.358859,130.403628 C506.504554,131.020852 506.578125,131.6526 506.578125,132.286446 L506.578125,320.899306 C506.578125,324.847899 503.759775,328.246487 499.846987,329.01624 L230.212848,382.060733 C227.736169,382.547964 225.169684,381.901227 223.229919,380.301079 L196.714126,358.427725 C194.984139,360.778609 193.126394,362.055627 191.192653,362.055627 L160.828736,362.055627 C153.018606,362.055627 146.448157,341.224299 144.5277,312.946188 C142.426772,313.056448 140.343822,312.378044 138.710199,311.020949 Z M450.423103,46.6824382 L354.770848,32.5556676 C352.159323,32.1699744 349.729597,33.9743682 349.343903,36.585894 C349.284546,36.987799 349.276671,37.3956317 349.320466,37.7995288 L351.205541,55.1842495 C351.447814,57.4185639 353.213891,59.1823256 355.448521,59.4216685 L452.144732,69.7784381 C454.769572,70.059575 457.125332,68.1596277 457.406469,65.5347871 C457.460646,65.0289702 457.433728,64.5177477 457.326734,64.0204168 L454.397702,50.405697 C453.978551,48.4573983 452.394594,46.9736055 450.423103,46.6824382 Z M334.359882,30.2039769 L281.137637,23.2051373 C278.520317,22.8609541 276.119544,24.7036956 275.775361,27.3210156 C275.719642,27.7447216 275.720998,28.1739863 275.779391,28.597332 L278.300233,46.8732211 C278.600877,49.05286 280.350612,50.7456974 282.538995,50.9741472 L335.445064,56.4971198 C338.07065,56.7712101 340.421301,54.8649463 340.695392,52.2393605 C340.734229,51.8673272 340.729262,51.4920209 340.680592,51.1211458 L338.475927,34.3211237 C338.194308,32.1751227 336.505808,30.4861707 334.359882,30.2039769 Z M395.534033,127.307101 L490.358883,131.966892 L481.545726,94.9253813 C481.004619,92.6511207 479.074837,90.9608313 476.728359,90.7058651 L398.529988,82.2089021 C393.939868,81.7101439 389.810346,84.9888547 389.306443,89.5321076 C389.221305,90.2997269 389.245134,91.0753631 389.377238,91.8364437 L395.534033,127.307101 Z M395.920704,133.373168 L394.918179,169.945551 C394.792936,174.514417 398.433413,178.318708 403.04941,178.442671 C403.146314,178.445274 403.243256,178.446208 403.340192,178.445473 L484.561638,177.829987 C487.569269,177.807195 490.016238,175.426744 490.091281,172.450661 L490.969179,137.63434 L395.920704,133.373168 Z M260.541684,120.673438 L383.793318,126.73015 L375.422305,86.8609955 C374.674798,83.3007997 371.666937,80.640649 368.008888,80.3045748 L268.621367,71.1735922 C262.490791,70.6103607 257.059679,75.0728412 256.490637,81.1408213 C256.422192,81.8706854 256.427394,82.6054838 256.506165,83.3343269 L260.541684,120.673438 Z M260.998594,127.3244 L260.388016,166.884774 C260.29397,172.978127 265.208326,177.993225 271.364535,178.08631 C271.406656,178.086947 305.468481,178.02919 373.550008,177.913037 C377.974941,177.905465 381.627719,174.486761 381.882734,170.114281 L384.056599,132.841282 L260.998594,127.3244 Z M483.280328,287.574248 C489.822064,287.574248 495.125189,280.781452 495.125189,272.402115 C495.125189,264.022777 489.822064,257.229982 483.280328,257.229982 C476.738592,257.229982 471.435467,264.022777 471.435467,272.402115 C471.435467,280.781452 476.738592,287.574248 483.280328,287.574248 Z M272.859853,317.918513 C283.24967,317.918513 291.67228,308.655611 291.67228,297.229241 C291.67228,285.802872 283.24967,276.539969 272.859853,276.539969 C262.470037,276.539969 254.047427,285.802872 254.047427,297.229241 C254.047427,308.655611 262.470037,317.918513 272.859853,317.918513 Z M419.966339,228.50531 L352.130993,232.343049 C340.74185,232.987382 331.836484,242.410803 331.836484,253.818158 L331.836484,293.149232 C331.836484,305.028572 341.466592,314.65868 353.345933,314.65868 C354.547351,314.65868 355.746657,314.558022 356.931268,314.357762 L424.23325,302.980257 C433.432327,301.425139 440.165796,293.457829 440.165796,284.12823 L440.165796,247.594296 C440.165796,237.034882 431.605699,228.474786 421.046286,228.474786 C420.686088,228.474786 420.325962,228.484965 419.966339,228.50531 Z M414.675974,237.795436 C414.962634,237.779478 415.249681,237.771494 415.536785,237.771494 C424.08991,237.771494 431.023588,244.705172 431.023588,253.258297 L431.023588,279.358471 C431.023588,286.841668 425.672878,293.254475 418.310698,294.594825 L363.77557,304.523429 C362.745926,304.710885 361.701486,304.805184 360.654917,304.805184 C351.032652,304.805184 343.232264,297.004797 343.232264,287.382531 L343.232264,258.252393 C343.232264,249.006368 350.454775,241.370601 359.686506,240.856674 L414.675974,237.795436 Z M86.8258575,123.282562 L86.8258575,159.64946 C86.8258575,160.969387 87.8958695,162.039399 89.2157962,162.039399 C89.2829497,162.039399 89.3500733,162.036569 89.4169884,162.030915 L105.539807,160.668814 C106.777331,160.564264 107.728554,159.529291 107.728554,158.287358 L107.728554,115.108858 C107.728554,113.788931 106.658542,112.718919 105.338615,112.718919 C105.029534,112.718919 104.723388,112.778872 104.437138,112.895457 L89.8027802,118.855759 C88.0027436,119.588881 86.8258575,121.338957 86.8258575,123.282562 Z M80.7474152,122.543842 L75.923871,124.508382 C71.4237794,126.341186 68.4815642,130.716377 68.4815642,135.575389 L68.4815642,161.199239 C68.4815642,162.519165 69.5515762,163.589177 70.871503,163.589177 C70.9386564,163.589177 71.00578,163.586347 71.0726951,163.580694 L81.8500847,162.670189 C83.0876086,162.56564 84.0388313,161.530666 84.0388313,160.288734 L84.0388313,124.757243 C84.0388313,123.437316 82.9688193,122.367304 81.6488926,122.367304 C81.3398117,122.367304 81.0336652,122.427257 80.7474152,122.543842 Z M110.51558,113.634177 L110.51558,157.648085 C110.51558,158.968011 111.585592,160.038023 112.905519,160.038023 C112.972672,160.038023 113.039796,160.035193 113.106711,160.02954 L130.623042,158.54971 C131.860566,158.44516 132.811789,157.410187 132.811789,156.168255 L132.811789,104.892921 C132.811789,103.572994 131.741777,102.502982 130.42185,102.502982 C130.112769,102.502982 129.806623,102.562935 129.520373,102.67952 L113.492503,109.207374 C111.692466,109.940496 110.51558,111.690572 110.51558,113.634177 Z M135.598815,103.41824 L135.598815,155.528981 C135.598815,156.848908 136.668827,157.91892 137.988754,157.91892 C138.055907,157.91892 138.123031,157.916089 138.189946,157.910436 L167.406889,155.442105 C168.644413,155.337556 169.595635,154.302582 169.595635,153.06065 L169.595635,89.9115417 C169.595635,88.5916149 168.525623,87.5216029 167.205697,87.5216029 C166.896616,87.5216029 166.590469,87.5815559 166.304219,87.6981403 L138.575738,98.9914371 C136.775701,99.7245586 135.598815,101.474635 135.598815,103.41824 Z M183.053727,25.198907 L169.892523,33.5326172 C167.286795,33.400144 164.663821,33.3331031 162.025208,33.3331031 C77.7353304,33.3331031 9.40488368,101.746164 9.40488368,186.13795 C9.40488368,262.346109 65.1256178,325.524258 138.001951,337.060636 C138.621874,341.059674 139.332118,344.665665 140.132686,347.878624 C60.9669871,336.94435 0,268.933273 0,186.665377 C0,96.7818469 72.7770085,23.9168486 162.551998,23.9168486 C169.496216,23.9168486 176.33873,24.3528168 183.053727,25.198907 Z" id="Combined-Shape" fill="#3E6817" fill-rule="nonzero"></path>
                </g>
                <g id="header">
                    <g id="lines_r" transform="translate(1155.000000, 79.000000)" fill-rule="nonzero" stroke="#272727" stroke-linecap="round" stroke-linejoin="round" stroke-opacity="0.626075634" stroke-width="3.97350993">
                        <path d="M0.397350993,22.8 L119.602649,22.8" id="Line-2"></path>
                        <path d="M0.397350993,1.2 L83.8410596,1.2" id="Line-2"></path>
                        <path d="M0.794701987,43.7986755 L84.2384106,43.7986755" id="Line-2"></path>
                    </g>
                    <g id="text" fill="#3E6817">
                        <path d="M305.602,9.636 C311.450029,9.636 316.437979,11.7573121 320.566,16 C324.808688,20.1280206 326.93,25.1159708 326.93,30.964 L326.93,39.22 C326.93,40.3666724 326.356672,40.94 325.21,40.94 L314.03,40.94 C312.883328,40.94 312.31,40.3666724 312.31,39.22 L312.31,30.964 C312.31,29.1293242 311.622007,27.5240069 310.246,26.148 C308.98466,24.8866604 307.436676,24.256 305.602,24.256 C303.996659,24.256 302.448674,24.8866604 300.958,26.148 C299.69666,27.4093396 299.066,29.0146569 299.066,30.964 L299.066,125.564 C299.066,127.398676 299.69666,128.94666 300.958,130.208 C302.21934,131.46934 303.767324,132.1 305.602,132.1 C307.436676,132.1 308.98466,131.46934 310.246,130.208 C311.622007,128.831993 312.31,127.284009 312.31,125.564 L312.31,79.984 L302.85,79.984 C301.703328,79.984 301.13,79.4106724 301.13,78.264 L301.13,67.084 C301.13,65.9373276 301.703328,65.364 302.85,65.364 L325.21,65.364 C326.356672,65.364 326.93,65.9373276 326.93,67.084 L326.93,145 C326.93,146.146672 326.356672,146.72 325.21,146.72 L314.03,146.72 C313.112662,146.72 312.539334,146.318671 312.31,145.516 C310.24599,146.318671 308.010012,146.72 305.602,146.72 C299.868638,146.72 294.880688,144.656021 290.638,140.528 C286.509979,136.055978 284.446,131.068028 284.446,125.564 L284.446,30.964 C284.446,25.1159708 286.509979,20.1280206 290.638,16 C294.880688,11.7573121 299.868638,9.636 305.602,9.636 Z M345.266,146.72 C344.119328,146.72 343.546,146.146672 343.546,145 L343.546,11.356 C343.546,10.2093276 344.119328,9.636 345.266,9.636 L367.454,9.636 C372.499359,9.636 376.856648,11.4706483 380.526,15.14 C384.195352,18.8093517 386.03,23.1093087 386.03,28.04 L386.03,83.768 C386.03,88.8133586 384.195352,93.1706483 380.526,96.84 C378.347322,98.7893431 376.168678,100.165329 373.99,100.968 C376.05401,108.306703 378.11799,115.559297 380.182,122.726 C382.24601,129.892702 384.30999,137.145297 386.374,144.484 C386.603334,145.057336 386.517335,145.573331 386.116,146.032 C385.714665,146.490669 385.227336,146.72 384.654,146.72 L373.13,146.72 C372.212662,146.72 371.639334,146.318671 371.41,145.516 L359.198,102.172 L358.166,102.172 L358.166,145 C358.166,146.146672 357.592672,146.72 356.446,146.72 L345.266,146.72 Z M358.166,24.256 L358.166,87.552 L367.454,87.552 C368.600672,87.552 369.517997,87.2080034 370.206,86.52 C371.008671,85.7173293 371.41,84.8000052 371.41,83.768 L371.41,28.04 C371.41,27.1226621 371.008671,26.2626707 370.206,25.46 C369.403329,24.6573293 368.486005,24.256 367.454,24.256 L358.166,24.256 Z M417.266,65.364 L437.734,65.364 C438.880672,65.364 439.454,65.9373276 439.454,67.084 L439.454,78.264 C439.454,79.4106724 438.880672,79.984 437.734,79.984 L417.266,79.984 L417.266,132.1 L443.41,132.1 C444.556672,132.1 445.13,132.673328 445.13,133.82 L445.13,145 C445.13,146.146672 444.556672,146.72 443.41,146.72 L404.366,146.72 C403.219328,146.72 402.646,146.146672 402.646,145 L402.646,11.356 C402.646,10.2093276 403.219328,9.636 404.366,9.636 L443.41,9.636 C444.556672,9.636 445.13,10.2093276 445.13,11.356 L445.13,22.536 C445.13,23.6826724 444.556672,24.256 443.41,24.256 L417.266,24.256 L417.266,65.364 Z M477.398,146.72 C476.251328,146.72 475.678,146.146672 475.678,145 L475.678,24.256 L463.466,24.256 C462.319328,24.256 461.746,23.6826724 461.746,22.536 L461.746,11.356 C461.746,10.2093276 462.319328,9.636 463.466,9.636 L502.51,9.636 C503.656672,9.636 504.23,10.2093276 504.23,11.356 L504.23,22.536 C504.23,23.6826724 503.656672,24.256 502.51,24.256 L490.126,24.256 L490.126,145 C490.126,146.146672 489.552672,146.72 488.406,146.72 L477.398,146.72 Z M542.002,9.636 C547.850029,9.636 552.837979,11.7573121 556.966,16 C561.208688,20.1280206 563.33,25.1159708 563.33,30.964 L563.33,39.22 C563.33,40.3666724 562.756672,40.94 561.61,40.94 L550.43,40.94 C549.283328,40.94 548.71,40.3666724 548.71,39.22 L548.71,30.964 C548.71,29.1293242 548.022007,27.5240069 546.646,26.148 C545.38466,24.8866604 543.836676,24.256 542.002,24.256 C540.396659,24.256 538.848674,24.8866604 537.358,26.148 C536.09666,27.4093396 535.466,29.0146569 535.466,30.964 L535.466,125.564 C535.466,127.398676 536.09666,128.94666 537.358,130.208 C538.61934,131.46934 540.167324,132.1 542.002,132.1 C543.836676,132.1 545.38466,131.46934 546.646,130.208 C548.022007,128.831993 548.71,127.284009 548.71,125.564 L548.71,117.136 C548.71,115.989328 549.283328,115.416 550.43,115.416 L561.61,115.416 C562.756672,115.416 563.33,115.989328 563.33,117.136 L563.33,125.564 C563.33,131.297362 561.208688,136.285312 556.966,140.528 C552.837979,144.656021 547.850029,146.72 542.002,146.72 C536.268638,146.72 531.280688,144.656021 527.038,140.528 C522.909979,136.055978 520.846,131.068028 520.846,125.564 L520.846,30.964 C520.846,25.1159708 522.909979,20.1280206 527.038,16 C531.280688,11.7573121 536.268638,9.636 542.002,9.636 Z M620.71,9.636 C621.856672,9.636 622.43,10.2093276 622.43,11.356 L622.43,145 C622.43,146.146672 621.856672,146.72 620.71,146.72 L609.53,146.72 C608.383328,146.72 607.81,146.146672 607.81,145 L607.81,79.984 L594.566,79.984 L594.566,145 C594.566,146.146672 593.992672,146.72 592.846,146.72 L581.666,146.72 C580.519328,146.72 579.946,146.146672 579.946,145 L579.946,11.356 C579.946,10.2093276 580.519328,9.636 581.666,9.636 L592.846,9.636 C593.992672,9.636 594.566,10.2093276 594.566,11.356 L594.566,65.364 L607.81,65.364 L607.81,11.356 C607.81,10.2093276 608.383328,9.636 609.53,9.636 L620.71,9.636 Z M653.666,65.364 L674.134,65.364 C675.280672,65.364 675.854,65.9373276 675.854,67.084 L675.854,78.264 C675.854,79.4106724 675.280672,79.984 674.134,79.984 L653.666,79.984 L653.666,132.1 L679.81,132.1 C680.956672,132.1 681.53,132.673328 681.53,133.82 L681.53,145 C681.53,146.146672 680.956672,146.72 679.81,146.72 L640.766,146.72 C639.619328,146.72 639.046,146.146672 639.046,145 L639.046,11.356 C639.046,10.2093276 639.619328,9.636 640.766,9.636 L679.81,9.636 C680.956672,9.636 681.53,10.2093276 681.53,11.356 L681.53,22.536 C681.53,23.6826724 680.956672,24.256 679.81,24.256 L653.666,24.256 L653.666,65.364 Z M699.866,146.72 C698.719328,146.72 698.146,146.146672 698.146,145 L698.146,11.356 C698.146,10.2093276 698.719328,9.636 699.866,9.636 L711.046,9.636 C711.963338,9.636 712.536666,10.0946621 712.766,11.012 L726.01,73.792 L726.01,11.356 C726.01,10.2093276 726.583328,9.636 727.73,9.636 L738.91,9.636 C740.056672,9.636 740.63,10.2093276 740.63,11.356 L740.63,145 C740.63,146.146672 740.056672,146.72 738.91,146.72 L727.558,146.72 C726.640662,146.72 726.067334,146.261338 725.838,145.344 L712.766,82.048 L712.766,145 C712.766,146.146672 712.192672,146.72 711.046,146.72 L699.866,146.72 Z M814.282,9.636 C815.199338,9.636 815.772666,10.1519948 816.002,11.184 L827.698,93.744 C828.615338,87.2079673 829.561328,80.4427016 830.536,73.448 C831.510672,66.4532984 832.513995,59.4300353 833.546,52.378 C834.578005,45.3259647 835.581328,38.331368 836.556,31.394 C837.530672,24.456632 838.476662,17.7200327 839.394,11.184 C839.623334,10.1519948 840.196662,9.636 841.114,9.636 L853.326,9.636 C854.243338,9.636 854.816666,10.1519948 855.046,11.184 L866.57,93.228 C868.519343,79.4679312 870.468657,65.7940679 872.418,52.206 C874.367343,38.6179321 876.316657,24.9440688 878.266,11.184 C878.495334,10.1519948 879.068662,9.636 879.986,9.636 L891.338,9.636 C891.911336,9.636 892.369998,9.80799828 892.714,10.152 C893.058002,10.4960017 893.172667,10.9546638 893.058,11.528 L873.966,145.172 C873.736666,146.204005 873.163338,146.72 872.246,146.72 L861.066,146.72 C860.148662,146.72 859.575334,146.204005 859.346,145.172 L847.134,59.86 C845.184657,74.193405 843.17801,88.4119295 841.114,102.516 C839.04999,116.620071 837.043343,130.838595 835.094,145.172 C834.864666,146.204005 834.291338,146.72 833.374,146.72 L822.022,146.72 C821.104662,146.72 820.531334,146.204005 820.302,145.172 L801.382,11.528 C801.267333,10.9546638 801.381998,10.4960017 801.726,10.152 C802.070002,9.80799828 802.528664,9.636 803.102,9.636 L814.282,9.636 Z M948.134,146.72 C946.987328,146.72 946.414,146.146672 946.414,145 L946.414,11.356 C946.414,10.2093276 946.987328,9.636 948.134,9.636 L959.314,9.636 C960.231338,9.636 960.804666,10.0946621 961.034,11.012 L974.278,73.792 L974.278,11.356 C974.278,10.2093276 974.851328,9.636 975.998,9.636 L987.178,9.636 C988.324672,9.636 988.898,10.2093276 988.898,11.356 L988.898,145 C988.898,146.146672 988.324672,146.72 987.178,146.72 L975.826,146.72 C974.908662,146.72 974.335334,146.261338 974.106,145.344 L961.034,82.048 L961.034,145 C961.034,146.146672 960.460672,146.72 959.314,146.72 L948.134,146.72 Z M1033.722,43.864 C1032.57533,43.864 1032.002,43.2906724 1032.002,42.144 L1032.002,30.276 C1032.002,29.7026638 1031.77267,28.7853396 1031.314,27.524 C1031.19933,27.2946655 1031.142,27.1513336 1031.142,27.094 C1031.142,27.0366664 1030.97,26.778669 1030.626,26.32 C1030.39667,26.2053328 1030.16733,26.0333345 1029.938,25.804 C1029.70867,25.6893328 1029.47933,25.5173345 1029.25,25.288 C1028.67666,25.0586655 1028.07467,24.8293345 1027.444,24.6 C1026.81333,24.3706655 1026.326,24.256 1025.982,24.256 C1025.06466,24.256 1024.37667,24.4279983 1023.918,24.772 C1023.68867,24.8866672 1023.51667,24.944 1023.402,24.944 C1023.28733,25.0586672 1023.17267,25.116 1023.058,25.116 L1022.886,25.116 C1022.77133,25.2306672 1022.59933,25.3739991 1022.37,25.546 C1022.14067,25.7180009 1021.96867,25.8613328 1021.854,25.976 L1021.854,25.632 C1021.73933,25.8613345 1021.65333,26.0619991 1021.596,26.234 C1021.53867,26.4060009 1021.45267,26.5493328 1021.338,26.664 C1021.10867,26.8933345 1020.994,27.0653328 1020.994,27.18 C1020.42066,27.8680034 1020.134,28.8999931 1020.134,30.276 L1020.134,42.144 C1020.134,43.4053396 1020.22,44.8099923 1020.392,46.358 C1020.564,47.9060077 1020.76467,49.3106604 1020.994,50.572 C1021.45267,52.8653448 1022.31266,55.5026518 1023.574,58.484 C1024.72067,61.350681 1026.03933,64.0739871 1027.53,66.654 C1029.02067,69.2340129 1030.56866,71.8426535 1032.174,74.48 C1032.74734,75.5120052 1033.292,76.4866621 1033.808,77.404 C1034.324,78.3213379 1034.81133,79.1239966 1035.27,79.812 L1036.474,81.618 C1036.818,82.1340026 1037.10467,82.621331 1037.334,83.08 C1037.90734,83.9973379 1038.39466,84.9719948 1038.796,86.004 C1039.19734,87.0360052 1039.68466,88.0679948 1040.258,89.1 L1041.806,92.196 C1042.494,93.8013414 1043.096,95.4639914 1043.612,97.184 C1044.128,98.9040086 1044.67266,100.738657 1045.246,102.688 C1045.70467,104.408009 1046.02,106.242657 1046.192,108.192 C1046.364,110.141343 1046.45,112.14799 1046.45,114.212 L1046.45,126.252 C1046.45,129.118681 1045.93401,131.755988 1044.902,134.164 L1044.902,133.992 C1044.78733,134.336002 1044.61533,134.737331 1044.386,135.196 C1043.81266,136.113338 1043.182,137.145328 1042.494,138.292 C1041.806,139.438672 1041.06067,140.298664 1040.258,140.872 C1038.30866,142.706676 1036.13001,144.139995 1033.722,145.172 C1031.31399,146.204005 1028.73401,146.72 1025.982,146.72 C1023.11532,146.72 1020.47801,146.146672 1018.07,145 C1017.84067,144.885333 1017.64,144.799334 1017.468,144.742 C1017.296,144.684666 1016.92334,144.541334 1016.35,144.312 C1014.85933,143.623997 1013.25401,142.420009 1011.534,140.7 C1007.52065,136.686647 1005.514,131.870695 1005.514,126.252 L1005.514,114.212 C1005.514,113.065328 1006.08733,112.492 1007.234,112.492 L1018.414,112.492 C1019.56067,112.492 1020.134,113.065328 1020.134,114.212 L1020.134,126.252 C1020.134,127.857341 1020.70733,129.233328 1021.854,130.38 C1021.96867,130.494667 1022.08333,130.637999 1022.198,130.81 C1022.31267,130.982001 1022.65666,131.239998 1023.23,131.584 C1023.34467,131.698667 1023.45933,131.756 1023.574,131.756 L1023.746,131.756 C1024.434,131.985334 1025.17933,132.1 1025.982,132.1 C1027.70201,132.1 1029.13533,131.526672 1030.282,130.38 C1030.51133,130.150666 1030.712,129.978667 1030.884,129.864 C1031.056,129.749333 1031.142,129.577334 1031.142,129.348 C1031.142,129.233333 1031.17067,129.147334 1031.228,129.09 C1031.28533,129.032666 1031.314,128.946667 1031.314,128.832 C1031.314,128.717333 1031.37133,128.602667 1031.486,128.488 C1031.83,127.685329 1032.002,126.940003 1032.002,126.252 L1032.002,114.212 C1032.002,111.345319 1031.658,108.536014 1030.97,105.784 L1030.97,105.956 C1030.05266,102.286648 1029.19267,99.6493414 1028.39,98.044 C1027.47266,95.7506552 1026.15401,93.1133482 1024.434,90.132 C1023.86066,89.2146621 1023.20134,88.0680069 1022.456,86.692 C1021.71066,85.3159931 1020.82201,83.7680086 1019.79,82.048 C1018.18466,79.2959862 1016.57934,76.4580146 1014.974,73.534 C1013.36866,70.6099854 1011.82067,67.48535 1010.33,64.16 C1008.72466,60.3759811 1007.52067,56.8786827 1006.718,53.668 C1006.25933,51.6039897 1005.944,49.5973431 1005.772,47.648 C1005.6,45.6986569 1005.514,43.8640086 1005.514,42.144 L1005.514,30.276 C1005.514,26.2626466 1006.54599,22.59335 1008.61,19.268 L1008.61,19.44 C1008.83933,18.7519966 1009.18333,18.178669 1009.642,17.72 L1010.158,17.204 C1010.846,16.5159966 1011.24733,16.0573345 1011.362,15.828 C1013.19668,13.9933242 1014.85933,12.7320034 1016.35,12.044 C1016.92334,11.8146655 1017.296,11.6713336 1017.468,11.614 C1017.64,11.5566664 1017.84067,11.4706672 1018.07,11.356 C1020.82201,10.2093276 1023.45932,9.636 1025.982,9.636 C1029.76602,9.636 1033.43532,10.7826552 1036.99,13.076 C1037.10467,13.3053345 1037.27667,13.4486664 1037.506,13.506 C1037.73533,13.5633336 1037.96467,13.7066655 1038.194,13.936 C1038.42333,14.1653345 1038.65267,14.3373328 1038.882,14.452 C1039.226,14.7960017 1039.742,15.197331 1040.43,15.656 C1042.26468,17.6053431 1043.58333,19.4399914 1044.386,21.16 L1044.73,21.676 C1045.30334,23.2813414 1045.73333,24.7719931 1046.02,26.148 C1046.30667,27.5240069 1046.45,28.8999931 1046.45,30.276 L1046.45,42.144 C1046.45,43.2906724 1045.87667,43.864 1044.73,43.864 L1033.722,43.864 Z" id="text-outlines"></path>
                        <path d="M911,145.266718 L911,11.72 C911,10.5733276 911.573328,10 912.72,10 L923.9,10 C925.046672,10 925.62,10.5733276 925.62,11.72 L925.732893,145.266718 C925.732893,146.422245 925.155138,147 923.999611,147 L912.733282,147 C911.577755,147 911,146.422245 911,145.266718 Z" id="Combined-Shape"></path>
                    </g>
                    <g id="lines_l" transform="translate(119.000000, 101.000000) scale(-1, 1) translate(-119.000000, -101.000000) translate(59.000000, 79.000000)" fill-rule="nonzero" stroke="#272727" stroke-linecap="round" stroke-linejoin="round" stroke-opacity="0.626075634" stroke-width="3.97350993">
                        <path d="M0.397350993,22.8 L119.602649,22.8" id="Line-2"></path>
                        <path d="M0.397350993,1.2 L83.8410596,1.2" id="Line-2"></path>
                        <path d="M0.794701987,43.7986755 L84.2384106,43.7986755" id="Line-2"></path>
                    </g>
                </g>
            </g>
        </g>
    </g>
</svg>