<?xml version="1.0" encoding="UTF-8"?>
<svg width="1226px" height="775px" viewBox="0 0 1226 775" version="1.1" xmlns="http://www.w3.org/2000/svg" xmlns:xlink="http://www.w3.org/1999/xlink">
    <!-- Generator: Sketch 51.3 (57544) - http://www.bohemiancoding.com/sketch -->
    <title>bus_round_win_card_gretchen</title>
    <desc>Created with Sketch.</desc>
    <defs></defs>
    <g id="Page-1" stroke="none" stroke-width="1" fill="none" fill-rule="evenodd">
        <g id="round_win_screen_gretchen" transform="translate(-290.000000, -267.000000)">
            <g id="bus_round_win_card_gretchen" transform="translate(235.000000, 261.000000)">
                <g id="button_play_next_round" transform="translate(57.000000, 735.000000)" fill-rule="nonzero" stroke="#272727" stroke-linecap="round" stroke-linejoin="round" stroke-opacity="0.626075634" stroke-width="3.97350993">
                    <g id="lines_r" transform="translate(852.000000, 0.000000)">
                        <path d="M0.397350993,22.8 L369.602649,22.8" id="Line-2"></path>
                        <path d="M0.397350993,1.2 L333.84106,1.2" id="Line-2"></path>
                        <path d="M0.794701987,43.7986755 L334.238411,43.7986755" id="Line-2"></path>
                    </g>
                    <g id="lines_l" transform="translate(185.000000, 22.500000) scale(-1, 1) translate(-185.000000, -22.500000) ">
                        <path d="M0.397350993,22.8 L369.602649,22.8" id="Line-2"></path>
                        <path d="M0.397350993,1.2 L333.84106,1.2" id="Line-2"></path>
                        <path d="M0.794701987,43.7986755 L334.238411,43.7986755" id="Line-2"></path>
                    </g>
                </g>
                <g id="score_bertha" transform="translate(810.000000, 246.543213)">
                    <g id="text" transform="translate(11.000000, 242.000000)" fill="#A52E09">
                        <path d="M20.66384,34.923285 C20.8520409,34.923285 21.0590589,34.8103662 21.2849,34.584525 C21.3601804,34.5092447 21.39782,34.3963258 21.39782,34.245765 L21.39782,23.236065 C21.39782,23.0855043 21.3225408,22.9349458 21.17198,22.784385 C21.0214192,22.6338243 20.8520409,22.558545 20.66384,22.558545 L18.1796,22.558545 L18.1796,34.923285 L20.66384,34.923285 Z M18.1796,40.851585 L18.1796,56.829765 L20.66384,56.829765 C20.8896811,56.829765 21.0590594,56.7733056 21.17198,56.660385 C21.3225408,56.5098243 21.39782,56.340446 21.39782,56.152245 L21.39782,41.529105 C21.39782,41.3409041 21.3225408,41.1715258 21.17198,41.020965 C21.0590594,40.9080445 20.8896811,40.851585 20.66384,40.851585 L18.1796,40.851585 Z M27.32612,34.245765 C27.32612,35.5631716 26.9497238,36.7676396 26.19692,37.859205 C26.9497238,38.9507705 27.32612,40.1740583 27.32612,41.529105 L27.32612,56.152245 C27.32612,58.0342544 26.6674266,59.5962988 25.35002,60.838425 L25.35002,60.781965 C24.0326134,62.0993716 22.470569,62.758065 20.66384,62.758065 L13.3805,62.758065 C13.0793785,62.758065 12.8159011,62.6451462 12.59006,62.419305 C12.3642189,62.1934639 12.2513,61.9299865 12.2513,61.628865 L12.2513,17.759445 C12.2513,17.4583235 12.3642189,17.1948462 12.59006,16.969005 C12.8159011,16.7431639 13.0793785,16.630245 13.3805,16.630245 L20.66384,16.630245 C22.470569,16.630245 24.0326134,17.2889384 25.35002,18.606345 C26.6674266,19.9237516 27.32612,21.4669762 27.32612,23.236065 L27.32612,34.245765 Z M38.6176,34.923285 L44.77174,34.923285 C45.0728615,34.923285 45.3363389,35.0362039 45.56218,35.262045 C45.7880211,35.4878862 45.90094,35.7513635 45.90094,36.052485 L45.90094,39.722385 C45.90094,40.0235065 45.7880211,40.2869839 45.56218,40.512825 C45.3363389,40.7386662 45.0728615,40.851585 44.77174,40.851585 L38.6176,40.851585 L38.6176,56.829765 L46.63492,56.829765 C46.9360415,56.829765 47.1995189,56.9426839 47.42536,57.168525 C47.6512011,57.3943662 47.76412,57.6578435 47.76412,57.958965 L47.76412,61.628865 C47.76412,61.9299865 47.6512011,62.1934639 47.42536,62.419305 C47.1995189,62.6451462 46.9360415,62.758065 46.63492,62.758065 L33.8185,62.758065 C33.5173785,62.758065 33.2539011,62.6451462 33.02806,62.419305 C32.8022189,62.1934639 32.6893,61.9299865 32.6893,61.628865 L32.6893,17.759445 C32.6893,17.4583235 32.8022189,17.1948462 33.02806,16.969005 C33.2539011,16.7431639 33.5173785,16.630245 33.8185,16.630245 L46.63492,16.630245 C46.9360415,16.630245 47.1995189,16.7431639 47.42536,16.969005 C47.6512011,17.1948462 47.76412,17.4583235 47.76412,17.759445 L47.76412,21.429345 C47.76412,21.7304665 47.6512011,21.9939439 47.42536,22.219785 C47.1995189,22.4456262 46.9360415,22.558545 46.63492,22.558545 L38.6176,22.558545 L38.6176,34.923285 Z M54.2565,62.758065 C53.9553785,62.758065 53.6919011,62.6451462 53.46606,62.419305 C53.2402189,62.1934639 53.1273,61.9299865 53.1273,61.628865 L53.1273,17.759445 C53.1273,17.4583235 53.2402189,17.1948462 53.46606,16.969005 C53.6919011,16.7431639 53.9553785,16.630245 54.2565,16.630245 L61.53984,16.630245 C63.346569,16.630245 64.9086134,17.2889384 66.22602,18.606345 C67.5434266,19.9237516 68.20212,21.4669762 68.20212,23.236065 L68.20212,41.529105 C68.20212,43.3734743 67.5434266,44.9543384 66.22602,46.271745 C65.9625387,46.5352264 65.6520118,46.7798839 65.29443,47.005725 C64.9368482,47.2315662 64.6075015,47.4197643 64.30638,47.570325 C64.9462632,49.8663765 65.6049566,52.1623936 66.28248,54.458445 C66.9600034,56.7544965 67.6186968,59.0505136 68.25858,61.346565 C68.3715006,61.7229669 68.324451,62.0523136 68.11743,62.334615 C67.910409,62.6169164 67.5998821,62.758065 67.18584,62.758065 L63.40302,62.758065 C63.1771789,62.758065 62.960751,62.6733759 62.75373,62.503995 C62.546709,62.3346142 62.4055604,62.1370062 62.33028,61.911165 L59.0556,50.280405 L59.0556,61.628865 C59.0556,61.9299865 58.9426811,62.1934639 58.71684,62.419305 C58.4909989,62.6451462 58.2275215,62.758065 57.9264,62.758065 L54.2565,62.758065 Z M59.0556,22.558545 L59.0556,42.206625 L61.53984,42.206625 C61.7656811,42.206625 61.9350594,42.1501656 62.04798,42.037245 C62.1985408,41.8866843 62.27382,41.717306 62.27382,41.529105 L62.27382,23.236065 C62.27382,23.0855043 62.1985408,22.9349458 62.04798,22.784385 C61.8974192,22.6338243 61.7280409,22.558545 61.53984,22.558545 L59.0556,22.558545 Z M79.26776,62.758065 C78.9666385,62.758065 78.7031611,62.6451462 78.47732,62.419305 C78.2514789,62.1934639 78.13856,61.9299865 78.13856,61.628865 L78.13856,22.558545 L74.6945,22.558545 C74.3933785,22.558545 74.1299011,22.4456262 73.90406,22.219785 C73.6782189,21.9939439 73.5653,21.7304665 73.5653,21.429345 L73.5653,17.759445 C73.5653,17.4583235 73.6782189,17.1948462 73.90406,16.969005 C74.1299011,16.7431639 74.3933785,16.630245 74.6945,16.630245 L87.51092,16.630245 C87.8120415,16.630245 88.0755189,16.7431639 88.30136,16.969005 C88.5272011,17.1948462 88.64012,17.4583235 88.64012,17.759445 L88.64012,21.429345 C88.64012,21.7304665 88.5272011,21.9939439 88.30136,22.219785 C88.0755189,22.4456262 87.8120415,22.558545 87.51092,22.558545 L84.0104,22.558545 L84.0104,61.628865 C84.0104,61.9299865 83.8974811,62.1934639 83.67164,62.419305 C83.4457989,62.6451462 83.1823215,62.758065 82.8812,62.758065 L79.26776,62.758065 Z M107.94892,16.630245 C108.250042,16.630245 108.513519,16.7431639 108.73936,16.969005 C108.965201,17.1948462 109.07812,17.4583235 109.07812,17.759445 L109.07812,61.628865 C109.07812,61.9299865 108.965201,62.1934639 108.73936,62.419305 C108.513519,62.6451462 108.250042,62.758065 107.94892,62.758065 L104.27902,62.758065 C103.977898,62.758065 103.714421,62.6451462 103.48858,62.419305 C103.262739,62.1934639 103.14982,61.9299865 103.14982,61.628865 L103.14982,40.851585 L99.9316,40.851585 L99.9316,61.628865 C99.9316,61.9299865 99.8186811,62.1934639 99.59284,62.419305 C99.3669989,62.6451462 99.1035215,62.758065 98.8024,62.758065 L95.1325,62.758065 C94.8313785,62.758065 94.5679011,62.6451462 94.34206,62.419305 C94.1162189,62.1934639 94.0033,61.9299865 94.0033,61.628865 L94.0033,17.759445 C94.0033,17.4583235 94.1162189,17.1948462 94.34206,16.969005 C94.5679011,16.7431639 94.8313785,16.630245 95.1325,16.630245 L98.8024,16.630245 C99.1035215,16.630245 99.3669989,16.7431639 99.59284,16.969005 C99.8186811,17.1948462 99.9316,17.4583235 99.9316,17.759445 L99.9316,34.923285 L103.14982,34.923285 L103.14982,17.759445 C103.14982,17.4583235 103.262739,17.1948462 103.48858,16.969005 C103.714421,16.7431639 103.977898,16.630245 104.27902,16.630245 L107.94892,16.630245 Z M115.5705,62.758065 C115.269378,62.758065 115.005901,62.6545561 114.78006,62.447535 C114.554219,62.240514 114.4413,61.9864465 114.4413,61.685325 L117.5466,17.702985 C117.58424,17.4018635 117.706569,17.1477961 117.91359,16.940775 C118.120611,16.733754 118.374678,16.630245 118.6758,16.630245 L127.65294,16.630245 C127.954062,16.630245 128.217539,16.733754 128.44338,16.940775 C128.669221,17.1477961 128.78214,17.4018635 128.78214,17.702985 L130.36302,61.572405 C130.36302,61.8735265 130.250101,62.1464138 130.02426,62.391075 C129.798419,62.6357363 129.534942,62.758065 129.23382,62.758065 L125.56392,62.758065 C125.262798,62.758065 124.999321,62.6545561 124.77348,62.447535 C124.547639,62.240514 124.43472,61.9864465 124.43472,61.685325 L124.15242,53.555085 L120.9342,53.555085 L120.3696,61.685325 C120.33196,61.9864465 120.209631,62.240514 120.00261,62.447535 C119.795589,62.6545561 119.541522,62.758065 119.2404,62.758065 L115.5705,62.758065 Z M123.1926,22.558545 L123.13614,22.558545 C123.06086,22.558545 123.02322,22.7279233 123.02322,23.066685 L123.07968,24.195885 C123.07968,23.9324037 123.08909,23.6689264 123.10791,23.405445 C123.12673,23.1419637 123.15496,22.8596665 123.1926,22.558545 Z M123.92658,47.626785 C123.738379,43.6745653 123.587821,39.7600444 123.4749,35.883105 C123.361979,32.0061656 123.230241,28.1104646 123.07968,24.195885 C122.778558,28.185745 122.477442,32.081446 122.17632,35.883105 C121.875198,39.684764 121.592901,43.5992849 121.32942,47.626785 L123.92658,47.626785 Z" id="text-outlines"></path>
                    </g>
                    <g id="bus_right" fill-rule="nonzero">
                        <ellipse id="Oval" stroke="#8E2707" stroke-width="5.203125" stroke-linecap="round" stroke-linejoin="round" transform="translate(117.187500, 117.064846) scale(-1, 1) translate(-117.187500, -117.064846) " cx="117.1875" cy="117.064846" rx="117.1875" ry="117.064846"></ellipse>
                        <path d="M184.304864,167.746672 C183.614842,168.320264 182.735029,168.606999 181.847622,168.560396 C181.036444,180.512464 178.261165,189.317064 174.96226,189.317064 L162.136907,189.317064 C161.320118,189.317064 160.535428,188.777317 159.804703,187.783689 L148.604751,197.028713 C147.785417,197.705034 146.701365,197.978385 145.655245,197.772451 L31.7650269,175.352588 C30.1123123,175.027243 28.921875,173.590791 28.921875,171.921873 L28.921875,92.2024854 C28.921875,91.9345829 28.9529505,91.6675673 29.0144903,91.4066905 L34.8594673,66.6289161 C39.0879966,57.2862488 45.4478003,51.2912313 53.9388785,48.6438637 C78.5316646,44.2629303 96.8170209,42.1295286 127.858035,37.015439 C134.945171,35.849498 139.333253,35.849498 145.583255,38.8179082 C169.34644,53.5158526 191.297027,67.470529 213.229572,81.7060789 C214.484198,82.9442977 216.204745,85.3286312 216.421875,89.3649439 L216.421875,139.41811 C216.421875,140.4519 215.960153,141.432739 215.16065,142.097338 L212.570413,144.250511 C212.148117,150.730179 210.699476,155.504773 208.977328,155.504773 L202.285839,155.504773 C201.726826,155.504773 201.196631,155.00169 200.721004,154.10051 L184.304864,167.746672 Z M52.8834853,55.9851465 C51.9049574,56.1297577 51.1188461,56.8663251 50.9109307,57.8333828 L49.8273896,62.8731578 C49.7743288,63.1199543 49.7609974,63.3736378 49.7878984,63.6246364 C49.927524,64.9274105 51.09682,65.8703287 52.3995942,65.7307031 L92.4741732,61.4356857 C93.5832768,61.3168168 94.4597714,60.4413502 94.5799416,59.3323868 L95.2965364,52.719458 C95.3182616,52.5189716 95.3143358,52.3165334 95.2848538,52.1170401 C95.0933019,50.8208829 93.8872753,49.9254233 92.591118,50.1169752 L52.8834853,55.9851465 Z M101.933807,49.0207604 C100.868734,49.1609104 100.030753,49.9992556 99.8910664,51.0643889 L99.0530089,57.4547032 C99.0288697,57.6387681 99.0264184,57.8250303 99.0457055,58.0096667 C99.1818315,59.3128111 100.348591,60.2588665 101.651735,60.1227405 L123.277723,57.8636978 C124.363891,57.750237 125.232287,56.9099496 125.381413,55.8281011 L126.345428,48.83455 C126.374391,48.6244319 126.375046,48.4113786 126.347374,48.2010865 C126.176437,46.9020498 124.984788,45.9875441 123.685752,46.1584808 L101.933807,49.0207604 Z M75.8255644,90.0979081 L78.4261206,75.1058281 C78.4819197,74.7841487 78.491985,74.4563171 78.4560236,74.1318741 C78.2431809,72.2116161 76.4989207,70.8258314 74.5601093,71.0366373 L41.5300575,74.6279761 C40.538933,74.7357405 39.7238164,75.4501607 39.4952594,76.411403 L35.7726876,92.0674223 L75.8255644,90.0979081 Z M75.6622391,92.661801 L35.5149063,94.4628339 L35.8857198,109.178351 C35.9174168,110.436227 36.9509874,111.442352 38.2213746,111.451985 L72.5283367,111.712127 C72.5692815,111.712438 72.6102286,111.712043 72.6511596,111.710943 C74.6009014,111.658548 76.1385948,110.050622 76.085694,108.119538 L75.6622391,92.661801 Z M132.84471,87.2941142 L134.549264,71.512311 C134.582536,71.2042571 134.584734,70.8936861 134.555823,70.5852007 C134.315467,68.0204993 132.02143,66.1343808 129.431949,66.372437 L87.4518549,70.2317515 C85.906739,70.3737971 84.6362544,71.4981403 84.3205167,73.0028979 L80.7847013,89.8540532 L132.84471,87.2941142 Z M132.651716,90.1052196 L80.6734944,92.4369931 L81.591709,108.190853 C81.6994244,110.038932 83.2423138,111.483887 85.1113523,111.487087 L128.1932,111.56086 C128.21989,111.560906 128.24658,111.560727 128.273267,111.560323 C130.873576,111.52098 132.949341,109.401291 132.909617,106.825865 L132.651716,90.1052196 Z M38.7625843,157.836655 C41.525735,157.836655 43.7657112,154.965602 43.7657112,151.423979 C43.7657112,147.882356 41.525735,145.011303 38.7625843,145.011303 C35.9994335,145.011303 33.7594573,147.882356 33.7594573,151.423979 C33.7594573,154.965602 35.9994335,157.836655 38.7625843,157.836655 Z M127.641663,170.662007 C132.030197,170.662007 135.587806,166.746935 135.587806,161.917449 C135.587806,157.087963 132.030197,153.172891 127.641663,153.172891 C123.25313,153.172891 119.69552,157.087963 119.69552,161.917449 C119.69552,166.746935 123.25313,170.662007 127.641663,170.662007 Z M66.9995603,132.955063 C66.8209542,132.944952 66.642098,132.939893 66.4632059,132.939893 C61.2222659,132.939893 56.9736445,137.188515 56.9736445,142.429455 L56.9736445,155.190662 C56.9736445,159.820828 60.3151209,163.775023 64.8804283,164.547295 L90.274262,168.842942 C90.8625816,168.942463 91.458209,168.992486 92.0548867,168.992486 C97.9509443,168.992486 102.730643,164.212787 102.730643,158.316729 L102.730643,145.066319 C102.730643,139.404671 98.3108821,134.727627 92.6582855,134.407628 L66.9995603,132.955063 Z M68.9492686,136.864419 L89.7508008,138.023181 C94.3326449,138.278415 97.917203,142.06821 97.917203,146.657158 L97.917203,156.216177 C97.917203,160.991984 94.0456467,164.86354 89.2698401,164.86354 C88.7500685,164.86354 88.2313554,164.816677 87.7200001,164.72352 L67.1441124,160.975071 C63.4904525,160.309459 60.8352032,157.126783 60.8352032,153.412989 L60.8352032,144.539066 C60.8352032,140.293904 64.2765865,136.852521 68.521748,136.852521 C68.6643376,136.852521 68.8068997,136.856488 68.9492686,136.864419 Z M206.220186,88.6332938 C206.220186,87.6688225 205.636298,86.8003445 204.743151,86.436347 L199.025012,84.1059467 C198.882867,84.0480164 198.73083,84.018225 198.577334,84.018225 C197.922217,84.018225 197.391139,84.5493026 197.391139,85.2044201 L197.391139,103.030315 C197.391139,103.646697 197.863221,104.160372 198.477412,104.212294 L204.93407,104.758124 C204.967303,104.760934 205.00064,104.76234 205.033991,104.76234 C205.689109,104.76234 206.220186,104.231263 206.220186,103.576145 L206.220186,88.6332938 Z M209.031266,88.1839473 C208.889121,88.126017 208.737084,88.0962255 208.583588,88.0962255 C207.92847,88.0962255 207.397393,88.6273032 207.397393,89.2824207 L207.397393,103.876219 C207.397393,104.492601 207.869475,105.006276 208.483666,105.058199 L212.682479,105.413156 C212.715712,105.415965 212.749049,105.417372 212.7824,105.417372 C213.437518,105.417372 213.968595,104.886294 213.968595,104.231177 L213.968595,93.7441148 C213.968595,91.59869 212.66976,89.6667982 210.682994,88.8571013 L209.031266,88.1839473 Z M196.213933,84.5552932 C196.213933,83.5908219 195.630044,82.722344 194.736897,82.3583464 L188.430155,79.7880638 C188.28801,79.7301334 188.135973,79.700342 187.982477,79.700342 C187.327359,79.700342 186.796282,80.2314197 186.796282,80.8865372 L186.796282,102.134652 C186.796282,102.751034 187.268364,103.264709 187.882555,103.316631 L194.927816,103.91222 C194.961049,103.915029 194.994386,103.916436 195.027737,103.916436 C195.682855,103.916436 196.213933,103.385358 196.213933,102.730241 L196.213933,84.5552932 Z M185.619075,80.2374103 C185.619075,79.272939 185.035187,78.404461 184.14204,78.0404634 L172.8931,73.4560121 C172.750956,73.3980818 172.598919,73.3682903 172.445423,73.3682903 C171.790305,73.3682903 171.259227,73.899368 171.259227,74.5544855 L171.259227,100.821187 C171.259227,101.437569 171.73131,101.951244 172.345501,102.003166 L184.332959,103.016557 C184.366192,103.019366 184.399529,103.020773 184.43288,103.020773 C185.087998,103.020773 185.619075,102.489695 185.619075,101.834577 L185.619075,80.2374103 Z" id="bus-outline" fill="#8E2707"></path>
                    </g>
                </g>
                <g id="score_gretchen" transform="translate(285.000000, 246.000000)">
                    <g id="text" transform="translate(0.000000, 242.054608)" fill="#48751E">
                        <path d="M18.8574158,41.6466473 C18.5562885,41.6466473 18.3304464,41.5713666 18.1798828,41.420803 L18.1798828,56.0442246 C18.1798828,56.4959156 18.3304442,56.8723191 18.6315715,57.1734464 C18.9326988,57.4745737 19.3091023,57.6251351 19.7607932,57.6251351 C20.2124842,57.6251351 20.5888877,57.4745737 20.890015,57.1734464 C21.2287832,56.8346782 21.3981648,56.4582747 21.3981648,56.0442246 L21.3981648,41.6466473 L18.8574158,41.6466473 Z M19.7607932,17.4248407 C21.8310435,17.4248407 23.6001398,18.1776477 25.0681355,19.6832842 C26.573772,21.1512799 27.326579,22.9203762 27.326579,24.9906265 L27.326579,27.7007587 C27.326579,28.001886 27.2136579,28.2653684 26.9878124,28.4912139 C26.761967,28.7170594 26.4984845,28.8299804 26.1973572,28.8299804 L22.5273865,28.8299804 C22.2262592,28.8299804 21.9627768,28.7170594 21.7369313,28.4912139 C21.5110858,28.2653684 21.3981648,28.001886 21.3981648,27.7007587 L21.3981648,24.9906265 C21.3981648,24.5389355 21.2287832,24.1437119 20.890015,23.8049436 C20.5888877,23.5038163 20.2124842,23.3532549 19.7607932,23.3532549 C19.3843841,23.3532549 19.0079806,23.5038163 18.6315715,23.8049436 C18.3304442,24.1060709 18.1798828,24.5012946 18.1798828,24.9906265 L18.1798828,35.9440775 C18.4057282,35.7935138 18.6315703,35.7182331 18.8574158,35.7182331 L26.1973572,35.7182331 C26.4984845,35.7182331 26.761967,35.8311542 26.9878124,36.0569996 C27.2136579,36.2828451 27.326579,36.5463276 27.326579,36.8474549 L27.326579,62.4243275 C27.326579,62.7254548 27.2136579,62.9889373 26.9878124,63.2147828 C26.761967,63.4406282 26.4984845,63.5535493 26.1973572,63.5535493 L22.5273865,63.5535493 C22.2639001,63.5535493 22.0004177,63.4594484 21.7369313,63.2712439 C21.3981631,63.3465257 21.06881,63.4123963 20.7488623,63.4688577 C20.4289145,63.525319 20.0995614,63.5535493 19.7607932,63.5535493 C17.7281839,63.5535493 15.9590875,62.8195625 14.453451,61.3515669 C12.9854554,59.7706485 12.2514686,58.0015521 12.2514686,56.0442246 L12.2514686,24.9906265 C12.2514686,22.9203762 12.9854554,21.1512799 14.453451,19.6832842 C15.9590875,18.1776477 17.7281839,17.4248407 19.7607932,17.4248407 Z M33.8190166,63.5535493 C33.5178893,63.5535493 33.2544069,63.4406282 33.0285614,63.2147828 C32.8027159,62.9889373 32.6897948,62.7254548 32.6897948,62.4243275 L32.6897948,18.5540625 C32.6897948,18.2529352 32.8027159,17.9894527 33.0285614,17.7636073 C33.2544069,17.5377618 33.5178893,17.4248407 33.8190166,17.4248407 L41.1024969,17.4248407 C42.9092607,17.4248407 44.4713352,18.0835468 45.7887672,19.4009788 C47.1061991,20.7184108 47.7649052,22.2616651 47.7649052,24.030788 L47.7649052,42.3241804 C47.7649052,44.1685851 47.1061991,45.7494798 45.7887672,47.0669117 C45.5252808,47.3303981 45.2147479,47.5750604 44.8571592,47.8009059 C44.4995705,48.0267513 44.1702175,48.2149531 43.8690902,48.3655167 C44.5089857,50.6616124 45.1676918,52.9576737 45.8452283,55.2537694 C46.5227647,57.5498651 47.1814708,59.8459264 47.8213663,62.1420221 C47.9342891,62.5184312 47.8872386,62.8477843 47.6802136,63.1300911 C47.4731886,63.412398 47.1626557,63.5535493 46.7486057,63.5535493 L42.9657128,63.5535493 C42.7398673,63.5535493 42.5234353,63.4688585 42.3164103,63.2994744 C42.1093853,63.1300903 41.9682339,62.9324785 41.8929521,62.706633 L38.618209,51.0756489 L38.618209,62.4243275 C38.618209,62.7254548 38.505288,62.9889373 38.2794425,63.2147828 C38.053597,63.4406282 37.7901146,63.5535493 37.4889873,63.5535493 L33.8190166,63.5535493 Z M38.618209,23.3532549 L38.618209,43.0017134 L41.1024969,43.0017134 C41.3283424,43.0017134 41.4977239,42.9452529 41.6106467,42.8323301 C41.7612103,42.6817665 41.836491,42.5123849 41.836491,42.3241804 L41.836491,24.030788 C41.836491,23.8802243 41.7612103,23.7296629 41.6106467,23.5790993 C41.460083,23.4285356 41.2907015,23.3532549 41.1024969,23.3532549 L38.618209,23.3532549 Z M59.0565353,35.7182331 L65.2107939,35.7182331 C65.5119212,35.7182331 65.7754036,35.8311542 66.0012491,36.0569996 C66.2270946,36.2828451 66.3400156,36.5463276 66.3400156,36.8474549 L66.3400156,40.5174256 C66.3400156,40.8185529 66.2270946,41.0820353 66.0012491,41.3078808 C65.7754036,41.5337263 65.5119212,41.6466473 65.2107939,41.6466473 L59.0565353,41.6466473 L59.0565353,57.6251351 L67.0740098,57.6251351 C67.3751371,57.6251351 67.6386195,57.7380561 67.864465,57.9639016 C68.0903105,58.1897471 68.2032315,58.4532295 68.2032315,58.7543568 L68.2032315,62.4243275 C68.2032315,62.7254548 68.0903105,62.9889373 67.864465,63.2147828 C67.6386195,63.4406282 67.3751371,63.5535493 67.0740098,63.5535493 L54.2573429,63.5535493 C53.9562156,63.5535493 53.6927331,63.4406282 53.4668876,63.2147828 C53.2410422,62.9889373 53.1281211,62.7254548 53.1281211,62.4243275 L53.1281211,18.5540625 C53.1281211,18.2529352 53.2410422,17.9894527 53.4668876,17.7636073 C53.6927331,17.5377618 53.9562156,17.4248407 54.2573429,17.4248407 L67.0740098,17.4248407 C67.3751371,17.4248407 67.6386195,17.5377618 67.864465,17.7636073 C68.0903105,17.9894527 68.2032315,18.2529352 68.2032315,18.5540625 L68.2032315,22.2240332 C68.2032315,22.5251605 68.0903105,22.7886429 67.864465,23.0144884 C67.6386195,23.2403339 67.3751371,23.3532549 67.0740098,23.3532549 L59.0565353,23.3532549 L59.0565353,35.7182331 Z M79.2690172,63.5535493 C78.9678899,63.5535493 78.7044075,63.4406282 78.478562,63.2147828 C78.2527165,62.9889373 78.1397955,62.7254548 78.1397955,62.4243275 L78.1397955,23.3532549 L74.6956691,23.3532549 C74.3945418,23.3532549 74.1310594,23.2403339 73.9052139,23.0144884 C73.6793684,22.7886429 73.5664474,22.5251605 73.5664474,22.2240332 L73.5664474,18.5540625 C73.5664474,18.2529352 73.6793684,17.9894527 73.9052139,17.7636073 C74.1310594,17.5377618 74.3945418,17.4248407 74.6956691,17.4248407 L87.512336,17.4248407 C87.8134633,17.4248407 88.0769458,17.5377618 88.3027912,17.7636073 C88.5286367,17.9894527 88.6415578,18.2529352 88.6415578,18.5540625 L88.6415578,22.2240332 C88.6415578,22.5251605 88.5286367,22.7886429 88.3027912,23.0144884 C88.0769458,23.2403339 87.8134633,23.3532549 87.512336,23.3532549 L84.0117486,23.3532549 L84.0117486,62.4243275 C84.0117486,62.7254548 83.8988275,62.9889373 83.6729821,63.2147828 C83.4471366,63.4406282 83.1836541,63.5535493 82.8825268,63.5535493 L79.2690172,63.5535493 Z M101.514098,17.4248407 C103.584349,17.4248407 105.353445,18.1776477 106.821441,19.6832842 C108.327077,21.1512799 109.079884,22.9203762 109.079884,24.9906265 L109.079884,27.7007587 C109.079884,28.001886 108.966963,28.2653684 108.741118,28.4912139 C108.515272,28.7170594 108.25179,28.8299804 107.950662,28.8299804 L104.280692,28.8299804 C103.979564,28.8299804 103.716082,28.7170594 103.490236,28.4912139 C103.264391,28.2653684 103.15147,28.001886 103.15147,27.7007587 L103.15147,24.9906265 C103.15147,24.5389355 102.982088,24.1437119 102.64332,23.8049436 C102.342193,23.5038163 101.965789,23.3532549 101.514098,23.3532549 C101.137689,23.3532549 100.761286,23.5038163 100.384877,23.8049436 C100.083749,24.1060709 99.9331879,24.5012946 99.9331879,24.9906265 L99.9331879,56.0442246 C99.9331879,56.4959156 100.083749,56.8723191 100.384877,57.1734464 C100.686004,57.4745737 101.062407,57.6251351 101.514098,57.6251351 C101.965789,57.6251351 102.342193,57.4745737 102.64332,57.1734464 C102.982088,56.8346782 103.15147,56.4582747 103.15147,56.0442246 L103.15147,53.2776313 C103.15147,52.976504 103.264391,52.7130216 103.490236,52.4871761 C103.716082,52.2613306 103.979564,52.1484096 104.280692,52.1484096 L107.950662,52.1484096 C108.25179,52.1484096 108.515272,52.2613306 108.741118,52.4871761 C108.966963,52.7130216 109.079884,52.976504 109.079884,53.2776313 L109.079884,56.0442246 C109.079884,58.076834 108.327077,59.8459303 106.821441,61.3515669 C105.353445,62.8195625 103.584349,63.5535493 101.514098,63.5535493 C99.481489,63.5535493 97.7123926,62.8195625 96.2067561,61.3515669 C94.7387605,59.7706485 94.0047737,58.0015521 94.0047737,56.0442246 L94.0047737,24.9906265 C94.0047737,22.9203762 94.7387605,21.1512799 96.2067561,19.6832842 C97.7123926,18.1776477 99.481489,17.4248407 101.514098,17.4248407 Z M128.388989,17.4248407 C128.690116,17.4248407 128.953598,17.5377618 129.179444,17.7636073 C129.405289,17.9894527 129.51821,18.2529352 129.51821,18.5540625 L129.51821,62.4243275 C129.51821,62.7254548 129.405289,62.9889373 129.179444,63.2147828 C128.953598,63.4406282 128.690116,63.5535493 128.388989,63.5535493 L124.719018,63.5535493 C124.417891,63.5535493 124.154408,63.4406282 123.928563,63.2147828 C123.702717,62.9889373 123.589796,62.7254548 123.589796,62.4243275 L123.589796,41.6466473 L120.371514,41.6466473 L120.371514,62.4243275 C120.371514,62.7254548 120.258593,62.9889373 120.032748,63.2147828 C119.806902,63.4406282 119.54342,63.5535493 119.242292,63.5535493 L115.572322,63.5535493 C115.271194,63.5535493 115.007712,63.4406282 114.781866,63.2147828 C114.556021,62.9889373 114.4431,62.7254548 114.4431,62.4243275 L114.4431,18.5540625 C114.4431,18.2529352 114.556021,17.9894527 114.781866,17.7636073 C115.007712,17.5377618 115.271194,17.4248407 115.572322,17.4248407 L119.242292,17.4248407 C119.54342,17.4248407 119.806902,17.5377618 120.032748,17.7636073 C120.258593,17.9894527 120.371514,18.2529352 120.371514,18.5540625 L120.371514,35.7182331 L123.589796,35.7182331 L123.589796,18.5540625 C123.589796,18.2529352 123.702717,17.9894527 123.928563,17.7636073 C124.154408,17.5377618 124.417891,17.4248407 124.719018,17.4248407 L128.388989,17.4248407 Z M140.80984,35.7182331 L146.964099,35.7182331 C147.265226,35.7182331 147.528709,35.8311542 147.754554,36.0569996 C147.9804,36.2828451 148.093321,36.5463276 148.093321,36.8474549 L148.093321,40.5174256 C148.093321,40.8185529 147.9804,41.0820353 147.754554,41.3078808 C147.528709,41.5337263 147.265226,41.6466473 146.964099,41.6466473 L140.80984,41.6466473 L140.80984,57.6251351 L148.827315,57.6251351 C149.128442,57.6251351 149.391925,57.7380561 149.61777,57.9639016 C149.843616,58.1897471 149.956537,58.4532295 149.956537,58.7543568 L149.956537,62.4243275 C149.956537,62.7254548 149.843616,62.9889373 149.61777,63.2147828 C149.391925,63.4406282 149.128442,63.5535493 148.827315,63.5535493 L136.010648,63.5535493 C135.709521,63.5535493 135.446038,63.4406282 135.220193,63.2147828 C134.994347,62.9889373 134.881426,62.7254548 134.881426,62.4243275 L134.881426,18.5540625 C134.881426,18.2529352 134.994347,17.9894527 135.220193,17.7636073 C135.446038,17.5377618 135.709521,17.4248407 136.010648,17.4248407 L148.827315,17.4248407 C149.128442,17.4248407 149.391925,17.5377618 149.61777,17.7636073 C149.843616,17.9894527 149.956537,18.2529352 149.956537,18.5540625 L149.956537,22.2240332 C149.956537,22.5251605 149.843616,22.7886429 149.61777,23.0144884 C149.391925,23.2403339 149.128442,23.3532549 148.827315,23.3532549 L140.80984,23.3532549 L140.80984,35.7182331 Z M156.448974,63.5535493 C156.147847,63.5535493 155.884364,63.4406282 155.658519,63.2147828 C155.432674,62.9889373 155.319752,62.7254548 155.319752,62.4243275 L155.319752,18.5540625 C155.319752,18.2529352 155.432674,17.9894527 155.658519,17.7636073 C155.884364,17.5377618 156.147847,17.4248407 156.448974,17.4248407 L160.118945,17.4248407 C160.7212,17.4248407 161.097603,17.7259635 161.248167,18.3282181 L164.466449,33.6291729 L164.466449,18.5540625 C164.466449,18.2529352 164.57937,17.9894527 164.805215,17.7636073 C165.031061,17.5377618 165.294543,17.4248407 165.59567,17.4248407 L169.265641,17.4248407 C169.566768,17.4248407 169.830251,17.5377618 170.056096,17.7636073 C170.281942,17.9894527 170.394863,18.2529352 170.394863,18.5540625 L170.394863,62.4243275 C170.394863,62.7254548 170.281942,62.9889373 170.056096,63.2147828 C169.830251,63.4406282 169.566768,63.5535493 169.265641,63.5535493 L165.539209,63.5535493 C164.936955,63.5535493 164.560551,63.2524265 164.409988,62.6501719 L161.248167,47.3492172 L161.248167,62.4243275 C161.248167,62.7254548 161.135246,62.9889373 160.9094,63.2147828 C160.683555,63.4406282 160.420072,63.5535493 160.118945,63.5535493 L156.448974,63.5535493 Z" id="text-outlines"></path>
                    </g>
                    <g id="bus_left" transform="translate(10.125000, 0.000000)" fill-rule="nonzero">
                        <ellipse id="Oval" stroke="#48751E" stroke-width="5.203125" stroke-linecap="round" stroke-linejoin="round" transform="translate(117.187500, 117.064846) scale(-1, 1) translate(-117.187500, -117.064846) " cx="117.1875" cy="117.064846" rx="117.1875" ry="117.064846"></ellipse>
                        <path d="M174.304864,167.746672 C173.614842,168.320264 172.735029,168.606999 171.847622,168.560396 C171.036444,180.512464 168.261165,189.317064 164.96226,189.317064 L152.136907,189.317064 C151.320118,189.317064 150.535428,188.777317 149.804703,187.783689 L138.604751,197.028713 C137.785417,197.705034 136.701365,197.978385 135.655245,197.772451 L21.7650269,175.352588 C20.1123123,175.027243 18.921875,173.590791 18.921875,171.921873 L18.921875,92.2024854 C18.921875,91.9345829 18.9529505,91.6675673 19.0144903,91.4066905 L24.8594673,66.6289161 C29.0879966,57.2862488 35.4478003,51.2912313 43.9388785,48.6438637 C68.5316646,44.2629303 86.8170209,42.1295286 117.858035,37.015439 C124.945171,35.849498 129.333253,35.849498 135.583255,38.8179082 C159.34644,53.5158526 181.297027,67.470529 203.229572,81.7060789 C204.484198,82.9442977 206.204745,85.3286312 206.421875,89.3649439 L206.421875,139.41811 C206.421875,140.4519 205.960153,141.432739 205.16065,142.097338 L202.570413,144.250511 C202.148117,150.730179 200.699476,155.504773 198.977328,155.504773 L192.285839,155.504773 C191.726826,155.504773 191.196631,155.00169 190.721004,154.10051 L174.304864,167.746672 Z M42.8834853,55.9851465 C41.9049574,56.1297577 41.1188461,56.8663251 40.9109307,57.8333828 L39.8273896,62.8731578 C39.7743288,63.1199543 39.7609974,63.3736378 39.7878984,63.6246364 C39.927524,64.9274105 41.09682,65.8703287 42.3995942,65.7307031 L82.4741732,61.4356857 C83.5832768,61.3168168 84.4597714,60.4413502 84.5799416,59.3323868 L85.2965364,52.719458 C85.3182616,52.5189716 85.3143358,52.3165334 85.2848538,52.1170401 C85.0933019,50.8208829 83.8872753,49.9254233 82.591118,50.1169752 L42.8834853,55.9851465 Z M91.9338065,49.0207604 C90.868734,49.1609104 90.0307533,49.9992556 89.8910664,51.0643889 L89.0530089,57.4547032 C89.0288697,57.6387681 89.0264184,57.8250303 89.0457055,58.0096667 C89.1818315,59.3128111 90.3485907,60.2588665 91.6517352,60.1227405 L113.277723,57.8636978 C114.363891,57.750237 115.232287,56.9099496 115.381413,55.8281011 L116.345428,48.83455 C116.374391,48.6244319 116.375046,48.4113786 116.347374,48.2010865 C116.176437,46.9020498 114.984788,45.9875441 113.685752,46.1584808 L91.9338065,49.0207604 Z M65.8255644,90.0979081 L68.4261206,75.1058281 C68.4819197,74.7841487 68.491985,74.4563171 68.4560236,74.1318741 C68.2431809,72.2116161 66.4989207,70.8258314 64.5601093,71.0366373 L31.5300575,74.6279761 C30.538933,74.7357405 29.7238164,75.4501607 29.4952594,76.411403 L25.7726876,92.0674223 L65.8255644,90.0979081 Z M65.6622391,92.661801 L25.5149063,94.4628339 L25.8857198,109.178351 C25.9174168,110.436227 26.9509874,111.442352 28.2213746,111.451985 L62.5283367,111.712127 C62.5692815,111.712438 62.6102286,111.712043 62.6511596,111.710943 C64.6009014,111.658548 66.1385948,110.050622 66.085694,108.119538 L65.6622391,92.661801 Z M122.84471,87.2941142 L124.549264,71.512311 C124.582536,71.2042571 124.584734,70.8936861 124.555823,70.5852007 C124.315467,68.0204993 122.02143,66.1343808 119.431949,66.372437 L77.4518549,70.2317515 C75.906739,70.3737971 74.6362544,71.4981403 74.3205167,73.0028979 L70.7847013,89.8540532 L122.84471,87.2941142 Z M122.651716,90.1052196 L70.6734944,92.4369931 L71.591709,108.190853 C71.6994244,110.038932 73.2423138,111.483887 75.1113523,111.487087 L118.1932,111.56086 C118.21989,111.560906 118.24658,111.560727 118.273267,111.560323 C120.873576,111.52098 122.949341,109.401291 122.909617,106.825865 L122.651716,90.1052196 Z M28.7625843,157.836655 C31.525735,157.836655 33.7657112,154.965602 33.7657112,151.423979 C33.7657112,147.882356 31.525735,145.011303 28.7625843,145.011303 C25.9994335,145.011303 23.7594573,147.882356 23.7594573,151.423979 C23.7594573,154.965602 25.9994335,157.836655 28.7625843,157.836655 Z M117.641663,170.662007 C122.030197,170.662007 125.587806,166.746935 125.587806,161.917449 C125.587806,157.087963 122.030197,153.172891 117.641663,153.172891 C113.25313,153.172891 109.69552,157.087963 109.69552,161.917449 C109.69552,166.746935 113.25313,170.662007 117.641663,170.662007 Z M56.9995603,132.955063 C56.8209542,132.944952 56.642098,132.939893 56.4632059,132.939893 C51.2222659,132.939893 46.9736445,137.188515 46.9736445,142.429455 L46.9736445,155.190662 C46.9736445,159.820828 50.3151209,163.775023 54.8804283,164.547295 L80.274262,168.842942 C80.8625816,168.942463 81.458209,168.992486 82.0548867,168.992486 C87.9509443,168.992486 92.7306433,164.212787 92.7306433,158.316729 L92.7306433,145.066319 C92.7306433,139.404671 88.3108821,134.727627 82.6582855,134.407628 L56.9995603,132.955063 Z M58.9492686,136.864419 L79.7508008,138.023181 C84.3326449,138.278415 87.917203,142.06821 87.917203,146.657158 L87.917203,156.216177 C87.917203,160.991984 84.0456467,164.86354 79.2698401,164.86354 C78.7500685,164.86354 78.2313554,164.816677 77.7200001,164.72352 L57.1441124,160.975071 C53.4904525,160.309459 50.8352032,157.126783 50.8352032,153.412989 L50.8352032,144.539066 C50.8352032,140.293904 54.2765865,136.852521 58.521748,136.852521 C58.6643376,136.852521 58.8068997,136.856488 58.9492686,136.864419 Z M196.220186,88.6332938 C196.220186,87.6688225 195.636298,86.8003445 194.743151,86.436347 L189.025012,84.1059467 C188.882867,84.0480164 188.73083,84.018225 188.577334,84.018225 C187.922217,84.018225 187.391139,84.5493026 187.391139,85.2044201 L187.391139,103.030315 C187.391139,103.646697 187.863221,104.160372 188.477412,104.212294 L194.93407,104.758124 C194.967303,104.760934 195.00064,104.76234 195.033991,104.76234 C195.689109,104.76234 196.220186,104.231263 196.220186,103.576145 L196.220186,88.6332938 Z M199.031266,88.1839473 C198.889121,88.126017 198.737084,88.0962255 198.583588,88.0962255 C197.92847,88.0962255 197.397393,88.6273032 197.397393,89.2824207 L197.397393,103.876219 C197.397393,104.492601 197.869475,105.006276 198.483666,105.058199 L202.682479,105.413156 C202.715712,105.415965 202.749049,105.417372 202.7824,105.417372 C203.437518,105.417372 203.968595,104.886294 203.968595,104.231177 L203.968595,93.7441148 C203.968595,91.59869 202.66976,89.6667982 200.682994,88.8571013 L199.031266,88.1839473 Z M186.213933,84.5552932 C186.213933,83.5908219 185.630044,82.722344 184.736897,82.3583464 L178.430155,79.7880638 C178.28801,79.7301334 178.135973,79.700342 177.982477,79.700342 C177.327359,79.700342 176.796282,80.2314197 176.796282,80.8865372 L176.796282,102.134652 C176.796282,102.751034 177.268364,103.264709 177.882555,103.316631 L184.927816,103.91222 C184.961049,103.915029 184.994386,103.916436 185.027737,103.916436 C185.682855,103.916436 186.213933,103.385358 186.213933,102.730241 L186.213933,84.5552932 Z M175.619075,80.2374103 C175.619075,79.272939 175.035187,78.404461 174.14204,78.0404634 L162.8931,73.4560121 C162.750956,73.3980818 162.598919,73.3682903 162.445423,73.3682903 C161.790305,73.3682903 161.259227,73.899368 161.259227,74.5544855 L161.259227,100.821187 C161.259227,101.437569 161.73131,101.951244 162.345501,102.003166 L174.332959,103.016557 C174.366192,103.019366 174.399529,103.020773 174.43288,103.020773 C175.087998,103.020773 175.619075,102.489695 175.619075,101.834577 L175.619075,80.2374103 Z" id="bus-outline" fill="#3E6817" transform="translate(112.671875, 117.064846) scale(-1, 1) translate(-112.671875, -117.064846) "></path>
                    </g>
                </g>
                <g id="header">
                    <g id="lines_r" transform="translate(1155.000000, 37.000000)" fill-rule="nonzero" stroke="#272727" stroke-linecap="round" stroke-linejoin="round" stroke-opacity="0.626075634" stroke-width="3.97350993">
                        <path d="M0.397350993,22.8 L119.602649,22.8" id="Line-2"></path>
                        <path d="M0.397350993,1.2 L83.8410596,1.2" id="Line-2"></path>
                        <path d="M0.794701987,43.7986755 L84.2384106,43.7986755" id="Line-2"></path>
                    </g>
                    <g id="text" fill="#48751E">
                        <path d="M255.44,6.56 C259.52002,6.56 262.999986,8.0399852 265.88,11 C268.840015,13.8800144 270.32,17.3599796 270.32,21.44 L270.32,27.2 C270.32,28.000004 269.920004,28.4 269.12,28.4 L261.32,28.4 C260.519996,28.4 260.12,28.000004 260.12,27.2 L260.12,21.44 C260.12,20.1599936 259.640005,19.0400048 258.68,18.08 C257.799996,17.1999956 256.720006,16.76 255.44,16.76 C254.319994,16.76 253.240005,17.1999956 252.2,18.08 C251.319996,18.9600044 250.88,20.0799932 250.88,21.44 L250.88,87.44 C250.88,88.7200064 251.319996,89.7999956 252.2,90.68 C253.080004,91.5600044 254.159994,92 255.44,92 C256.720006,92 257.799996,91.5600044 258.68,90.68 C259.640005,89.7199952 260.12,88.640006 260.12,87.44 L260.12,55.64 L253.52,55.64 C252.719996,55.64 252.32,55.240004 252.32,54.44 L252.32,46.64 C252.32,45.839996 252.719996,45.44 253.52,45.44 L269.12,45.44 C269.920004,45.44 270.32,45.839996 270.32,46.64 L270.32,101 C270.32,101.800004 269.920004,102.2 269.12,102.2 L261.32,102.2 C260.679997,102.2 260.280001,101.920003 260.12,101.36 C258.679993,101.920003 257.120008,102.2 255.44,102.2 C251.43998,102.2 247.960015,100.760014 245,97.88 C242.119986,94.7599844 240.68,91.2800192 240.68,87.44 L240.68,21.44 C240.68,17.3599796 242.119986,13.8800144 245,11 C247.960015,8.0399852 251.43998,6.56 255.44,6.56 Z M289.18,37.64 C289.740003,37.64 290.099999,37.9199972 290.26,38.48 C291.700007,37.9199972 293.259992,37.64 294.94,37.64 C296.540008,37.64 298.539988,38.0799956 300.94,38.96 L301.54,39.2 C303.54001,40.2400052 304.859997,41.1999956 305.5,42.08 C305.980002,42.6400028 305.940003,43.1999972 305.38,43.76 L299.86,49.16 C299.299997,49.7200028 298.740003,49.7200028 298.18,49.16 L297.22,48.44 C297.059999,48.44 296.900001,48.3600008 296.74,48.2 C296.579999,48.1199996 296.46,48.08 296.38,48.08 C296.059998,47.9199992 295.580003,47.84 294.94,47.84 C293.659994,47.84 292.580004,48.2799956 291.7,49.16 C291.219998,49.6400024 290.94,50.079998 290.86,50.48 L290.62,50.72 C290.459999,51.2000024 290.38,51.7999964 290.38,52.52 L290.38,101 C290.38,101.800004 289.980004,102.2 289.18,102.2 L281.38,102.2 C280.579996,102.2 280.18,101.800004 280.18,101 L280.18,38.84 C280.18,38.039996 280.579996,37.64 281.38,37.64 L289.18,37.64 Z M336.48,96.2 C337.040003,96.7600028 337.040003,97.3199972 336.48,97.88 C335.919997,98.4400028 335.520001,98.7999992 335.28,98.96 C334.559996,99.4400024 334.24,99.6400004 334.32,99.56 C331.439986,101.320009 328.680013,102.2 326.04,102.2 C322.03998,102.2 318.560015,100.760014 315.6,97.88 C312.719986,94.7599844 311.28,91.2800192 311.28,87.44 L311.28,52.52 C311.28,48.4399796 312.719986,44.9600144 315.6,42.08 C318.560015,39.1199852 322.03998,37.64 326.04,37.64 C330.12002,37.64 333.599986,39.1199852 336.48,42.08 C339.440015,44.9600144 340.92,48.4399796 340.92,52.52 L340.92,73.76 C340.92,74.560004 340.520004,74.96 339.72,74.96 L321.48,74.96 L321.48,87.44 C321.48,88.7200064 321.919996,89.7999956 322.8,90.68 C323.680004,91.5600044 324.759994,92 326.04,92 C326.920004,92 327.759996,91.7600024 328.56,91.28 L328.8,91.16 L329.28,90.68 C329.840003,90.1199972 330.399997,90.1199972 330.96,90.68 L336.48,96.2 Z M330.72,64.88 L330.72,52.52 C330.72,51.2399936 330.240005,50.1200048 329.28,49.16 C328.399996,48.2799956 327.320006,47.84 326.04,47.84 C324.759994,47.84 323.680004,48.2799956 322.8,49.16 C321.919996,50.0400044 321.48,51.1599932 321.48,52.52 L321.48,64.88 L330.72,64.88 Z M348.86,38.84 C348.86,38.039996 349.259996,37.64 350.06,37.64 L354.62,37.64 L354.62,19.4 C354.62,18.8399972 354.859998,18.4800008 355.34,18.32 L363.02,14.48 C363.420002,14.3199992 363.799998,14.339999 364.16,14.54 C364.520002,14.740001 364.7,15.0799976 364.7,15.56 L364.7,37.64 L369.14,37.64 C369.940004,37.64 370.34,38.039996 370.34,38.84 L370.34,46.64 C370.34,47.440004 369.940004,47.84 369.14,47.84 L364.7,47.84 L364.7,101 C364.7,101.800004 364.300004,102.2 363.5,102.2 L355.82,102.2 C355.019996,102.2 354.62,101.800004 354.62,101 L354.62,47.84 L350.06,47.84 C349.259996,47.84 348.86,47.440004 348.86,46.64 L348.86,38.84 Z M411.7,102.2 C410.899996,102.2 410.5,101.800004 410.5,101 L410.5,7.76 C410.5,6.959996 410.899996,6.56 411.7,6.56 L419.5,6.56 C420.300004,6.56 420.7,6.959996 420.7,7.76 L420.7,38.36 C422.140007,37.8799976 423.659992,37.64 425.26,37.64 C429.34002,37.64 432.819986,39.1199852 435.7,42.08 C438.660015,44.9600144 440.14,48.4399796 440.14,52.52 L440.14,101 C440.14,101.800004 439.740004,102.2 438.94,102.2 L431.14,102.2 C430.339996,102.2 429.94,101.800004 429.94,101 L429.94,52.52 C429.94,51.2399936 429.460005,50.1200048 428.5,49.16 C427.619996,48.2799956 426.540006,47.84 425.26,47.84 C423.979994,47.84 422.900004,48.2799956 422.02,49.16 C421.139996,50.0400044 420.7,51.1599932 420.7,52.52 L420.7,101 C420.7,101.800004 420.300004,102.2 419.5,102.2 L411.7,102.2 Z M475.2,96.2 C475.760003,96.7600028 475.760003,97.3199972 475.2,97.88 C474.639997,98.4400028 474.240001,98.7999992 474,98.96 C473.279996,99.4400024 472.96,99.6400004 473.04,99.56 C470.159986,101.320009 467.400013,102.2 464.76,102.2 C460.75998,102.2 457.280015,100.760014 454.32,97.88 C451.439986,94.7599844 450,91.2800192 450,87.44 L450,52.52 C450,48.4399796 451.439986,44.9600144 454.32,42.08 C457.280015,39.1199852 460.75998,37.64 464.76,37.64 C468.84002,37.64 472.319986,39.1199852 475.2,42.08 C478.160015,44.9600144 479.64,48.4399796 479.64,52.52 L479.64,73.76 C479.64,74.560004 479.240004,74.96 478.44,74.96 L460.2,74.96 L460.2,87.44 C460.2,88.7200064 460.639996,89.7999956 461.52,90.68 C462.400004,91.5600044 463.479994,92 464.76,92 C465.640004,92 466.479996,91.7600024 467.28,91.28 L467.52,91.16 L468,90.68 C468.560003,90.1199972 469.119997,90.1199972 469.68,90.68 L475.2,96.2 Z M469.44,64.88 L469.44,52.52 C469.44,51.2399936 468.960005,50.1200048 468,49.16 C467.119996,48.2799956 466.040006,47.84 464.76,47.84 C463.479994,47.84 462.400004,48.2799956 461.52,49.16 C460.639996,50.0400044 460.2,51.1599932 460.2,52.52 L460.2,64.88 L469.44,64.88 Z M490.46,102.2 C489.659996,102.2 489.26,101.800004 489.26,101 L489.26,38.84 C489.26,38.039996 489.659996,37.64 490.46,37.64 L498.26,37.64 C498.820003,37.64 499.179999,37.9199972 499.34,38.48 C500.780007,37.9199972 502.339992,37.64 504.02,37.64 C508.10002,37.64 511.579986,39.1199852 514.46,42.08 C517.420015,44.9600144 518.9,48.4399796 518.9,52.52 L518.9,101 C518.9,101.800004 518.500004,102.2 517.7,102.2 L509.9,102.2 C509.099996,102.2 508.7,101.800004 508.7,101 L508.7,52.52 C508.7,51.2399936 508.220005,50.1200048 507.26,49.16 C506.379996,48.2799956 505.300006,47.84 504.02,47.84 C502.739994,47.84 501.660004,48.2799956 500.78,49.16 C499.899996,50.0400044 499.46,51.1599932 499.46,52.52 L499.46,101 C499.46,101.800004 499.060004,102.2 498.26,102.2 L490.46,102.2 Z M564.74,102.2 C563.939996,102.2 563.54,101.800004 563.54,101 L563.54,16.76 L555.02,16.76 C554.219996,16.76 553.82,16.360004 553.82,15.56 L553.82,7.76 C553.82,6.959996 554.219996,6.56 555.02,6.56 L582.26,6.56 C583.060004,6.56 583.46,6.959996 583.46,7.76 L583.46,15.56 C583.46,16.360004 583.060004,16.76 582.26,16.76 L573.62,16.76 L573.62,101 C573.62,101.800004 573.220004,102.2 572.42,102.2 L564.74,102.2 Z M622.96,101.36 C622.96,102.160004 622.560004,102.56 621.76,102.56 L613.96,102.56 C613.159996,102.56 612.76,102.160004 612.76,101.36 C611.959996,101.600001 611.180004,101.799999 610.42,101.96 C609.659996,102.120001 608.880004,102.2 608.08,102.2 C604.07998,102.2 600.600015,100.760014 597.64,97.88 C594.759986,94.7599844 593.32,91.2800192 593.32,87.44 C593.32,77.9999528 595.119982,71.2400204 598.72,67.16 C600.400008,65.3199908 602.399988,63.4400096 604.72,61.52 C607.040012,59.5999904 609.719985,57.6000104 612.76,55.52 L612.76,52.52 C612.76,51.2399936 612.280005,50.1200048 611.32,49.16 C610.439996,48.2799956 609.360006,47.84 608.08,47.84 C606.799994,47.84 605.720004,48.2799956 604.84,49.16 C603.959996,50.0400044 603.52,51.1599932 603.52,52.52 C603.52,53.320004 603.120004,53.72 602.32,53.72 L594.52,53.72 C593.719996,53.72 593.32,53.320004 593.32,52.52 C593.32,48.4399796 594.759986,44.9600144 597.64,42.08 C600.600015,39.1199852 604.07998,37.64 608.08,37.64 C612.16002,37.64 615.639986,39.1199852 618.52,42.08 C621.480015,44.9600144 622.96,48.4399796 622.96,52.52 L622.96,101.36 Z M612.76,67.88 C610.119987,69.9600104 608.000008,72.199988 606.4,74.6 C604.47999,77.400014 603.52,81.6799712 603.52,87.44 C603.52,88.7200064 603.959996,89.7999956 604.84,90.68 C605.720004,91.5600044 606.799994,92 608.08,92 C609.360006,92 610.439996,91.5600044 611.32,90.68 C612.280005,89.7199952 612.76,88.640006 612.76,87.44 L612.76,67.88 Z M655.02,54.92 C657.10001,61.9600352 658.719994,69.3199616 659.88,77 C661.040006,84.6800384 662.099995,92.6399588 663.06,100.88 C663.14,101.280002 663.060001,101.599999 662.82,101.84 C662.579999,102.080001 662.260002,102.2 661.86,102.2 L654.06,102.2 C653.419997,102.2 653.020001,101.840004 652.86,101.12 C652.219997,95.5999724 651.520004,90.1800266 650.76,84.86 C649.999996,79.5399734 649.060006,74.2000268 647.94,68.84 L643.02,78.68 L643.02,101 C643.02,101.800004 642.620004,102.2 641.82,102.2 L634.02,102.2 C633.219996,102.2 632.82,101.800004 632.82,101 L632.82,7.76 C632.82,6.959996 633.219996,6.56 634.02,6.56 L641.82,6.56 C642.620004,6.56 643.02,6.959996 643.02,7.76 L643.02,56.36 C644.460007,53.4799856 645.939992,50.4600158 647.46,47.3 C648.980008,44.1399842 650.459993,41.160014 651.9,38.36 C652.060001,37.8799976 652.419997,37.64 652.98,37.64 L661.62,37.64 C662.100002,37.64 662.459999,37.8199982 662.7,38.18 C662.940001,38.5400018 662.940001,38.919998 662.7,39.32 L655.02,54.92 Z M697.52,96.2 C698.080003,96.7600028 698.080003,97.3199972 697.52,97.88 C696.959997,98.4400028 696.560001,98.7999992 696.32,98.96 C695.599996,99.4400024 695.28,99.6400004 695.36,99.56 C692.479986,101.320009 689.720013,102.2 687.08,102.2 C683.07998,102.2 679.600015,100.760014 676.64,97.88 C673.759986,94.7599844 672.32,91.2800192 672.32,87.44 L672.32,52.52 C672.32,48.4399796 673.759986,44.9600144 676.64,42.08 C679.600015,39.1199852 683.07998,37.64 687.08,37.64 C691.16002,37.64 694.639986,39.1199852 697.52,42.08 C700.480015,44.9600144 701.96,48.4399796 701.96,52.52 L701.96,73.76 C701.96,74.560004 701.560004,74.96 700.76,74.96 L682.52,74.96 L682.52,87.44 C682.52,88.7200064 682.959996,89.7999956 683.84,90.68 C684.720004,91.5600044 685.799994,92 687.08,92 C687.960004,92 688.799996,91.7600024 689.6,91.28 L689.84,91.16 L690.32,90.68 C690.880003,90.1199972 691.439997,90.1199972 692,90.68 L697.52,96.2 Z M691.76,64.88 L691.76,52.52 C691.76,51.2399936 691.280005,50.1200048 690.32,49.16 C689.439996,48.2799956 688.360006,47.84 687.08,47.84 C685.799994,47.84 684.720004,48.2799956 683.84,49.16 C682.959996,50.0400044 682.52,51.1599932 682.52,52.52 L682.52,64.88 L691.76,64.88 Z M768.02,38.84 C768.02,38.039996 768.419996,37.64 769.22,37.64 L773.78,37.64 L773.78,19.4 C773.78,18.8399972 774.019998,18.4800008 774.5,18.32 L782.18,14.48 C782.580002,14.3199992 782.959998,14.339999 783.32,14.54 C783.680002,14.740001 783.86,15.0799976 783.86,15.56 L783.86,37.64 L788.3,37.64 C789.100004,37.64 789.5,38.039996 789.5,38.84 L789.5,46.64 C789.5,47.440004 789.100004,47.84 788.3,47.84 L783.86,47.84 L783.86,101 C783.86,101.800004 783.460004,102.2 782.66,102.2 L774.98,102.2 C774.179996,102.2 773.78,101.800004 773.78,101 L773.78,47.84 L769.22,47.84 C768.419996,47.84 768.02,47.440004 768.02,46.64 L768.02,38.84 Z M797.8,102.2 C796.999996,102.2 796.6,101.800004 796.6,101 L796.6,7.76 C796.6,6.959996 796.999996,6.56 797.8,6.56 L805.6,6.56 C806.400004,6.56 806.8,6.959996 806.8,7.76 L806.8,38.36 C808.240007,37.8799976 809.759992,37.64 811.36,37.64 C815.44002,37.64 818.919986,39.1199852 821.8,42.08 C824.760015,44.9600144 826.24,48.4399796 826.24,52.52 L826.24,101 C826.24,101.800004 825.840004,102.2 825.04,102.2 L817.24,102.2 C816.439996,102.2 816.04,101.800004 816.04,101 L816.04,52.52 C816.04,51.2399936 815.560005,50.1200048 814.6,49.16 C813.719996,48.2799956 812.640006,47.84 811.36,47.84 C810.079994,47.84 809.000004,48.2799956 808.12,49.16 C807.239996,50.0400044 806.8,51.1599932 806.8,52.52 L806.8,101 C806.8,101.800004 806.400004,102.2 805.6,102.2 L797.8,102.2 Z M861.3,96.2 C861.860003,96.7600028 861.860003,97.3199972 861.3,97.88 C860.739997,98.4400028 860.340001,98.7999992 860.1,98.96 C859.379996,99.4400024 859.06,99.6400004 859.14,99.56 C856.259986,101.320009 853.500013,102.2 850.86,102.2 C846.85998,102.2 843.380015,100.760014 840.42,97.88 C837.539986,94.7599844 836.1,91.2800192 836.1,87.44 L836.1,52.52 C836.1,48.4399796 837.539986,44.9600144 840.42,42.08 C843.380015,39.1199852 846.85998,37.64 850.86,37.64 C854.94002,37.64 858.419986,39.1199852 861.3,42.08 C864.260015,44.9600144 865.74,48.4399796 865.74,52.52 L865.74,73.76 C865.74,74.560004 865.340004,74.96 864.54,74.96 L846.3,74.96 L846.3,87.44 C846.3,88.7200064 846.739996,89.7999956 847.62,90.68 C848.500004,91.5600044 849.579994,92 850.86,92 C851.740004,92 852.579996,91.7600024 853.38,91.28 L853.62,91.16 L854.1,90.68 C854.660003,90.1199972 855.219997,90.1199972 855.78,90.68 L861.3,96.2 Z M855.54,64.88 L855.54,52.52 C855.54,51.2399936 855.060005,50.1200048 854.1,49.16 C853.219996,48.2799956 852.140006,47.84 850.86,47.84 C849.579994,47.84 848.500004,48.2799956 847.62,49.16 C846.739996,50.0400044 846.3,51.1599932 846.3,52.52 L846.3,64.88 L855.54,64.88 Z M905.62,102.2 C904.819996,102.2 904.42,101.800004 904.42,101 L904.42,7.76 C904.42,6.959996 904.819996,6.56 905.62,6.56 L921.1,6.56 C924.620018,6.56 927.659987,7.8399872 930.22,10.4 C932.780013,12.9600128 934.06,15.9599828 934.06,19.4 L934.06,58.28 C934.06,61.8000176 932.780013,64.8399872 930.22,67.4 C928.699992,68.7600068 927.180008,69.7199972 925.66,70.28 C927.100007,75.4000256 928.539993,80.459975 929.98,85.46 C931.420007,90.460025 932.859993,95.5199744 934.3,100.64 C934.460001,101.040002 934.400001,101.399998 934.12,101.72 C933.839999,102.040002 933.500002,102.2 933.1,102.2 L925.06,102.2 C924.419997,102.2 924.020001,101.920003 923.86,101.36 L915.34,71.12 L914.62,71.12 L914.62,101 C914.62,101.800004 914.220004,102.2 913.42,102.2 L905.62,102.2 Z M914.62,16.76 L914.62,60.92 L921.1,60.92 C921.900004,60.92 922.539998,60.6800024 923.02,60.2 C923.580003,59.6399972 923.86,59.0000036 923.86,58.28 L923.86,19.4 C923.86,18.7599968 923.580003,18.1600028 923.02,17.6 C922.459997,17.0399972 921.820004,16.76 921.1,16.76 L914.62,16.76 Z M958.68,37.64 C962.76002,37.64 966.239986,39.1199852 969.12,42.08 C972.080015,44.9600144 973.56,48.4399796 973.56,52.52 L973.56,87.44 C973.56,91.44002 972.080015,94.9199852 969.12,97.88 C966.239986,100.760014 962.76002,102.2 958.68,102.2 C954.67998,102.2 951.200015,100.760014 948.24,97.88 C945.359986,94.7599844 943.92,91.2800192 943.92,87.44 L943.92,52.52 C943.92,48.4399796 945.359986,44.9600144 948.24,42.08 C951.200015,39.1199852 954.67998,37.64 958.68,37.64 Z M958.68,47.84 C957.399994,47.84 956.320004,48.2799956 955.44,49.16 C954.559996,50.0400044 954.12,51.1599932 954.12,52.52 L954.12,87.44 C954.12,88.7200064 954.559996,89.7999956 955.44,90.68 C956.320004,91.5600044 957.399994,92 958.68,92 C959.960006,92 961.039996,91.5600044 961.92,90.68 C962.880005,89.7199952 963.36,88.640006 963.36,87.44 L963.36,52.52 C963.36,51.2399936 962.880005,50.1200048 961.92,49.16 C961.039996,48.2799956 959.960006,47.84 958.68,47.84 Z M1011.86,37.64 C1012.66,37.64 1013.06,38.039996 1013.06,38.84 L1013.06,101 C1013.06,101.800004 1012.66,102.2 1011.86,102.2 L1004.06,102.2 C1003.42,102.2 1003.02,101.920003 1002.86,101.36 C1001.41999,101.920003 999.860008,102.2 998.18,102.2 C994.17998,102.2 990.700015,100.760014 987.74,97.88 C984.859986,94.7599844 983.42,91.2800192 983.42,87.44 L983.42,38.84 C983.42,38.039996 983.819996,37.64 984.62,37.64 L992.42,37.64 C993.220004,37.64 993.62,38.039996 993.62,38.84 L993.62,87.44 C993.62,88.7200064 994.059996,89.7999956 994.94,90.68 C995.820004,91.5600044 996.899994,92 998.18,92 C999.460006,92 1000.54,91.5600044 1001.42,90.68 C1002.38,89.7199952 1002.86,88.640006 1002.86,87.44 L1002.86,38.84 C1002.86,38.039996 1003.26,37.64 1004.06,37.64 L1011.86,37.64 Z M1024.12,102.2 C1023.32,102.2 1022.92,101.800004 1022.92,101 L1022.92,38.84 C1022.92,38.039996 1023.32,37.64 1024.12,37.64 L1031.92,37.64 C1032.48,37.64 1032.84,37.9199972 1033,38.48 C1034.44001,37.9199972 1035.99999,37.64 1037.68,37.64 C1041.76002,37.64 1045.23999,39.1199852 1048.12,42.08 C1051.08001,44.9600144 1052.56,48.4399796 1052.56,52.52 L1052.56,101 C1052.56,101.800004 1052.16,102.2 1051.36,102.2 L1043.56,102.2 C1042.76,102.2 1042.36,101.800004 1042.36,101 L1042.36,52.52 C1042.36,51.2399936 1041.88,50.1200048 1040.92,49.16 C1040.04,48.2799956 1038.96001,47.84 1037.68,47.84 C1036.39999,47.84 1035.32,48.2799956 1034.44,49.16 C1033.56,50.0400044 1033.12,51.1599932 1033.12,52.52 L1033.12,101 C1033.12,101.800004 1032.72,102.2 1031.92,102.2 L1024.12,102.2 Z M1077.18,37.64 C1078.86001,37.64 1080.41999,37.8799976 1081.86,38.36 L1081.86,7.76 C1081.86,6.959996 1082.26,6.56 1083.06,6.56 L1090.86,6.56 C1091.66,6.56 1092.06,6.959996 1092.06,7.76 L1092.06,101 C1092.06,101.800004 1091.66,102.2 1090.86,102.2 L1083.06,102.2 C1082.42,102.2 1082.02,101.920003 1081.86,101.36 C1080.41999,101.920003 1078.86001,102.2 1077.18,102.2 C1073.17998,102.2 1069.70001,100.760014 1066.74,97.88 C1063.85999,94.7599844 1062.42,91.2800192 1062.42,87.44 L1062.42,52.52 C1062.42,48.4399796 1063.85999,44.9600144 1066.74,42.08 C1069.70001,39.1199852 1073.17998,37.64 1077.18,37.64 Z M1077.18,47.84 C1075.89999,47.84 1074.82,48.2799956 1073.94,49.16 C1073.06,50.0400044 1072.62,51.1599932 1072.62,52.52 L1072.62,87.44 C1072.62,88.7200064 1073.06,89.7999956 1073.94,90.68 C1074.82,91.5600044 1075.89999,92 1077.18,92 C1078.46001,92 1079.54,91.5600044 1080.42,90.68 C1081.38,89.7199952 1081.86,88.640006 1081.86,87.44 L1081.86,52.52 C1081.86,51.2399936 1081.38,50.1200048 1080.42,49.16 C1079.54,48.2799956 1078.46001,47.84 1077.18,47.84 Z" id="text-outlines"></path>
                        <path d="M737.908606,72.2106342 C739.23668,74.4297566 740,77.0257278 740,79.799982 C740,79.8050287 739.999997,80.7478076 739.999997,82 C739.999992,84.4082153 740,87.3910127 740,87.4 C740,90.1742541 739.23668,92.7702254 737.908606,94.9893477 C737.276845,96.0024735 736.503977,96.9660232 735.59,97.88 C734.766651,98.7033488 733.894269,99.4090049 732.97285,99.9969693 C730.928148,101.26132 728.5526,102.041748 726.006035,102.178424 C725.731854,102.192392 725.454844,102.199578 725.175007,102.199982 C720.777411,102.192708 716.829641,100.267479 714.123479,97.2160886 C712.917691,95.7881401 712.003977,94.287183 711.382334,92.7132078 C710.848803,91.3265851 710.517987,89.8393542 710.42619,88.2878195 C710.420528,88.1921215 710.567489,88 710.645264,88 L720.284668,88 C720.395544,88 720.649945,88.2409335 720.671742,88.358428 C720.836233,89.2451314 721.248984,90.0189841 721.91,90.68 C722.790004,91.5600044 723.869994,92 725.15,92 C726.430006,92 727.509996,91.5600044 728.39,90.68 C729.350005,89.7199952 729.83,88.640006 729.83,87.44 L729.83,79.759982 C729.83,78.559976 729.350005,77.4799868 728.39,76.519982 C727.509996,75.6399776 726.430006,75.199982 725.15,75.199982 C720.61943,74.7524414 716.862549,72.7612305 714.055635,70.0646841 C713.46761,69.3977058 712.950176,68.7059274 712.503334,67.9893477 C711.17526,65.7702254 710.41194,63.1742541 710.41194,60.4 C710.41194,60.3949532 710.411943,59.4521743 710.411944,58.199982 C710.411948,55.7917666 710.41194,52.8089693 710.41194,52.799982 C710.41194,50.0257278 711.17526,47.4297566 712.503334,45.2106342 C713.135095,44.1975085 713.907964,43.2339588 714.82194,42.319982 C715.645289,41.4966331 716.517672,40.7909771 717.43909,40.2030127 C719.483792,38.938662 721.85934,38.1582342 724.405905,38.021558 C724.680086,38.00759 724.957097,38.0004039 725.236933,38 C729.634529,38.0072744 733.582299,39.9325029 736.288461,42.9838934 C737.49425,44.4118418 738.407964,45.9127989 739.029607,47.4867742 C739.554961,48.8521468 739.883766,50.3150676 739.981362,51.8408758 C739.988994,51.9601988 739.816985,52.199982 739.726196,52.199982 C735.467242,52.199982 732.261798,52.199982 730.109863,52.199982 C730.004079,52.199982 729.765824,51.9856761 729.747317,51.8808704 C729.587831,50.9777074 729.172708,50.1907494 728.50194,49.519982 C727.621936,48.6399776 726.541947,48.199982 725.26194,48.199982 C723.981934,48.199982 722.901945,48.6399776 722.02194,49.519982 C721.061936,50.4799868 720.58194,51.559976 720.58194,52.759982 L720.58194,60.44 C720.58194,61.640006 721.061936,62.7199952 722.02194,63.68 C722.901945,64.5600044 723.981934,65 725.26194,65 C729.792511,65.4475406 733.549392,67.4387515 736.356306,70.1352979 C736.944331,70.8022761 737.461764,71.4940545 737.908606,72.2106342 Z" id="s"></path>
                        <path d="M387.75,53.76 L387.75,88.44 C387.75,89.7200064 388.189996,90.7999956 389.07,91.68 C389.950004,92.5600044 391.029994,93 392.31,93 C393.190004,93 394.029996,92.7600024 394.83,92.28 L395.07,92.16 L395.55,91.68 C396.110003,91.1199972 396.669997,91.1199972 397.23,91.68 L402.75,97.2 C403.310003,97.7600028 403.310003,98.3199972 402.75,98.88 C402.189997,99.4400028 401.790001,99.7999992 401.55,99.96 C400.829996,100.440002 400.51,100.64 400.59,100.56 C397.709986,102.320009 394.950013,103.2 392.31,103.2 C388.30998,103.2 384.830015,101.760014 381.87,98.88 C378.989986,95.7599844 377.55,92.2800192 377.55,88.44 L377.55,53.76 C377.55,49.9199808 378.989986,46.4400156 381.87,43.32 C384.830015,40.4399856 388.30998,39 392.31,39 C394.950013,39 397.709986,39.8799912 400.59,41.64 C400.51,41.5599996 400.829996,41.7599976 401.55,42.24 C401.790001,42.4000008 402.189997,42.7599972 402.75,43.32 C403.310003,43.8800028 403.310003,44.4399972 402.75,45 L397.23,50.52 C396.669997,51.0800028 396.110003,51.0800028 395.55,50.52 L395.07,50.04 L394.83,49.92 C394.029996,49.4399976 393.190004,49.2 392.31,49.2 C391.029994,49.2 389.950004,49.6399956 389.07,50.52 C388.189996,51.4000044 387.75,52.4799936 387.75,53.76 Z" id="c"></path>
                    </g>
                    <g id="lines_l" transform="translate(119.000000, 59.000000) scale(-1, 1) translate(-119.000000, -59.000000) translate(59.000000, 37.000000)" fill-rule="nonzero" stroke="#272727" stroke-linecap="round" stroke-linejoin="round" stroke-opacity="0.626075634" stroke-width="3.97350993">
                        <path d="M0.397350993,22.8 L119.602649,22.8" id="Line-2"></path>
                        <path d="M0.397350993,1.2 L83.8410596,1.2" id="Line-2"></path>
                        <path d="M0.794701987,43.7986755 L84.2384106,43.7986755" id="Line-2"></path>
                    </g>
                </g>
            </g>
        </g>
    </g>
</svg>