<?xml version="1.0" encoding="UTF-8"?>
<svg width="336px" height="161px" viewBox="0 0 336 161" version="1.1" xmlns="http://www.w3.org/2000/svg" xmlns:xlink="http://www.w3.org/1999/xlink">
    <!-- Generator: Sketch 51.3 (57544) - http://www.bohemiancoding.com/sketch -->
    <title>bus_derby_logo</title>
    <desc>Created with Sketch.</desc>
    <defs></defs>
    <g id="Page-1" stroke="none" stroke-width="1" fill="none" fill-rule="evenodd">
        <g id="UI" transform="translate(-91.000000, -87.000000)">
            <g id="bus_derby_logo" transform="translate(93.000000, 87.000000)">
                <g id="bus_derby_logo_1">
                    <g id="backdrop" transform="translate(23.633898, 0.000000)" fill="#A52E09" fill-rule="nonzero">
                        <path d="M142.429056,8.97642641 L283.487019,0.0785457222 C284.038209,0.0437769224 284.513221,0.462418403 284.54799,1.01360764 C284.552601,1.08669762 284.549168,1.1600729 284.537754,1.23241326 L272.376525,78.309977 C272.36063,78.4107178 272.36024,78.5132974 272.375367,78.6141563 L284.548577,159.775719 C284.630496,160.321895 284.254142,160.831066 283.707967,160.912986 C283.638058,160.923471 283.567235,160.926514 283.496684,160.922064 L142.429056,152.023574 C142.387128,152.020929 142.345075,152.020929 142.303147,152.023574 L1.23551931,160.922064 C0.684330074,160.956833 0.209317231,160.538191 0.174548431,159.987002 C0.170098134,159.916452 0.173141218,159.845628 0.183626645,159.775719 L12.3568361,78.6141563 C12.3719637,78.5132974 12.3715733,78.4107178 12.3556785,78.309977 L0.194449067,1.23241326 C0.108374861,0.686877122 0.480842348,0.174855774 1.02637848,0.0887815674 C1.09871884,0.0773677706 1.17209412,0.0739352351 1.2451841,0.0785457222 L142.303147,8.97642641 C142.345075,8.97907121 142.387128,8.97907121 142.429056,8.97642641 Z"></path>
                    </g>
                    <g id="outline" transform="translate(0.000000, 2.251748)" fill="#F6EDD0" fill-rule="nonzero" stroke-linecap="round" stroke-linejoin="round">
                        <path d="M11.5493516,16.4355717 L165.632485,0 L319.998538,16.4362794 C322.800746,16.7346473 325.017693,18.9429406 325.327018,21.7439602 L331.549844,78.0932629 L325.320182,135.341445 C325.014954,138.146369 322.796667,140.359676 319.991065,140.658598 L165.735356,157.093751 L11.5593954,140.658919 C8.7535162,140.359818 6.53521778,138.145978 6.23047247,135.340706 L0,77.9873427 L6.22212265,21.7420034 C6.5318846,18.9418873 8.74804528,16.7343784 11.5493516,16.4355717 Z" id="Rectangle" stroke="#272727" stroke-width="3.00000012"></path>
                        <path d="M14.1726077,20.7023084 L165.568673,4.72867152 L317.240798,20.7027934 C319.195218,20.9086331 320.745603,22.4422051 320.97274,24.3942654 L327.160691,77.5747904 L320.959766,132.979403 C320.740427,134.93918 319.187172,136.482439 317.22602,136.689121 L165.668862,152.661458 L14.1892082,136.689343 C12.2278599,136.482537 10.674595,134.938905 10.4555922,132.978881 L4.25410186,77.4769734 L10.4415422,24.3928679 C10.6689972,22.4414554 12.2188287,20.9084495 14.1726077,20.7023084 Z" id="Rectangle" stroke="#9C2C0A" stroke-width="1.10835064"></path>
                    </g>
                    <g id="BUS-DERBY-drop" transform="translate(45.104189, 41.657344)" fill="#677956">
                        <path d="M241.280204,44.7401449 L241.280204,69.3963758 C241.280204,69.8594059 241.143998,70.2645512 240.871581,70.6118238 C240.599165,70.9590964 240.28135,71.1327301 239.918128,71.1327301 L235.491381,71.1327301 C235.128159,71.1327301 234.810344,70.9590964 234.537928,70.6118238 C234.265511,70.2645512 234.129305,69.8594059 234.129305,69.3963758 L234.129305,44.7401449 C233.175847,37.794693 232.188352,30.71912 231.16679,23.5132137 C230.145227,16.3073074 229.157732,9.23173439 228.204274,2.2862825 C228.113469,1.70749484 228.204273,1.21553271 228.476689,0.810381352 C228.749106,0.405229992 229.112323,0.202657351 229.56635,0.202657351 L234.061201,0.202657351 C234.787645,0.202657351 235.241666,0.665680531 235.423277,1.59174078 L237.670703,18.0871065 C238.033925,15.3089258 238.419842,12.5741951 238.828467,9.88283252 C239.237092,7.19146991 239.62301,4.45673925 239.986232,1.6785585 C240.077038,1.27340714 240.247295,0.926139752 240.497011,0.636745923 C240.746726,0.347352095 241.030489,0.202657351 241.348308,0.202657351 L245.843159,0.202657351 C246.297187,0.202657351 246.660403,0.405229992 246.93282,0.810381352 C247.205236,1.21553271 247.296041,1.70749484 247.205235,2.2862825 L241.280204,44.7401449 Z M216.291893,20.3210053 C216.291893,21.8255901 215.837872,23.2011899 214.929817,24.4478459 C215.837872,25.6945019 216.291893,27.0915954 216.291893,28.6391683 L216.291893,45.3399764 C216.291893,47.4893833 215.497356,49.2733642 213.908259,50.6919728 L213.908259,50.6274909 C212.319163,52.1320757 210.434976,52.8843568 208.255644,52.8843568 L199.470253,52.8843568 C199.107031,52.8843568 198.789217,52.7553944 198.5168,52.4974655 C198.244383,52.2395367 198.108177,51.9386243 198.108177,51.5947192 L198.108177,1.49229504 C198.108177,1.14838993 198.244383,0.847477484 198.5168,0.589548657 C198.789217,0.33161983 199.107031,0.202657351 199.470253,0.202657351 L208.255644,0.202657351 C210.434976,0.202657351 212.319163,0.954938478 213.908259,2.4595233 C215.497356,3.96410813 216.291893,5.72659534 216.291893,7.74703782 L216.291893,20.3210053 Z M208.255644,21.0947879 C208.482658,21.0947879 208.732369,20.9658254 209.004786,20.7078966 C209.095591,20.6219203 209.140993,20.4929578 209.140993,20.3210053 L209.140993,7.74703782 C209.140993,7.57508526 209.050189,7.40313529 208.868578,7.23118274 C208.686967,7.05923019 208.482658,6.9732552 208.255644,6.9732552 L205.259077,6.9732552 L205.259077,21.0947879 L208.255644,21.0947879 Z M205.259077,27.8653857 L205.259077,46.113759 L208.255644,46.113759 C208.52806,46.113759 208.73237,46.0492777 208.868578,45.9203133 C209.050189,45.7483608 209.140993,45.5549171 209.140993,45.3399764 L209.140993,28.6391683 C209.140993,28.4242276 209.050189,28.2307839 208.868578,28.0588314 C208.73237,27.929867 208.52806,27.8653857 208.255644,27.8653857 L205.259077,27.8653857 Z M170.049411,52.8843568 C169.686189,52.8843568 169.368374,52.7553944 169.095957,52.4974655 C168.823541,52.2395367 168.687335,51.9386243 168.687335,51.5947192 L168.687335,1.49229504 C168.687335,1.14838993 168.823541,0.847477484 169.095957,0.589548657 C169.368374,0.33161983 169.686189,0.202657351 170.049411,0.202657351 L178.834801,0.202657351 C181.014134,0.202657351 182.89832,0.954938478 184.487417,2.4595233 C186.076514,3.96410813 186.87105,5.72659534 186.87105,7.74703782 L186.87105,28.6391683 C186.87105,30.7455871 186.076514,32.5510618 184.487417,34.0556466 C184.169598,34.3565636 183.79503,34.6359823 183.363704,34.8939111 C182.932378,35.1518399 182.53511,35.3667774 182.171888,35.53873 C182.943735,38.1610064 183.738271,40.7832434 184.555521,43.4055198 C185.37277,46.0277962 186.167307,48.6500333 186.939154,51.2723097 C187.075362,51.7021911 187.018609,52.0783317 186.768894,52.4007427 C186.519179,52.7231537 186.144612,52.8843568 185.645181,52.8843568 L181.082227,52.8843568 C180.80981,52.8843568 180.548748,52.787635 180.299033,52.5941884 C180.049318,52.4007417 179.87906,52.1750574 179.788254,51.9171286 L175.838234,38.6338604 L175.838234,51.5947192 C175.838234,51.9386243 175.702028,52.2395367 175.429611,52.4974655 C175.157195,52.7553944 174.83938,52.8843568 174.476158,52.8843568 L170.049411,52.8843568 Z M175.838234,6.9732552 L175.838234,29.4129509 L178.834801,29.4129509 C179.107218,29.4129509 179.311527,29.3484697 179.447735,29.2195053 C179.629347,29.0475527 179.720151,28.854109 179.720151,28.6391683 L179.720151,7.74703782 C179.720151,7.57508526 179.629347,7.40313529 179.447735,7.23118274 C179.266124,7.05923019 179.061815,6.9732552 178.834801,6.9732552 L175.838234,6.9732552 Z M146.417391,21.0947879 L153.840706,21.0947879 C154.203928,21.0947879 154.521742,21.2237503 154.794159,21.4816792 C155.066576,21.739608 155.202782,22.0405205 155.202782,22.3844256 L155.202782,26.575748 C155.202782,26.9196531 155.066576,27.2205656 154.794159,27.4784944 C154.521742,27.7364232 154.203928,27.8653857 153.840706,27.8653857 L146.417391,27.8653857 L146.417391,46.113759 L156.088131,46.113759 C156.451353,46.113759 156.769168,46.2427215 157.041585,46.5006503 C157.314001,46.7585791 157.450207,47.0594916 157.450207,47.4033967 L157.450207,51.5947192 C157.450207,51.9386243 157.314001,52.2395367 157.041585,52.4974655 C156.769168,52.7553944 156.451353,52.8843568 156.088131,52.8843568 L140.628568,52.8843568 C140.265346,52.8843568 139.947531,52.7553944 139.675115,52.4974655 C139.402698,52.2395367 139.266492,51.9386243 139.266492,51.5947192 L139.266492,1.49229504 C139.266492,1.14838993 139.402698,0.847477484 139.675115,0.589548657 C139.947531,0.33161983 140.265346,0.202657351 140.628568,0.202657351 L156.088131,0.202657351 C156.451353,0.202657351 156.769168,0.33161983 157.041585,0.589548657 C157.314001,0.847477484 157.450207,1.14838993 157.450207,1.49229504 L157.450207,5.68361752 C157.450207,6.02752262 157.314001,6.32843507 157.041585,6.5863639 C156.769168,6.84429272 156.451353,6.9732552 156.088131,6.9732552 L146.417391,6.9732552 L146.417391,21.0947879 Z M111.207725,52.8843568 C110.844503,52.8843568 110.526689,52.7553944 110.254272,52.4974655 C109.981856,52.2395367 109.845649,51.9386243 109.845649,51.5947192 L109.845649,1.49229504 C109.845649,1.14838993 109.981856,0.847477484 110.254272,0.589548657 C110.526689,0.33161983 110.844503,0.202657351 111.207725,0.202657351 L119.993116,0.202657351 C122.172449,0.202657351 124.056635,0.954938478 125.645732,2.4595233 C127.234828,3.96410813 128.029365,5.72659534 128.029365,7.74703782 L128.029365,45.3399764 C128.029365,47.4893833 127.234828,49.2733642 125.645732,50.6919728 L125.645732,50.6274909 C124.056635,52.1320757 122.172449,52.8843568 119.993116,52.8843568 L111.207725,52.8843568 Z M116.996549,46.113759 L119.993116,46.113759 C120.265533,46.113759 120.469842,46.0492777 120.60605,45.9203133 C120.787661,45.7483608 120.878465,45.5549171 120.878465,45.3399764 L120.878465,7.74703782 C120.878465,7.57508526 120.787661,7.40313529 120.60605,7.23118274 C120.424439,7.05923019 120.22013,6.9732552 119.993116,6.9732552 L116.996549,6.9732552 L116.996549,46.113759 Z M71.3670012,14.32419 C71.0037791,14.32419 70.6859645,14.1952275 70.4135479,13.9372987 C70.1411314,13.6793699 70.0049251,13.3784574 70.0049251,13.0345523 L70.0049251,8.58530231 C70.0049251,8.49932604 69.9141209,8.21990733 69.7325099,7.74703782 C69.6871071,7.66106154 69.7098082,7.67180841 69.8006137,7.77927876 C69.8914192,7.8867491 69.8687182,7.85450848 69.7325099,7.68255593 C69.6871071,7.63956779 69.6644061,7.62882092 69.6644061,7.65031499 C69.6644061,7.67180906 69.6417051,7.63956844 69.5963023,7.55359216 C69.5054968,7.51060403 69.3465895,7.38164155 69.1195757,7.16670086 C68.8471591,7.03773644 68.5747466,6.9732552 68.30233,6.9732552 C68.0299135,6.9732552 67.8710062,6.99474895 67.8256034,7.03773709 C67.7802007,7.08072523 67.7120975,7.12371272 67.621292,7.16670086 C67.5758893,7.20968899 67.5077861,7.23118274 67.4169806,7.23118274 L67.280773,7.23118274 C67.3261758,7.1881946 67.3488768,7.08072587 67.3488768,6.90877332 C67.303474,6.9947496 67.258072,7.1129652 67.2126692,7.26342368 C67.1672664,7.41388217 67.0991633,7.53209777 67.0083578,7.61807405 C66.781344,7.87600287 66.6678388,8.19840907 66.6678388,8.58530231 L66.6678388,13.0345523 C66.6678388,13.8943151 66.781344,14.9260149 67.0083578,16.1296828 L66.940254,16.0652009 C67.121865,16.8389874 67.4623806,17.806206 67.961811,18.9668857 C68.3250331,19.9126247 68.8131055,20.8798433 69.4260428,21.8685705 C70.0389801,22.8572977 70.6859597,23.84601 71.3670012,24.8347372 C71.8210288,25.6085236 72.2296475,26.253336 72.5928696,26.7691937 C72.7744807,27.0271225 72.9220374,27.2635537 73.0355443,27.4784944 L73.3420114,28.0588314 C73.5690252,28.4027365 73.7733346,28.7681302 73.9549457,29.1550234 C74.1365567,29.5419166 74.3408661,29.9288041 74.5678799,30.3156973 L75.1808141,31.5408531 C75.4078279,32.1426871 75.6348383,32.7660057 75.8618521,33.4108278 C76.0888659,34.0556498 76.3158764,34.7649435 76.5428902,35.53873 C76.769904,36.2695283 76.9174607,37.0110626 76.9855649,37.763355 C77.053669,38.5156474 77.0877206,39.2786754 77.0877206,40.0524619 L77.0877206,44.5661938 C77.0877206,45.7698616 76.8834112,46.8230552 76.4747864,47.7258061 L76.4747864,47.6613242 C76.4293836,47.919253 76.3158784,48.1556842 76.1342673,48.3706249 C75.7256425,49.2733758 75.1354154,50.0041632 74.3635685,50.563009 C73.500916,51.3367955 72.5928744,51.9171266 71.6394164,52.3040199 C70.6859584,52.6909131 69.5736074,52.8843568 68.30233,52.8843568 C67.1218582,52.8843568 65.9641052,52.6479256 64.8290361,52.1750561 C64.7382306,52.132068 64.6587769,52.0890805 64.5906728,52.0460923 C64.5225687,52.0031042 64.5112181,51.9816105 64.5566209,51.9816105 C64.0117877,51.7666698 63.5464164,51.5302386 63.1604929,51.2723097 C62.7745695,51.0143809 62.4227033,50.7349622 62.104884,50.4340452 C60.379579,48.800496 59.5169395,46.8445651 59.5169395,44.5661938 L59.5169395,40.0524619 C59.5169395,39.7085568 59.6531457,39.4076443 59.9255623,39.1497155 C60.1979789,38.8917867 60.5157935,38.7628242 60.8790156,38.7628242 L65.3057627,38.7628242 C65.6689848,38.7628242 65.9867994,38.8917867 66.259216,39.1497155 C66.5316325,39.4076443 66.6678388,39.7085568 66.6678388,40.0524619 L66.6678388,44.5661938 C66.6678388,44.9960751 66.8267461,45.3614688 67.1445654,45.6623858 C67.1445654,45.7483621 67.2353696,45.8343371 67.4169806,45.9203133 C67.4623834,45.9633015 67.5304865,45.9847952 67.621292,45.9847952 C67.6666948,45.9847952 67.7120969,46.006289 67.7574996,46.0492771 C67.8483051,46.0492771 67.9391093,46.060024 68.0299148,46.081518 C68.1207204,46.1030121 68.2115245,46.113759 68.30233,46.113759 C68.8017604,46.113759 69.2103792,45.9633028 69.5281985,45.6623858 C69.619004,45.5764095 69.6530556,45.5549158 69.6303542,45.5979039 C69.6076528,45.640892 69.6417044,45.5979046 69.7325099,45.4689401 C69.7325099,45.3829639 69.7438604,45.3292295 69.7665618,45.3077354 C69.7892632,45.2862414 69.8006137,45.2540007 69.8006137,45.2110126 C69.8006137,45.1680245 69.8233147,45.125037 69.8687175,45.0820488 L69.8687175,45.1465307 C69.959523,44.9745782 70.0049251,44.7811344 70.0049251,44.5661938 L70.0049251,40.0524619 C70.0049251,39.0207466 69.8914199,38.0320342 69.6644061,37.0862952 C69.3919895,36.2265324 69.0287729,35.2808076 68.5747453,34.2490923 C68.3477314,33.7762228 68.120721,33.2926135 67.8937072,32.7982499 C67.6666934,32.3038863 67.3942809,31.820277 67.0764616,31.3474075 C66.8494478,31.0035024 66.5997363,30.5736274 66.3273198,30.0577698 C66.0549032,29.5419121 65.7143876,28.961581 65.3057627,28.3167589 C64.6247213,27.2850436 63.9550406,26.1888625 63.2967005,25.0281828 C62.6383605,23.8675031 62.0367829,22.7068408 61.4919498,21.5461611 C61.1287277,20.7723746 60.8109131,20.0415872 60.5384965,19.353777 C60.26608,18.6659668 60.0844716,18.0426481 59.9936661,17.4838023 C59.8120551,16.7100159 59.6871993,15.9469879 59.6190952,15.1946955 C59.5509911,14.442403 59.5169395,13.7223625 59.5169395,13.0345523 L59.5169395,8.58530231 C59.5169395,6.99474121 59.9709603,5.5116727 60.8790156,4.13605229 L60.8109117,4.20053418 C60.8563145,4.1145579 60.8903661,4.02858292 60.9130675,3.94260664 C60.9357688,3.85663037 61.0833256,3.68468039 61.3557422,3.42675157 L61.5600536,3.23330591 C61.7416646,3.06135336 61.8551698,2.93239088 61.9005726,2.84641461 C62.2637947,2.50250951 62.6724134,2.16935643 63.126441,1.8469454 C63.5804687,1.52453437 64.0798916,1.25586254 64.6247247,1.04092185 C64.4885164,1.08390998 64.6020216,1.01942875 64.9652437,0.847476194 C66.05491,0.417594816 67.167261,0.202657351 68.30233,0.202657351 C69.9822322,0.202657351 71.525903,0.632532281 72.9333886,1.49229504 C73.0695969,1.57827131 73.2171537,1.6642463 73.3760633,1.75022257 C73.534973,1.83619885 73.6598287,1.92217384 73.7506343,2.00815011 L73.6825305,2.00815011 C73.773336,2.05113825 73.8754907,2.14786011 73.9889976,2.29831859 C74.1025045,2.44877707 74.2727623,2.58848643 74.4997761,2.71745084 C74.8629982,3.06135594 75.1808127,3.41600276 75.4532293,3.78140193 C75.7256459,4.1468011 75.9526563,4.50144792 76.1342673,4.84535302 L76.4747864,5.3612081 C76.8834112,6.3929234 77.0877206,7.46761073 77.0877206,8.58530231 L77.0877206,13.0345523 C77.0877206,13.3784574 76.9515143,13.6793699 76.6790978,13.9372987 C76.4066812,14.1952275 76.0888666,14.32419 75.7256445,14.32419 L71.3670012,14.32419 Z M46.9177361,0.202657351 C47.2809582,0.202657351 47.5987728,0.33161983 47.8711894,0.589548657 C48.1436059,0.847477484 48.2798122,1.14838993 48.2798122,1.49229504 L48.2798122,44.3082662 C48.2798122,46.6296257 47.3717706,48.6500378 45.5556601,50.3695633 C43.7849524,52.0461007 41.6510546,52.8843568 39.1539026,52.8843568 C36.7021535,52.8843568 34.5682557,52.0461007 32.7521452,50.3695633 C30.9814375,48.5640616 30.0960969,46.5436494 30.0960969,44.3082662 L30.0960969,1.49229504 C30.0960969,1.14838993 30.2323031,0.847477484 30.5047197,0.589548657 C30.7771363,0.33161983 31.0949508,0.202657351 31.4581729,0.202657351 L35.8849201,0.202657351 C36.2481422,0.202657351 36.5659568,0.33161983 36.8383733,0.589548657 C37.1107899,0.847477484 37.2469962,1.14838993 37.2469962,1.49229504 L37.2469962,44.3082662 C37.2469962,44.8241239 37.4286045,45.2539988 37.7918266,45.5979039 C38.1550487,45.941809 38.6090695,46.113759 39.1539026,46.113759 C39.6987358,46.113759 40.1527566,45.941809 40.5159787,45.5979039 C40.9246035,45.2110107 41.1289129,44.7811357 41.1289129,44.3082662 L41.1289129,1.49229504 C41.1289129,1.14838993 41.2651192,0.847477484 41.5375357,0.589548657 C41.8099523,0.33161983 42.1277669,0.202657351 42.490989,0.202657351 L46.9177361,0.202657351 Z M18.1837153,27.2897843 C18.1837153,29.3155411 17.7296945,31.1676338 16.8216393,32.846118 C17.7296945,34.5246022 18.1837153,36.4056339 18.1837153,38.4892694 L18.1837153,60.9750575 C18.1837153,63.8689958 17.3891789,66.2709285 15.8000822,68.1809278 L15.8000822,68.0941101 C14.2109855,70.1198669 12.3267992,71.1327301 10.1474666,71.1327301 L1.36207605,71.1327301 C0.998853956,71.1327301 0.681039389,70.9590964 0.408622816,70.6118238 C0.136206243,70.2645512 0,69.8594059 0,69.3963758 L0,1.93901164 C0,1.47598151 0.136206243,1.07083623 0.408622816,0.723563638 C0.681039389,0.376291043 0.998853956,0.202657351 1.36207605,0.202657351 L10.1474666,0.202657351 C12.3267992,0.202657351 14.2109855,1.21552056 15.8000822,3.24127736 C17.3891789,5.26703416 18.1837153,7.64002796 18.1837153,10.3603299 L18.1837153,27.2897843 Z M10.1474666,28.3315968 C10.3744804,28.3315968 10.6241919,28.1579632 10.8966084,27.8106906 C10.9874139,27.694933 11.032816,27.5212993 11.032816,27.2897843 L11.032816,10.3603299 C11.032816,10.1288149 10.9420119,9.89730329 10.7604008,9.66578823 C10.5787898,9.43427317 10.3744804,9.31851737 10.1474666,9.31851737 L7.15089928,9.31851737 L7.15089928,28.3315968 L10.1474666,28.3315968 Z M7.15089928,37.4474569 L7.15089928,62.0168701 L10.1474666,62.0168701 C10.4198832,62.0168701 10.6241925,61.9300532 10.7604008,61.7564169 C10.9420119,61.5249019 11.032816,61.2644513 11.032816,60.9750575 L11.032816,38.4892694 C11.032816,38.1998756 10.9420119,37.9394251 10.7604008,37.70791 C10.6241925,37.5342737 10.4198832,37.4474569 10.1474666,37.4474569 L7.15089928,37.4474569 Z" id="BUS-DERBY"></path>
                    </g>
                    <g id="BUS-DERBY" transform="translate(42.853342, 39.405596)" fill="#48751E" stroke="#F6EDD0">
                        <path d="M241.280204,44.7401449 L241.280204,69.3963758 C241.280204,69.8594059 241.143998,70.2645512 240.871581,70.6118238 C240.599165,70.9590964 240.28135,71.1327301 239.918128,71.1327301 L235.491381,71.1327301 C235.128159,71.1327301 234.810344,70.9590964 234.537928,70.6118238 C234.265511,70.2645512 234.129305,69.8594059 234.129305,69.3963758 L234.129305,44.7401449 C233.175847,37.794693 232.188352,30.71912 231.16679,23.5132137 C230.145227,16.3073074 229.157732,9.23173439 228.204274,2.2862825 C228.113469,1.70749484 228.204273,1.21553271 228.476689,0.810381352 C228.749106,0.405229992 229.112323,0.202657351 229.56635,0.202657351 L234.061201,0.202657351 C234.787645,0.202657351 235.241666,0.665680531 235.423277,1.59174078 L237.670703,18.0871065 C238.033925,15.3089258 238.419842,12.5741951 238.828467,9.88283252 C239.237092,7.19146991 239.62301,4.45673925 239.986232,1.6785585 C240.077038,1.27340714 240.247295,0.926139752 240.497011,0.636745923 C240.746726,0.347352095 241.030489,0.202657351 241.348308,0.202657351 L245.843159,0.202657351 C246.297187,0.202657351 246.660403,0.405229992 246.93282,0.810381352 C247.205236,1.21553271 247.296041,1.70749484 247.205235,2.2862825 L241.280204,44.7401449 Z M216.291893,20.3210053 C216.291893,21.8255901 215.837872,23.2011899 214.929817,24.4478459 C215.837872,25.6945019 216.291893,27.0915954 216.291893,28.6391683 L216.291893,45.3399764 C216.291893,47.4893833 215.497356,49.2733642 213.908259,50.6919728 L213.908259,50.6274909 C212.319163,52.1320757 210.434976,52.8843568 208.255644,52.8843568 L199.470253,52.8843568 C199.107031,52.8843568 198.789217,52.7553944 198.5168,52.4974655 C198.244383,52.2395367 198.108177,51.9386243 198.108177,51.5947192 L198.108177,1.49229504 C198.108177,1.14838993 198.244383,0.847477484 198.5168,0.589548657 C198.789217,0.33161983 199.107031,0.202657351 199.470253,0.202657351 L208.255644,0.202657351 C210.434976,0.202657351 212.319163,0.954938478 213.908259,2.4595233 C215.497356,3.96410813 216.291893,5.72659534 216.291893,7.74703782 L216.291893,20.3210053 Z M208.255644,21.0947879 C208.482658,21.0947879 208.732369,20.9658254 209.004786,20.7078966 C209.095591,20.6219203 209.140993,20.4929578 209.140993,20.3210053 L209.140993,7.74703782 C209.140993,7.57508526 209.050189,7.40313529 208.868578,7.23118274 C208.686967,7.05923019 208.482658,6.9732552 208.255644,6.9732552 L205.259077,6.9732552 L205.259077,21.0947879 L208.255644,21.0947879 Z M205.259077,27.8653857 L205.259077,46.113759 L208.255644,46.113759 C208.52806,46.113759 208.73237,46.0492777 208.868578,45.9203133 C209.050189,45.7483608 209.140993,45.5549171 209.140993,45.3399764 L209.140993,28.6391683 C209.140993,28.4242276 209.050189,28.2307839 208.868578,28.0588314 C208.73237,27.929867 208.52806,27.8653857 208.255644,27.8653857 L205.259077,27.8653857 Z M170.049411,52.8843568 C169.686189,52.8843568 169.368374,52.7553944 169.095957,52.4974655 C168.823541,52.2395367 168.687335,51.9386243 168.687335,51.5947192 L168.687335,1.49229504 C168.687335,1.14838993 168.823541,0.847477484 169.095957,0.589548657 C169.368374,0.33161983 169.686189,0.202657351 170.049411,0.202657351 L178.834801,0.202657351 C181.014134,0.202657351 182.89832,0.954938478 184.487417,2.4595233 C186.076514,3.96410813 186.87105,5.72659534 186.87105,7.74703782 L186.87105,28.6391683 C186.87105,30.7455871 186.076514,32.5510618 184.487417,34.0556466 C184.169598,34.3565636 183.79503,34.6359823 183.363704,34.8939111 C182.932378,35.1518399 182.53511,35.3667774 182.171888,35.53873 C182.943735,38.1610064 183.738271,40.7832434 184.555521,43.4055198 C185.37277,46.0277962 186.167307,48.6500333 186.939154,51.2723097 C187.075362,51.7021911 187.018609,52.0783317 186.768894,52.4007427 C186.519179,52.7231537 186.144612,52.8843568 185.645181,52.8843568 L181.082227,52.8843568 C180.80981,52.8843568 180.548748,52.787635 180.299033,52.5941884 C180.049318,52.4007417 179.87906,52.1750574 179.788254,51.9171286 L175.838234,38.6338604 L175.838234,51.5947192 C175.838234,51.9386243 175.702028,52.2395367 175.429611,52.4974655 C175.157195,52.7553944 174.83938,52.8843568 174.476158,52.8843568 L170.049411,52.8843568 Z M175.838234,6.9732552 L175.838234,29.4129509 L178.834801,29.4129509 C179.107218,29.4129509 179.311527,29.3484697 179.447735,29.2195053 C179.629347,29.0475527 179.720151,28.854109 179.720151,28.6391683 L179.720151,7.74703782 C179.720151,7.57508526 179.629347,7.40313529 179.447735,7.23118274 C179.266124,7.05923019 179.061815,6.9732552 178.834801,6.9732552 L175.838234,6.9732552 Z M146.417391,21.0947879 L153.840706,21.0947879 C154.203928,21.0947879 154.521742,21.2237503 154.794159,21.4816792 C155.066576,21.739608 155.202782,22.0405205 155.202782,22.3844256 L155.202782,26.575748 C155.202782,26.9196531 155.066576,27.2205656 154.794159,27.4784944 C154.521742,27.7364232 154.203928,27.8653857 153.840706,27.8653857 L146.417391,27.8653857 L146.417391,46.113759 L156.088131,46.113759 C156.451353,46.113759 156.769168,46.2427215 157.041585,46.5006503 C157.314001,46.7585791 157.450207,47.0594916 157.450207,47.4033967 L157.450207,51.5947192 C157.450207,51.9386243 157.314001,52.2395367 157.041585,52.4974655 C156.769168,52.7553944 156.451353,52.8843568 156.088131,52.8843568 L140.628568,52.8843568 C140.265346,52.8843568 139.947531,52.7553944 139.675115,52.4974655 C139.402698,52.2395367 139.266492,51.9386243 139.266492,51.5947192 L139.266492,1.49229504 C139.266492,1.14838993 139.402698,0.847477484 139.675115,0.589548657 C139.947531,0.33161983 140.265346,0.202657351 140.628568,0.202657351 L156.088131,0.202657351 C156.451353,0.202657351 156.769168,0.33161983 157.041585,0.589548657 C157.314001,0.847477484 157.450207,1.14838993 157.450207,1.49229504 L157.450207,5.68361752 C157.450207,6.02752262 157.314001,6.32843507 157.041585,6.5863639 C156.769168,6.84429272 156.451353,6.9732552 156.088131,6.9732552 L146.417391,6.9732552 L146.417391,21.0947879 Z M111.207725,52.8843568 C110.844503,52.8843568 110.526689,52.7553944 110.254272,52.4974655 C109.981856,52.2395367 109.845649,51.9386243 109.845649,51.5947192 L109.845649,1.49229504 C109.845649,1.14838993 109.981856,0.847477484 110.254272,0.589548657 C110.526689,0.33161983 110.844503,0.202657351 111.207725,0.202657351 L119.993116,0.202657351 C122.172449,0.202657351 124.056635,0.954938478 125.645732,2.4595233 C127.234828,3.96410813 128.029365,5.72659534 128.029365,7.74703782 L128.029365,45.3399764 C128.029365,47.4893833 127.234828,49.2733642 125.645732,50.6919728 L125.645732,50.6274909 C124.056635,52.1320757 122.172449,52.8843568 119.993116,52.8843568 L111.207725,52.8843568 Z M116.996549,46.113759 L119.993116,46.113759 C120.265533,46.113759 120.469842,46.0492777 120.60605,45.9203133 C120.787661,45.7483608 120.878465,45.5549171 120.878465,45.3399764 L120.878465,7.74703782 C120.878465,7.57508526 120.787661,7.40313529 120.60605,7.23118274 C120.424439,7.05923019 120.22013,6.9732552 119.993116,6.9732552 L116.996549,6.9732552 L116.996549,46.113759 Z M71.3670012,14.32419 C71.0037791,14.32419 70.6859645,14.1952275 70.4135479,13.9372987 C70.1411314,13.6793699 70.0049251,13.3784574 70.0049251,13.0345523 C70.0049251,13.0345523 70.0049251,8.58530231 70.0049251,8.58530231 C70.0049251,8.49932604 69.9141209,8.21990733 69.7325099,7.74703782 C69.6919646,7.64146808 69.3547266,7.27802338 69.1195757,7.16670086 C68.8471591,7.03773644 68.5747466,6.9732552 68.30233,6.9732552 C68.0299135,6.9732552 67.8710062,6.99474895 67.8256034,7.03773709 C67.0083578,7.16670086 66.6678388,8.19840907 66.6678388,8.58530231 C66.6678388,8.58530231 66.6678388,13.0345523 66.6678388,13.0345523 C66.6678388,13.8943151 66.781344,14.9260149 67.0083578,16.1296828 C67.0083578,16.1296828 67.4623806,17.806206 67.961811,18.9668857 C68.3420322,19.8505224 68.8131055,20.8798433 69.4260428,21.8685705 C70.0389801,22.8572977 70.6859597,23.84601 71.3670012,24.8347372 C71.8370474,25.5171442 72.2296475,26.253336 72.5928696,26.7691937 C72.7744807,27.0271225 72.9220374,27.2635537 73.0355443,27.4784944 C73.0355443,27.4784944 73.3420114,28.0588314 73.3420114,28.0588314 C73.5690252,28.4027365 73.7733346,28.7681302 73.9549457,29.1550234 C74.1365567,29.5419166 74.3408661,29.9288041 74.5678799,30.3156973 C74.5678799,30.3156973 75.1808141,31.5408531 75.1808141,31.5408531 C75.4078279,32.1426871 75.6348383,32.7660057 75.8618521,33.4108278 C76.0888659,34.0556498 76.3158764,34.7649435 76.5428902,35.53873 C76.7628826,36.2885838 76.9174607,37.0110626 76.9855649,37.763355 C77.053669,38.5156474 77.0877206,39.2786754 77.0877206,40.0524619 C77.0877206,40.0524619 77.0877206,44.5661938 77.0877206,44.5661938 C77.0877206,45.7698616 76.8834112,46.8230552 76.4747864,47.7258061 C76.4747864,47.7258061 76.291453,48.023364 76.1342673,48.3706249 C75.7256425,49.2733758 75.1242883,49.8806546 74.3635685,50.563009 C73.500916,51.3367955 72.5928744,51.9171266 71.6394164,52.3040199 C70.6859584,52.6909131 69.5736074,52.8843568 68.30233,52.8843568 C67.1218582,52.8843568 65.9641052,52.6479256 64.8290361,52.1750561 C64.7379804,52.1371223 64.6587769,52.0890805 64.5906728,52.0460923 C64.5225687,52.0031042 63.5464164,51.5302386 63.1604929,51.2723097 C62.7745695,51.0143809 62.4227033,50.7349622 62.104884,50.4340452 C60.379579,48.800496 59.5169395,46.8445651 59.5169395,44.5661938 C59.5169395,44.5661938 59.5169395,40.0524619 59.5169395,40.0524619 C59.5169395,39.7085568 59.6531457,39.4076443 59.9255623,39.1497155 C60.1979789,38.8917867 60.5157935,38.7628242 60.8790156,38.7628242 C60.8790156,38.7628242 65.3057627,38.7628242 65.3057627,38.7628242 C65.6689848,38.7628242 65.9867994,38.8917867 66.259216,39.1497155 C66.5316325,39.4076443 66.6678388,39.7085568 66.6678388,40.0524619 C66.6678388,40.0524619 66.6678388,44.5661938 66.6678388,44.5661938 C66.6678388,44.9960751 66.8267461,45.3614688 67.1445654,45.6623858 C67.1719098,45.6882759 67.2353696,45.8343371 67.4169806,45.9203133 C67.4640108,45.9425778 67.5304865,45.9847952 67.621292,45.9847952 C67.6666948,45.9847952 67.7098868,46.0492771 67.7574996,46.0492771 C67.8483051,46.0492771 67.9391093,46.060024 68.0299148,46.081518 C68.1207204,46.1030121 68.2115245,46.113759 68.30233,46.113759 C68.8017604,46.113759 69.2103792,45.9633028 69.5281985,45.6623858 C69.619004,45.5764095 69.8687175,45.1465307 69.8687175,45.1465307 C69.959523,44.9745782 70.0049251,44.7811344 70.0049251,44.5661938 C70.0049251,44.5661938 70.0049251,40.0524619 70.0049251,40.0524619 C70.0049251,39.0207466 69.9320729,37.9310675 69.6644061,37.0862952 C69.3919895,36.2265324 69.0287729,35.2808076 68.5747453,34.2490923 C68.3544451,33.7484905 68.120721,33.2926135 67.8937072,32.7982499 C67.6666934,32.3038863 67.3942809,31.820277 67.0764616,31.3474075 C66.8486263,31.0084212 66.5997363,30.5736274 66.3273198,30.0577698 C66.0549032,29.5419121 65.7179072,28.94112 65.3057627,28.3167589 C64.6247213,27.2850436 63.9550406,26.1888625 63.2967005,25.0281828 C62.6383605,23.8675031 62.0367829,22.7068408 61.4919498,21.5461611 C61.1287277,20.7723746 60.8109131,20.0415872 60.5384965,19.353777 C60.26608,18.6659668 60.1129849,17.9921815 59.9936661,17.4838023 C59.8120551,16.7100159 59.6871993,15.9469879 59.6190952,15.1946955 C59.5509911,14.442403 59.5169395,13.7223625 59.5169395,13.0345523 C59.5169395,13.0345523 59.5169395,8.58530231 59.5169395,8.58530231 C59.5169395,6.99474121 59.9709603,5.5116727 60.8790156,4.13605229 C61.3330409,3.53422137 61.5600536,3.23330591 61.5600536,3.23330591 C61.7416646,3.06135336 61.8493652,2.89489868 61.9005726,2.84641461 C62.2637947,2.50250951 62.6724134,2.16935643 63.126441,1.8469454 C63.5804687,1.52453437 64.0798916,1.25586254 64.6247247,1.04092185 C64.7605151,0.987351535 64.6006642,0.991305484 64.9652437,0.847476194 C66.05491,0.417594816 67.167261,0.202657351 68.30233,0.202657351 C69.9822322,0.202657351 71.525903,0.632532281 72.9333886,1.49229504 C73.0697807,1.57561018 73.2171537,1.6642463 73.3760633,1.75022257 C73.534973,1.83619885 74.2794481,2.50884044 74.4997761,2.71745084 C74.8629982,3.06135594 75.1808127,3.41600276 75.4532293,3.78140193 C75.7256459,4.1468011 75.9526563,4.50144792 76.1342673,4.84535302 C76.1342673,4.84535302 76.4747864,5.3612081 76.4747864,5.3612081 C76.8834112,6.3929234 77.0877206,7.46761073 77.0877206,8.58530231 C77.0877206,8.58530231 77.0877206,13.0345523 77.0877206,13.0345523 C77.0877206,13.3784574 76.9515143,13.6793699 76.6790978,13.9372987 C76.4066812,14.1952275 76.0888666,14.32419 75.7256445,14.32419 C75.7256445,14.32419 71.3670012,14.32419 71.3670012,14.32419 Z M46.9177361,0.202657351 C47.2809582,0.202657351 47.5987728,0.33161983 47.8711894,0.589548657 C48.1436059,0.847477484 48.2798122,1.14838993 48.2798122,1.49229504 L48.2798122,44.3082662 C48.2798122,46.6296257 47.3717706,48.6500378 45.5556601,50.3695633 C43.7849524,52.0461007 41.6510546,52.8843568 39.1539026,52.8843568 C36.7021535,52.8843568 34.5682557,52.0461007 32.7521452,50.3695633 C30.9814375,48.5640616 30.0960969,46.5436494 30.0960969,44.3082662 L30.0960969,1.49229504 C30.0960969,1.14838993 30.2323031,0.847477484 30.5047197,0.589548657 C30.7771363,0.33161983 31.0949508,0.202657351 31.4581729,0.202657351 L35.8849201,0.202657351 C36.2481422,0.202657351 36.5659568,0.33161983 36.8383733,0.589548657 C37.1107899,0.847477484 37.2469962,1.14838993 37.2469962,1.49229504 L37.2469962,44.3082662 C37.2469962,44.8241239 37.4286045,45.2539988 37.7918266,45.5979039 C38.1550487,45.941809 38.6090695,46.113759 39.1539026,46.113759 C39.6987358,46.113759 40.1527566,45.941809 40.5159787,45.5979039 C40.9246035,45.2110107 41.1289129,44.7811357 41.1289129,44.3082662 L41.1289129,1.49229504 C41.1289129,1.14838993 41.2651192,0.847477484 41.5375357,0.589548657 C41.8099523,0.33161983 42.1277669,0.202657351 42.490989,0.202657351 L46.9177361,0.202657351 Z M18.1837153,27.2897843 C18.1837153,29.3155411 17.7296945,31.1676338 16.8216393,32.846118 C17.7296945,34.5246022 18.1837153,36.4056339 18.1837153,38.4892694 L18.1837153,60.9750575 C18.1837153,63.8689958 17.3891789,66.2709285 15.8000822,68.1809278 C14.2109855,70.1198669 12.3267992,71.1327301 10.1474666,71.1327301 L1.36207605,71.1327301 C0.998853956,71.1327301 0.681039389,70.9590964 0.408622816,70.6118238 C0.136206243,70.2645512 0,69.8594059 0,69.3963758 L0,1.93901164 C0,1.47598151 0.136206243,1.07083623 0.408622816,0.723563638 C0.681039389,0.376291043 0.998853956,0.202657351 1.36207605,0.202657351 L10.1474666,0.202657351 C12.3267992,0.202657351 14.2109855,1.21552056 15.8000822,3.24127736 C17.3891789,5.26703416 18.1837153,7.64002796 18.1837153,10.3603299 L18.1837153,27.2897843 Z M10.1474666,28.3315968 C10.3744804,28.3315968 10.6241919,28.1579632 10.8966084,27.8106906 C10.9874139,27.694933 11.032816,27.5212993 11.032816,27.2897843 L11.032816,10.3603299 C11.032816,10.1288149 10.9420119,9.89730329 10.7604008,9.66578823 C10.5787898,9.43427317 10.3744804,9.31851737 10.1474666,9.31851737 L7.15089928,9.31851737 L7.15089928,28.3315968 L10.1474666,28.3315968 Z M7.15089928,37.4474569 L7.15089928,62.0168701 L10.1474666,62.0168701 C10.4198832,62.0168701 10.6241925,61.9300532 10.7604008,61.7564169 C10.9420119,61.5249019 11.032816,61.2644513 11.032816,60.9750575 L11.032816,38.4892694 C11.032816,38.1998756 10.9420119,37.9394251 10.7604008,37.70791 C10.6241925,37.5342737 10.4198832,37.4474569 10.1474666,37.4474569 L7.15089928,37.4474569 Z"></path>
                    </g>
                    <g id="insignia" transform="translate(72.927461, 102.229375)" fill-rule="nonzero">
                        <path d="M0.226289705,21.1101407 L186.149671,21.1101407" id="Line" stroke="#272727" stroke-width="1.80000007" stroke-linecap="round" stroke-linejoin="round"></path>
                        <path d="M28.023052,31.2430082 L156.996616,31.2430082" id="Line" stroke="#272727" stroke-width="1.80000007" stroke-linecap="round" stroke-linejoin="round"></path>
                        <path d="M0.226289705,11.1461543 L186.149671,11.1461543" id="Line" stroke="#272727" stroke-width="1.80000007" stroke-linecap="round" stroke-linejoin="round"></path>
                        <ellipse id="Oval" stroke="#272727" stroke-width="1.80000007" fill="#F6EDD0" stroke-linecap="round" stroke-linejoin="round" cx="91.8345799" cy="20.2657351" rx="20.2576279" ry="20.2657351"></ellipse>
                        <path d="M102.054215,28.444823 C101.947359,28.5335672 101.811113,28.57793 101.67369,28.5707198 C101.548073,30.4199045 101.118298,31.7821232 100.607435,31.7821232 L98.6213224,31.7821232 C98.4948358,31.7821232 98.3733201,31.6986154 98.2601612,31.5448846 L96.5257556,32.9752444 C96.398875,33.0798825 96.2310004,33.1221745 96.0690001,33.090313 L78.4321532,29.6215854 C78.1762166,29.5712491 77.9918675,29.3490059 77.9918675,29.0907964 L77.9918675,16.7568744 C77.9918675,16.7154254 77.9966798,16.6741137 78.0062098,16.6337516 L78.911353,12.8002157 C79.5661759,11.3547489 80.5510444,10.4272195 81.8659584,10.0176274 C85.6743557,9.33982379 88.5059951,9.00975089 93.3129542,8.21851574 C94.410456,8.03812516 95.0899871,8.03812516 96.0578518,8.49738785 C99.7377785,10.7714056 103.137009,12.9304273 106.533446,15.1329049 C106.727735,15.324478 106.994176,15.6933743 107.027801,16.3178593 L107.027801,24.0619208 C107.027801,24.2218655 106.956299,24.3736176 106.83249,24.4764422 L106.43137,24.8095741 C106.365974,25.8120871 106.14164,26.5507966 105.874951,26.5507966 L104.838718,26.5507966 C104.75215,26.5507966 104.670045,26.4729613 104.596391,26.3335336 L102.054215,28.444823 Z M81.6729972,11.1578059 C81.539221,11.1775579 81.4317373,11.2782353 81.4032885,11.4104354 L81.2168419,12.2768444 C81.2095792,12.3105937 81.2077511,12.345286 81.2114266,12.3796117 C81.2304984,12.5577231 81.390347,12.6866503 81.5684584,12.6675785 L87.8679362,11.9930455 C88.0195695,11.976809 88.1394115,11.8571308 88.1558555,11.7055199 L88.2764947,10.5932466 C88.2794672,10.565841 88.2789337,10.5381682 88.2749072,10.5108975 C88.2487425,10.333689 88.083876,10.2112439 87.9066676,10.2374086 L81.6729972,11.1578059 Z M89.2656121,10.0802465 C89.1199977,10.09939 89.0054191,10.2139914 88.9863045,10.3596095 L88.8452147,11.4344572 C88.8419112,11.4596239 88.8415733,11.4850914 88.844208,11.5103368 C88.8628018,11.6884988 89.0223038,11.8178545 89.2004658,11.7992607 L92.637219,11.440587 C92.7857131,11.4250895 92.9044457,11.3102253 92.9248513,11.1623257 L93.0863694,9.99164658 C93.0903328,9.96292005 93.0904258,9.93379174 93.0866459,9.90504048 C93.0632972,9.72743907 92.900395,9.60239257 92.7227936,9.62574129 L89.2656121,10.0802465 Z M85.2552936,16.4312611 L85.6580114,14.1117357 C85.6666523,14.0619665 85.668211,14.0112455 85.6626421,13.9610487 C85.6296816,13.6639527 85.3595685,13.4495487 85.0593274,13.4821639 L79.9443494,14.037804 C79.7908655,14.054477 79.6646379,14.1650097 79.629244,14.31373 L79.0527728,16.7359779 L85.2552936,16.4312611 Z M85.2300014,16.8279382 L79.0128532,17.1065881 L79.0702768,19.3833247 C79.0751853,19.5779391 79.2352423,19.7336034 79.4319723,19.7350938 L84.7446905,19.7753422 C84.7510312,19.7753902 84.7573722,19.7753291 84.7637107,19.775159 C85.0656444,19.7670526 85.303769,19.5182795 85.2955769,19.2195085 L85.2300014,16.8279382 Z M94.0851822,15.9974673 L94.3491466,13.5557585 C94.3542991,13.5080975 94.3546394,13.4600469 94.3501624,13.4123191 C94.3129412,13.0155169 93.9576905,12.7237028 93.5566878,12.7605341 L87.0557214,13.3576346 C86.8164473,13.3796114 86.6197022,13.5535661 86.5708076,13.7863773 L86.0232572,16.3935327 L94.0851822,15.9974673 Z M94.0552956,16.4323923 L86.0060359,16.7931567 L86.1482291,19.2305422 C86.1649097,19.5164709 86.4038389,19.7400295 86.6932751,19.7405247 L93.3648573,19.7519386 C93.3689905,19.7519457 93.3731236,19.751918 93.3772564,19.7518555 C93.7799358,19.7457684 94.1013852,19.4178171 94.0952337,19.0193557 L94.0552956,16.4323923 Z M79.5157831,26.9115777 C79.94368,26.9115777 80.2905589,26.4673778 80.2905589,25.9194295 C80.2905589,25.3714812 79.94368,24.9272814 79.5157831,24.9272814 C79.0878863,24.9272814 78.7410073,25.3714812 78.7410073,25.9194295 C78.7410073,26.4673778 79.0878863,26.9115777 79.5157831,26.9115777 Z M93.2794472,28.895874 C93.9590481,28.895874 94.5099734,28.290147 94.5099734,27.5429447 C94.5099734,26.7957425 93.9590481,26.1900154 93.2794472,26.1900154 C92.5998463,26.1900154 92.0489209,26.7957425 92.0489209,27.5429447 C92.0489209,28.290147 92.5998463,28.895874 93.2794472,28.895874 Z M83.7065498,23.0516877 C83.6821538,23.0503079 83.6577237,23.0496176 83.6332886,23.0496176 C82.9167701,23.0496176 82.3359172,23.6304706 82.3359172,24.3469891 L82.3359172,26.6463838 C82.3359172,27.2794737 82.792853,27.8201144 83.4170905,27.9256145 L87.719003,28.652665 C87.7993652,28.6662467 87.8807239,28.6730734 87.9622258,28.6730734 C88.7683091,28.6730734 89.4217687,28.0196138 89.4217687,27.2135305 L89.4217687,24.7542609 C89.4217687,23.9801961 88.8174743,23.3407575 88.0446447,23.2970469 L83.7065498,23.0516877 Z M84.043178,23.6586263 L87.5598326,23.8543445 C88.1862673,23.8892085 88.6763675,24.4073435 88.6763675,25.0347475 L88.6763675,26.8476767 C88.6763675,27.5006042 88.1470652,28.0299064 87.4941377,28.0299064 C87.4231405,28.0299064 87.3522876,28.023511 87.2824379,28.0107977 L83.7966049,27.3763406 C83.2970149,27.2854101 82.9339116,26.850253 82.9339116,26.3424553 L82.9339116,24.7078735 C82.9339116,24.1274935 83.4044025,23.6570026 83.9847825,23.6570026 C84.004259,23.6570026 84.0237316,23.657544 84.043178,23.6586263 Z M105.447985,16.1760246 C105.447985,16.0441285 105.368113,15.9253678 105.245955,15.8756285 L104.304061,15.4921153 C104.284641,15.4842081 104.263873,15.4801419 104.242905,15.4801419 C104.15334,15.4801419 104.080733,15.5527485 104.080733,15.6423133 L104.080733,18.4517331 C104.080733,18.5360069 104.145281,18.6062366 104.229256,18.6133291 L105.272165,18.7014135 C105.276704,18.7017969 105.281258,18.7019888 105.285813,18.7019888 C105.375378,18.7019888 105.447985,18.6293822 105.447985,18.5398174 L105.447985,16.1760246 Z M105.853613,16.1230501 C105.834193,16.1151429 105.813424,16.1110767 105.792456,16.1110767 C105.702891,16.1110767 105.630285,16.1836834 105.630285,16.2732482 L105.630285,18.5826086 C105.630285,18.6668824 105.694833,18.7371121 105.778808,18.7442047 L106.47207,18.8027578 C106.47661,18.8031412 106.481163,18.8033332 106.485719,18.8033332 C106.575283,18.8033332 106.64789,18.7307265 106.64789,18.6411617 L106.64789,16.9917958 C106.64789,16.6620556 106.44821,16.365154 106.142816,16.2408056 L105.853613,16.1230501 Z M103.898433,15.5450897 C103.898433,15.4131936 103.818561,15.294433 103.696403,15.2446936 L102.663359,14.8240666 C102.64394,14.8161594 102.623171,14.8120932 102.602203,14.8120932 C102.512638,14.8120932 102.440032,14.8846998 102.440032,14.9742646 L102.440032,18.313159 C102.440032,18.3974328 102.50458,18.4676625 102.588555,18.474755 L103.722613,18.5705379 C103.727153,18.5709213 103.731706,18.5711133 103.736262,18.5711133 C103.825826,18.5711133 103.898433,18.4985067 103.898433,18.4089418 L103.898433,15.5450897 Z M102.257731,14.877041 C102.257731,14.745145 102.177859,14.6263843 102.055702,14.5766449 L100.257317,13.8443923 C100.237898,13.8364851 100.217129,13.8324189 100.196161,13.8324189 C100.106596,13.8324189 100.03399,13.9050256 100.03399,13.9945904 L100.03399,18.109944 C100.03399,18.1942178 100.098538,18.2644475 100.182513,18.2715401 L102.081911,18.4319638 C102.086451,18.4323472 102.091004,18.4325392 102.09556,18.4325392 C102.185125,18.4325392 102.257731,18.3599326 102.257731,18.2703677 L102.257731,14.877041 Z" id="bus-outline" fill="#272727"></path>
                    </g>
                    <g id="holes" transform="translate(15.530848, 27.921679)" fill="#525252" fill-rule="nonzero">
                        <path d="M4.05152558,106.732871 C1.81392979,106.732871 0,104.918216 0,102.679724 C0,100.441233 1.81392979,98.6265773 4.05152558,98.6265773 C6.28912138,98.6265773 8.10305117,100.441233 8.10305117,102.679724 C8.10305117,104.918216 6.28912138,106.732871 4.05152558,106.732871 Z M4.05152558,8.10629403 C1.81392979,8.10629403 0,6.2916383 0,4.05314701 C0,1.81465573 1.81392979,0 4.05152558,0 C6.28912138,0 8.10305117,1.81465573 8.10305117,4.05314701 C8.10305117,6.2916383 6.28912138,8.10629403 4.05152558,8.10629403 Z M296.436622,106.732871 C294.199026,106.732871 292.385096,104.918216 292.385096,102.679724 C292.385096,100.441233 294.199026,98.6265773 296.436622,98.6265773 C298.674218,98.6265773 300.488148,100.441233 300.488148,102.679724 C300.488148,104.918216 298.674218,106.732871 296.436622,106.732871 Z M296.436622,8.10629403 C294.199026,8.10629403 292.385096,6.2916383 292.385096,4.05314701 C292.385096,1.81465573 294.199026,0 296.436622,0 C298.674218,0 300.488148,1.81465573 300.488148,4.05314701 C300.488148,6.2916383 298.674218,8.10629403 296.436622,8.10629403 Z" id="Combined-Shape"></path>
                    </g>
                </g>
            </g>
        </g>
    </g>
</svg>