<?xml version="1.0" encoding="UTF-8"?>
<svg width="1226px" height="775px" viewBox="0 0 1226 775" version="1.1" xmlns="http://www.w3.org/2000/svg" xmlns:xlink="http://www.w3.org/1999/xlink">
    <!-- Generator: Sketch 52.2 (67145) - http://www.bohemiancoding.com/sketch -->
    <title>bus_draw_card</title>
    <desc>Created with Sketch.</desc>
    <g id="Materials" stroke="none" stroke-width="1" fill="none" fill-rule="evenodd">
        <g id="draw_screen" transform="translate(-290.000000, -267.000000)">
            <g id="bus_draw_card" transform="translate(235.000000, 261.000000)">
                <g id="lines_r" transform="translate(909.000000, 735.000000)" fill-rule="nonzero" stroke="#272727" stroke-linecap="round" stroke-linejoin="round" stroke-opacity="0.626075634" stroke-width="3.97350993">
                    <path d="M0.397350993,22.8 L369.602649,22.8" id="Line-2"></path>
                    <path d="M0.397350993,1.2 L333.84106,1.2" id="Line-2"></path>
                    <path d="M0.794701987,43.7986755 L334.238411,43.7986755" id="Line-2"></path>
                </g>
                <g id="lines_l" transform="translate(242.000000, 757.500000) scale(-1, 1) translate(-242.000000, -757.500000) translate(57.000000, 735.000000)" fill-rule="nonzero" stroke="#272727" stroke-linecap="round" stroke-linejoin="round" stroke-opacity="0.626075634" stroke-width="3.97350993">
                    <path d="M0.397350993,22.8 L369.602649,22.8" id="Line-2"></path>
                    <path d="M0.397350993,1.2 L333.84106,1.2" id="Line-2"></path>
                    <path d="M0.794701987,43.7986755 L334.238411,43.7986755" id="Line-2"></path>
                </g>
                <g id="buses" transform="translate(451.000000, 270.000000)" fill-rule="nonzero">
                    <path d="M305.732027,27.5885998 L347.639752,27.5885998 L347.639752,124.148699 C347.639752,147.003843 328.962517,165.531599 305.922981,165.531599 L41.7167702,165.531599 C18.6772342,165.531599 0,147.003843 0,124.148699 L0,27.5885998 L41.9077245,27.5885998 C43.6370385,12.0701832 56.8997498,0 73.0043478,0 C89.1089458,0 102.371657,12.0701832 104.100971,27.5885998 L243.53878,27.5885998 C245.268094,12.0701832 258.530806,0 274.635404,0 C290.740002,0 304.002713,12.0701832 305.732027,27.5885998 Z" id="back-bus" fill="#3E6817"></path>
                    <path d="M395.420088,101.357001 L437.7,101.357001 L437.7,200.6171 C437.7,224.968292 417.8091,244.7 393.28323,244.7 L129.077019,244.7 C104.551149,244.7 84.6602483,224.968292 84.6602483,200.6171 L84.6602483,101.357001 L126.940161,101.357001 C129.869253,85.5465687 143.830791,73.7684014 160.364596,73.7684014 C176.898401,73.7684014 190.85994,85.5465687 193.789032,101.357001 L328.571216,101.357001 C331.500309,85.5465687 345.461847,73.7684014 361.995652,73.7684014 C378.529457,73.7684014 392.490996,85.5465687 395.420088,101.357001 Z" id="front-bus" stroke="#F6EDD0" stroke-width="5.40000021" fill="#8E2707" stroke-linecap="round"></path>
                </g>
                <g id="header">
                    <g id="lines_r" transform="translate(810.000000, 37.000000)" fill-rule="nonzero" stroke="#272727" stroke-linecap="round" stroke-linejoin="round" stroke-opacity="0.626075634" stroke-width="3.97350993">
                        <path d="M0.760992006,22.8 L464.602649,22.8" id="Line-2"></path>
                        <path d="M0.760992006,1.2 L428.84106,1.2" id="Line-2"></path>
                        <path d="M1.158343,43.7986755 L429.238411,43.7986755" id="Line-2"></path>
                    </g>
                    <g id="text" fill="#272727" opacity="0.9">
                        <path d="M586.59,92 L593.07,92 C593.870004,92 594.509998,91.7600024 594.99,91.28 C595.550003,90.7199972 595.83,90.0800036 595.83,89.36 L595.83,19.4 C595.83,18.7599968 595.550003,18.1600028 594.99,17.6 C594.429997,17.0399972 593.790004,16.76 593.07,16.76 L586.59,16.76 L586.59,92 Z M577.59,102.2 C576.789996,102.2 576.39,101.800004 576.39,101 L576.39,7.76 C576.39,6.959996 576.789996,6.56 577.59,6.56 L593.07,6.56 C596.590018,6.56 599.629987,7.8399872 602.19,10.4 C604.750013,12.9600128 606.03,15.9599828 606.03,19.4 L606.03,89.36 C606.03,92.960018 604.750013,95.959988 602.19,98.36 C599.629987,100.920013 596.590018,102.2 593.07,102.2 L577.59,102.2 Z M624.89,37.64 C625.450003,37.64 625.809999,37.9199972 625.97,38.48 C627.410007,37.9199972 628.969992,37.64 630.65,37.64 C632.250008,37.64 634.249988,38.0799956 636.65,38.96 L637.25,39.2 C639.25001,40.2400052 640.569997,41.1999956 641.21,42.08 C641.690002,42.6400028 641.650003,43.1999972 641.09,43.76 L635.57,49.16 C635.009997,49.7200028 634.450003,49.7200028 633.89,49.16 L632.93,48.44 C632.769999,48.44 632.610001,48.3600008 632.45,48.2 C632.289999,48.1199996 632.17,48.08 632.09,48.08 C631.769998,47.9199992 631.290003,47.84 630.65,47.84 C629.369994,47.84 628.290004,48.2799956 627.41,49.16 C626.929998,49.6400024 626.65,50.079998 626.57,50.48 L626.33,50.72 C626.169999,51.2000024 626.09,51.7999964 626.09,52.52 L626.09,101 C626.09,101.800004 625.690004,102.2 624.89,102.2 L617.09,102.2 C616.289996,102.2 615.89,101.800004 615.89,101 L615.89,38.84 C615.89,38.039996 616.289996,37.64 617.09,37.64 L624.89,37.64 Z M676.63,101.36 C676.63,102.160004 676.230004,102.56 675.43,102.56 L667.63,102.56 C666.829996,102.56 666.43,102.160004 666.43,101.36 C665.629996,101.600001 664.850004,101.799999 664.09,101.96 C663.329996,102.120001 662.550004,102.2 661.75,102.2 C657.74998,102.2 654.270015,100.760014 651.31,97.88 C648.429986,94.7599844 646.99,91.2800192 646.99,87.44 C646.99,77.9999528 648.789982,71.2400204 652.39,67.16 C654.070008,65.3199908 656.069988,63.4400096 658.39,61.52 C660.710012,59.5999904 663.389985,57.6000104 666.43,55.52 L666.43,52.52 C666.43,51.2399936 665.950005,50.1200048 664.99,49.16 C664.109996,48.2799956 663.030006,47.84 661.75,47.84 C660.469994,47.84 659.390004,48.2799956 658.51,49.16 C657.629996,50.0400044 657.19,51.1599932 657.19,52.52 C657.19,53.320004 656.790004,53.72 655.99,53.72 L648.19,53.72 C647.389996,53.72 646.99,53.320004 646.99,52.52 C646.99,48.4399796 648.429986,44.9600144 651.31,42.08 C654.270015,39.1199852 657.74998,37.64 661.75,37.64 C665.83002,37.64 669.309986,39.1199852 672.19,42.08 C675.150015,44.9600144 676.63,48.4399796 676.63,52.52 L676.63,101.36 Z M666.43,67.88 C663.789987,69.9600104 661.670008,72.199988 660.07,74.6 C658.14999,77.400014 657.19,81.6799712 657.19,87.44 C657.19,88.7200064 657.629996,89.7999956 658.51,90.68 C659.390004,91.5600044 660.469994,92 661.75,92 C663.030006,92 664.109996,91.5600044 664.99,90.68 C665.950005,89.7199952 666.43,88.640006 666.43,87.44 L666.43,67.88 Z M697.05,102.2 C696.409997,102.2 696.010001,101.840004 695.85,101.12 L686.49,38.96 C686.41,38.559998 686.489999,38.2400012 686.73,38 C686.970001,37.7599988 687.289998,37.64 687.69,37.64 L696.09,37.64 C696.730003,37.64 697.129999,37.9999964 697.29,38.72 L701.25,65.24 C701.890003,60.7599776 702.569996,56.3400218 703.29,51.98 C704.010004,47.6199782 704.689997,43.2000224 705.33,38.72 C705.490001,37.9999964 705.889997,37.64 706.53,37.64 L715.41,37.64 C716.050003,37.64 716.449999,37.9999964 716.61,38.72 L720.69,65.36 C721.330003,60.8799776 722.009996,56.440022 722.73,52.04 C723.450004,47.639978 724.129997,43.2000224 724.77,38.72 C724.930001,37.9999964 725.329997,37.64 725.97,37.64 L734.25,37.64 C734.650002,37.64 734.969999,37.7599988 735.21,38 C735.450001,38.2400012 735.53,38.559998 735.45,38.96 L726.09,101.12 C725.929999,101.840004 725.530003,102.2 724.89,102.2 L716.49,102.2 C715.849997,102.2 715.450001,101.840004 715.29,101.12 L710.97,72.92 C710.249996,77.5600232 709.510004,82.2599762 708.75,87.02 C707.989996,91.7800238 707.290003,96.4799768 706.65,101.12 C706.489999,101.840004 706.090003,102.2 705.45,102.2 L697.05,102.2 Z M753.71,92 C754.510004,92 754.91,92.399996 754.91,93.2 L754.91,101 C754.91,101.800004 754.510004,102.2 753.71,102.2 L745.91,102.2 C745.109996,102.2 744.71,101.800004 744.71,101 L744.71,93.2 C744.71,92.399996 745.109996,92 745.91,92 L753.71,92 Z M753.71,6.56 C754.510004,6.56 754.91,6.959996 754.91,7.76 L754.91,26.24 L752.87,81.56 C752.87,82.360004 752.470004,82.76 751.67,82.76 L747.83,82.76 C747.029996,82.76 746.63,82.360004 746.63,81.56 L744.71,26.24 L744.71,7.76 C744.71,6.959996 745.109996,6.56 745.91,6.56 L753.71,6.56 Z" id="Draw"></path>
                    </g>
                    <g id="lines_l" transform="translate(288.000000, 59.500000) scale(-1, 1) translate(-288.000000, -59.500000) translate(59.000000, 37.000000)" fill-rule="nonzero" stroke="#272727" stroke-linecap="round" stroke-linejoin="round" stroke-opacity="0.626075634" stroke-width="3.97350993">
                        <path d="M0.271529797,22.8 L457.602649,22.8" id="Line-2"></path>
                        <path d="M0.271529797,1.2 L421.84106,1.2" id="Line-2"></path>
                        <path d="M0.66888079,43.7986755 L422.238411,43.7986755" id="Line-2"></path>
                    </g>
                </g>
            </g>
        </g>
    </g>
</svg>