<?xml version="1.0" encoding="UTF-8"?>
<svg width="45px" height="49px" viewBox="0 0 45 49" version="1.1" xmlns="http://www.w3.org/2000/svg" xmlns:xlink="http://www.w3.org/1999/xlink">
    <!-- Generator: Sketch 51.3 (57544) - http://www.bohemiancoding.com/sketch -->
    <title>3of3_green</title>
    <desc>Created with Sketch.</desc>
    <defs></defs>
    <g id="Page-1" stroke="none" stroke-width="1" fill="none" fill-rule="evenodd">
        <g id="UI" transform="translate(-1654.000000, -90.000000)" fill="#48751E">
            <g id="scoreboard" transform="translate(1436.000000, 80.000000)">
                <g id="score">
                    <g id="Gretchen" transform="translate(6.682946, 0.000000)">
                        <path d="M216.50279,44.4521314 C216.811145,44.4521314 217.080951,44.5677625 217.312217,44.7990283 C217.543482,45.0302941 217.659114,45.3001001 217.659114,45.6084544 L217.659114,50.2915629 C217.659114,50.7540944 217.813288,51.1395316 218.121643,51.447886 C218.429997,51.7562403 218.815434,51.9104152 219.277966,51.9104152 C219.740497,51.9104152 220.125935,51.7562403 220.434289,51.447886 C220.781188,51.1009873 220.954634,50.7155501 220.954634,50.2915629 L220.954634,33.4670622 C220.954634,33.0045306 220.781188,32.5998216 220.434289,32.2529229 C220.125935,31.9445686 219.740497,31.7903937 219.277966,31.7903937 L216.50279,31.7903937 C216.040259,31.7903937 215.703001,31.6265829 215.491008,31.2989564 C215.279014,30.9713299 215.269378,30.5955287 215.4621,30.1715414 L216.444974,27.743263 C217.100227,25.7775039 217.736199,23.9563133 218.352907,22.2796364 C218.969616,20.6029596 219.605587,18.781769 220.26084,16.8160099 L212.74474,16.8160099 C212.436386,16.8160099 212.16658,16.7003788 211.935314,16.469113 C211.704049,16.2378472 211.588417,15.9680412 211.588417,15.6596868 L211.588417,11.9016368 C211.588417,11.5932825 211.704049,11.3234765 211.935314,11.0922107 C212.16658,10.8609449 212.436386,10.7453138 212.74474,10.7453138 L225.869007,10.7453138 C226.177362,10.7453138 226.447168,10.8609449 226.678434,11.0922107 C226.909699,11.3234765 227.02533,11.5932825 227.02533,11.9016368 L227.02533,15.9487676 L223.26728,26.8760206 C223.460002,27.0687421 223.7009,27.2614607 223.989982,27.4541822 C224.279065,27.6469037 224.519963,27.8396222 224.712684,28.0323437 C226.254456,29.5355712 227.02533,31.3471259 227.02533,33.4670622 L227.02533,50.2915629 C227.02533,52.3729548 226.254456,54.1845095 224.712684,55.7262813 C223.209457,57.2295088 221.397902,57.9811113 219.277966,57.9811113 C217.196574,57.9811113 215.385019,57.2295088 213.843247,55.7262813 C212.34002,54.1074209 211.588417,52.2958662 211.588417,50.2915629 L211.588417,45.6084544 C211.588417,45.3001001 211.704049,45.0302941 211.935314,44.7990283 C212.16658,44.5677625 212.436386,44.4521314 212.74474,44.4521314 L216.50279,44.4521314 Z M239.605162,58.4870027 C239.540921,58.7439646 239.380322,58.8724437 239.12336,58.8724437 L237.557506,58.8724437 C237.396905,58.8724437 237.268426,58.8162341 237.172065,58.7038132 C237.075704,58.5913924 237.043585,58.4548834 237.075705,58.2942822 L241.532367,36.4445941 C241.596607,36.1876321 241.757206,36.0591531 242.014168,36.0591531 L243.531842,36.0591531 C243.692443,36.0591531 243.820922,36.1153626 243.917283,36.2277835 C244.013644,36.3402044 244.045764,36.4767134 244.013643,36.6373146 L239.605162,58.4870027 Z M251.409293,51.6695146 C251.537774,51.6695146 251.650193,51.7176942 251.746554,51.8140549 C251.842914,51.9104157 251.891094,52.0228348 251.891094,52.1513158 L251.891094,54.102611 C251.891094,54.2953325 251.955333,54.4559313 252.083814,54.5844123 C252.212295,54.7128933 252.372894,54.7771328 252.565616,54.7771328 C252.758337,54.7771328 252.918936,54.7128933 253.047417,54.5844123 C253.191958,54.4398712 253.264228,54.2792724 253.264228,54.102611 L253.264228,47.0924024 C253.264228,46.8996809 253.191958,46.7310521 253.047417,46.586511 C252.918936,46.4580301 252.758337,46.3937905 252.565616,46.3937905 L251.409293,46.3937905 C251.216571,46.3937905 251.076047,46.325536 250.987717,46.189025 C250.899386,46.0525139 250.895371,45.8959301 250.975672,45.7192687 L251.385203,44.707486 C251.658225,43.8884198 251.923213,43.1295903 252.180175,42.430975 C252.437137,41.7323596 252.702125,40.9735302 252.975147,40.1544639 L249.843438,40.1544639 C249.714958,40.1544639 249.602538,40.1062843 249.506178,40.0099236 C249.409817,39.9135628 249.361637,39.8011436 249.361637,39.6726627 L249.361637,38.1068085 C249.361637,37.9783275 249.409817,37.8659083 249.506178,37.7695476 C249.602538,37.6731869 249.714958,37.6250072 249.843438,37.6250072 L255.311883,37.6250072 C255.440364,37.6250072 255.552783,37.6731869 255.649144,37.7695476 C255.745505,37.8659083 255.793684,37.9783275 255.793684,38.1068085 L255.793684,39.793113 L254.22783,44.3461351 C254.308131,44.4264357 254.408505,44.5067351 254.528956,44.5870357 C254.649407,44.6673363 254.749781,44.7476358 254.830082,44.8279364 C255.472487,45.4542812 255.793684,46.2090956 255.793684,47.0924024 L255.793684,54.102611 C255.793684,54.9698577 255.472487,55.7246721 254.830082,56.367077 C254.203737,56.9934218 253.448922,57.3065895 252.565616,57.3065895 C251.698369,57.3065895 250.943555,56.9934218 250.30115,56.367077 C249.674805,55.6925519 249.361637,54.9377374 249.361637,54.102611 L249.361637,52.1513158 C249.361637,52.0228348 249.409817,51.9104157 249.506178,51.8140549 C249.602538,51.7176942 249.714958,51.6695146 249.843438,51.6695146 L251.409293,51.6695146 Z" id="3of3_green"></path>
                    </g>
                </g>
            </g>
        </g>
    </g>
</svg>