<?xml version="1.0" encoding="UTF-8"?>
<svg width="200px" height="200px" viewBox="0 0 200 200" version="1.1" xmlns="http://www.w3.org/2000/svg" xmlns:xlink="http://www.w3.org/1999/xlink">
    <!-- Generator: Sketch 51.3 (57544) - http://www.bohemiancoding.com/sketch -->
    <title>bus_nav_left</title>
    <desc>Created with Sketch.</desc>
    <defs></defs>
    <g id="bus_nav_left" stroke="none" stroke-width="1" fill="none" fill-rule="evenodd">
        <path d="M99.7613365,126.968974 C84.7349734,126.968974 72.5536993,114.7877 72.5536993,99.7613365 C72.5536993,84.7349734 84.7349734,72.5536993 99.7613365,72.5536993 C114.7877,72.5536993 126.968974,84.7349734 126.968974,99.7613365 C126.968974,114.7877 114.7877,126.968974 99.7613365,126.968974 Z M92.1415939,122.385476 C92.8385599,122.620121 93.765293,122.848622 94.9217933,123.070979 C95.0961888,123.104509 95.273782,123.11847 95.4512747,123.112601 C96.7686563,123.069045 97.801296,121.965787 97.7577412,120.648406 C97.3853554,109.385329 97.1125623,103.687554 96.939362,103.555082 C96.4493225,103.180277 96.0340301,102.712675 95.7197281,102.17852 C95.613767,101.998439 89.9542507,101.431777 78.7411793,100.478534 C78.5765295,100.464536 78.4108711,100.467677 78.24687,100.487904 C76.9386804,100.649252 76.0089816,101.840548 76.1703298,103.148737 C76.2634237,103.903532 76.3655325,104.52792 76.476656,105.021901 C78.3111856,113.176996 84.3202665,119.752289 92.1415939,122.385476 Z M107.383585,122.385476 C115.204912,119.752289 121.213993,113.176996 123.048523,105.021901 C123.159637,104.527959 123.261739,103.903631 123.354827,103.148917 C123.516181,101.840728 122.586489,100.649428 121.2783,100.488073 C121.114248,100.467839 120.948538,100.464702 120.783838,100.478713 C109.570496,101.432645 103.910709,101.999798 103.804478,102.180171 C103.490292,102.713639 103.075351,103.180664 102.585817,103.555082 C102.412616,103.687554 102.139823,109.385329 101.767437,120.648406 C101.723883,121.965787 102.756522,123.069045 104.073904,123.112601 C104.251397,123.11847 104.42899,123.104509 104.603385,123.070979 C105.759886,122.848622 106.686619,122.620121 107.383585,122.385476 Z M76.8095154,93.3338317 C76.7526631,93.5551424 76.727887,93.7834705 76.7359457,94.0118248 C76.7824331,95.3291075 77.8879873,96.3592907 79.20527,96.3128019 C91.2790059,95.8867153 97.4727534,95.5989496 97.7865122,95.4495047 C98.4076468,95.1536553 99.102784,94.9880668 99.8365965,94.9880668 C100.585102,94.9880668 101.293368,95.1603526 101.923902,95.467432 C102.228361,95.6157082 108.36136,95.898056 120.322899,96.3144754 C120.550476,96.322398 120.778016,96.2977102 120.998598,96.2411628 C122.275411,95.9138444 123.045129,94.6134385 122.717813,93.3366245 C122.547123,92.6707911 122.381631,92.1154256 122.221339,91.6705279 C118.907083,82.4716736 110.102244,75.8949881 99.7613365,75.8949881 C89.4684033,75.8949881 80.6973181,82.4107936 77.3478147,91.5426707 C77.1738922,92.0168421 76.9944592,92.6138957 76.8095154,93.3338317 Z" id="wheel" fill="#568B24" fill-rule="nonzero"></path>
        <path d="M70.8856671,172.042278 C72.0455969,172.042278 72.9859058,171.101969 72.9859058,169.942039 L72.9859058,138.138425 C72.9859058,136.978495 73.9262147,136.038186 75.0861444,136.038186 L125.030219,136.038186 C126.190149,136.038186 127.130457,136.978495 127.130457,138.138425 L127.130457,169.942039 C127.130457,171.101969 128.070766,172.042278 129.230696,172.042278 L131.822985,172.042278 C132.314334,172.042278 132.776766,172.274541 133.070151,172.668684 C133.58286,173.357474 133.440117,174.331482 132.751327,174.844191 L100.489474,198.858652 C100.340622,198.969452 100.136705,198.969452 99.9878525,198.858652 L67.5812239,174.736425 C67.2022401,174.454324 66.9789103,174.009678 66.9789103,173.537227 C66.9789103,172.711589 67.648222,172.042278 68.4738598,172.042278 L70.8856671,172.042278 Z M101.155131,155.856802 L103.599045,155.856802 C103.802706,155.856802 103.980906,155.78043 104.133652,155.627685 C104.286397,155.47494 104.362768,155.296739 104.362768,155.093079 L104.362768,152.458234 C104.362768,151.796337 104.248211,151.159908 104.019093,150.548926 L103.828162,150.243437 C103.726332,150.039776 103.599046,149.829754 103.446301,149.613365 C103.293555,149.396976 103.115355,149.186954 102.911695,148.983294 C102.784407,148.906921 102.688942,148.824185 102.625298,148.735084 C102.561654,148.645982 102.504376,148.588703 102.453461,148.563246 L102.491647,148.563246 C102.440732,148.512331 102.370724,148.461416 102.281623,148.410501 C102.192521,148.359586 102.109786,148.308672 102.033413,148.257757 C101.244228,147.748605 100.378684,147.494033 99.4367542,147.494033 C98.800315,147.494033 98.176614,147.621319 97.5656325,147.875895 C97.3619719,147.977725 97.298329,148.015911 97.3747017,147.990453 C97.0692109,148.117741 96.7891819,148.276849 96.5346062,148.46778 C96.2800305,148.658712 96.0509159,148.856005 95.8472554,149.059666 C95.8217978,149.110581 95.7581548,149.186953 95.6563246,149.288783 L95.5417661,149.403341 C95.3890207,149.556087 95.3062849,149.657915 95.2935561,149.708831 C95.2808273,149.759746 95.2617344,149.81066 95.2362768,149.861575 L95.274463,149.823389 C94.7653117,150.638031 94.5107399,151.516304 94.5107399,152.458234 L94.5107399,155.093079 C94.5107399,155.5004 94.5298327,155.926808 94.5680191,156.372315 C94.6062054,156.817822 94.6762127,157.269687 94.778043,157.727924 C94.8289581,158.058872 94.9307868,158.428001 95.0835322,158.835322 C95.2362776,159.242643 95.4144779,159.675415 95.6181384,160.133652 C95.9236292,160.821006 96.2609369,161.50835 96.6300716,162.195704 C96.9992063,162.883058 97.3746998,163.532217 97.7565632,164.143198 C97.9856813,164.525062 98.1766102,164.868734 98.3293556,165.174224 C98.482101,165.479715 98.6221155,165.734287 98.7494033,165.937947 C98.9276063,166.217981 99.0803494,166.504374 99.2076372,166.797136 C99.3349251,167.089898 99.462211,167.376291 99.5894988,167.656325 C99.8440745,168.267306 100.047732,168.827364 100.200477,169.336516 C100.327765,169.896582 100.391408,170.482097 100.391408,171.093079 L100.391408,173.76611 C100.391408,173.893398 100.365951,174.007955 100.315036,174.071599 C100.289578,174.097057 100.27685,174.122514 100.257757,174.205251 C100.245028,174.217979 100.238663,174.249801 100.238663,174.300716 C100.187748,174.377089 100.168655,174.402546 100.181384,174.377088 C100.194113,174.351631 100.17502,174.364359 100.124105,174.415274 C99.9459021,174.593477 99.7167874,174.682578 99.4367542,174.682578 C99.385839,174.682578 99.3349247,174.676213 99.2840095,174.663484 C99.2330944,174.650756 99.18218,174.644391 99.1312649,174.644391 C99.1058074,174.618934 99.0803502,174.606205 99.0548926,174.606205 C99.0039775,174.606205 98.9657917,174.593477 98.9403341,174.568019 C98.8385039,174.517104 98.7875895,174.46619 98.7875895,174.415274 C98.6093865,174.237072 98.5202864,174.020685 98.5202864,173.76611 L98.5202864,171.093079 C98.5202864,170.889418 98.4439148,170.711218 98.2911695,170.558473 C98.1384241,170.405727 97.9602238,170.329356 97.7565632,170.329356 L95.274463,170.329356 C95.0708025,170.329356 94.8926022,170.405727 94.7398568,170.558473 C94.5871114,170.711218 94.5107399,170.889418 94.5107399,171.093079 L94.5107399,173.76611 C94.5107399,175.115361 94.9944263,176.273663 95.9618138,177.24105 C96.1400168,177.419253 96.33731,177.584725 96.5536993,177.73747 C96.7700886,177.890216 97.0310247,178.03023 97.3556086,178.195704 C97.3937949,178.221162 97.438345,178.246619 97.4892601,178.272076 C98.1256993,178.55211 98.7748575,178.692124 99.4367542,178.692124 C100.149566,178.692124 100.773267,178.577567 101.307876,178.348449 C101.842485,178.119331 102.351628,177.775659 102.835322,177.317422 C103.268101,176.986474 103.599044,176.553702 103.828162,176.019093 C103.929993,175.891805 103.993636,175.751791 104.019093,175.637232 C104.248211,175.102623 104.362768,174.478922 104.362768,173.76611 L104.362768,171.093079 C104.362768,170.634843 104.343676,170.182978 104.305489,169.73747 C104.267303,169.291963 104.184567,168.852826 104.057279,168.420048 C103.929991,167.961812 103.802705,167.541768 103.675418,167.159905 C103.54813,166.778041 103.420844,166.408912 103.293556,166.052506 L102.949881,165.326969 C102.822593,165.097851 102.708036,164.868736 102.606205,164.639618 C102.504375,164.4105 102.389818,164.194114 102.26253,163.990453 L102.090692,163.646778 C102.027048,163.51949 101.944312,163.379476 101.842482,163.22673 C101.638822,162.92124 101.409707,162.539382 101.155131,162.081146 C100.773268,161.495622 100.410503,160.910106 100.066826,160.324582 C99.7231486,159.739058 99.4494839,159.166272 99.2458234,158.606205 C98.9657902,157.918851 98.7748613,157.346064 98.673031,156.887828 L98.7112172,156.926014 C98.5839294,156.213202 98.5202864,155.60223 98.5202864,155.093079 L98.5202864,152.458234 C98.5202864,152.229116 98.5839294,152.038187 98.7112172,151.885442 C98.7621323,151.834526 98.8003181,151.764519 98.8257757,151.675418 C98.8512332,151.586316 98.8766904,151.516309 98.902148,151.465394 C98.902148,151.567224 98.8894194,151.630867 98.8639618,151.656325 L98.9403341,151.656325 C98.9912493,151.656325 99.029435,151.643596 99.0548926,151.618138 C99.1058077,151.592681 99.1439935,151.567224 99.1694511,151.541766 C99.1949086,151.516309 99.2840088,151.50358 99.4367542,151.50358 C99.5894996,151.50358 99.7422427,151.541766 99.8949881,151.618138 C100.022276,151.745426 100.111376,151.821798 100.162291,151.847255 C100.187749,151.898171 100.200477,151.917263 100.200477,151.904535 C100.200477,151.891806 100.213206,151.89817 100.238663,151.923628 C100.315036,152.025458 100.327765,152.044551 100.27685,151.980907 C100.225935,151.917263 100.213206,151.910899 100.238663,151.961814 C100.340494,152.241847 100.391408,152.407319 100.391408,152.458234 L100.391408,155.093079 C100.391408,155.296739 100.46778,155.47494 100.620525,155.627685 C100.77327,155.78043 100.951471,155.856802 101.155131,155.856802 Z M100.515668,195 L107.564106,190.027421 C107.714267,189.921485 107.803576,189.74918 107.803576,189.565412 C107.803576,189.253143 107.550433,189 107.238165,189 L93.5654744,189 C93.3787281,189 93.2040268,189.09221 93.0986594,189.246391 C92.9224691,189.504206 92.9886388,189.856036 93.2464536,190.032227 L100.515668,195 Z" id="back" fill="#568B24" fill-rule="nonzero"></path>
        <path d="M172.553548,70.6470037 L172.553548,68.2351963 C172.553548,67.4045544 173.226917,66.731186 174.057559,66.731186 C174.530958,66.731186 174.97673,66.9540725 175.260769,67.3327925 L199.572052,99.7479721 C199.684064,99.8973221 199.684064,100.102678 199.572052,100.252028 L175.369057,132.522822 C174.850738,133.213917 173.870314,133.35398 173.179219,132.83566 C172.78535,132.54026 172.553548,132.076657 172.553548,131.584322 L172.553548,128.992033 C172.553548,127.832103 171.613239,126.891794 170.45331,126.891794 L138.377088,126.891794 C137.217159,126.891794 136.27685,125.951485 136.27685,124.791555 L136.27685,74.847481 C136.27685,73.6875512 137.217159,72.7472423 138.377088,72.7472423 L170.45331,72.7472423 C171.613239,72.7472423 172.553548,71.8069334 172.553548,70.6470037 Z M158.281623,114.73031 L163.207637,114.73031 C164.4296,114.73031 165.486074,114.28481 166.377088,113.393795 L166.377088,113.431981 C167.268103,112.591881 167.713604,111.535408 167.713604,110.26253 L167.713604,88 C167.713604,86.8034944 167.268103,85.7597499 166.377088,84.8687351 C165.486074,83.9777203 164.4296,83.5322196 163.207637,83.5322196 L158.281623,83.5322196 C158.077962,83.5322196 157.899762,83.6085911 157.747017,83.7613365 C157.594271,83.9140819 157.5179,84.0922822 157.5179,84.2959427 L157.5179,113.966587 C157.5179,114.170248 157.594271,114.348448 157.747017,114.501193 C157.899762,114.653939 158.077962,114.73031 158.281623,114.73031 Z M161.527446,110.720764 L161.527446,87.5417661 L163.207637,87.5417661 C163.334925,87.5417661 163.449482,87.5926805 163.551313,87.6945107 C163.653143,87.796341 163.704057,87.8981697 163.704057,88 L163.704057,110.26253 C163.704057,110.389818 163.653143,110.504375 163.551313,110.606205 C163.47494,110.682578 163.360383,110.720764 163.207637,110.720764 L161.527446,110.720764 Z M195.4,99.8843315 L190.427421,92.8358939 C190.321485,92.6857332 190.14918,92.5964235 189.965412,92.5964235 C189.653143,92.5964235 189.4,92.849567 189.4,93.1618353 L189.4,106.834526 C189.4,107.021272 189.49221,107.195973 189.646391,107.301341 C189.904206,107.477531 190.256036,107.411361 190.432227,107.153546 L195.4,99.8843315 Z" id="right" fill="#568B24" fill-rule="nonzero"></path>
        <path d="M27.4461874,70.6470037 C27.4461874,71.8069335 28.3864962,72.7472424 29.546426,72.7472424 L61.6226473,72.7472424 C62.7825771,72.7472424 63.722886,73.6875512 63.722886,74.847481 L63.722886,124.791555 C63.722886,125.951485 62.7825771,126.891794 61.6226473,126.891794 L29.546426,126.891794 C28.3864962,126.891794 27.4461874,127.832103 27.4461874,128.992033 L27.4461874,131.584322 C27.4461874,132.076657 27.2143854,132.54026 26.8205166,132.83566 C26.1294214,133.35398 25.1489974,133.213917 24.6306782,132.522822 L0.427683608,100.252028 C0.315671552,100.102678 0.315671552,99.8973221 0.427683608,99.7479721 L24.738967,67.3327926 C25.0230058,66.9540726 25.4687778,66.7311861 25.9421771,66.7311861 C26.772819,66.7311861 27.4461874,67.4045544 27.4461874,68.2351964 L27.4461874,70.6470037 Z M30.3579952,114.73031 L32.8400955,114.73031 C33.043756,114.73031 33.215592,114.660303 33.3556086,114.520286 C33.4956252,114.38027 33.5783611,114.208434 33.6038186,114.004773 L33.9856802,108.505967 L36.1622912,108.505967 L36.353222,114.004773 C36.353222,114.208434 36.4295935,114.38027 36.5823389,114.520286 C36.7350843,114.660303 36.9132846,114.73031 37.1169451,114.73031 L39.5990453,114.73031 C39.8027059,114.73031 39.9809062,114.647574 40.1336516,114.4821 C40.2863969,114.316626 40.3627685,114.132061 40.3627685,113.928401 L39.2935561,84.2577566 C39.2935561,84.054096 39.2171845,83.88226 39.0644391,83.7422434 C38.9116937,83.6022268 38.7334935,83.5322196 38.5298329,83.5322196 L32.4582339,83.5322196 C32.2545734,83.5322196 32.0827374,83.6022268 31.9427208,83.7422434 C31.8027042,83.88226 31.7199683,84.054096 31.6945107,84.2577566 L29.5942721,114.004773 C29.5942721,114.208434 29.6706436,114.38027 29.823389,114.520286 C29.9761344,114.660303 30.1543347,114.73031 30.3579952,114.73031 Z M36.0095465,104.49642 L34.2529833,104.49642 C34.4311863,101.772461 34.6221151,99.1249134 34.8257757,96.5536993 C35.0294362,93.9824852 35.2330937,91.3476666 35.4367542,88.6491647 C35.5385844,91.2967515 35.6276846,93.93157 35.7040573,96.5536993 C35.78043,99.1758285 35.8822587,101.823376 36.0095465,104.49642 Z M4.4,100.115668 L9.37257887,107.164106 C9.47851521,107.314267 9.65082009,107.403576 9.83458823,107.403576 C10.1468565,107.403576 10.4,107.150433 10.4,106.838165 L10.4,93.1654744 C10.4,92.9787281 10.3077904,92.8040268 10.153609,92.6986594 C9.89579426,92.5224691 9.54396361,92.5886388 9.36777328,92.8464536 L4.4,100.115668 Z" id="left" fill="#568B24" fill-rule="nonzero"></path>
        <path d="M70.9067569,26.8994744 L68.4949496,26.8994744 C67.6693117,26.8994744 67,26.2301627 67,25.4045248 C67,24.9320743 67.2233299,24.4874277 67.6023136,24.2053271 L100.008942,0.0830997067 C100.157794,-0.0276999022 100.361712,-0.0276999022 100.510564,0.0830997067 L132.772416,24.0975612 C133.461207,24.6102699 133.60395,25.5842776 133.091241,26.2730682 C132.797856,26.6672113 132.335424,26.8994744 131.844075,26.8994744 L129.251786,26.8994744 C128.091856,26.8994744 127.151547,27.8397833 127.151547,28.999713 L127.151547,60.8033271 C127.151547,61.9632569 126.211238,62.9035658 125.051309,62.9035658 L75.1072342,62.9035658 C73.9473044,62.9035658 73.0069955,61.9632569 73.0069955,60.8033271 L73.0069955,28.999713 C73.0069955,27.8397833 72.0666867,26.8994744 70.9067569,26.8994744 Z M92.5461496,19.9441385 L90.0640494,19.9441385 C89.8094737,19.9441385 89.6058163,20.0332387 89.4530709,20.2114417 C89.3003255,20.3896446 89.2494111,20.5933021 89.3003262,20.8224202 L93.5008036,50.4930646 C93.5262611,50.6712675 93.608997,50.8240106 93.7490136,50.9512985 C93.8890302,51.0785863 94.0608662,51.1422292 94.2645267,51.1422292 L96.7848131,51.1422292 C96.9884736,51.1422292 97.1603096,51.0785863 97.3003262,50.9512985 C97.4403428,50.8240106 97.5230787,50.6712675 97.5485363,50.4930646 C97.9049422,47.769105 98.2804356,45.0642793 98.6750279,42.3785061 C99.0696202,39.6927329 99.4578422,36.9879071 99.8397057,34.2639476 L102.169061,50.4930646 C102.194519,50.6712675 102.283619,50.8240106 102.436364,50.9512985 C102.58911,51.0785863 102.754582,51.1422292 102.932784,51.1422292 L105.414885,51.1422292 C105.593088,51.1422292 105.758559,51.0785863 105.911305,50.9512985 C106.06405,50.8240106 106.15315,50.6712675 106.178608,50.4930646 L110.417271,20.8224202 C110.468186,20.5933021 110.417272,20.3896446 110.264527,20.2114417 C110.111781,20.0332387 109.908124,19.9441385 109.653548,19.9441385 L107.133262,19.9441385 C106.929601,19.9441385 106.757765,20.0077815 106.617749,20.1350693 C106.477732,20.2623572 106.394996,20.4151003 106.369539,20.5933032 C106.013133,23.1899749 105.650368,25.7802434 105.281233,28.3641863 C104.912098,30.9481292 104.549334,33.5383976 104.192928,36.1350693 L101.978131,20.5933032 C101.952673,20.4151003 101.869937,20.2623572 101.729921,20.1350693 C101.589904,20.0077815 101.418068,19.9441385 101.214407,19.9441385 L98.5031902,19.9441385 C98.3249872,19.9441385 98.1595155,20.0077815 98.0067701,20.1350693 C97.8540248,20.2623572 97.7649246,20.4151003 97.739467,20.5933032 C97.3830611,23.1390598 97.013932,25.7547854 96.6320685,28.4405586 C96.250205,31.1263318 95.8810758,33.7420574 95.5246699,36.287814 L93.3098728,20.5933032 C93.2844152,20.4151003 93.1953151,20.2623572 93.0425697,20.1350693 C92.8898243,20.0077815 92.7243526,19.9441385 92.5461496,19.9441385 Z M100.284332,5 L93.2358939,9.97257887 C93.0857332,10.0785152 92.9964235,10.2508201 92.9964235,10.4345882 C92.9964235,10.7468565 93.249567,11 93.5618353,11 L107.234526,11 C107.421272,11 107.595973,10.9077904 107.701341,10.753609 C107.877531,10.4957943 107.811361,10.1439636 107.553546,9.96777328 L100.284332,5 Z" id="forward" fill="#568B24" fill-rule="nonzero"></path>
    </g>
</svg>