<?xml version="1.0" encoding="UTF-8"?>
<svg width="372px" height="107px" viewBox="0 0 372 107" version="1.1" xmlns="http://www.w3.org/2000/svg" xmlns:xlink="http://www.w3.org/1999/xlink">
    <!-- Generator: Sketch 51.3 (57544) - http://www.bohemiancoding.com/sketch -->
    <title>play next round</title>
    <desc>Created with Sketch.</desc>
    <defs></defs>
    <g id="Page-1" stroke="none" stroke-width="1" fill="none" fill-rule="evenodd">
        <g id="assets" transform="translate(-440.000000, -197.000000)" fill="#272727" fill-rule="nonzero">
            <path d="M462,197 L790,197 C802.150264,197 812,206.849736 812,219 L812,282 C812,294.150264 802.150264,304 790,304 L462,304 C449.849736,304 440,294.150264 440,282 L440,219 C440,206.849736 449.849736,197 462,197 Z M510.15,238.6 C509.449996,238.6 508.800003,238.716666 508.2,238.95 C508.133333,238.716666 507.983335,238.6 507.75,238.6 L504.5,238.6 C504.166665,238.6 504,238.766665 504,239.1 L504,273.05 C504,273.383335 504.166665,273.55 504.5,273.55 L507.75,273.55 C508.083335,273.55 508.25,273.383335 508.25,273.05 L508.25,265.2 C508.850003,265.400001 509.48333,265.5 510.15,265.5 C511.850009,265.5 513.299994,264.900006 514.5,263.7 C515.73334,262.466661 516.35,261.016675 516.35,259.35 L516.35,244.8 C516.35,243.099992 515.73334,241.650006 514.5,240.45 C513.299994,239.216661 511.850009,238.6 510.15,238.6 Z M510.15,242.85 C510.683336,242.85 511.133331,243.033332 511.5,243.4 C511.900002,243.800002 512.1,244.266664 512.1,244.8 L512.1,259.35 C512.1,259.850003 511.900002,260.299998 511.5,260.7 C511.133331,261.066669 510.683336,261.25 510.15,261.25 C509.616664,261.25 509.166669,261.066669 508.8,260.7 C508.433332,260.333332 508.25,259.883336 508.25,259.35 L508.25,244.8 C508.25,244.233331 508.433332,243.766669 508.8,243.4 C509.166669,243.033332 509.616664,242.85 510.15,242.85 Z M526.75,265 L526.75,226.15 C526.75,225.816665 526.583335,225.65 526.25,225.65 L523,225.65 C522.666665,225.65 522.5,225.816665 522.5,226.15 L522.5,265 C522.5,265.333335 522.666665,265.5 523,265.5 L526.25,265.5 C526.583335,265.5 526.75,265.333335 526.75,265 Z M545.9,265.15 L545.9,244.8 C545.9,243.099992 545.28334,241.650006 544.05,240.45 C542.849994,239.216661 541.400009,238.6 539.7,238.6 C538.033325,238.6 536.583339,239.216661 535.35,240.45 C534.149994,241.650006 533.55,243.099992 533.55,244.8 C533.55,245.133335 533.716665,245.3 534.05,245.3 L537.3,245.3 C537.633335,245.3 537.8,245.133335 537.8,244.8 C537.8,244.233331 537.983331,243.766669 538.35,243.4 C538.716668,243.033332 539.166664,242.85 539.7,242.85 C540.233336,242.85 540.683331,243.033332 541.05,243.4 C541.450002,243.800002 541.65,244.266664 541.65,244.8 L541.65,246.05 C540.383327,246.916671 539.266671,247.749996 538.3,248.55 C537.333328,249.350004 536.500003,250.13333 535.8,250.9 C534.299992,252.600009 533.55,255.416647 533.55,259.35 C533.55,260.950008 534.149994,262.399994 535.35,263.7 C536.583339,264.900006 538.033325,265.5 539.7,265.5 C540.033335,265.5 540.358332,265.466667 540.675,265.4 C540.991668,265.333333 541.316665,265.250001 541.65,265.15 C541.65,265.483335 541.816665,265.65 542.15,265.65 L545.4,265.65 C545.733335,265.65 545.9,265.483335 545.9,265.15 Z M541.65,251.2 L541.65,259.35 C541.65,259.850003 541.450002,260.299998 541.05,260.7 C540.683331,261.066669 540.233336,261.25 539.7,261.25 C539.166664,261.25 538.716668,261.066669 538.35,260.7 C537.983331,260.333332 537.8,259.883336 537.8,259.35 C537.8,256.949988 538.199996,255.166673 539,254 C539.66667,252.999995 540.549994,252.066671 541.65,251.2 Z M552.05,239.2 L556.25,265.1 C556.183333,265.400002 556.125,265.716665 556.075,266.05 C556.025,266.383335 555.966667,266.699999 555.9,267 C555.766666,267.366669 555.641667,267.724998 555.525,268.075 C555.408333,268.425002 555.283334,268.699999 555.15,268.9 C554.849998,269.200002 554.250004,269.35 553.35,269.35 C553.016665,269.35 552.85,269.516665 552.85,269.85 L552.85,273.1 C552.85,273.433335 553.016665,273.6 553.35,273.6 C555.383343,273.6 556.983327,273.016673 558.15,271.85 C559.016671,270.883329 559.649998,269.583342 560.05,267.95 C560.016666,267.916667 560,267.883334 560,267.85 C559.966666,267.816667 559.95,267.783334 559.95,267.75 L564.4,239.2 C564.433333,239.033333 564.4,238.891667 564.3,238.775 C564.199999,238.658333 564.066667,238.6 563.9,238.6 L560.4,238.6 C560.133332,238.6 559.966667,238.749999 559.9,239.05 C559.633332,240.916676 559.350001,242.758324 559.05,244.575 C558.749998,246.391676 558.466668,248.233324 558.2,250.1 L556.55,239.05 C556.483333,238.749999 556.316668,238.6 556.05,238.6 L552.55,238.6 C552.383332,238.6 552.25,238.658333 552.15,238.775 C552.049999,238.891667 552.016666,239.033333 552.05,239.2 Z M585.2,265.5 L588.45,265.5 C588.783335,265.5 588.95,265.333335 588.95,265 L588.95,244.8 C588.95,244.233331 589.133332,243.766669 589.5,243.4 C589.866669,243.033332 590.316664,242.85 590.85,242.85 C591.383336,242.85 591.833331,243.033332 592.2,243.4 C592.600002,243.800002 592.8,244.266664 592.8,244.8 L592.8,265 C592.8,265.333335 592.966665,265.5 593.3,265.5 L596.55,265.5 C596.883335,265.5 597.05,265.333335 597.05,265 L597.05,244.8 C597.05,243.099992 596.43334,241.650006 595.2,240.45 C593.999994,239.216661 592.550009,238.6 590.85,238.6 C590.149997,238.6 589.500003,238.716666 588.9,238.95 C588.833333,238.716666 588.683335,238.6 588.45,238.6 L585.2,238.6 C584.866665,238.6 584.7,238.766665 584.7,239.1 L584.7,265 C584.7,265.333335 584.866665,265.5 585.2,265.5 Z M613.7,263 L611.4,260.7 C611.166666,260.466666 610.933335,260.466666 610.7,260.7 L610.5,260.9 L610.4,260.95 C610.066665,261.150001 609.716668,261.25 609.35,261.25 C608.816664,261.25 608.366669,261.066669 608,260.7 C607.633332,260.333332 607.45,259.883336 607.45,259.35 L607.45,254.15 L615.05,254.15 C615.383335,254.15 615.55,253.983335 615.55,253.65 L615.55,244.8 C615.55,243.099992 614.93334,241.650006 613.7,240.45 C612.499994,239.216661 611.050009,238.6 609.35,238.6 C607.683325,238.6 606.23334,239.216661 605,240.45 C603.799994,241.650006 603.2,243.099992 603.2,244.8 L603.2,259.35 C603.2,260.950008 603.799994,262.399994 605,263.7 C606.23334,264.900006 607.683325,265.5 609.35,265.5 C610.450006,265.5 611.599994,265.133337 612.8,264.4 C612.766667,264.433334 612.899999,264.350001 613.2,264.15 C613.300001,264.083333 613.466666,263.933335 613.7,263.7 C613.933335,263.466666 613.933335,263.233335 613.7,263 Z M611.3,249.95 L607.45,249.95 L607.45,244.8 C607.45,244.233331 607.633332,243.766669 608,243.4 C608.366669,243.033332 608.816664,242.85 609.35,242.85 C609.883336,242.85 610.333331,243.033332 610.7,243.4 C611.100002,243.800002 611.3,244.266664 611.3,244.8 L611.3,249.95 Z M629.55,238.95 L627.75,244.75 L625.95,239 C625.883333,238.766666 625.716668,238.65 625.45,238.65 L622.1,238.65 C621.933333,238.65 621.791667,238.716666 621.675,238.85 C621.558333,238.983334 621.533333,239.133333 621.6,239.3 L625.5,252.05 L621.6,264.85 C621.533333,265.016668 621.558333,265.166666 621.675,265.3 C621.791667,265.433334 621.933333,265.5 622.1,265.5 L625.45,265.5 C625.716668,265.5 625.883333,265.383335 625.95,265.15 C626.216668,264.216662 626.508332,263.266672 626.825,262.3 C627.141668,261.333329 627.449998,260.366672 627.75,259.4 L629.55,265.15 C629.616667,265.383335 629.783332,265.5 630.05,265.5 L633.4,265.5 C633.566667,265.5 633.708333,265.433334 633.825,265.3 C633.941667,265.166666 633.966667,265.016668 633.9,264.85 C633.23333,262.716656 632.583337,260.583344 631.95,258.45 C631.316664,256.316656 630.66667,254.183344 630,252.05 L633.9,239.25 C633.966667,239.083333 633.941667,238.933334 633.825,238.8 C633.708333,238.666666 633.566667,238.6 633.4,238.6 L630.05,238.6 C629.783332,238.6 629.616667,238.716666 629.55,238.95 Z M639.4,239.1 L639.4,242.35 C639.4,242.683335 639.566665,242.85 639.9,242.85 L641.8,242.85 L641.8,265 C641.8,265.333335 641.966665,265.5 642.3,265.5 L645.5,265.5 C645.833335,265.5 646,265.333335 646,265 L646,242.85 L647.85,242.85 C648.183335,242.85 648.35,242.683335 648.35,242.35 L648.35,239.1 C648.35,238.766665 648.183335,238.6 647.85,238.6 L646,238.6 L646,229.4 C646,229.199999 645.925001,229.058334 645.775,228.975 C645.624999,228.891666 645.466668,228.883333 645.3,228.95 L642.1,230.55 C641.899999,230.616667 641.8,230.766666 641.8,231 L641.8,238.6 L639.9,238.6 C639.566665,238.6 639.4,238.766665 639.4,239.1 Z M671.25,238.6 L668,238.6 C667.666665,238.6 667.5,238.766665 667.5,239.1 L667.5,265 C667.5,265.333335 667.666665,265.5 668,265.5 L671.25,265.5 C671.583335,265.5 671.75,265.333335 671.75,265 L671.75,244.8 C671.75,244.499999 671.783333,244.250001 671.85,244.05 L671.95,243.95 C671.983334,243.783333 672.099999,243.600001 672.3,243.4 C672.666669,243.033332 673.116664,242.85 673.65,242.85 C673.916668,242.85 674.116666,242.883333 674.25,242.95 C674.283334,242.95 674.333333,242.966667 674.4,243 C674.466667,243.066667 674.533333,243.1 674.6,243.1 L675,243.4 C675.233334,243.633335 675.466665,243.633335 675.7,243.4 L678,241.15 C678.233334,240.916666 678.250001,240.683335 678.05,240.45 C677.783332,240.083332 677.233338,239.683336 676.4,239.25 L676.15,239.15 C675.149995,238.783332 674.31667,238.6 673.65,238.6 C672.949996,238.6 672.300003,238.716666 671.7,238.95 C671.633333,238.716666 671.483334,238.6 671.25,238.6 Z M688.65,238.6 C686.983325,238.6 685.53334,239.216661 684.3,240.45 C683.099994,241.650006 682.5,243.099992 682.5,244.8 L682.5,259.35 C682.5,260.950008 683.099994,262.399994 684.3,263.7 C685.53334,264.900006 686.983325,265.5 688.65,265.5 C690.350009,265.5 691.799994,264.900006 693,263.7 C694.23334,262.466661 694.85,261.016675 694.85,259.35 L694.85,244.8 C694.85,243.099992 694.23334,241.650006 693,240.45 C691.799994,239.216661 690.350009,238.6 688.65,238.6 Z M688.65,242.85 C689.183336,242.85 689.633331,243.033332 690,243.4 C690.400002,243.800002 690.6,244.266664 690.6,244.8 L690.6,259.35 C690.6,259.850003 690.400002,260.299998 690,260.7 C689.633331,261.066669 689.183336,261.25 688.65,261.25 C688.116664,261.25 687.666669,261.066669 687.3,260.7 C686.933332,260.333332 686.75,259.883336 686.75,259.35 L686.75,244.8 C686.75,244.233331 686.933332,243.766669 687.3,243.4 C687.666669,243.033332 688.116664,242.85 688.65,242.85 Z M712.85,238.6 L709.6,238.6 C709.266665,238.6 709.1,238.766665 709.1,239.1 L709.1,259.35 C709.1,259.850003 708.900002,260.299998 708.5,260.7 C708.133331,261.066669 707.683336,261.25 707.15,261.25 C706.616664,261.25 706.166669,261.066669 705.8,260.7 C705.433332,260.333332 705.25,259.883336 705.25,259.35 L705.25,239.1 C705.25,238.766665 705.083335,238.6 704.75,238.6 L701.5,238.6 C701.166665,238.6 701,238.766665 701,239.1 L701,259.35 C701,260.950008 701.599994,262.399994 702.8,263.7 C704.03334,264.900006 705.483325,265.5 707.15,265.5 C707.850003,265.5 708.499997,265.383335 709.1,265.15 C709.166667,265.383335 709.333332,265.5 709.6,265.5 L712.85,265.5 C713.183335,265.5 713.35,265.333335 713.35,265 L713.35,239.1 C713.35,238.766665 713.183335,238.6 712.85,238.6 Z M720,265.5 L723.25,265.5 C723.583335,265.5 723.75,265.333335 723.75,265 L723.75,244.8 C723.75,244.233331 723.933332,243.766669 724.3,243.4 C724.666669,243.033332 725.116664,242.85 725.65,242.85 C726.183336,242.85 726.633331,243.033332 727,243.4 C727.400002,243.800002 727.6,244.266664 727.6,244.8 L727.6,265 C727.6,265.333335 727.766665,265.5 728.1,265.5 L731.35,265.5 C731.683335,265.5 731.85,265.333335 731.85,265 L731.85,244.8 C731.85,243.099992 731.23334,241.650006 730,240.45 C728.799994,239.216661 727.350009,238.6 725.65,238.6 C724.949996,238.6 724.300003,238.716666 723.7,238.95 C723.633333,238.716666 723.483334,238.6 723.25,238.6 L720,238.6 C719.666665,238.6 719.5,238.766665 719.5,239.1 L719.5,265 C719.5,265.333335 719.666665,265.5 720,265.5 Z M744.15,238.6 C742.483325,238.6 741.03334,239.216661 739.8,240.45 C738.599994,241.650006 738,243.099992 738,244.8 L738,259.35 C738,260.950008 738.599994,262.399994 739.8,263.7 C741.03334,264.900006 742.483325,265.5 744.15,265.5 C744.850003,265.5 745.499997,265.383335 746.1,265.15 C746.166667,265.383335 746.333332,265.5 746.6,265.5 L749.85,265.5 C750.183335,265.5 750.35,265.333335 750.35,265 L750.35,226.15 C750.35,225.816665 750.183335,225.65 749.85,225.65 L746.6,225.65 C746.266665,225.65 746.1,225.816665 746.1,226.15 L746.1,238.9 C745.499997,238.699999 744.850003,238.6 744.15,238.6 Z M744.15,242.85 C744.683336,242.85 745.133331,243.033332 745.5,243.4 C745.900002,243.800002 746.1,244.266664 746.1,244.8 L746.1,259.35 C746.1,259.850003 745.900002,260.299998 745.5,260.7 C745.133331,261.066669 744.683336,261.25 744.15,261.25 C743.616664,261.25 743.166669,261.066669 742.8,260.7 C742.433332,260.333332 742.25,259.883336 742.25,259.35 L742.25,244.8 C742.25,244.233331 742.433332,243.766669 742.8,243.4 C743.166669,243.033332 743.616664,242.85 744.15,242.85 Z" id="play-next-round"></path>
        </g>
    </g>
</svg>