<?xml version="1.0" encoding="UTF-8"?>
<svg width="45px" height="49px" viewBox="0 0 45 49" version="1.1" xmlns="http://www.w3.org/2000/svg" xmlns:xlink="http://www.w3.org/1999/xlink">
    <!-- Generator: Sketch 51.3 (57544) - http://www.bohemiancoding.com/sketch -->
    <title>0of3_red</title>
    <desc>Created with Sketch.</desc>
    <defs></defs>
    <g id="Page-1" stroke="none" stroke-width="1" fill="none" fill-rule="evenodd">
        <g id="UI" transform="translate(-1654.000000, -170.000000)" fill="#A52E09">
            <g id="scoreboard" transform="translate(1436.000000, 83.000000)">
                <g id="score">
                    <g id="Bertha" transform="translate(6.682946, 76.543213)">
                        <path d="M220.203024,10.7453138 C222.05315,10.7453138 223.652715,11.4198288 225.001765,12.7688792 C226.350815,14.1179295 227.02533,15.6982219 227.02533,17.5098038 L227.02533,51.2166213 C227.02533,53.1438361 226.350815,54.7434004 225.001765,56.0153621 L225.001765,55.9575459 C223.652715,57.3065963 222.05315,57.9811113 220.203024,57.9811113 L218.352907,57.9811113 C216.502781,57.9811113 214.903217,57.3065963 213.554167,55.9575459 C212.243661,54.6470399 211.588417,53.0667475 211.588417,51.2166213 L211.588417,17.5098038 C211.588417,15.7753105 212.243661,14.1950181 213.554167,12.7688792 C214.903217,11.4198288 216.502781,10.7453138 218.352907,10.7453138 L220.203024,10.7453138 Z M218.352907,16.8160099 C218.160186,16.8160099 217.986739,16.8930973 217.832562,17.0472745 C217.716929,17.1629074 217.659114,17.3170823 217.659114,17.5098038 L217.659114,51.2166213 C217.659114,51.4478871 217.716929,51.6213338 217.832562,51.7369667 C217.948195,51.8525996 218.121642,51.9104152 218.352907,51.9104152 L220.203024,51.9104152 C220.43429,51.9104152 220.607737,51.8525996 220.72337,51.7369667 C220.877547,51.5827896 220.954634,51.4093428 220.954634,51.2166213 L220.954634,17.5098038 C220.954634,17.3556266 220.877547,17.2014517 220.72337,17.0472745 C220.569193,16.8930973 220.395746,16.8160099 220.203024,16.8160099 L218.352907,16.8160099 Z M239.605162,58.4870027 C239.540921,58.7439646 239.380322,58.8724437 239.12336,58.8724437 L237.557506,58.8724437 C237.396905,58.8724437 237.268426,58.8162341 237.172065,58.7038132 C237.075704,58.5913924 237.043585,58.4548834 237.075705,58.2942822 L241.532367,36.4445941 C241.596607,36.1876321 241.757206,36.0591531 242.014168,36.0591531 L243.531842,36.0591531 C243.692443,36.0591531 243.820922,36.1153626 243.917283,36.2277835 C244.013644,36.3402044 244.045764,36.4767134 244.013643,36.6373146 L239.605162,58.4870027 Z M251.409293,51.6695146 C251.537774,51.6695146 251.650193,51.7176942 251.746554,51.8140549 C251.842914,51.9104157 251.891094,52.0228348 251.891094,52.1513158 L251.891094,54.102611 C251.891094,54.2953325 251.955333,54.4559313 252.083814,54.5844123 C252.212295,54.7128933 252.372894,54.7771328 252.565616,54.7771328 C252.758337,54.7771328 252.918936,54.7128933 253.047417,54.5844123 C253.191958,54.4398712 253.264228,54.2792724 253.264228,54.102611 L253.264228,47.0924024 C253.264228,46.8996809 253.191958,46.7310521 253.047417,46.586511 C252.918936,46.4580301 252.758337,46.3937905 252.565616,46.3937905 L251.409293,46.3937905 C251.216571,46.3937905 251.076047,46.325536 250.987717,46.189025 C250.899386,46.0525139 250.895371,45.8959301 250.975672,45.7192687 L251.385203,44.707486 C251.658225,43.8884198 251.923213,43.1295903 252.180175,42.430975 C252.437137,41.7323596 252.702125,40.9735302 252.975147,40.1544639 L249.843438,40.1544639 C249.714958,40.1544639 249.602538,40.1062843 249.506178,40.0099236 C249.409817,39.9135628 249.361637,39.8011436 249.361637,39.6726627 L249.361637,38.1068085 C249.361637,37.9783275 249.409817,37.8659083 249.506178,37.7695476 C249.602538,37.6731869 249.714958,37.6250072 249.843438,37.6250072 L255.311883,37.6250072 C255.440364,37.6250072 255.552783,37.6731869 255.649144,37.7695476 C255.745505,37.8659083 255.793684,37.9783275 255.793684,38.1068085 L255.793684,39.793113 L254.22783,44.3461351 C254.308131,44.4264357 254.408505,44.5067351 254.528956,44.5870357 C254.649407,44.6673363 254.749781,44.7476358 254.830082,44.8279364 C255.472487,45.4542812 255.793684,46.2090956 255.793684,47.0924024 L255.793684,54.102611 C255.793684,54.9698577 255.472487,55.7246721 254.830082,56.367077 C254.203737,56.9934218 253.448922,57.3065895 252.565616,57.3065895 C251.698369,57.3065895 250.943555,56.9934218 250.30115,56.367077 C249.674805,55.6925519 249.361637,54.9377374 249.361637,54.102611 L249.361637,52.1513158 C249.361637,52.0228348 249.409817,51.9104157 249.506178,51.8140549 C249.602538,51.7176942 249.714958,51.6695146 249.843438,51.6695146 L251.409293,51.6695146 Z" id="0of3_red"></path>
                    </g>
                </g>
            </g>
        </g>
    </g>
</svg>