<?xml version="1.0" encoding="UTF-8"?>
<svg width="372px" height="107px" viewBox="0 0 372 107" version="1.1" xmlns="http://www.w3.org/2000/svg" xmlns:xlink="http://www.w3.org/1999/xlink">
    <!-- Generator: Sketch 51.3 (57544) - http://www.bohemiancoding.com/sketch -->
    <title>replay round</title>
    <desc>Created with Sketch.</desc>
    <defs></defs>
    <g id="Page-1" stroke="none" stroke-width="1" fill="none" fill-rule="evenodd">
        <g id="assets" transform="translate(-441.000000, -480.000000)" fill="#272727" fill-rule="nonzero">
            <path d="M463,480 L791,480 C803.150264,480 813,489.849736 813,502 L813,565 C813,577.150264 803.150264,587 791,587 L463,587 C450.849736,587 441,577.150264 441,565 L441,502 C441,489.849736 450.849736,480 463,480 Z M533.45,521.6 L530.2,521.6 C529.866665,521.6 529.7,521.766665 529.7,522.1 L529.7,548 C529.7,548.333335 529.866665,548.5 530.2,548.5 L533.45,548.5 C533.783335,548.5 533.95,548.333335 533.95,548 L533.95,527.8 C533.95,527.499999 533.983333,527.250001 534.05,527.05 L534.15,526.95 C534.183334,526.783333 534.299999,526.600001 534.5,526.4 C534.866669,526.033332 535.316664,525.85 535.85,525.85 C536.116668,525.85 536.316666,525.883333 536.45,525.95 C536.483334,525.95 536.533333,525.966667 536.6,526 C536.666667,526.066667 536.733333,526.1 536.8,526.1 L537.2,526.4 C537.433335,526.633335 537.666666,526.633335 537.9,526.4 L540.2,524.15 C540.433335,523.916666 540.450001,523.683335 540.25,523.45 C539.983332,523.083332 539.433338,522.683336 538.6,522.25 L538.35,522.15 C537.349995,521.783332 536.51667,521.6 535.85,521.6 C535.149997,521.6 534.500003,521.716666 533.9,521.95 C533.833333,521.716666 533.683335,521.6 533.45,521.6 Z M555.2,546 L552.9,543.7 C552.666666,543.466666 552.433335,543.466666 552.2,543.7 L552,543.9 L551.9,543.95 C551.566665,544.150001 551.216669,544.25 550.85,544.25 C550.316664,544.25 549.866669,544.066669 549.5,543.7 C549.133332,543.333332 548.95,542.883336 548.95,542.35 L548.95,537.15 L556.55,537.15 C556.883335,537.15 557.05,536.983335 557.05,536.65 L557.05,527.8 C557.05,526.099992 556.43334,524.650006 555.2,523.45 C553.999994,522.216661 552.550009,521.6 550.85,521.6 C549.183325,521.6 547.73334,522.216661 546.5,523.45 C545.299994,524.650006 544.7,526.099992 544.7,527.8 L544.7,542.35 C544.7,543.950008 545.299994,545.399994 546.5,546.7 C547.73334,547.900006 549.183325,548.5 550.85,548.5 C551.950006,548.5 553.099994,548.133337 554.3,547.4 C554.266667,547.433334 554.399999,547.350001 554.7,547.15 C554.800001,547.083333 554.966666,546.933335 555.2,546.7 C555.433335,546.466666 555.433335,546.233335 555.2,546 Z M552.8,532.95 L548.95,532.95 L548.95,527.8 C548.95,527.233331 549.133332,526.766669 549.5,526.4 C549.866669,526.033332 550.316664,525.85 550.85,525.85 C551.383336,525.85 551.833332,526.033332 552.2,526.4 C552.600002,526.800002 552.8,527.266664 552.8,527.8 L552.8,532.95 Z M569.25,521.6 C568.549997,521.6 567.900003,521.716666 567.3,521.95 C567.233333,521.716666 567.083335,521.6 566.85,521.6 L563.6,521.6 C563.266665,521.6 563.1,521.766665 563.1,522.1 L563.1,556.05 C563.1,556.383335 563.266665,556.55 563.6,556.55 L566.85,556.55 C567.183335,556.55 567.35,556.383335 567.35,556.05 L567.35,548.2 C567.950003,548.400001 568.58333,548.5 569.25,548.5 C570.950009,548.5 572.399994,547.900006 573.6,546.7 C574.83334,545.466661 575.45,544.016675 575.45,542.35 L575.45,527.8 C575.45,526.099992 574.83334,524.650006 573.6,523.45 C572.399994,522.216661 570.950009,521.6 569.25,521.6 Z M569.25,525.85 C569.783336,525.85 570.233332,526.033332 570.6,526.4 C571.000002,526.800002 571.2,527.266664 571.2,527.8 L571.2,542.35 C571.2,542.850003 571.000002,543.299998 570.6,543.7 C570.233332,544.066669 569.783336,544.25 569.25,544.25 C568.716664,544.25 568.266669,544.066669 567.9,543.7 C567.533332,543.333332 567.35,542.883336 567.35,542.35 L567.35,527.8 C567.35,527.233331 567.533332,526.766669 567.9,526.4 C568.266669,526.033332 568.716664,525.85 569.25,525.85 Z M585.85,548 L585.85,509.15 C585.85,508.816665 585.683335,508.65 585.35,508.65 L582.1,508.65 C581.766665,508.65 581.6,508.816665 581.6,509.15 L581.6,548 C581.6,548.333335 581.766665,548.5 582.1,548.5 L585.35,548.5 C585.683335,548.5 585.85,548.333335 585.85,548 Z M605,548.15 L605,527.8 C605,526.099992 604.38334,524.650006 603.15,523.45 C601.949994,522.216661 600.500009,521.6 598.8,521.6 C597.133325,521.6 595.68334,522.216661 594.45,523.45 C593.249994,524.650006 592.65,526.099992 592.65,527.8 C592.65,528.133335 592.816665,528.3 593.15,528.3 L596.4,528.3 C596.733335,528.3 596.9,528.133335 596.9,527.8 C596.9,527.233331 597.083332,526.766669 597.45,526.4 C597.816669,526.033332 598.266664,525.85 598.8,525.85 C599.333336,525.85 599.783332,526.033332 600.15,526.4 C600.550002,526.800002 600.75,527.266664 600.75,527.8 L600.75,529.05 C599.483327,529.916671 598.366672,530.749996 597.4,531.55 C596.433329,532.350004 595.600004,533.13333 594.9,533.9 C593.399993,535.600009 592.65,538.416647 592.65,542.35 C592.65,543.950008 593.249994,545.399994 594.45,546.7 C595.68334,547.900006 597.133325,548.5 598.8,548.5 C599.133335,548.5 599.458332,548.466667 599.775,548.4 C600.091668,548.333333 600.416665,548.250001 600.75,548.15 C600.75,548.483335 600.916665,548.65 601.25,548.65 L604.5,548.65 C604.833335,548.65 605,548.483335 605,548.15 Z M600.75,534.2 L600.75,542.35 C600.75,542.850003 600.550002,543.299998 600.15,543.7 C599.783332,544.066668 599.333336,544.25 598.8,544.25 C598.266664,544.25 597.816669,544.066668 597.45,543.7 C597.083332,543.333331 596.9,542.883336 596.9,542.35 C596.9,539.949988 597.299996,538.166673 598.1,537 C598.76667,535.999995 599.649995,535.066671 600.75,534.2 Z M611.15,522.2 L615.35,548.1 C615.283333,548.400002 615.225,548.716665 615.175,549.05 C615.125,549.383335 615.066667,549.699999 615,550 C614.866666,550.366669 614.741667,550.724998 614.625,551.075 C614.508333,551.425002 614.383334,551.699999 614.25,551.9 C613.949998,552.200002 613.350005,552.35 612.45,552.35 C612.116665,552.35 611.95,552.516665 611.95,552.85 L611.95,556.1 C611.95,556.433335 612.116665,556.6 612.45,556.6 C614.483344,556.6 616.083327,556.016673 617.25,554.85 C618.116671,553.883329 618.749998,552.583342 619.15,550.95 C619.116667,550.916667 619.1,550.883334 619.1,550.85 C619.066667,550.816667 619.05,550.783334 619.05,550.75 L623.5,522.2 C623.533334,522.033333 623.500001,521.891667 623.4,521.775 C623.3,521.658333 623.166668,521.6 623,521.6 L619.5,521.6 C619.233332,521.6 619.066667,521.749999 619,522.05 C618.733332,523.916676 618.450002,525.758324 618.15,527.575 C617.849999,529.391676 617.566668,531.233324 617.3,533.1 L615.65,522.05 C615.583333,521.749999 615.416668,521.6 615.15,521.6 L611.65,521.6 C611.483333,521.6 611.350001,521.658333 611.25,521.775 C611.15,521.891667 611.116667,522.033333 611.15,522.2 Z M647.55,521.6 L644.3,521.6 C643.966665,521.6 643.8,521.766665 643.8,522.1 L643.8,548 C643.8,548.333335 643.966665,548.5 644.3,548.5 L647.55,548.5 C647.883335,548.5 648.05,548.333335 648.05,548 L648.05,527.8 C648.05,527.499999 648.083333,527.250001 648.15,527.05 L648.25,526.95 C648.283334,526.783333 648.399999,526.600001 648.6,526.4 C648.966668,526.033332 649.416664,525.85 649.95,525.85 C650.216668,525.85 650.416666,525.883333 650.55,525.95 C650.583333,525.95 650.633333,525.966667 650.7,526 C650.766667,526.066667 650.833333,526.1 650.9,526.1 L651.3,526.4 C651.533334,526.633335 651.766665,526.633335 652,526.4 L654.3,524.15 C654.533334,523.916666 654.550001,523.683335 654.35,523.45 C654.083332,523.083332 653.533338,522.683336 652.7,522.25 L652.45,522.15 C651.449995,521.783332 650.61667,521.6 649.95,521.6 C649.249996,521.6 648.600003,521.716666 648,521.95 C647.933333,521.716666 647.783334,521.6 647.55,521.6 Z M664.95,521.6 C663.283325,521.6 661.83334,522.216661 660.6,523.45 C659.399994,524.650006 658.8,526.099992 658.8,527.8 L658.8,542.35 C658.8,543.950008 659.399994,545.399994 660.6,546.7 C661.83334,547.900006 663.283325,548.5 664.95,548.5 C666.650009,548.5 668.099994,547.900006 669.3,546.7 C670.53334,545.466661 671.15,544.016675 671.15,542.35 L671.15,527.8 C671.15,526.099992 670.53334,524.650006 669.3,523.45 C668.099994,522.216661 666.650009,521.6 664.95,521.6 Z M664.95,525.85 C665.483336,525.85 665.933332,526.033332 666.3,526.4 C666.700002,526.800002 666.9,527.266664 666.9,527.8 L666.9,542.35 C666.9,542.850003 666.700002,543.299998 666.3,543.7 C665.933332,544.066669 665.483336,544.25 664.95,544.25 C664.416664,544.25 663.966669,544.066669 663.6,543.7 C663.233332,543.333332 663.05,542.883336 663.05,542.35 L663.05,527.8 C663.05,527.233331 663.233332,526.766669 663.6,526.4 C663.966669,526.033332 664.416664,525.85 664.95,525.85 Z M689.15,521.6 L685.9,521.6 C685.566665,521.6 685.4,521.766665 685.4,522.1 L685.4,542.35 C685.4,542.850003 685.200002,543.299998 684.8,543.7 C684.433332,544.066669 683.983336,544.25 683.45,544.25 C682.916664,544.25 682.466669,544.066669 682.1,543.7 C681.733332,543.333332 681.55,542.883336 681.55,542.35 L681.55,522.1 C681.55,521.766665 681.383335,521.6 681.05,521.6 L677.8,521.6 C677.466665,521.6 677.3,521.766665 677.3,522.1 L677.3,542.35 C677.3,543.950008 677.899994,545.399994 679.1,546.7 C680.33334,547.900006 681.783325,548.5 683.45,548.5 C684.150004,548.5 684.799997,548.383335 685.4,548.15 C685.466667,548.383335 685.633332,548.5 685.9,548.5 L689.15,548.5 C689.483335,548.5 689.65,548.333335 689.65,548 L689.65,522.1 C689.65,521.766665 689.483335,521.6 689.15,521.6 Z M696.3,548.5 L699.55,548.5 C699.883335,548.5 700.05,548.333335 700.05,548 L700.05,527.8 C700.05,527.233331 700.233332,526.766669 700.6,526.4 C700.966669,526.033332 701.416664,525.85 701.95,525.85 C702.483336,525.85 702.933332,526.033332 703.3,526.4 C703.700002,526.800002 703.9,527.266664 703.9,527.8 L703.9,548 C703.9,548.333335 704.066665,548.5 704.4,548.5 L707.65,548.5 C707.983335,548.5 708.15,548.333335 708.15,548 L708.15,527.8 C708.15,526.099992 707.53334,524.650006 706.3,523.45 C705.099994,522.216661 703.650009,521.6 701.95,521.6 C701.249997,521.6 700.600003,521.716666 700,521.95 C699.933333,521.716666 699.783335,521.6 699.55,521.6 L696.3,521.6 C695.966665,521.6 695.8,521.766665 695.8,522.1 L695.8,548 C695.8,548.333335 695.966665,548.5 696.3,548.5 Z M720.45,521.6 C718.783325,521.6 717.33334,522.216661 716.1,523.45 C714.899994,524.650006 714.3,526.099992 714.3,527.8 L714.3,542.35 C714.3,543.950008 714.899994,545.399994 716.1,546.7 C717.33334,547.900006 718.783325,548.5 720.45,548.5 C721.150004,548.5 721.799997,548.383335 722.4,548.15 C722.466667,548.383335 722.633332,548.5 722.9,548.5 L726.15,548.5 C726.483335,548.5 726.65,548.333335 726.65,548 L726.65,509.15 C726.65,508.816665 726.483335,508.65 726.15,508.65 L722.9,508.65 C722.566665,508.65 722.4,508.816665 722.4,509.15 L722.4,521.9 C721.799997,521.699999 721.150004,521.6 720.45,521.6 Z M720.45,525.85 C720.983336,525.85 721.433332,526.033332 721.8,526.4 C722.200002,526.800002 722.4,527.266664 722.4,527.8 L722.4,542.35 C722.4,542.850003 722.200002,543.299998 721.8,543.7 C721.433332,544.066669 720.983336,544.25 720.45,544.25 C719.916664,544.25 719.466669,544.066669 719.1,543.7 C718.733332,543.333332 718.55,542.883336 718.55,542.35 L718.55,527.8 C718.55,527.233331 718.733332,526.766669 719.1,526.4 C719.466669,526.033332 719.916664,525.85 720.45,525.85 Z" id="replay-round"></path>
        </g>
    </g>
</svg>