<?xml version="1.0" encoding="UTF-8"?>
<svg width="1226px" height="814px" viewBox="0 0 1226 814" version="1.1" xmlns="http://www.w3.org/2000/svg" xmlns:xlink="http://www.w3.org/1999/xlink">
    <!-- Generator: Sketch 51.3 (57544) - http://www.bohemiancoding.com/sketch -->
    <title>bus_game_win_card_bertha</title>
    <desc>Created with Sketch.</desc>
    <defs></defs>
    <g id="Page-1" stroke="none" stroke-width="1" fill="none" fill-rule="evenodd">
        <g id="game_win_screen_bertha" transform="translate(-290.000000, -228.000000)">
            <g id="bus_game_win_card_bertha" transform="translate(235.000000, 219.000000)">
                <g id="button_play_next_round" transform="translate(57.000000, 777.000000)" fill-rule="nonzero" stroke="#272727" stroke-linecap="round" stroke-linejoin="round" stroke-opacity="0.626075634" stroke-width="3.97350993">
                    <g id="lines_r" transform="translate(852.000000, 0.000000)">
                        <path d="M0.397350993,22.8 L369.602649,22.8" id="Line-2"></path>
                        <path d="M0.397350993,1.2 L333.84106,1.2" id="Line-2"></path>
                        <path d="M0.794701987,43.7986755 L334.238411,43.7986755" id="Line-2"></path>
                    </g>
                    <g id="lines_l" transform="translate(185.000000, 22.500000) scale(-1, 1) translate(-185.000000, -22.500000) ">
                        <path d="M0.397350993,22.8 L369.602649,22.8" id="Line-2"></path>
                        <path d="M0.397350993,1.2 L333.84106,1.2" id="Line-2"></path>
                        <path d="M0.794701987,43.7986755 L334.238411,43.7986755" id="Line-2"></path>
                    </g>
                </g>
                <g id="bus" transform="translate(400.000000, 254.000000)" fill="#8E2707">
                    <path d="M529.453784,308.895622 C529.88971,308.895622 530.271139,309.059118 530.598084,309.386115 C530.925028,309.713112 531.088498,310.094603 531.088498,310.530599 L531.088498,317.152257 C531.088498,317.806251 531.306458,318.351238 531.742384,318.787235 C532.17831,319.223231 532.723209,319.441225 533.377098,319.441225 C534.030986,319.441225 534.575886,319.223231 535.011811,318.787235 C535.502228,318.296739 535.747433,317.751752 535.747433,317.152257 L535.747433,293.363337 C535.747433,292.709343 535.502228,292.137107 535.011811,291.646611 C534.575886,291.210615 534.030986,290.99262 533.377098,290.99262 L529.453784,290.99262 C528.799895,290.99262 528.323109,290.761001 528.023409,290.297755 C527.72371,289.834509 527.710088,289.303147 527.982542,288.703652 L529.372048,285.2702 C530.298391,282.490724 531.197475,279.915661 532.069326,277.544932 C532.941178,275.174203 533.840262,272.599139 534.766604,269.819664 L524.140964,269.819664 C523.705038,269.819664 523.323609,269.656168 522.996664,269.329171 C522.66972,269.002174 522.50625,268.620683 522.50625,268.184687 L522.50625,262.871011 C522.50625,262.435014 522.66972,262.053524 522.996664,261.726526 C523.323609,261.399529 523.705038,261.236033 524.140964,261.236033 L542.694967,261.236033 C543.130893,261.236033 543.512322,261.399529 543.839267,261.726526 C544.166211,262.053524 544.329681,262.435014 544.329681,262.871011 L544.329681,268.593431 L539.016861,284.043967 C539.289314,284.316464 539.629876,284.588958 540.038557,284.861455 C540.447237,285.133953 540.787799,285.406446 541.060253,285.678944 C543.239882,287.804425 544.329681,290.365864 544.329681,293.363337 L544.329681,317.152257 C544.329681,320.095231 543.239882,322.65667 541.060253,324.836651 C538.935114,326.962132 536.374088,328.024856 533.377098,328.024856 C530.434598,328.024856 527.873572,326.962132 525.693942,324.836651 C523.568803,322.547671 522.50625,319.986232 522.50625,317.152257 L522.50625,310.530599 C522.50625,310.094603 522.66972,309.713112 522.996664,309.386115 C523.323609,309.059118 523.705038,308.895622 524.140964,308.895622 L529.453784,308.895622 Z M562.114006,328.740159 C562.023188,329.103489 561.796146,329.285151 561.432875,329.285151 L559.2192,329.285151 C558.992155,329.285151 558.810522,329.205674 558.674295,329.046717 C558.538068,328.88776 558.49266,328.694744 558.538069,328.467663 L564.838529,297.573404 C564.929347,297.210074 565.156388,297.028412 565.51966,297.028412 L567.665222,297.028412 C567.892266,297.028412 568.073899,297.107889 568.210126,297.266846 C568.346353,297.425803 568.391761,297.618819 568.346352,297.8459 L562.114006,328.740159 Z M578.80171,319.100605 C578.983346,319.100605 579.142274,319.168729 579.278501,319.304977 C579.414728,319.441226 579.482841,319.600181 579.482841,319.781846 L579.482841,322.54087 C579.482841,322.813367 579.573657,323.040445 579.755293,323.22211 C579.936929,323.403776 580.16397,323.494607 580.436424,323.494607 C580.708877,323.494607 580.935919,323.403776 581.117554,323.22211 C581.321895,323.017737 581.424063,322.790659 581.424063,322.54087 L581.424063,312.62882 C581.424063,312.356322 581.321895,312.117891 581.117554,311.913517 C580.935919,311.731852 580.708877,311.641021 580.436424,311.641021 L578.80171,311.641021 C578.529256,311.641021 578.330595,311.544513 578.20572,311.351494 C578.080846,311.158475 578.07517,310.937074 578.188692,310.687284 L578.767653,309.256679 C579.153629,308.098565 579.528247,307.025621 579.891519,306.037818 C580.254791,305.050014 580.629409,303.977071 581.015385,302.818956 L576.588035,302.818956 C576.406399,302.818956 576.24747,302.750833 576.111243,302.614584 C575.975016,302.478335 575.906904,302.319381 575.906904,302.137716 L575.906904,299.923684 C575.906904,299.742019 575.975016,299.583064 576.111243,299.446815 C576.24747,299.310567 576.406399,299.242443 576.588035,299.242443 L584.318869,299.242443 C584.500505,299.242443 584.659434,299.310567 584.795661,299.446815 C584.931888,299.583064 585,299.742019 585,299.923684 L585,302.308026 L582.786325,308.745749 C582.899847,308.85929 583.041748,308.972829 583.212032,309.086369 C583.382315,309.19991 583.524216,309.313449 583.637738,309.426989 C584.545917,310.312607 585,311.379873 585,312.62882 L585,322.54087 C585,323.767109 584.545917,324.834375 583.637738,325.7427 C582.752264,326.628318 581.68517,327.07112 580.436424,327.07112 C579.210382,327.07112 578.143288,326.628318 577.235109,325.7427 C576.349634,324.788959 575.906904,323.721693 575.906904,322.54087 L575.906904,319.781846 C575.906904,319.600181 575.975016,319.441226 576.111243,319.304977 C576.24747,319.168729 576.406399,319.100605 576.588035,319.100605 L578.80171,319.100605 Z" id="3of3_green"></path>
                    <path d="M138.710199,311.020949 L99.8451257,278.734678 C98.7190821,280.866836 97.4638511,282.057108 96.1403923,282.057108 L80.2983488,282.057108 C76.2211767,282.057108 72.7915323,270.760612 71.79175,255.429979 L65.6593857,250.335657 C63.7665684,248.763243 62.6734453,246.442618 62.6734453,243.996712 L62.6734453,125.572937 C63.1874995,116.023184 67.2608794,110.381947 70.2311948,107.452371 C122.156313,73.7716336 174.124143,40.7554313 230.383284,5.98068675 C245.180111,-1.04245229 255.56886,-1.04245229 272.347594,1.71611732 C345.836936,13.8158473 389.127364,18.8633897 447.350579,29.2285016 C467.453135,35.4920667 482.509917,49.6760367 492.520925,71.7804114 L506.358859,130.403628 C506.504554,131.020852 506.578125,131.6526 506.578125,132.286446 L506.578125,320.899306 C506.578125,324.847899 503.759775,328.246487 499.846987,329.01624 L230.212848,382.060733 C227.736169,382.547964 225.169684,381.901227 223.229919,380.301079 L196.714126,358.427725 C194.984139,360.778609 193.126394,362.055627 191.192653,362.055627 L160.828736,362.055627 C153.018606,362.055627 146.448157,341.224299 144.5277,312.946188 C142.426772,313.056448 140.343822,312.378044 138.710199,311.020949 Z M450.423103,46.6824382 L354.770848,32.5556676 C352.159323,32.1699744 349.729597,33.9743682 349.343903,36.585894 C349.284546,36.987799 349.276671,37.3956317 349.320466,37.7995288 L351.205541,55.1842495 C351.447814,57.4185639 353.213891,59.1823256 355.448521,59.4216685 L452.144732,69.7784381 C454.769572,70.059575 457.125332,68.1596277 457.406469,65.5347871 C457.460646,65.0289702 457.433728,64.5177477 457.326734,64.0204168 L454.397702,50.405697 C453.978551,48.4573983 452.394594,46.9736055 450.423103,46.6824382 Z M334.359882,30.2039769 L281.137637,23.2051373 C278.520317,22.8609541 276.119544,24.7036956 275.775361,27.3210156 C275.719642,27.7447216 275.720998,28.1739863 275.779391,28.597332 L278.300233,46.8732211 C278.600877,49.05286 280.350612,50.7456974 282.538995,50.9741472 L335.445064,56.4971198 C338.07065,56.7712101 340.421301,54.8649463 340.695392,52.2393605 C340.734229,51.8673272 340.729262,51.4920209 340.680592,51.1211458 L338.475927,34.3211237 C338.194308,32.1751227 336.505808,30.4861707 334.359882,30.2039769 Z M395.534033,127.307101 L490.358883,131.966892 L481.545726,94.9253813 C481.004619,92.6511207 479.074837,90.9608313 476.728359,90.7058651 L398.529988,82.2089021 C393.939868,81.7101439 389.810346,84.9888547 389.306443,89.5321076 C389.221305,90.2997269 389.245134,91.0753631 389.377238,91.8364437 L395.534033,127.307101 Z M395.920704,133.373168 L394.918179,169.945551 C394.792936,174.514417 398.433413,178.318708 403.04941,178.442671 C403.146314,178.445274 403.243256,178.446208 403.340192,178.445473 L484.561638,177.829987 C487.569269,177.807195 490.016238,175.426744 490.091281,172.450661 L490.969179,137.63434 L395.920704,133.373168 Z M260.541684,120.673438 L383.793318,126.73015 L375.422305,86.8609955 C374.674798,83.3007997 371.666937,80.640649 368.008888,80.3045748 L268.621367,71.1735922 C262.490791,70.6103607 257.059679,75.0728412 256.490637,81.1408213 C256.422192,81.8706854 256.427394,82.6054838 256.506165,83.3343269 L260.541684,120.673438 Z M260.998594,127.3244 L260.388016,166.884774 C260.29397,172.978127 265.208326,177.993225 271.364535,178.08631 C271.406656,178.086947 305.468481,178.02919 373.550008,177.913037 C377.974941,177.905465 381.627719,174.486761 381.882734,170.114281 L384.056599,132.841282 L260.998594,127.3244 Z M483.280328,287.574248 C489.822064,287.574248 495.125189,280.781452 495.125189,272.402115 C495.125189,264.022777 489.822064,257.229982 483.280328,257.229982 C476.738592,257.229982 471.435467,264.022777 471.435467,272.402115 C471.435467,280.781452 476.738592,287.574248 483.280328,287.574248 Z M272.859853,317.918513 C283.24967,317.918513 291.67228,308.655611 291.67228,297.229241 C291.67228,285.802872 283.24967,276.539969 272.859853,276.539969 C262.470037,276.539969 254.047427,285.802872 254.047427,297.229241 C254.047427,308.655611 262.470037,317.918513 272.859853,317.918513 Z M419.966339,228.50531 L352.130993,232.343049 C340.74185,232.987382 331.836484,242.410803 331.836484,253.818158 L331.836484,293.149232 C331.836484,305.028572 341.466592,314.65868 353.345933,314.65868 C354.547351,314.65868 355.746657,314.558022 356.931268,314.357762 L424.23325,302.980257 C433.432327,301.425139 440.165796,293.457829 440.165796,284.12823 L440.165796,247.594296 C440.165796,237.034882 431.605699,228.474786 421.046286,228.474786 C420.686088,228.474786 420.325962,228.484965 419.966339,228.50531 Z M414.675974,237.795436 C414.962634,237.779478 415.249681,237.771494 415.536785,237.771494 C424.08991,237.771494 431.023588,244.705172 431.023588,253.258297 L431.023588,279.358471 C431.023588,286.841668 425.672878,293.254475 418.310698,294.594825 L363.77557,304.523429 C362.745926,304.710885 361.701486,304.805184 360.654917,304.805184 C351.032652,304.805184 343.232264,297.004797 343.232264,287.382531 L343.232264,258.252393 C343.232264,249.006368 350.454775,241.370601 359.686506,240.856674 L414.675974,237.795436 Z M86.8258575,123.282562 L86.8258575,159.64946 C86.8258575,160.969387 87.8958695,162.039399 89.2157962,162.039399 C89.2829497,162.039399 89.3500733,162.036569 89.4169884,162.030915 L105.539807,160.668814 C106.777331,160.564264 107.728554,159.529291 107.728554,158.287358 L107.728554,115.108858 C107.728554,113.788931 106.658542,112.718919 105.338615,112.718919 C105.029534,112.718919 104.723388,112.778872 104.437138,112.895457 L89.8027802,118.855759 C88.0027436,119.588881 86.8258575,121.338957 86.8258575,123.282562 Z M80.7474152,122.543842 L75.923871,124.508382 C71.4237794,126.341186 68.4815642,130.716377 68.4815642,135.575389 L68.4815642,161.199239 C68.4815642,162.519165 69.5515762,163.589177 70.871503,163.589177 C70.9386564,163.589177 71.00578,163.586347 71.0726951,163.580694 L81.8500847,162.670189 C83.0876086,162.56564 84.0388313,161.530666 84.0388313,160.288734 L84.0388313,124.757243 C84.0388313,123.437316 82.9688193,122.367304 81.6488926,122.367304 C81.3398117,122.367304 81.0336652,122.427257 80.7474152,122.543842 Z M110.51558,113.634177 L110.51558,157.648085 C110.51558,158.968011 111.585592,160.038023 112.905519,160.038023 C112.972672,160.038023 113.039796,160.035193 113.106711,160.02954 L130.623042,158.54971 C131.860566,158.44516 132.811789,157.410187 132.811789,156.168255 L132.811789,104.892921 C132.811789,103.572994 131.741777,102.502982 130.42185,102.502982 C130.112769,102.502982 129.806623,102.562935 129.520373,102.67952 L113.492503,109.207374 C111.692466,109.940496 110.51558,111.690572 110.51558,113.634177 Z M135.598815,103.41824 L135.598815,155.528981 C135.598815,156.848908 136.668827,157.91892 137.988754,157.91892 C138.055907,157.91892 138.123031,157.916089 138.189946,157.910436 L167.406889,155.442105 C168.644413,155.337556 169.595635,154.302582 169.595635,153.06065 L169.595635,89.9115417 C169.595635,88.5916149 168.525623,87.5216029 167.205697,87.5216029 C166.896616,87.5216029 166.590469,87.5815559 166.304219,87.6981403 L138.575738,98.9914371 C136.775701,99.7245586 135.598815,101.474635 135.598815,103.41824 Z M183.053727,25.198907 L169.892523,33.5326172 C167.286795,33.400144 164.663821,33.3331031 162.025208,33.3331031 C77.7353304,33.3331031 9.40488368,101.746164 9.40488368,186.13795 C9.40488368,262.346109 65.1256178,325.524258 138.001951,337.060636 C138.621874,341.059674 139.332118,344.665665 140.132686,347.878624 C60.9669871,336.94435 0,268.933273 0,186.665377 C0,96.7818469 72.7770085,23.9168486 162.551998,23.9168486 C169.496216,23.9168486 176.33873,24.3528168 183.053727,25.198907 Z" id="Combined-Shape" fill-rule="nonzero" transform="translate(253.289062, 191.109791) scale(-1, 1) translate(-253.289062, -191.109791) "></path>
                </g>
                <g id="header">
                    <g id="lines_r" transform="translate(1155.000000, 79.000000)" fill-rule="nonzero" stroke="#272727" stroke-linecap="round" stroke-linejoin="round" stroke-opacity="0.626075634" stroke-width="3.97350993">
                        <path d="M0.397350993,22.8 L119.602649,22.8" id="Line-2"></path>
                        <path d="M0.397350993,1.2 L83.8410596,1.2" id="Line-2"></path>
                        <path d="M0.794701987,43.7986755 L84.2384106,43.7986755" id="Line-2"></path>
                    </g>
                    <g id="text" fill="#8E2707">
                        <path d="M367.454,65.364 C368.486005,65.364 369.460662,64.9053379 370.378,63.988 C371.066003,63.529331 371.41,62.7266724 371.41,61.58 L371.41,28.04 C371.41,27.1226621 371.008671,26.2626707 370.206,25.46 C369.403329,24.6573293 368.486005,24.256 367.454,24.256 L358.166,24.256 L358.166,65.364 L367.454,65.364 Z M358.166,79.984 L358.166,132.1 L367.454,132.1 C368.600672,132.1 369.517997,131.756003 370.206,131.068 C371.008671,130.265329 371.41,129.348005 371.41,128.316 L371.41,83.768 C371.41,82.7359948 371.008671,81.8186707 370.206,81.016 C369.517997,80.3279966 368.600672,79.984 367.454,79.984 L358.166,79.984 Z M386.03,61.58 C386.03,65.7080206 384.768679,69.3773173 382.246,72.588 C384.768679,75.7986827 386.03,79.5253121 386.03,83.768 L386.03,128.316 C386.03,133.476026 384.195352,137.775983 380.526,141.216 C376.856648,144.885352 372.499359,146.72 367.454,146.72 L345.266,146.72 C344.119328,146.72 343.546,146.146672 343.546,145 L343.546,11.356 C343.546,10.2093276 344.119328,9.636 345.266,9.636 L367.454,9.636 C372.499359,9.636 376.856648,11.4706483 380.526,15.14 C384.195352,18.8093517 386.03,23.1093087 386.03,28.04 L386.03,61.58 Z M417.266,65.364 L437.734,65.364 C438.880672,65.364 439.454,65.9373276 439.454,67.084 L439.454,78.264 C439.454,79.4106724 438.880672,79.984 437.734,79.984 L417.266,79.984 L417.266,132.1 L443.41,132.1 C444.556672,132.1 445.13,132.673328 445.13,133.82 L445.13,145 C445.13,146.146672 444.556672,146.72 443.41,146.72 L404.366,146.72 C403.219328,146.72 402.646,146.146672 402.646,145 L402.646,11.356 C402.646,10.2093276 403.219328,9.636 404.366,9.636 L443.41,9.636 C444.556672,9.636 445.13,10.2093276 445.13,11.356 L445.13,22.536 C445.13,23.6826724 444.556672,24.256 443.41,24.256 L417.266,24.256 L417.266,65.364 Z M463.466,146.72 C462.319328,146.72 461.746,146.146672 461.746,145 L461.746,11.356 C461.746,10.2093276 462.319328,9.636 463.466,9.636 L485.654,9.636 C490.699359,9.636 495.056648,11.4706483 498.726,15.14 C502.395352,18.8093517 504.23,23.1093087 504.23,28.04 L504.23,83.768 C504.23,88.8133586 502.395352,93.1706483 498.726,96.84 C496.547322,98.7893431 494.368678,100.165329 492.19,100.968 C494.25401,108.306703 496.31799,115.559297 498.382,122.726 C500.44601,129.892702 502.50999,137.145297 504.574,144.484 C504.803334,145.057336 504.717335,145.573331 504.316,146.032 C503.914665,146.490669 503.427336,146.72 502.854,146.72 L491.33,146.72 C490.412662,146.72 489.839334,146.318671 489.61,145.516 L477.398,102.172 L476.366,102.172 L476.366,145 C476.366,146.146672 475.792672,146.72 474.646,146.72 L463.466,146.72 Z M476.366,24.256 L476.366,87.552 L485.654,87.552 C486.800672,87.552 487.717997,87.2080034 488.406,86.52 C489.208671,85.7173293 489.61,84.8000052 489.61,83.768 L489.61,28.04 C489.61,27.1226621 489.208671,26.2626707 488.406,25.46 C487.603329,24.6573293 486.686005,24.256 485.654,24.256 L476.366,24.256 Z M536.498,146.72 C535.351328,146.72 534.778,146.146672 534.778,145 L534.778,24.256 L522.566,24.256 C521.419328,24.256 520.846,23.6826724 520.846,22.536 L520.846,11.356 C520.846,10.2093276 521.419328,9.636 522.566,9.636 L561.61,9.636 C562.756672,9.636 563.33,10.2093276 563.33,11.356 L563.33,22.536 C563.33,23.6826724 562.756672,24.256 561.61,24.256 L549.226,24.256 L549.226,145 C549.226,146.146672 548.652672,146.72 547.506,146.72 L536.498,146.72 Z M620.71,9.636 C621.856672,9.636 622.43,10.2093276 622.43,11.356 L622.43,145 C622.43,146.146672 621.856672,146.72 620.71,146.72 L609.53,146.72 C608.383328,146.72 607.81,146.146672 607.81,145 L607.81,79.984 L594.566,79.984 L594.566,145 C594.566,146.146672 593.992672,146.72 592.846,146.72 L581.666,146.72 C580.519328,146.72 579.946,146.146672 579.946,145 L579.946,11.356 C579.946,10.2093276 580.519328,9.636 581.666,9.636 L592.846,9.636 C593.992672,9.636 594.566,10.2093276 594.566,11.356 L594.566,65.364 L607.81,65.364 L607.81,11.356 C607.81,10.2093276 608.383328,9.636 609.53,9.636 L620.71,9.636 Z M640.766,146.72 C639.619328,146.72 639.046,146.08934 639.046,144.828 L648.506,11.184 C648.506,10.1519948 649.079328,9.636 650.226,9.636 L677.574,9.636 C678.720672,9.636 679.294,10.2093276 679.294,11.356 L684.11,145 C684.11,146.146672 683.536672,146.72 682.39,146.72 L671.21,146.72 C670.063328,146.72 669.49,146.146672 669.49,145 L668.63,118.684 L655.558,118.684 L653.666,145.172 C653.666,146.204005 653.092672,146.72 651.946,146.72 L640.766,146.72 Z M668.114,104.064 L665.018,24.256 L662.266,24.256 L656.59,104.064 L668.114,104.064 Z M755.182,9.636 C756.099338,9.636 756.672666,10.1519948 756.902,11.184 L768.598,93.744 C769.515338,87.2079673 770.461328,80.4427016 771.436,73.448 C772.410672,66.4532984 773.413995,59.4300353 774.446,52.378 C775.478005,45.3259647 776.481328,38.331368 777.456,31.394 C778.430672,24.456632 779.376662,17.7200327 780.294,11.184 C780.523334,10.1519948 781.096662,9.636 782.014,9.636 L794.226,9.636 C795.143338,9.636 795.716666,10.1519948 795.946,11.184 L807.47,93.228 C809.419343,79.4679312 811.368657,65.7940679 813.318,52.206 C815.267343,38.6179321 817.216657,24.9440688 819.166,11.184 C819.395334,10.1519948 819.968662,9.636 820.886,9.636 L832.238,9.636 C832.811336,9.636 833.269998,9.80799828 833.614,10.152 C833.958002,10.4960017 834.072667,10.9546638 833.958,11.528 L814.866,145.172 C814.636666,146.204005 814.063338,146.72 813.146,146.72 L801.966,146.72 C801.048662,146.72 800.475334,146.204005 800.246,145.172 L788.034,59.86 C786.084657,74.193405 784.07801,88.4119295 782.014,102.516 C779.94999,116.620071 777.943343,130.838595 775.994,145.172 C775.764666,146.204005 775.191338,146.72 774.274,146.72 L762.922,146.72 C762.004662,146.72 761.431334,146.204005 761.202,145.172 L742.282,11.528 C742.167333,10.9546638 742.281998,10.4960017 742.626,10.152 C742.970002,9.80799828 743.428664,9.636 744.002,9.636 L755.182,9.636 Z M889.034,146.72 C887.887328,146.72 887.314,146.146672 887.314,145 L887.314,11.356 C887.314,10.2093276 887.887328,9.636 889.034,9.636 L900.214,9.636 C901.131338,9.636 901.704666,10.0946621 901.934,11.012 L915.178,73.792 L915.178,11.356 C915.178,10.2093276 915.751328,9.636 916.898,9.636 L928.078,9.636 C929.224672,9.636 929.798,10.2093276 929.798,11.356 L929.798,145 C929.798,146.146672 929.224672,146.72 928.078,146.72 L916.726,146.72 C915.808662,146.72 915.235334,146.261338 915.006,145.344 L901.934,82.048 L901.934,145 C901.934,146.146672 901.360672,146.72 900.214,146.72 L889.034,146.72 Z M974.622,43.864 C973.475328,43.864 972.902,43.2906724 972.902,42.144 L972.902,30.276 C972.902,29.7026638 972.672669,28.7853396 972.214,27.524 C972.099333,27.2946655 972.042,27.1513336 972.042,27.094 C972.042,27.0366664 971.870002,26.778669 971.526,26.32 C971.296666,26.2053328 971.067334,26.0333345 970.838,25.804 C970.608666,25.6893328 970.379334,25.5173345 970.15,25.288 C969.576664,25.0586655 968.97467,24.8293345 968.344,24.6 C967.71333,24.3706655 967.226002,24.256 966.882,24.256 C965.964662,24.256 965.276669,24.4279983 964.818,24.772 C964.588666,24.8866672 964.416667,24.944 964.302,24.944 C964.187333,25.0586672 964.072667,25.116 963.958,25.116 L963.786,25.116 C963.671333,25.2306672 963.499334,25.3739991 963.27,25.546 C963.040666,25.7180009 962.868667,25.8613328 962.754,25.976 L962.754,25.632 C962.639333,25.8613345 962.553334,26.0619991 962.496,26.234 C962.438666,26.4060009 962.352667,26.5493328 962.238,26.664 C962.008666,26.8933345 961.894,27.0653328 961.894,27.18 C961.320664,27.8680034 961.034,28.8999931 961.034,30.276 L961.034,42.144 C961.034,43.4053396 961.119999,44.8099923 961.292,46.358 C961.464001,47.9060077 961.664666,49.3106604 961.894,50.572 C962.352669,52.8653448 963.21266,55.5026518 964.474,58.484 C965.620672,61.350681 966.939326,64.0739871 968.43,66.654 C969.920674,69.2340129 971.468659,71.8426535 973.074,74.48 C973.647336,75.5120052 974.191997,76.4866621 974.708,77.404 C975.224003,78.3213379 975.711331,79.1239966 976.17,79.812 L977.374,81.618 C977.718002,82.1340026 978.004666,82.621331 978.234,83.08 C978.807336,83.9973379 979.294665,84.9719948 979.696,86.004 C980.097335,87.0360052 980.584664,88.0679948 981.158,89.1 L982.706,92.196 C983.394003,93.8013414 983.995997,95.4639914 984.512,97.184 C985.028003,98.9040086 985.572664,100.738657 986.146,102.688 C986.604669,104.408009 986.919999,106.242657 987.092,108.192 C987.264001,110.141343 987.35,112.14799 987.35,114.212 L987.35,126.252 C987.35,129.118681 986.834005,131.755988 985.802,134.164 L985.802,133.992 C985.687333,134.336002 985.515334,134.737331 985.286,135.196 C984.712664,136.113338 984.082003,137.145328 983.394,138.292 C982.705997,139.438672 981.960671,140.298664 981.158,140.872 C979.208657,142.706676 977.030012,144.139995 974.622,145.172 C972.213988,146.204005 969.634014,146.72 966.882,146.72 C964.015319,146.72 961.378012,146.146672 958.97,145 C958.740666,144.885333 958.540001,144.799334 958.368,144.742 C958.195999,144.684666 957.823336,144.541334 957.25,144.312 C955.759326,143.623997 954.154009,142.420009 952.434,140.7 C948.420647,136.686647 946.414,131.870695 946.414,126.252 L946.414,114.212 C946.414,113.065328 946.987328,112.492 948.134,112.492 L959.314,112.492 C960.460672,112.492 961.034,113.065328 961.034,114.212 L961.034,126.252 C961.034,127.857341 961.607328,129.233328 962.754,130.38 C962.868667,130.494667 962.983333,130.637999 963.098,130.81 C963.212667,130.982001 963.556664,131.239998 964.13,131.584 C964.244667,131.698667 964.359333,131.756 964.474,131.756 L964.646,131.756 C965.334003,131.985334 966.079329,132.1 966.882,132.1 C968.602009,132.1 970.035328,131.526672 971.182,130.38 C971.411334,130.150666 971.611999,129.978667 971.784,129.864 C971.956001,129.749333 972.042,129.577334 972.042,129.348 C972.042,129.233333 972.070666,129.147334 972.128,129.09 C972.185334,129.032666 972.214,128.946667 972.214,128.832 C972.214,128.717333 972.271333,128.602667 972.386,128.488 C972.730002,127.685329 972.902,126.940003 972.902,126.252 L972.902,114.212 C972.902,111.345319 972.558003,108.536014 971.87,105.784 L971.87,105.956 C970.952662,102.286648 970.092671,99.6493414 969.29,98.044 C968.372662,95.7506552 967.054009,93.1133482 965.334,90.132 C964.760664,89.2146621 964.101337,88.0680069 963.356,86.692 C962.610663,85.3159931 961.722005,83.7680086 960.69,82.048 C959.084659,79.2959862 957.479341,76.4580146 955.874,73.534 C954.268659,70.6099854 952.720674,67.48535 951.23,64.16 C949.624659,60.3759811 948.420671,56.8786827 947.618,53.668 C947.159331,51.6039897 946.844001,49.5973431 946.672,47.648 C946.499999,45.6986569 946.414,43.8640086 946.414,42.144 L946.414,30.276 C946.414,26.2626466 947.44599,22.59335 949.51,19.268 L949.51,19.44 C949.739334,18.7519966 950.083331,18.178669 950.542,17.72 L951.058,17.204 C951.746003,16.5159966 952.147333,16.0573345 952.262,15.828 C954.096676,13.9933242 955.759326,12.7320034 957.25,12.044 C957.823336,11.8146655 958.195999,11.6713336 958.368,11.614 C958.540001,11.5566664 958.740666,11.4706672 958.97,11.356 C961.722014,10.2093276 964.359321,9.636 966.882,9.636 C970.666019,9.636 974.335316,10.7826552 977.89,13.076 C978.004667,13.3053345 978.176666,13.4486664 978.406,13.506 C978.635334,13.5633336 978.864666,13.7066655 979.094,13.936 C979.323334,14.1653345 979.552666,14.3373328 979.782,14.452 C980.126002,14.7960017 980.641997,15.197331 981.33,15.656 C983.164676,17.6053431 984.483329,19.4399914 985.286,21.16 L985.63,21.676 C986.203336,23.2813414 986.633332,24.7719931 986.92,26.148 C987.206668,27.5240069 987.35,28.8999931 987.35,30.276 L987.35,42.144 C987.35,43.2906724 986.776672,43.864 985.63,43.864 L974.622,43.864 Z" id="text-outlines"></path>
                        <path d="M851,145.266718 L851,11.72 C851,10.5733276 851.573328,10 852.72,10 L863.9,10 C865.046672,10 865.62,10.5733276 865.62,11.72 L865.732893,145.266718 C865.732893,146.422245 865.155138,147 863.999611,147 L852.733282,147 C851.577755,147 851,146.422245 851,145.266718 Z" id="I"></path>
                    </g>
                    <g id="lines_l" transform="translate(119.000000, 101.000000) scale(-1, 1) translate(-119.000000, -101.000000) translate(59.000000, 79.000000)" fill-rule="nonzero" stroke="#272727" stroke-linecap="round" stroke-linejoin="round" stroke-opacity="0.626075634" stroke-width="3.97350993">
                        <path d="M0.397350993,22.8 L119.602649,22.8" id="Line-2"></path>
                        <path d="M0.397350993,1.2 L83.8410596,1.2" id="Line-2"></path>
                        <path d="M0.794701987,43.7986755 L84.2384106,43.7986755" id="Line-2"></path>
                    </g>
                </g>
            </g>
        </g>
    </g>
</svg>