<?xml version="1.0" encoding="UTF-8"?>
<svg width="210px" height="209px" viewBox="0 0 210 209" version="1.1" xmlns="http://www.w3.org/2000/svg" xmlns:xlink="http://www.w3.org/1999/xlink">
    <!-- Generator: Sketch 51.3 (57544) - http://www.bohemiancoding.com/sketch -->
    <title>insignia</title>
    <desc>Created with Sketch.</desc>
    <defs></defs>
    <g id="Page-1" stroke="none" stroke-width="1" fill="none" fill-rule="evenodd">
        <g id="assets" transform="translate(-116.000000, -68.000000)" fill-rule="nonzero">
            <g id="insignia" transform="translate(116.000000, 68.000000)">
                <path d="M104.674351,208.968994 C46.8664279,208.968994 0,162.19182 0,104.484497 C0,46.7771734 46.8664279,0 104.674351,0 C162.482273,0 209.348701,46.7771734 209.348701,104.484497 C209.348701,162.19182 162.482273,208.968994 104.674351,208.968994 Z" id="Oval" fill="#272727"></path>
                <path d="M104.674351,199.000008 C156.980804,199.000008 199.379715,156.681843 199.379715,104.484497 C199.379715,52.2871507 156.980804,9.96898577 104.674351,9.96898577 C52.3678971,9.96898577 9.96898577,52.2871507 9.96898577,104.484497 C9.96898577,156.681843 52.3678971,199.000008 104.674351,199.000008 Z" id="Oval" fill="#F6EDD0"></path>
                <path d="M154.966219,144.641899 C154.440371,145.077613 153.769888,145.295423 153.093619,145.260023 C152.475442,154.339086 150.360475,161.027261 147.846467,161.027261 L138.072604,161.027261 C137.450151,161.027261 136.85216,160.617257 136.295293,159.862475 L127.760105,166.885205 C127.135713,167.398954 126.309585,167.606598 125.512365,167.450165 L38.7196388,150.419527 C37.4601487,150.172387 36.5529478,149.081225 36.5529478,147.813477 L36.5529478,87.2568144 C36.5529478,87.0533096 36.5766297,86.8504785 36.6235275,86.6523105 L41.0778301,67.8305486 C44.3002805,60.7336456 49.1469189,56.1796937 55.6177452,54.168693 C74.3592578,50.8408362 88.2940447,49.2202557 111.949582,45.3354767 C117.3505,44.4498013 120.694542,44.4498013 125.457503,46.7046734 C143.566799,57.8695668 160.294761,68.4698569 177.008975,79.2835049 C177.965091,80.2240841 179.276275,82.0352782 179.441744,85.1013532 L179.441744,123.122878 C179.441744,123.908169 179.089878,124.653236 178.480597,125.158081 L176.506646,126.79368 C176.184826,131.715784 175.080855,135.342674 173.768451,135.342674 L168.669044,135.342674 C168.243035,135.342674 167.838988,134.960521 167.476525,134.275964 L154.966219,144.641899 Z M54.8053141,59.7464984 C54.0644743,59.8556309 53.4690542,60.4128948 53.3111678,61.1448958 L52.4828983,64.98496 C52.4425572,65.1719914 52.4323561,65.3642668 52.4526807,65.5545167 C52.5580657,66.5409816 53.4431848,67.255238 54.4296497,67.149853 L84.9937353,63.8846631 C85.8335491,63.794945 86.4974339,63.1322937 86.5887137,62.2926483 L87.1361758,57.2567686 C87.1526703,57.1050424 87.1497612,56.9518327 87.1275189,56.800842 C86.982937,55.8193559 86.0700785,55.140911 85.0885923,55.2854929 L54.8053141,59.7464984 Z M92.1846416,54.4561426 C91.3781505,54.5619253 90.7433878,55.196436 90.6372848,56.002885 L89.9970818,60.8688299 C89.9787397,61.0082416 89.9768302,61.1493248 89.9913926,61.2891818 C90.094136,62.2759253 90.9773396,62.992549 91.9640831,62.8898056 L108.468208,61.1713351 C109.290587,61.0857059 109.948295,60.4497764 110.061557,59.6307454 L110.797919,54.3059096 C110.819921,54.1468107 110.820485,53.9854797 110.799597,53.8262308 C110.670577,52.842578 109.768578,52.1497612 108.784925,52.2787812 L92.1846416,54.4561426 Z M72.2970103,85.6581296 L74.2788255,74.269804 C74.3213485,74.025449 74.329019,73.7764207 74.3016137,73.5299663 C74.139412,72.0712947 72.8101573,71.018621 71.3326404,71.178754 L46.1613106,73.9068167 C45.4060008,73.988677 44.784822,74.5313669 44.6106447,75.2615484 L41.7737711,87.1542174 L72.2970103,85.6581296 Z M72.1725444,87.605721 L41.5773228,88.9738266 L41.85991,100.152069 C41.8840654,101.10758 42.6717222,101.871855 43.6398508,101.879173 L69.7842802,102.076783 C69.8154831,102.077019 69.8466879,102.076719 69.8778802,102.075883 C71.363727,102.036083 72.5355625,100.814665 72.4952482,99.34777 L72.1725444,87.605721 Z M115.749794,83.5283038 L117.04879,71.5400865 C117.074146,71.3060818 117.075821,71.070165 117.053789,70.8358325 C116.87062,68.8876269 115.122395,67.4548883 113.14902,67.6357212 L81.1570991,70.5673444 C79.9796071,70.6752455 79.0114043,71.5293222 78.770789,72.6723703 L76.0762375,85.4728918 L115.749794,83.5283038 Z M115.602719,85.6636835 L75.9914897,87.4349518 L76.6912368,99.401943 C76.7733238,100.805786 77.9491191,101.903406 79.373464,101.905837 L112.205002,101.961877 C112.225342,101.961912 112.245682,101.961776 112.266019,101.961469 C114.247646,101.931583 115.829531,100.321419 115.799259,98.3650668 L115.602719,85.6636835 Z M44.0522924,137.114025 C46.1580165,137.114025 47.8650432,134.933108 47.8650432,132.24281 C47.8650432,129.552513 46.1580165,127.371595 44.0522924,127.371595 C41.9465682,127.371595 40.2395415,129.552513 40.2395415,132.24281 C40.2395415,134.933108 41.9465682,137.114025 44.0522924,137.114025 Z M111.78469,146.856454 C115.129076,146.856454 117.840236,143.882476 117.840236,140.213889 C117.840236,136.545301 115.129076,133.571323 111.78469,133.571323 C108.440305,133.571323 105.729145,136.545301 105.729145,140.213889 C105.729145,143.882476 108.440305,146.856454 111.78469,146.856454 Z M65.520538,118.210556 C65.3857345,118.202949 65.2507433,118.199144 65.1157254,118.199144 C61.147413,118.199144 57.9304602,121.416096 57.9304602,125.384409 L57.9304602,135.120434 C57.9304602,138.627719 60.4625669,141.622526 63.9210321,142.205682 L83.3732069,145.485649 C83.8173002,145.560531 84.2668746,145.598168 84.7172368,145.598168 C89.1815882,145.598168 92.8006601,141.979097 92.8006601,137.514745 L92.8006601,127.390088 C92.8006601,123.10266 89.4532691,119.561054 85.172651,119.319503 L65.520538,118.210556 Z M67.0159873,121.180772 L82.9478957,122.065415 C86.4176419,122.258077 89.1324644,125.127826 89.1324644,128.602917 L89.1324644,135.91296 C89.1324644,139.529084 86.2010161,142.460532 82.5848915,142.460532 C82.1925733,142.460532 81.8010491,142.425272 81.4150436,142.355177 L65.6534521,139.493016 C62.8854795,138.990377 60.8732521,136.57984 60.8732521,133.7666 L60.8732521,126.991886 C60.8732521,123.777553 63.4789838,121.171821 66.6933169,121.171821 C66.8009357,121.171821 66.9085339,121.174806 67.0159873,121.180772 Z M171.667307,84.5431391 C171.667307,83.8121289 171.224321,83.1540295 170.54706,82.8789031 L166.175116,81.1028682 C166.067753,81.0592537 165.952965,81.0368281 165.837081,81.0368281 C165.341042,81.0368281 164.938923,81.4389472 164.938923,81.9349862 L164.938923,95.4843246 C164.938923,95.9511271 165.29651,96.3401143 165.761664,96.3793108 L170.693732,96.7949149 C170.718815,96.7970286 170.743976,96.7980868 170.769148,96.7980868 C171.265188,96.7980868 171.667307,96.3959677 171.667307,95.8999287 L171.667307,84.5431391 Z M173.800618,84.2006104 C173.693255,84.1569959 173.578466,84.1345702 173.462583,84.1345702 C172.966544,84.1345702 172.564424,84.5366893 172.564424,85.0327284 L172.564424,96.1268928 C172.564424,96.5936953 172.922012,96.9826825 173.387166,97.021879 L176.59859,97.2924919 C176.623673,97.2946055 176.648834,97.2956638 176.674006,97.2956638 C177.170045,97.2956638 177.572164,96.8935447 177.572164,96.3975056 L177.572164,88.4353298 C177.572164,86.8014439 176.582043,85.3305215 175.068294,84.7155845 L173.800618,84.2006104 Z M164.041805,81.4453969 C164.041805,80.7143868 163.598819,80.0562874 162.921559,79.7811609 L158.101055,77.822906 C157.993692,77.7792915 157.878904,77.7568658 157.76302,77.7568658 C157.266981,77.7568658 156.864862,78.1589849 156.864862,78.655024 L156.864862,94.8039582 C156.864862,95.2707607 157.22245,95.6597479 157.687604,95.6989445 L163.06823,96.1523467 C163.093313,96.1544604 163.118475,96.1555186 163.143647,96.1555186 C163.639686,96.1555186 164.041805,95.7533995 164.041805,95.2573605 L164.041805,81.4453969 Z M155.967744,78.1654347 C155.967744,77.4344245 155.524758,76.7763251 154.847498,76.5011987 L146.260677,73.0129353 C146.153314,72.9693208 146.038525,72.9468951 145.922642,72.9468951 C145.426603,72.9468951 145.024483,73.3490142 145.024483,73.8450533 L145.024483,93.8062205 C145.024483,94.273023 145.382071,94.6620102 145.847225,94.7012067 L154.994169,95.4719804 C155.019253,95.474094 155.044414,95.4751523 155.069586,95.4751523 C155.565625,95.4751523 155.967744,95.0730332 155.967744,94.5769941 L155.967744,78.1654347 Z" fill="#272727"></path>
            </g>
        </g>
    </g>
</svg>