<?xml version="1.0" encoding="UTF-8"?>
<svg width="372px" height="107px" viewBox="0 0 372 107" version="1.1" xmlns="http://www.w3.org/2000/svg" xmlns:xlink="http://www.w3.org/1999/xlink">
    <!-- Generator: Sketch 51.3 (57544) - http://www.bohemiancoding.com/sketch -->
    <title>new game</title>
    <desc>Created with Sketch.</desc>
    <defs></defs>
    <g id="Page-1" stroke="none" stroke-width="1" fill="none" fill-rule="evenodd">
        <g id="assets" transform="translate(-441.000000, -339.000000)" fill="#272727" fill-rule="nonzero">
            <path d="M463,339 L791,339 C803.150264,339 813,348.849736 813,361 L813,424 C813,436.150264 803.150264,446 791,446 L463,446 C450.849736,446 441,436.150264 441,424 L441,361 C441,348.849736 450.849736,339 463,339 Z M551.8,407.5 L555.05,407.5 C555.383335,407.5 555.55,407.333335 555.55,407 L555.55,386.8 C555.55,386.23333 555.733331,385.766668 556.1,385.4 C556.466668,385.033331 556.916664,384.85 557.45,384.85 C557.983336,384.85 558.433332,385.033331 558.8,385.4 C559.200002,385.800002 559.4,386.266664 559.4,386.8 L559.4,407 C559.4,407.333335 559.566665,407.5 559.9,407.5 L563.15,407.5 C563.483335,407.5 563.65,407.333335 563.65,407 L563.65,386.8 C563.65,385.099991 563.03334,383.650006 561.8,382.45 C560.599994,381.21666 559.150009,380.6 557.45,380.6 C556.749996,380.6 556.100003,380.716665 555.5,380.95 C555.433333,380.716665 555.283334,380.6 555.05,380.6 L551.8,380.6 C551.466665,380.6 551.3,380.766665 551.3,381.1 L551.3,407 C551.3,407.333335 551.466665,407.5 551.8,407.5 Z M580.3,405 L578,402.7 C577.766665,402.466665 577.533334,402.466665 577.3,402.7 L577.1,402.9 L577,402.95 C576.666665,403.150001 576.316668,403.25 575.95,403.25 C575.416664,403.25 574.966668,403.066668 574.6,402.7 C574.233331,402.333331 574.05,401.883336 574.05,401.35 L574.05,396.15 L581.65,396.15 C581.983335,396.15 582.15,395.983335 582.15,395.65 L582.15,386.8 C582.15,385.099991 581.53334,383.650006 580.3,382.45 C579.099994,381.21666 577.650009,380.6 575.95,380.6 C574.283325,380.6 572.833339,381.21666 571.6,382.45 C570.399994,383.650006 569.8,385.099991 569.8,386.8 L569.8,401.35 C569.8,402.950008 570.399994,404.399993 571.6,405.7 C572.833339,406.900006 574.283325,407.5 575.95,407.5 C577.050005,407.5 578.199994,407.133337 579.4,406.4 C579.366666,406.433333 579.499998,406.350001 579.8,406.15 C579.9,406.083333 580.066665,405.933334 580.3,405.7 C580.533334,405.466665 580.533334,405.233334 580.3,405 Z M577.9,391.95 L574.05,391.95 L574.05,386.8 C574.05,386.23333 574.233331,385.766668 574.6,385.4 C574.966668,385.033331 575.416664,384.85 575.95,384.85 C576.483336,384.85 576.933331,385.033331 577.3,385.4 C577.700002,385.800002 577.9,386.266664 577.9,386.8 L577.9,391.95 Z M592.6,407.5 L596.1,407.5 C596.366668,407.5 596.533333,407.350001 596.6,407.05 C596.866668,405.116657 597.158332,403.158343 597.475,401.175 C597.791668,399.191657 598.099998,397.233343 598.4,395.3 L600.2,407.05 C600.266667,407.350001 600.433332,407.5 600.7,407.5 L604.2,407.5 C604.466668,407.5 604.633333,407.350001 604.7,407.05 L608.6,381.15 C608.633334,380.983332 608.600001,380.85 608.5,380.75 C608.4,380.649999 608.266668,380.6 608.1,380.6 L604.65,380.6 C604.383332,380.6 604.216667,380.749998 604.15,381.05 C603.883332,382.916676 603.600001,384.766657 603.3,386.6 C602.999998,388.433342 602.716668,390.283324 602.45,392.15 L600.75,381.05 C600.683333,380.749998 600.516668,380.6 600.25,380.6 L596.55,380.6 C596.283332,380.6 596.116667,380.749998 596.05,381.05 C595.783332,382.916676 595.500002,384.758324 595.2,386.575 C594.899999,388.391676 594.616668,390.233324 594.35,392.1 L592.7,381.05 C592.633333,380.749998 592.466668,380.6 592.2,380.6 L588.7,380.6 C588.533332,380.6 588.400001,380.649999 588.3,380.75 C588.199999,380.85 588.166667,380.983332 588.2,381.15 L592.1,407.05 C592.166667,407.350001 592.333332,407.5 592.6,407.5 Z M636.171363,409.077579 C636.114242,409.102072 636.057121,409.142879 636,409.2 L636.05,409.2 C635.616664,409.466668 635.216668,409.6 634.85,409.6 C634.583332,409.6 634.333334,409.55 634.1,409.45 L634,409.4 L633.45,409 C633.216665,408.833332 633.000001,408.849999 632.8,409.05 L630.5,411.3 C630.266665,411.533334 630.249999,411.766665 630.45,412 C630.783335,412.400002 631.349996,412.816664 632.15,413.25 C632.25,413.25 632.316666,413.266666 632.35,413.3 C633.450005,413.666668 634.28333,413.85 634.85,413.85 C636.016672,413.85 637.116661,413.533336 638.15,412.9 C638.183333,412.866666 638.225,412.833333 638.275,412.8 C638.325,412.766666 638.383333,412.716667 638.45,412.65 C638.483333,412.616666 638.525,412.583333 638.575,412.55 C638.625,412.516666 638.666666,412.483333 638.7,412.45 C638.8,412.383333 638.875,412.325 638.925,412.275 L639.2,412 C639.466668,411.733332 639.683332,411.475001 639.85,411.225 C640.016667,410.974999 640.149999,410.766667 640.25,410.6 C640.283333,410.499999 640.366666,410.316668 640.5,410.05 C640.833335,409.349996 641,408.550004 641,407.65 L641,381.1 C641,380.766665 640.833335,380.6 640.5,380.6 L637.25,380.6 C636.983332,380.6 636.816667,380.716665 636.75,380.95 C636.149997,380.716665 635.500003,380.6 634.8,380.6 C633.133325,380.6 631.683339,381.21666 630.45,382.45 C629.249994,383.650006 628.65,385.099991 628.65,386.8 L628.65,401.35 C628.65,402.950008 629.249994,404.399993 630.45,405.7 C631.683339,406.900006 633.133325,407.5 634.8,407.5 C635.433336,407.5 636.08333,407.400001 636.75,407.2 L636.75,407.65 C636.75,407.983335 636.733333,408.216666 636.7,408.35 C636.599999,408.45 636.55,408.516666 636.55,408.55 C636.583333,408.483333 636.541667,408.541666 636.425,408.725 C636.320332,408.889478 636.235787,409.007004 636.171363,409.077579 Z M634.8,384.85 C635.333336,384.85 635.783331,385.033331 636.15,385.4 C636.550002,385.800002 636.75,386.266664 636.75,386.8 L636.75,401.35 C636.75,401.850002 636.550002,402.299998 636.15,402.7 C635.783331,403.066668 635.333336,403.25 634.8,403.25 C634.266664,403.25 633.816668,403.066668 633.45,402.7 C633.083331,402.333331 632.9,401.883336 632.9,401.35 L632.9,386.8 C632.9,386.23333 633.083331,385.766668 633.45,385.4 C633.816668,385.033331 634.266664,384.85 634.8,384.85 Z M659.5,407.15 L659.5,386.8 C659.5,385.099991 658.883339,383.650006 657.65,382.45 C656.449994,381.21666 655.000008,380.6 653.3,380.6 C651.633325,380.6 650.183339,381.21666 648.95,382.45 C647.749994,383.650006 647.15,385.099991 647.15,386.8 C647.15,387.133335 647.316665,387.3 647.65,387.3 L650.9,387.3 C651.233335,387.3 651.4,387.133335 651.4,386.8 C651.4,386.23333 651.583331,385.766668 651.95,385.4 C652.316668,385.033331 652.766664,384.85 653.3,384.85 C653.833336,384.85 654.283331,385.033331 654.65,385.4 C655.050002,385.800002 655.25,386.266664 655.25,386.8 L655.25,388.05 C653.983327,388.916671 652.866671,389.749996 651.9,390.55 C650.933328,391.350004 650.100003,392.133329 649.4,392.9 C647.899992,394.600008 647.15,397.416647 647.15,401.35 C647.15,402.950008 647.749994,404.399993 648.95,405.7 C650.183339,406.900006 651.633325,407.5 653.3,407.5 C653.633335,407.5 653.958332,407.466667 654.275,407.4 C654.591668,407.333333 654.916665,407.25 655.25,407.15 C655.25,407.483335 655.416665,407.65 655.75,407.65 L659,407.65 C659.333335,407.65 659.5,407.483335 659.5,407.15 Z M655.25,393.2 L655.25,401.35 C655.25,401.850002 655.050002,402.299998 654.65,402.7 C654.283331,403.066668 653.833336,403.25 653.3,403.25 C652.766664,403.25 652.316668,403.066668 651.95,402.7 C651.583331,402.333331 651.4,401.883336 651.4,401.35 C651.4,398.949988 651.799996,397.166672 652.6,396 C653.26667,394.999995 654.149994,394.066671 655.25,393.2 Z M669.4,380.6 L666.15,380.6 C665.816665,380.6 665.65,380.766665 665.65,381.1 L665.65,407 C665.65,407.333335 665.816665,407.5 666.15,407.5 L669.4,407.5 C669.733335,407.5 669.9,407.333335 669.9,407 L669.9,385.95 C669.9,385.616665 669.999999,385.350001 670.2,385.15 L670.2,385.2 C670.433335,384.966665 670.699998,384.85 671,384.85 C671.300002,384.85 671.566666,384.966665 671.8,385.2 L671.8,385.15 C672.000001,385.350001 672.1,385.616665 672.1,385.95 L672.1,406.95 C672.1,407.283335 672.266665,407.45 672.6,407.45 L675.85,407.45 C676.183335,407.45 676.35,407.283335 676.35,406.95 L676.35,385.9 C676.35,385.633332 676.466666,385.383334 676.7,385.15 C676.933335,384.916665 677.199999,384.8 677.5,384.8 C677.766668,384.8 678.016666,384.916665 678.25,385.15 C678.483335,385.383334 678.6,385.633332 678.6,385.9 L678.6,406.95 C678.6,407.283335 678.766665,407.45 679.1,407.45 L682.35,407.45 C682.683335,407.45 682.85,407.283335 682.85,406.95 L682.85,385.9 C682.85,384.466659 682.316672,383.216672 681.25,382.15 C680.216662,381.116661 678.950008,380.6 677.45,380.6 C676.21666,380.6 675.133338,380.966663 674.2,381.7 C673.266662,380.966663 672.200006,380.6 671,380.6 C670.566665,380.6 670.150002,380.649999 669.75,380.75 C669.65,380.649999 669.533334,380.6 669.4,380.6 Z M699.8,405 L697.5,402.7 C697.266665,402.466665 697.033334,402.466665 696.8,402.7 L696.6,402.9 L696.5,402.95 C696.166665,403.150001 695.816668,403.25 695.45,403.25 C694.916664,403.25 694.466668,403.066668 694.1,402.7 C693.733331,402.333331 693.55,401.883336 693.55,401.35 L693.55,396.15 L701.15,396.15 C701.483335,396.15 701.65,395.983335 701.65,395.65 L701.65,386.8 C701.65,385.099991 701.03334,383.650006 699.8,382.45 C698.599994,381.21666 697.150009,380.6 695.45,380.6 C693.783325,380.6 692.333339,381.21666 691.1,382.45 C689.899994,383.650006 689.3,385.099991 689.3,386.8 L689.3,401.35 C689.3,402.950008 689.899994,404.399993 691.1,405.7 C692.333339,406.900006 693.783325,407.5 695.45,407.5 C696.550005,407.5 697.699994,407.133337 698.9,406.4 C698.866666,406.433333 698.999998,406.350001 699.3,406.15 C699.400001,406.083333 699.566665,405.933334 699.8,405.7 C700.033334,405.466665 700.033334,405.233334 699.8,405 Z M697.4,391.95 L693.55,391.95 L693.55,386.8 C693.55,386.23333 693.733331,385.766668 694.1,385.4 C694.466668,385.033331 694.916664,384.85 695.45,384.85 C695.983336,384.85 696.433331,385.033331 696.8,385.4 C697.200002,385.800002 697.4,386.266664 697.4,386.8 L697.4,391.95 Z" id="new-game"></path>
        </g>
    </g>
</svg>