<?xml version="1.0" encoding="UTF-8"?>
<svg width="281px" height="121px" viewBox="0 0 281 121" version="1.1" xmlns="http://www.w3.org/2000/svg" xmlns:xlink="http://www.w3.org/1999/xlink">
    <!-- Generator: Sketch 51.3 (57544) - http://www.bohemiancoding.com/sketch -->
    <title>(scoreboard outlines)</title>
    <desc>Created with Sketch.</desc>
    <defs></defs>
    <g id="Page-1" stroke="none" stroke-width="1" fill="none" fill-rule="evenodd">
        <g id="UI" transform="translate(-1434.000000, -97.000000)">
            <g id="scoreboard" transform="translate(1436.000000, 83.000000)">
                <g id="(scoreboard-outlines)">
                    <path d="M26.3297046,110.423775 C26.4903058,110.423775 26.6669645,110.327416 26.859686,110.134694 C26.9239265,110.070454 26.9560463,109.974095 26.9560463,109.845614 L26.9560463,100.450489 C26.9560463,100.322008 26.8918067,100.193529 26.7633258,100.065048 C26.6348448,99.9365667 26.4903058,99.8723272 26.3297046,99.8723272 L24.209779,99.8723272 L24.209779,110.423775 L26.3297046,110.423775 Z M24.209779,115.482689 L24.209779,129.117665 L26.3297046,129.117665 C26.5224261,129.117665 26.666965,129.069485 26.7633258,128.973125 C26.8918067,128.844644 26.9560463,128.700105 26.9560463,128.539503 L26.9560463,116.06085 C26.9560463,115.900249 26.8918067,115.75571 26.7633258,115.627229 C26.666965,115.530868 26.5224261,115.482689 26.3297046,115.482689 L24.209779,115.482689 Z M32.0149597,109.845614 C32.0149597,110.969822 31.6937621,111.997655 31.0513572,112.929142 C31.6937621,113.860629 32.0149597,114.904521 32.0149597,116.06085 L32.0149597,128.539503 C32.0149597,130.145516 31.4528639,131.478486 30.3286552,132.538454 L30.3286552,132.490274 C29.2044466,133.614482 27.8714764,134.176578 26.3297046,134.176578 L20.1144681,134.176578 C19.8575061,134.176578 19.6326678,134.080219 19.4399463,133.887498 C19.2472248,133.694776 19.1508655,133.469938 19.1508655,133.212976 L19.1508655,95.7770163 C19.1508655,95.5200543 19.2472248,95.295216 19.4399463,95.1024945 C19.6326678,94.909773 19.8575061,94.8134137 20.1144681,94.8134137 L26.3297046,94.8134137 C27.8714764,94.8134137 29.2044466,95.3755096 30.3286552,96.4997182 C31.4528639,97.6239268 32.0149597,98.9408371 32.0149597,100.450489 L32.0149597,109.845614 Z M43.6638174,110.423775 L48.9154514,110.423775 C49.1724133,110.423775 49.3972517,110.520135 49.5899731,110.712856 C49.7826946,110.905577 49.8790539,111.130416 49.8790539,111.387378 L49.8790539,114.519086 C49.8790539,114.776048 49.7826946,115.000886 49.5899731,115.193608 C49.3972517,115.386329 49.1724133,115.482689 48.9154514,115.482689 L43.6638174,115.482689 L43.6638174,129.117665 L50.5053956,129.117665 C50.7623575,129.117665 50.9871959,129.214024 51.1799174,129.406746 C51.3726389,129.599467 51.4689981,129.824305 51.4689981,130.081267 L51.4689981,133.212976 C51.4689981,133.469938 51.3726389,133.694776 51.1799174,133.887498 C50.9871959,134.080219 50.7623575,134.176578 50.5053956,134.176578 L39.5685065,134.176578 C39.3115445,134.176578 39.0867062,134.080219 38.8939847,133.887498 C38.7012632,133.694776 38.6049039,133.469938 38.6049039,133.212976 L38.6049039,95.7770163 C38.6049039,95.5200543 38.7012632,95.295216 38.8939847,95.1024945 C39.0867062,94.909773 39.3115445,94.8134137 39.5685065,94.8134137 L50.5053956,94.8134137 C50.7623575,94.8134137 50.9871959,94.909773 51.1799174,95.1024945 C51.3726389,95.295216 51.4689981,95.5200543 51.4689981,95.7770163 L51.4689981,98.9087246 C51.4689981,99.1656866 51.3726389,99.3905249 51.1799174,99.5832464 C50.9871959,99.7759679 50.7623575,99.8723272 50.5053956,99.8723272 L43.6638174,99.8723272 L43.6638174,110.423775 Z M59.0225449,134.176578 C58.765583,134.176578 58.5407446,134.080219 58.3480231,133.887498 C58.1553017,133.694776 58.0589424,133.469938 58.0589424,133.212976 L58.0589424,95.7770163 C58.0589424,95.5200543 58.1553017,95.295216 58.3480231,95.1024945 C58.5407446,94.909773 58.765583,94.8134137 59.0225449,94.8134137 L65.2377815,94.8134137 C66.7795533,94.8134137 68.1125235,95.3755096 69.2367321,96.4997182 C70.3609407,97.6239268 70.9230366,98.9408371 70.9230366,100.450489 L70.9230366,116.06085 C70.9230366,117.634742 70.3609407,118.983772 69.2367321,120.107981 C69.0118904,120.332823 68.7469023,120.541601 68.44176,120.734323 C68.1366176,120.927044 67.8555697,121.087643 67.5986077,121.216124 C68.1446519,123.175459 68.7067478,125.134765 69.2849122,127.0941 C69.8630766,129.053435 70.4251725,131.01274 70.9712167,132.972075 C71.0675774,133.293278 71.0274277,133.574326 70.8507664,133.815227 C70.674105,134.056129 70.409117,134.176578 70.0557943,134.176578 L66.8277257,134.176578 C66.6350042,134.176578 66.4503156,134.104309 66.2736542,133.959768 C66.0969929,133.815227 65.9765437,133.646598 65.9123032,133.453876 L63.1178558,123.52877 L63.1178558,133.212976 C63.1178558,133.469938 63.0214965,133.694776 62.828775,133.887498 C62.6360536,134.080219 62.4112152,134.176578 62.1542533,134.176578 L59.0225449,134.176578 Z M63.1178558,99.8723272 L63.1178558,116.639012 L65.2377815,116.639012 C65.4305029,116.639012 65.5750419,116.590832 65.6714026,116.494471 C65.7998836,116.36599 65.8641231,116.221451 65.8641231,116.06085 L65.8641231,100.450489 C65.8641231,100.322008 65.7998836,100.193529 65.6714026,100.065048 C65.5429216,99.9365667 65.3983827,99.8723272 65.2377815,99.8723272 L63.1178558,99.8723272 Z M82.3791737,134.176578 C82.1222118,134.176578 81.8973734,134.080219 81.7046519,133.887498 C81.5119305,133.694776 81.4155712,133.469938 81.4155712,133.212976 L81.4155712,99.8723272 L78.4765833,99.8723272 C78.2196214,99.8723272 77.994783,99.7759679 77.8020616,99.5832464 C77.6093401,99.3905249 77.5129808,99.1656866 77.5129808,98.9087246 L77.5129808,95.7770163 C77.5129808,95.5200543 77.6093401,95.295216 77.8020616,95.1024945 C77.994783,94.909773 78.2196214,94.8134137 78.4765833,94.8134137 L89.4134724,94.8134137 C89.6704344,94.8134137 89.8952727,94.909773 90.0879942,95.1024945 C90.2807157,95.295216 90.377075,95.5200543 90.377075,95.7770163 L90.377075,98.9087246 C90.377075,99.1656866 90.2807157,99.3905249 90.0879942,99.5832464 C89.8952727,99.7759679 89.6704344,99.8723272 89.4134724,99.8723272 L86.4263045,99.8723272 L86.4263045,133.212976 C86.4263045,133.469938 86.3299452,133.694776 86.1372237,133.887498 C85.9445022,134.080219 85.7196639,134.176578 85.4627019,134.176578 L82.3791737,134.176578 Z M108.867511,94.8134137 C109.124473,94.8134137 109.349311,94.909773 109.542033,95.1024945 C109.734754,95.295216 109.831113,95.5200543 109.831113,95.7770163 L109.831113,133.212976 C109.831113,133.469938 109.734754,133.694776 109.542033,133.887498 C109.349311,134.080219 109.124473,134.176578 108.867511,134.176578 L105.735803,134.176578 C105.478841,134.176578 105.254002,134.080219 105.061281,133.887498 C104.868559,133.694776 104.7722,133.469938 104.7722,133.212976 L104.7722,115.482689 L102.025933,115.482689 L102.025933,133.212976 C102.025933,133.469938 101.929573,133.694776 101.736852,133.887498 C101.54413,134.080219 101.319292,134.176578 101.06233,134.176578 L97.9306218,134.176578 C97.6736598,134.176578 97.4488215,134.080219 97.2561,133.887498 C97.0633785,133.694776 96.9670192,133.469938 96.9670192,133.212976 L96.9670192,95.7770163 C96.9670192,95.5200543 97.0633785,95.295216 97.2561,95.1024945 C97.4488215,94.909773 97.6736598,94.8134137 97.9306218,94.8134137 L101.06233,94.8134137 C101.319292,94.8134137 101.54413,94.909773 101.736852,95.1024945 C101.929573,95.295216 102.025933,95.5200543 102.025933,95.7770163 L102.025933,110.423775 L104.7722,110.423775 L104.7722,95.7770163 C104.7722,95.5200543 104.868559,95.295216 105.061281,95.1024945 C105.254002,94.909773 105.478841,94.8134137 105.735803,94.8134137 L108.867511,94.8134137 Z M117.38466,134.176578 C117.127698,134.176578 116.90286,134.088249 116.710138,133.911588 C116.517417,133.734926 116.421058,133.518118 116.421058,133.261156 L119.070965,95.7288362 C119.103085,95.4718742 119.207474,95.2550658 119.384136,95.0784044 C119.560797,94.9017431 119.777605,94.8134137 120.034567,94.8134137 L127.695208,94.8134137 C127.95217,94.8134137 128.177008,94.9017431 128.369729,95.0784044 C128.562451,95.2550658 128.65881,95.4718742 128.65881,95.7288362 L130.007854,133.164796 C130.007854,133.421758 129.911494,133.654626 129.718773,133.863408 C129.526051,134.072189 129.301213,134.176578 129.044251,134.176578 L125.912543,134.176578 C125.655581,134.176578 125.430743,134.088249 125.238021,133.911588 C125.0453,133.734926 124.94894,133.518118 124.94894,133.261156 L124.70804,126.323217 L121.961772,126.323217 L121.479971,133.261156 C121.447851,133.518118 121.343462,133.734926 121.1668,133.911588 C120.990139,134.088249 120.77333,134.176578 120.516369,134.176578 L117.38466,134.176578 Z M123.888977,99.8723272 L123.840797,99.8723272 C123.776557,99.8723272 123.744437,100.016866 123.744437,100.305948 L123.792617,101.269551 C123.792617,101.044709 123.800647,100.819871 123.816707,100.595029 C123.832767,100.370187 123.856857,100.129289 123.888977,99.8723272 Z M124.515319,121.264304 C124.354718,117.891678 124.226239,114.551223 124.129878,111.242837 C124.033517,107.934452 123.921098,104.610056 123.792617,101.269551 C123.535655,104.674297 123.278697,107.998693 123.021735,111.242837 C122.764773,114.486982 122.523875,117.827438 122.299033,121.264304 L124.515319,121.264304 Z" id="BERTHA" fill="#A52E09"></path>
                    <path d="M0,74.0970199 L276.630025,74.0970199" id="divider-line" stroke="#272727" stroke-width="2.89080768" stroke-linecap="round" stroke-linejoin="round" fill-rule="nonzero"></path>
                    <path d="M24.7879405,35.4588537 C24.5309785,35.4588537 24.33826,35.3946142 24.209779,35.2661332 L24.209779,47.7447864 C24.209779,48.1302293 24.338258,48.451427 24.59522,48.7083889 C24.852182,48.9653509 25.1733796,49.09383 25.5588226,49.09383 C25.9442655,49.09383 26.2654632,48.9653509 26.5224251,48.7083889 C26.8115073,48.4193067 26.9560463,48.0981091 26.9560463,47.7447864 L26.9560463,35.4588537 L24.7879405,35.4588537 Z M25.5588226,14.7895788 C27.3254361,14.7895788 28.835065,15.4319741 30.0877546,16.7167839 C31.3725644,17.9694735 32.0149597,19.4791024 32.0149597,21.2457159 L32.0149597,23.5583621 C32.0149597,23.8153241 31.9186004,24.0401624 31.725879,24.2328839 C31.5331575,24.4256054 31.3083191,24.5219646 31.0513572,24.5219646 L27.9196488,24.5219646 C27.6626869,24.5219646 27.4378485,24.4256054 27.245127,24.2328839 C27.0524056,24.0401624 26.9560463,23.8153241 26.9560463,23.5583621 L26.9560463,21.2457159 C26.9560463,20.860273 26.8115073,20.5230155 26.5224251,20.2339332 C26.2654632,19.9769713 25.9442655,19.8484922 25.5588226,19.8484922 C25.2376201,19.8484922 24.9164225,19.9769713 24.59522,20.2339332 C24.338258,20.4908952 24.209779,20.8281527 24.209779,21.2457159 L24.209779,30.5926608 C24.4025005,30.4641798 24.595219,30.3999403 24.7879405,30.3999403 L31.0513572,30.3999403 C31.3083191,30.3999403 31.5331575,30.4962996 31.725879,30.689021 C31.9186004,30.8817425 32.0149597,31.1065809 32.0149597,31.3635428 L32.0149597,53.1891408 C32.0149597,53.4461028 31.9186004,53.6709412 31.725879,53.8636626 C31.5331575,54.0563841 31.3083191,54.1527434 31.0513572,54.1527434 L27.9196488,54.1527434 C27.6948071,54.1527434 27.4699688,54.072444 27.245127,53.9118428 C26.9560448,53.9760833 26.6749969,54.0322928 26.4019748,54.0804732 C26.1289527,54.1286536 25.8479048,54.1527434 25.5588226,54.1527434 C23.8243293,54.1527434 22.3147004,53.526408 21.0298905,52.2737184 C19.7772009,50.9246681 19.1508655,49.4150392 19.1508655,47.7447864 L19.1508655,21.2457159 C19.1508655,19.4791024 19.7772009,17.9694735 21.0298905,16.7167839 C22.3147004,15.4319741 23.8243293,14.7895788 25.5588226,14.7895788 Z M39.5685065,54.1527434 C39.3115445,54.1527434 39.0867062,54.0563841 38.8939847,53.8636626 C38.7012632,53.6709412 38.6049039,53.4461028 38.6049039,53.1891408 L38.6049039,15.7531813 C38.6049039,15.4962194 38.7012632,15.271381 38.8939847,15.0786595 C39.0867062,14.8859381 39.3115445,14.7895788 39.5685065,14.7895788 L45.783743,14.7895788 C47.3255148,14.7895788 48.6584851,15.3516747 49.7826937,16.4758833 C50.9069023,17.6000919 51.4689981,18.9170022 51.4689981,20.4266538 L51.4689981,36.0370153 C51.4689981,37.6109073 50.9069023,38.9599374 49.7826937,40.084146 C49.5578519,40.3089877 49.2928639,40.5177662 48.9877215,40.7104877 C48.6825792,40.9032092 48.4015313,41.063808 48.1445693,41.192289 C48.6906135,43.151624 49.2527094,45.1109296 49.8308738,47.0702646 C50.4090382,49.0295996 50.9711341,50.9889052 51.5171783,52.9482402 C51.613539,53.2694427 51.5733893,53.5504906 51.396728,53.7913924 C51.2200666,54.0322943 50.9550785,54.1527434 50.6017558,54.1527434 L47.3736873,54.1527434 C47.1809658,54.1527434 46.9962771,54.0804739 46.8196158,53.9359328 C46.6429544,53.7913917 46.5225053,53.622763 46.4582648,53.4300415 L43.6638174,43.5049351 L43.6638174,53.1891408 C43.6638174,53.4461028 43.5674581,53.6709412 43.3747366,53.8636626 C43.1820152,54.0563841 42.9571768,54.1527434 42.7002148,54.1527434 L39.5685065,54.1527434 Z M43.6638174,19.8484922 L43.6638174,36.6151768 L45.783743,36.6151768 C45.9764645,36.6151768 46.1210034,36.5669971 46.2173642,36.4706364 C46.3458452,36.3421554 46.4100847,36.1976165 46.4100847,36.0370153 L46.4100847,20.4266538 C46.4100847,20.2981728 46.3458452,20.1696937 46.2173642,20.0412127 C46.0888832,19.9127318 45.9443443,19.8484922 45.783743,19.8484922 L43.6638174,19.8484922 Z M63.1178558,30.3999403 L68.3694898,30.3999403 C68.6264517,30.3999403 68.8512901,30.4962996 69.0440116,30.689021 C69.236733,30.8817425 69.3330923,31.1065809 69.3330923,31.3635428 L69.3330923,34.4952512 C69.3330923,34.7522131 69.236733,34.9770515 69.0440116,35.1697729 C68.8512901,35.3624944 68.6264517,35.4588537 68.3694898,35.4588537 L63.1178558,35.4588537 L63.1178558,49.09383 L69.959434,49.09383 C70.216396,49.09383 70.4412343,49.1901893 70.6339558,49.3829107 C70.8266773,49.5756322 70.9230366,49.8004706 70.9230366,50.0574325 L70.9230366,53.1891408 C70.9230366,53.4461028 70.8266773,53.6709412 70.6339558,53.8636626 C70.4412343,54.0563841 70.216396,54.1527434 69.959434,54.1527434 L59.0225449,54.1527434 C58.765583,54.1527434 58.5407446,54.0563841 58.3480231,53.8636626 C58.1553017,53.6709412 58.0589424,53.4461028 58.0589424,53.1891408 L58.0589424,15.7531813 C58.0589424,15.4962194 58.1553017,15.271381 58.3480231,15.0786595 C58.5407446,14.8859381 58.765583,14.7895788 59.0225449,14.7895788 L69.959434,14.7895788 C70.216396,14.7895788 70.4412343,14.8859381 70.6339558,15.0786595 C70.8266773,15.271381 70.9230366,15.4962194 70.9230366,15.7531813 L70.9230366,18.8848897 C70.9230366,19.1418516 70.8266773,19.36669 70.6339558,19.5594115 C70.4412343,19.7521329 70.216396,19.8484922 69.959434,19.8484922 L63.1178558,19.8484922 L63.1178558,30.3999403 Z M82.3791737,54.1527434 C82.1222118,54.1527434 81.8973734,54.0563841 81.7046519,53.8636626 C81.5119305,53.6709412 81.4155712,53.4461028 81.4155712,53.1891408 L81.4155712,19.8484922 L78.4765833,19.8484922 C78.2196214,19.8484922 77.994783,19.7521329 77.8020616,19.5594115 C77.6093401,19.36669 77.5129808,19.1418516 77.5129808,18.8848897 L77.5129808,15.7531813 C77.5129808,15.4962194 77.6093401,15.271381 77.8020616,15.0786595 C77.994783,14.8859381 78.2196214,14.7895788 78.4765833,14.7895788 L89.4134724,14.7895788 C89.6704344,14.7895788 89.8952727,14.8859381 90.0879942,15.0786595 C90.2807157,15.271381 90.377075,15.4962194 90.377075,15.7531813 L90.377075,18.8848897 C90.377075,19.1418516 90.2807157,19.36669 90.0879942,19.5594115 C89.8952727,19.7521329 89.6704344,19.8484922 89.4134724,19.8484922 L86.4263045,19.8484922 L86.4263045,53.1891408 C86.4263045,53.4461028 86.3299452,53.6709412 86.1372237,53.8636626 C85.9445022,54.0563841 85.7196639,54.1527434 85.4627019,54.1527434 L82.3791737,54.1527434 Z M103.374976,14.7895788 C105.14159,14.7895788 106.651219,15.4319741 107.903908,16.7167839 C109.188718,17.9694735 109.831113,19.4791024 109.831113,21.2457159 L109.831113,23.5583621 C109.831113,23.8153241 109.734754,24.0401624 109.542033,24.2328839 C109.349311,24.4256054 109.124473,24.5219646 108.867511,24.5219646 L105.735803,24.5219646 C105.478841,24.5219646 105.254002,24.4256054 105.061281,24.2328839 C104.868559,24.0401624 104.7722,23.8153241 104.7722,23.5583621 L104.7722,21.2457159 C104.7722,20.860273 104.627661,20.5230155 104.338579,20.2339332 C104.081617,19.9769713 103.760419,19.8484922 103.374976,19.8484922 C103.053774,19.8484922 102.732576,19.9769713 102.411374,20.2339332 C102.154412,20.4908952 102.025933,20.8281527 102.025933,21.2457159 L102.025933,47.7447864 C102.025933,48.1302293 102.154412,48.451427 102.411374,48.7083889 C102.668336,48.9653509 102.989533,49.09383 103.374976,49.09383 C103.760419,49.09383 104.081617,48.9653509 104.338579,48.7083889 C104.627661,48.4193067 104.7722,48.0981091 104.7722,47.7447864 L104.7722,45.3839601 C104.7722,45.1269981 104.868559,44.9021598 105.061281,44.7094383 C105.254002,44.5167168 105.478841,44.4203575 105.735803,44.4203575 L108.867511,44.4203575 C109.124473,44.4203575 109.349311,44.5167168 109.542033,44.7094383 C109.734754,44.9021598 109.831113,45.1269981 109.831113,45.3839601 L109.831113,47.7447864 C109.831113,49.4792797 109.188718,50.9889086 107.903908,52.2737184 C106.651219,53.526408 105.14159,54.1527434 103.374976,54.1527434 C101.640483,54.1527434 100.130854,53.526408 98.8460442,52.2737184 C97.5933546,50.9246681 96.9670192,49.4150392 96.9670192,47.7447864 L96.9670192,21.2457159 C96.9670192,19.4791024 97.5933546,17.9694735 98.8460442,16.7167839 C100.130854,15.4319741 101.640483,14.7895788 103.374976,14.7895788 Z M128.321549,14.7895788 C128.578511,14.7895788 128.80335,14.8859381 128.996071,15.0786595 C129.188793,15.271381 129.285152,15.4962194 129.285152,15.7531813 L129.285152,53.1891408 C129.285152,53.4461028 129.188793,53.6709412 128.996071,53.8636626 C128.80335,54.0563841 128.578511,54.1527434 128.321549,54.1527434 L125.189841,54.1527434 C124.932879,54.1527434 124.708041,54.0563841 124.515319,53.8636626 C124.322598,53.6709412 124.226238,53.4461028 124.226238,53.1891408 L124.226238,35.4588537 L121.479971,35.4588537 L121.479971,53.1891408 C121.479971,53.4461028 121.383612,53.6709412 121.19089,53.8636626 C120.998169,54.0563841 120.77333,54.1527434 120.516369,54.1527434 L117.38466,54.1527434 C117.127698,54.1527434 116.90286,54.0563841 116.710138,53.8636626 C116.517417,53.6709412 116.421058,53.4461028 116.421058,53.1891408 L116.421058,15.7531813 C116.421058,15.4962194 116.517417,15.271381 116.710138,15.0786595 C116.90286,14.8859381 117.127698,14.7895788 117.38466,14.7895788 L120.516369,14.7895788 C120.77333,14.7895788 120.998169,14.8859381 121.19089,15.0786595 C121.383612,15.271381 121.479971,15.4962194 121.479971,15.7531813 L121.479971,30.3999403 L124.226238,30.3999403 L124.226238,15.7531813 C124.226238,15.4962194 124.322598,15.271381 124.515319,15.0786595 C124.708041,14.8859381 124.932879,14.7895788 125.189841,14.7895788 L128.321549,14.7895788 Z M140.934009,30.3999403 L146.185643,30.3999403 C146.442605,30.3999403 146.667444,30.4962996 146.860165,30.689021 C147.052887,30.8817425 147.149246,31.1065809 147.149246,31.3635428 L147.149246,34.4952512 C147.149246,34.7522131 147.052887,34.9770515 146.860165,35.1697729 C146.667444,35.3624944 146.442605,35.4588537 146.185643,35.4588537 L140.934009,35.4588537 L140.934009,49.09383 L147.775588,49.09383 C148.03255,49.09383 148.257388,49.1901893 148.450109,49.3829107 C148.642831,49.5756322 148.73919,49.8004706 148.73919,50.0574325 L148.73919,53.1891408 C148.73919,53.4461028 148.642831,53.6709412 148.450109,53.8636626 C148.257388,54.0563841 148.03255,54.1527434 147.775588,54.1527434 L136.838699,54.1527434 C136.581737,54.1527434 136.356898,54.0563841 136.164177,53.8636626 C135.971455,53.6709412 135.875096,53.4461028 135.875096,53.1891408 L135.875096,15.7531813 C135.875096,15.4962194 135.971455,15.271381 136.164177,15.0786595 C136.356898,14.8859381 136.581737,14.7895788 136.838699,14.7895788 L147.775588,14.7895788 C148.03255,14.7895788 148.257388,14.8859381 148.450109,15.0786595 C148.642831,15.271381 148.73919,15.4962194 148.73919,15.7531813 L148.73919,18.8848897 C148.73919,19.1418516 148.642831,19.36669 148.450109,19.5594115 C148.257388,19.7521329 148.03255,19.8484922 147.775588,19.8484922 L140.934009,19.8484922 L140.934009,30.3999403 Z M156.292737,54.1527434 C156.035775,54.1527434 155.810937,54.0563841 155.618215,53.8636626 C155.425494,53.6709412 155.329134,53.4461028 155.329134,53.1891408 L155.329134,15.7531813 C155.329134,15.4962194 155.425494,15.271381 155.618215,15.0786595 C155.810937,14.8859381 156.035775,14.7895788 156.292737,14.7895788 L159.424445,14.7895788 C159.938369,14.7895788 160.259567,15.0465369 160.388048,15.5604608 L163.134315,28.6172755 L163.134315,15.7531813 C163.134315,15.4962194 163.230675,15.271381 163.423396,15.0786595 C163.616117,14.8859381 163.840956,14.7895788 164.097918,14.7895788 L167.229626,14.7895788 C167.486588,14.7895788 167.711426,14.8859381 167.904148,15.0786595 C168.096869,15.271381 168.193229,15.4962194 168.193229,15.7531813 L168.193229,53.1891408 C168.193229,53.4461028 168.096869,53.6709412 167.904148,53.8636626 C167.711426,54.0563841 167.486588,54.1527434 167.229626,54.1527434 L164.049738,54.1527434 C163.535814,54.1527434 163.214616,53.8957853 163.086135,53.3818614 L160.388048,40.3250467 L160.388048,53.1891408 C160.388048,53.4461028 160.291689,53.6709412 160.098967,53.8636626 C159.906246,54.0563841 159.681407,54.1527434 159.424445,54.1527434 L156.292737,54.1527434 Z" id="GRETCHEN" fill="#48751E"></path>
                </g>
            </g>
        </g>
    </g>
</svg>