<?xml version="1.0" encoding="UTF-8"?>
<svg width="182px" height="107px" viewBox="0 0 182 107" version="1.1" xmlns="http://www.w3.org/2000/svg" xmlns:xlink="http://www.w3.org/1999/xlink">
    <!-- Generator: Sketch 51.3 (57544) - http://www.bohemiancoding.com/sketch -->
    <title>Combined Shape</title>
    <desc>Created with Sketch.</desc>
    <defs></defs>
    <g id="Page-1" stroke="none" stroke-width="1" fill="none" fill-rule="evenodd">
        <g id="buttons" transform="translate(-44.000000, -37.000000)" fill="#48751E" fill-rule="nonzero">
            <path d="M66,37 L204,37 C216.150264,37 226,46.8497355 226,59 L226,122 C226,134.150264 216.150264,144 204,144 L66,144 C53.8497355,144 44,134.150264 44,122 L44,59 C44,46.8497355 53.8497355,37 66,37 Z M107.533225,76.4730709 C106.723795,76.4730709 105.972193,76.6079739 105.278395,76.8777839 C105.201307,76.6079739 105.02786,76.4730709 104.75805,76.4730709 L101,76.4730709 C100.614557,76.4730709 100.421838,76.6657894 100.421838,77.0512324 L100.421838,116.308401 C100.421838,116.693844 100.614557,116.886562 101,116.886562 L104.75805,116.886562 C105.143493,116.886562 105.336212,116.693844 105.336212,116.308401 L105.336212,107.231265 C106.030009,107.46253 106.762339,107.578162 107.533225,107.578162 C109.498984,107.578162 111.175636,106.884375 112.563231,105.49678 C113.98937,104.070641 114.702428,102.393989 114.702428,100.466775 L114.702428,83.6422739 C114.702428,81.6765149 113.98937,79.9998632 112.563231,78.6122685 C111.175636,77.1861296 109.498984,76.4730709 107.533225,76.4730709 Z M107.533225,81.3874439 C108.149934,81.3874439 108.670274,81.5994344 109.094262,82.0234216 C109.556793,82.4859532 109.788055,83.0255652 109.788055,83.6422739 L109.788055,100.466775 C109.788055,101.044939 109.556793,101.565279 109.094262,102.027811 C108.670274,102.451798 108.149934,102.663788 107.533225,102.663788 C106.916517,102.663788 106.396176,102.451798 105.972189,102.027811 C105.548202,101.603824 105.336212,101.083483 105.336212,100.466775 L105.336212,83.6422739 C105.336212,82.9870209 105.548202,82.4474089 105.972189,82.0234216 C106.396176,81.5994344 106.916517,81.3874439 107.533225,81.3874439 Z M128.181058,107 L128.181058,62.0768486 C128.181058,61.6914056 127.988339,61.4986871 127.602896,61.4986871 L123.844846,61.4986871 C123.459403,61.4986871 123.266685,61.6914056 123.266685,62.0768486 L123.266685,107 C123.266685,107.385443 123.459403,107.578162 123.844846,107.578162 L127.602896,107.578162 C127.988339,107.578162 128.181058,107.385443 128.181058,107 Z M151.777514,107.173448 L151.777514,83.6422739 C151.777514,81.6765149 151.064455,79.9998632 149.638316,78.6122685 C148.250721,77.1861296 146.57407,76.4730709 144.608311,76.4730709 C142.681096,76.4730709 141.004444,77.1861296 139.578305,78.6122685 C138.190711,79.9998632 137.496924,81.6765149 137.496924,83.6422739 C137.496924,84.0277169 137.689642,84.2204355 138.075085,84.2204355 L141.833135,84.2204355 C142.218578,84.2204355 142.411297,84.0277169 142.411297,83.6422739 C142.411297,82.9870209 142.623287,82.4474089 143.047275,82.0234216 C143.471262,81.5994344 143.991602,81.3874439 144.608311,81.3874439 C145.225019,81.3874439 145.74536,81.5994344 146.169347,82.0234216 C146.631878,82.4859532 146.863141,83.0255652 146.863141,83.6422739 L146.863141,85.0876778 C145.398457,86.0898294 144.107243,87.0534224 142.989458,87.9784854 C141.871674,88.9035485 140.908081,89.8093259 140.098651,90.6958447 C138.364157,92.6616037 137.496924,95.9185478 137.496924,100.466775 C137.496924,102.316901 138.190711,103.993552 139.578305,105.49678 C141.004444,106.884375 142.681096,107.578162 144.608311,107.578162 C144.993754,107.578162 145.369555,107.539618 145.735726,107.462529 C146.101896,107.385441 146.477698,107.289081 146.863141,107.173448 C146.863141,107.558891 147.055859,107.75161 147.441302,107.75161 L151.199352,107.75161 C151.584795,107.75161 151.777514,107.558891 151.777514,107.173448 Z M146.863141,91.0427416 L146.863141,100.466775 C146.863141,101.044939 146.631878,101.565279 146.169347,102.027811 C145.74536,102.451798 145.225019,102.663788 144.608311,102.663788 C143.991602,102.663788 143.471262,102.451798 143.047275,102.027811 C142.623287,101.603824 142.411297,101.083483 142.411297,100.466775 C142.411297,97.6915854 142.873821,95.6294965 143.798885,94.2804462 C144.56977,93.1241173 145.591179,92.0448933 146.863141,91.0427416 Z M160.34177,77.1668647 L165.198327,107.115632 C165.121238,107.462531 165.053787,107.828696 164.99597,108.214139 C164.938154,108.599582 164.870702,108.965747 164.793614,109.312646 C164.639437,109.736633 164.494898,110.150978 164.359993,110.555693 C164.225088,110.960409 164.080549,111.278394 163.926371,111.50966 C163.579473,111.856559 162.885686,112.030005 161.84499,112.030005 C161.459547,112.030005 161.266828,112.222724 161.266828,112.608167 L161.266828,116.366217 C161.266828,116.75166 161.459547,116.944378 161.84499,116.944378 C164.196192,116.944378 166.04629,116.269863 167.395341,114.920813 C168.397492,113.803028 169.129823,112.299824 169.592354,110.411153 C169.55381,110.372609 169.534538,110.334065 169.534538,110.295521 C169.495994,110.256976 169.476722,110.218433 169.476722,110.179888 L174.62236,77.1668647 C174.660904,76.9741432 174.62236,76.8103324 174.506728,76.6754274 C174.391095,76.5405224 174.23692,76.4730709 174.044198,76.4730709 L169.997068,76.4730709 C169.688713,76.4730709 169.495995,76.6465176 169.418906,76.9934162 C169.110552,79.1518968 168.78293,81.2814371 168.436031,83.3821012 C168.089133,85.4827653 167.761511,87.6123057 167.453157,89.7707862 L165.545224,76.9934162 C165.468135,76.6465176 165.275417,76.4730709 164.967062,76.4730709 L160.919931,76.4730709 C160.72721,76.4730709 160.573035,76.5405224 160.457402,76.6754274 C160.341769,76.8103324 160.303226,76.9741432 160.34177,77.1668647 Z" id="Combined-Shape"></path>
        </g>
    </g>
</svg>