<?xml version="1.0" encoding="UTF-8"?>
<svg width="200px" height="200px" viewBox="0 0 200 200" version="1.1" xmlns="http://www.w3.org/2000/svg" xmlns:xlink="http://www.w3.org/1999/xlink">
    <!-- Generator: Sketch 51.3 (57544) - http://www.bohemiancoding.com/sketch -->
    <title>bus_right_nav</title>
    <desc>Created with Sketch.</desc>
    <defs></defs>
    <g id="bus_right_nav" stroke="none" stroke-width="1" fill="none" fill-rule="evenodd">
        <g id="left-nav" fill="#A52E09" fill-rule="nonzero">
            <path d="M99.7613365,126.968974 C84.7349734,126.968974 72.5536993,114.7877 72.5536993,99.7613365 C72.5536993,84.7349734 84.7349734,72.5536993 99.7613365,72.5536993 C114.7877,72.5536993 126.968974,84.7349734 126.968974,99.7613365 C126.968974,114.7877 114.7877,126.968974 99.7613365,126.968974 Z M92.1415939,122.385476 C92.8385599,122.620121 93.765293,122.848622 94.9217933,123.070979 C95.0961888,123.104509 95.273782,123.11847 95.4512747,123.112601 C96.7686563,123.069045 97.801296,121.965787 97.7577412,120.648406 C97.3853554,109.385329 97.1125623,103.687554 96.939362,103.555082 C96.4493225,103.180277 96.0340301,102.712675 95.7197281,102.17852 C95.613767,101.998439 89.9542507,101.431777 78.7411793,100.478534 C78.5765295,100.464536 78.4108711,100.467677 78.24687,100.487904 C76.9386804,100.649252 76.0089816,101.840548 76.1703298,103.148737 C76.2634237,103.903532 76.3655325,104.52792 76.476656,105.021901 C78.3111856,113.176996 84.3202665,119.752289 92.1415939,122.385476 Z M107.383585,122.385476 C115.204912,119.752289 121.213993,113.176996 123.048523,105.021901 C123.159637,104.527959 123.261739,103.903631 123.354827,103.148917 C123.516181,101.840728 122.586489,100.649428 121.2783,100.488073 C121.114248,100.467839 120.948538,100.464702 120.783838,100.478713 C109.570496,101.432645 103.910709,101.999798 103.804478,102.180171 C103.490292,102.713639 103.075351,103.180664 102.585817,103.555082 C102.412616,103.687554 102.139823,109.385329 101.767437,120.648406 C101.723883,121.965787 102.756522,123.069045 104.073904,123.112601 C104.251397,123.11847 104.42899,123.104509 104.603385,123.070979 C105.759886,122.848622 106.686619,122.620121 107.383585,122.385476 Z M76.8095154,93.3338317 C76.7526631,93.5551424 76.727887,93.7834705 76.7359457,94.0118248 C76.7824331,95.3291075 77.8879873,96.3592907 79.20527,96.3128019 C91.2790059,95.8867153 97.4727534,95.5989496 97.7865122,95.4495047 C98.4076468,95.1536553 99.102784,94.9880668 99.8365965,94.9880668 C100.585102,94.9880668 101.293368,95.1603526 101.923902,95.467432 C102.228361,95.6157082 108.36136,95.898056 120.322899,96.3144754 C120.550476,96.322398 120.778016,96.2977102 120.998598,96.2411628 C122.275411,95.9138444 123.045129,94.6134385 122.717813,93.3366245 C122.547123,92.6707911 122.381631,92.1154256 122.221339,91.6705279 C118.907083,82.4716736 110.102244,75.8949881 99.7613365,75.8949881 C89.4684033,75.8949881 80.6973181,82.4107936 77.3478147,91.5426707 C77.1738922,92.0168421 76.9944592,92.6138957 76.8095154,93.3338317 Z" id="wheel"></path>
            <path d="M70.8856671,172.042278 C72.0455969,172.042278 72.9859058,171.101969 72.9859058,169.942039 L72.9859058,138.138425 C72.9859058,136.978495 73.9262147,136.038186 75.0861444,136.038186 L125.030219,136.038186 C126.190149,136.038186 127.130457,136.978495 127.130457,138.138425 L127.130457,169.942039 C127.130457,171.101969 128.070766,172.042278 129.230696,172.042278 L131.822985,172.042278 C132.314334,172.042278 132.776766,172.274541 133.070151,172.668684 C133.58286,173.357474 133.440117,174.331482 132.751327,174.844191 L100.489474,198.858652 C100.340622,198.969452 100.136705,198.969452 99.9878525,198.858652 L67.5812239,174.736425 C67.2022401,174.454324 66.9789103,174.009678 66.9789103,173.537227 C66.9789103,172.711589 67.648222,172.042278 68.4738598,172.042278 L70.8856671,172.042278 Z M101.288783,163.818616 L98.8066826,163.818616 C98.6030221,163.818616 98.4248218,163.894987 98.2720764,164.047733 C98.119331,164.200478 98.0429594,164.378678 98.0429594,164.582339 L98.0429594,170.73031 C98.0429594,171.086716 98.1957025,171.328559 98.5011933,171.455847 C98.8066841,171.583135 99.0867131,171.519492 99.3412888,171.264916 L101.823389,168.782816 C101.874304,168.731901 101.925219,168.642801 101.976134,168.515513 C102.027049,168.388225 102.052506,168.299125 102.052506,168.24821 L102.052506,164.582339 C102.052506,164.378678 101.976134,164.200478 101.823389,164.047733 C101.670644,163.894987 101.492443,163.818616 101.288783,163.818616 Z M101.288783,155.72315 L98.8066826,155.72315 C98.6030221,155.72315 98.4248218,155.799522 98.2720764,155.952267 C98.119331,156.105013 98.0429594,156.283213 98.0429594,156.486874 L98.0429594,158.968974 C98.0429594,159.172634 98.119331,159.350835 98.2720764,159.50358 C98.4248218,159.656325 98.6030221,159.732697 98.8066826,159.732697 L101.288783,159.732697 C101.492443,159.732697 101.670644,159.656325 101.823389,159.50358 C101.976134,159.350835 102.052506,159.172634 102.052506,158.968974 L102.052506,156.486874 C102.052506,156.283213 101.976134,156.105013 101.823389,155.952267 C101.670644,155.799522 101.492443,155.72315 101.288783,155.72315 Z" id="back"></path>
            <path d="M172.553548,70.6470037 L172.553548,68.2351963 C172.553548,67.4045544 173.226917,66.731186 174.057559,66.731186 C174.530958,66.731186 174.97673,66.9540725 175.260769,67.3327925 L199.572052,99.7479721 C199.684064,99.8973221 199.684064,100.102678 199.572052,100.252028 L175.369057,132.522822 C174.850738,133.213917 173.870314,133.35398 173.179219,132.83566 C172.78535,132.54026 172.553548,132.076657 172.553548,131.584322 L172.553548,128.992033 C172.553548,127.832103 171.613239,126.891794 170.45331,126.891794 L138.377088,126.891794 C137.217159,126.891794 136.27685,125.951485 136.27685,124.791555 L136.27685,74.847481 C136.27685,73.6875512 137.217159,72.7472423 138.377088,72.7472423 L170.45331,72.7472423 C171.613239,72.7472423 172.553548,71.8069334 172.553548,70.6470037 Z M165.250597,95.522673 L162.768496,95.522673 C162.564836,95.522673 162.386636,95.5990446 162.23389,95.75179 C162.081145,95.9045354 162.004773,96.0827357 162.004773,96.2863962 L162.004773,102.434368 C162.004773,102.790773 162.157516,103.032617 162.463007,103.159905 C162.768498,103.287192 163.048527,103.223549 163.303103,102.968974 L165.785203,100.486874 C165.836118,100.435958 165.887032,100.346858 165.937947,100.21957 C165.988863,100.092283 166.01432,100.003182 166.01432,99.9522673 L166.01432,96.2863962 C166.01432,96.0827357 165.937948,95.9045354 165.785203,95.75179 C165.632457,95.5990446 165.454257,95.522673 165.250597,95.522673 Z" id="right"></path>
            <path d="M27.4461874,70.6470037 C27.4461874,71.8069335 28.3864962,72.7472424 29.546426,72.7472424 L61.6226473,72.7472424 C62.7825771,72.7472424 63.722886,73.6875512 63.722886,74.847481 L63.722886,124.791555 C63.722886,125.951485 62.7825771,126.891794 61.6226473,126.891794 L29.546426,126.891794 C28.3864962,126.891794 27.4461874,127.832103 27.4461874,128.992033 L27.4461874,131.584322 C27.4461874,132.076657 27.2143854,132.54026 26.8205166,132.83566 C26.1294214,133.35398 25.1489974,133.213917 24.6306782,132.522822 L0.427683608,100.252028 C0.315671552,100.102678 0.315671552,99.8973221 0.427683608,99.7479721 L24.738967,67.3327926 C25.0230058,66.9540726 25.4687778,66.7311861 25.9421771,66.7311861 C26.772819,66.7311861 27.4461874,67.4045544 27.4461874,68.2351964 L27.4461874,70.6470037 Z M34.7494033,83.5322196 L32.2673031,83.5322196 C32.0636426,83.5322196 31.8854423,83.6085911 31.7326969,83.7613365 C31.5799515,83.9140819 31.50358,84.0922822 31.50358,84.2959427 L31.50358,113.966587 C31.50358,114.170248 31.5799515,114.348448 31.7326969,114.501193 C31.8854423,114.653939 32.0636426,114.73031 32.2673031,114.73031 L40.9355609,114.73031 C41.1392214,114.73031 41.3174217,114.653939 41.4701671,114.501193 C41.6229125,114.348448 41.699284,114.170248 41.699284,113.966587 L41.699284,111.484487 C41.699284,111.280826 41.6229125,111.102626 41.4701671,110.949881 C41.3174217,110.797135 41.1392214,110.720764 40.9355609,110.720764 L35.5131265,110.720764 L35.5131265,84.2959427 C35.5131265,84.0922822 35.4367549,83.9140819 35.2840095,83.7613365 C35.1312642,83.6085911 34.9530639,83.5322196 34.7494033,83.5322196 Z" id="left"></path>
            <path d="M70.8856671,27.0030685 L68.4738598,27.0030685 C67.648222,27.0030685 66.9789103,26.3337568 66.9789103,25.508119 C66.9789103,25.0356685 67.2022401,24.5910219 67.5812239,24.3089212 L99.9878525,0.186693854 C100.136705,0.075894245 100.340622,0.075894245 100.489474,0.186693854 L132.751327,24.2011553 C133.440117,24.7138641 133.58286,25.6878718 133.070151,26.3766624 C132.776766,26.7708055 132.314334,27.0030685 131.822985,27.0030685 L129.230696,27.0030685 C128.070766,27.0030685 127.130457,27.9433774 127.130457,29.1033072 L127.130457,60.9069213 C127.130457,62.066851 126.190149,63.0071599 125.030219,63.0071599 L75.0861444,63.0071599 C73.9262147,63.0071599 72.9859058,62.066851 72.9859058,60.9069213 L72.9859058,29.1033072 C72.9859058,27.9433774 72.0455969,27.0030685 70.8856671,27.0030685 Z M95.274463,51.2458234 L97.7565632,51.2458234 C97.9602238,51.2458234 98.1384241,51.1694518 98.2911695,51.0167064 C98.4439148,50.8639611 98.5202864,50.6857608 98.5202864,50.4821002 L98.5202864,41.3556086 L100.200477,41.3556086 C101.371525,41.3556086 102.427998,40.9228365 103.369928,40.0572792 C104.260943,39.1662644 104.706444,38.1097913 104.706444,36.8878282 L104.706444,24.5155131 C104.706444,23.3190075 104.260943,22.275263 103.369928,21.3842482 C102.478914,20.4932334 101.42244,20.0477327 100.200477,20.0477327 L95.274463,20.0477327 C95.0708025,20.0477327 94.8926022,20.1241042 94.7398568,20.2768496 C94.5871114,20.429595 94.5107399,20.6077953 94.5107399,20.8114558 L94.5107399,50.4821002 C94.5107399,50.6857608 94.5871114,50.8639611 94.7398568,51.0167064 C94.8926022,51.1694518 95.0708025,51.2458234 95.274463,51.2458234 Z M98.5202864,24.0572792 L100.200477,24.0572792 C100.327765,24.0572792 100.442322,24.1081936 100.544153,24.2100239 C100.645983,24.3118541 100.696897,24.4136829 100.696897,24.5155131 L100.696897,36.8878282 C100.696897,37.015116 100.645983,37.1296733 100.544153,37.2315036 C100.46778,37.3078763 100.353223,37.3460621 100.200477,37.3460621 L98.5202864,37.3460621 L98.5202864,24.0572792 Z" id="forward"></path>
        </g>
    </g>
</svg>