<?xml version="1.0" encoding="UTF-8"?>
<svg width="74px" height="13px" viewBox="0 0 74 13" version="1.1" xmlns="http://www.w3.org/2000/svg" xmlns:xlink="http://www.w3.org/1999/xlink">
    <!-- Generator: Sketch 51.3 (57544) - http://www.bohemiancoding.com/sketch -->
    <title>copyright</title>
    <desc>Created with Sketch.</desc>
    <defs></defs>
    <g id="Page-1" stroke="none" stroke-width="1" fill="none" fill-rule="evenodd">
        <g id="UI" transform="translate(-222.000000, -255.000000)" fill="#464646">
            <g id="copyright" transform="translate(217.000000, 252.000000)">
                <g id="copyright-outlines" transform="translate(5.000000, 3.000000)">
                    <path d="M14.5227094,4.26319041 L14.5227094,4.34472216 C14.6585963,4.29036739 14.8035402,4.26319041 14.9575454,4.26319041 C15.283674,4.26319041 15.5735617,4.37642781 15.8272173,4.60290602 C16.0808729,4.37642781 16.3752902,4.26319041 16.7104779,4.26319041 C17.0819022,4.26319041 17.3944374,4.3900163 17.648093,4.64367189 C17.9108077,4.90638662 18.0421631,5.21439236 18.0421631,5.56769836 L18.0421631,11.2885093 L17.1589025,11.2885093 L17.1589025,5.56769836 C17.1589025,5.45898882 17.1136076,5.3593399 17.0230163,5.26874862 C16.932425,5.17815734 16.8327761,5.13286238 16.7240665,5.13286238 C16.6062979,5.13286238 16.5021195,5.17815734 16.4115282,5.26874862 C16.3209369,5.3593399 16.2756419,5.45898882 16.2756419,5.56769836 L16.2756419,11.2885093 L15.3923813,11.2885093 L15.3923813,5.58128699 C15.3923813,5.45445919 15.3516159,5.35028078 15.2700837,5.26874862 C15.1704333,5.18721647 15.0662549,5.146451 14.9575454,5.146451 C14.8397767,5.146451 14.7355983,5.18721647 14.645007,5.26874862 C14.5634748,5.35028078 14.5227094,5.45445919 14.5227094,5.58128699 L14.5227094,11.3020979 L13.6394488,11.3020979 L13.6394488,4.26319041 L14.5227094,4.26319041 Z M23.499311,11.3428638 L22.6160504,11.3428638 L22.6160504,11.152623 C22.3895722,11.2522734 22.1676268,11.3020979 21.9502078,11.3020979 C21.5334879,11.3020979 21.1711282,11.1526245 20.8631178,10.8536733 C20.5641666,10.5456629 20.4146932,10.1833032 20.4146932,9.76658333 C20.4146932,8.72478358 20.604932,7.99100519 20.9854154,7.56522616 C21.3840171,7.12132888 21.9049091,6.68649724 22.5481072,6.26071821 C22.5390481,6.26071821 22.5616956,6.25165922 22.6160504,6.23354096 L22.6160504,5.8122936 C22.6160504,5.63111104 22.5481079,5.47257867 22.412221,5.33669174 C22.2853932,5.20986395 22.1313903,5.146451 21.9502078,5.146451 C21.7690252,5.146451 21.6150223,5.20986395 21.4881945,5.33669174 C21.3613667,5.46351954 21.2979538,5.62205191 21.2979538,5.8122936 L20.4146932,5.8122936 C20.4146932,5.38651457 20.5641666,5.02415488 20.8631178,4.72520364 C21.1711282,4.41719328 21.5334879,4.26319041 21.9502078,4.26319041 C22.3759868,4.26319041 22.7383465,4.41719328 23.0372977,4.72520364 C23.3453081,5.02415488 23.499311,5.38651457 23.499311,5.8122936 L23.499311,11.3428638 Z M22.6160504,7.29345367 C22.1993305,7.58334578 21.8777362,7.89588102 21.651258,8.23106876 C21.4157207,8.57531564 21.2979538,9.08714871 21.2979538,9.76658333 C21.2979538,9.9477659 21.3613667,10.1017688 21.4881945,10.2285966 C21.6150223,10.3554244 21.7690252,10.4188373 21.9502078,10.4188373 C22.1313903,10.4188373 22.2853932,10.3554244 22.412221,10.2285966 C22.5481079,10.0927096 22.6160504,9.93870677 22.6160504,9.76658333 L22.6160504,7.29345367 Z M25.6000685,4.26319041 L26.2523225,4.26319041 L26.2523225,2.06183324 L27.1219945,1.62699725 L27.1219945,4.26319041 L27.7606598,4.26319041 L27.7606598,5.146451 L27.1219945,5.146451 L27.1219945,11.3020979 L26.2523225,11.3020979 L26.2523225,5.146451 L25.6000685,5.146451 L25.6000685,4.26319041 Z M28.9781568,4.26319041 L29.6304108,4.26319041 L29.6304108,2.06183324 L30.5000828,1.62699725 L30.5000828,4.26319041 L31.1387481,4.26319041 L31.1387481,5.146451 L30.5000828,5.146451 L30.5000828,11.3020979 L29.6304108,11.3020979 L29.6304108,5.146451 L28.9781568,5.146451 L28.9781568,4.26319041 Z M33.1172081,11.3020979 L33.1172081,0.743736661 L34.0004687,0.743736661 L34.0004687,4.41266528 C34.2178878,4.31301487 34.4353036,4.26319041 34.6527227,4.26319041 C35.0785017,4.26319041 35.4408614,4.41719328 35.7398126,4.72520364 C36.047823,5.02415488 36.2018259,5.38651457 36.2018259,5.8122936 L36.2018259,11.3020979 L35.3185653,11.3020979 L35.3185653,5.8122936 C35.3185653,5.63111104 35.2506228,5.47257867 35.1147359,5.33669174 C34.9879081,5.20986395 34.8339052,5.146451 34.6527227,5.146451 C34.4715401,5.146451 34.3175372,5.20986395 34.1907094,5.33669174 C34.0638816,5.46351954 34.0004687,5.62205191 34.0004687,5.8122936 L34.0004687,11.3020979 L33.1172081,11.3020979 Z M41.1154287,10.8536733 C41.0610739,10.9080281 41.0203085,10.944264 40.9931311,10.9623823 C40.9387763,10.9986188 40.9002756,11.0257958 40.8776278,11.043914 C40.85498,11.0620323 40.8481857,11.0665618 40.8572449,11.0575027 C40.5945301,11.220567 40.3182309,11.3020979 40.0283388,11.3020979 C39.6116189,11.3020979 39.2492592,11.1526245 38.9412488,10.8536733 C38.6422976,10.5456629 38.4928242,10.1833032 38.4928242,9.76658333 L38.4928242,5.8122936 C38.4928242,5.38651457 38.6422976,5.02415488 38.9412488,4.72520364 C39.2492592,4.41719328 39.6116189,4.26319041 40.0283388,4.26319041 C40.4541178,4.26319041 40.8164775,4.41719328 41.1154287,4.72520364 C41.4234391,5.02415488 41.577442,5.38651457 41.577442,5.8122936 L41.577442,8.21748014 L39.3760848,8.21748014 L39.3760848,9.76658333 C39.3760848,9.9477659 39.4394977,10.1017688 39.5663255,10.2285966 C39.6931533,10.3554244 39.8471562,10.4188373 40.0283388,10.4188373 C40.1461074,10.4188373 40.2638743,10.3871308 40.381643,10.3237169 C40.3907021,10.3237169 40.3997611,10.3191874 40.4088202,10.3101283 C40.4178794,10.3010692 40.4314679,10.2920102 40.4495861,10.2829511 C40.4586452,10.2738919 40.4654395,10.2648329 40.4699691,10.2557738 C40.4744986,10.2467147 40.4812929,10.2376557 40.490352,10.2285966 L41.1154287,10.8536733 Z M40.6941814,7.34780817 L40.6941814,5.8122936 C40.6941814,5.63111104 40.6262389,5.47257867 40.490352,5.33669174 C40.3635242,5.20986395 40.2095213,5.146451 40.0283388,5.146451 C39.8471562,5.146451 39.6931533,5.20986395 39.5663255,5.33669174 C39.4394977,5.46351954 39.3760848,5.62205191 39.3760848,5.8122936 L39.3760848,7.34780817 L40.6941814,7.34780817 Z M44.9011757,11.3020979 L43.841263,4.26319041 L44.7924667,4.26319041 L45.3767776,8.19030289 L45.9746771,4.26319041 L46.9802353,4.26319041 L47.5781348,8.19030289 L48.1760342,4.26319041 L49.1136493,4.26319041 L48.0537366,11.3020979 L47.1025329,11.3020979 L46.4774562,7.17115605 L45.8523795,11.3020979 L44.9011757,11.3020979 Z M52.2199651,4.26319041 L52.2199651,4.34472216 C52.3558521,4.29036739 52.5007959,4.26319041 52.6548011,4.26319041 C52.9809297,4.26319041 53.2708175,4.37642781 53.5244731,4.60290602 C53.7781287,4.37642781 54.0725459,4.26319041 54.4077337,4.26319041 C54.7791579,4.26319041 55.0916932,4.3900163 55.3453488,4.64367189 C55.6080635,4.90638662 55.7394189,5.21439236 55.7394189,5.56769836 L55.7394189,11.2885093 L54.8561583,11.2885093 L54.8561583,5.56769836 C54.8561583,5.45898882 54.8108633,5.3593399 54.720272,5.26874862 C54.6296808,5.17815734 54.5300318,5.13286238 54.4213223,5.13286238 C54.3035536,5.13286238 54.1993752,5.17815734 54.1087839,5.26874862 C54.0181927,5.3593399 53.9728977,5.45898882 53.9728977,5.56769836 L53.9728977,11.2885093 L53.0896371,11.2885093 L53.0896371,5.58128699 C53.0896371,5.45445919 53.0488716,5.35028078 52.9673395,5.26874862 C52.8676891,5.18721647 52.7635107,5.146451 52.6548011,5.146451 C52.5370325,5.146451 52.432854,5.18721647 52.3422628,5.26874862 C52.2607306,5.35028078 52.2199651,5.45445919 52.2199651,5.58128699 L52.2199651,11.3020979 L51.3367045,11.3020979 L51.3367045,4.26319041 L52.2199651,4.26319041 Z M61.1965667,11.3428638 L60.3133061,11.3428638 L60.3133061,11.152623 C60.0868279,11.2522734 59.8648826,11.3020979 59.6474635,11.3020979 C59.2307436,11.3020979 58.8683839,11.1526245 58.5603736,10.8536733 C58.2614223,10.5456629 58.111949,10.1833032 58.111949,9.76658333 C58.111949,8.72478358 58.3021878,7.99100519 58.6826712,7.56522616 C59.0812728,7.12132888 59.6021649,6.68649724 60.245363,6.26071821 C60.2363039,6.26071821 60.2589514,6.25165922 60.3133061,6.23354096 L60.3133061,5.8122936 C60.3133061,5.63111104 60.2453637,5.47257867 60.1094768,5.33669174 C59.982649,5.20986395 59.8286461,5.146451 59.6474635,5.146451 C59.466281,5.146451 59.3122781,5.20986395 59.1854503,5.33669174 C59.0586225,5.46351954 58.9952095,5.62205191 58.9952095,5.8122936 L58.111949,5.8122936 C58.111949,5.38651457 58.2614223,5.02415488 58.5603736,4.72520364 C58.8683839,4.41719328 59.2307436,4.26319041 59.6474635,4.26319041 C60.0732426,4.26319041 60.4356023,4.41719328 60.7345535,4.72520364 C61.0425638,5.02415488 61.1965667,5.38651457 61.1965667,5.8122936 L61.1965667,11.3428638 Z M60.3133061,7.29345367 C59.8965862,7.58334578 59.574992,7.89588102 59.3485138,8.23106876 C59.1129765,8.57531564 58.9952095,9.08714871 58.9952095,9.76658333 C58.9952095,9.9477659 59.0586225,10.1017688 59.1854503,10.2285966 C59.3122781,10.3554244 59.466281,10.4188373 59.6474635,10.4188373 C59.8286461,10.4188373 59.982649,10.3554244 60.1094768,10.2285966 C60.2453637,10.0927096 60.3133061,9.93870677 60.3133061,9.76658333 L60.3133061,7.29345367 Z M64.3708256,10.4188373 L64.3708256,11.3020979 L63.487565,11.3020979 L63.487565,10.4188373 L64.3708256,10.4188373 Z M67.8576229,11.3020979 L66.987951,11.3020979 L66.987951,4.26319041 L67.8576229,4.26319041 L67.8576229,11.3020979 Z M67.8576229,1.62699725 L67.8576229,2.51025785 L66.987951,2.51025785 L66.987951,1.62699725 L67.8576229,1.62699725 Z M70.1350326,11.3020979 L70.1350326,4.26319041 L71.0182932,4.26319041 L71.0182932,4.41266528 C71.2357123,4.31301487 71.4531281,4.26319041 71.6705472,4.26319041 C72.0963262,4.26319041 72.4586859,4.41719328 72.7576372,4.72520364 C73.0656475,5.02415488 73.2196504,5.38651457 73.2196504,5.8122936 L73.2196504,11.3020979 L72.3363898,11.3020979 L72.3363898,5.8122936 C72.3363898,5.63111104 72.2684474,5.47257867 72.1325604,5.33669174 C72.0057326,5.20986395 71.8517298,5.146451 71.6705472,5.146451 C71.4893646,5.146451 71.3353618,5.20986395 71.208534,5.33669174 C71.0817062,5.46351954 71.0182932,5.62205191 71.0182932,5.8122936 L71.0182932,11.3020979 L70.1350326,11.3020979 Z M5.26094747,2.73562719 C6.15653633,2.73562719 6.98128819,2.95495178 7.73522779,3.39360755 C8.48916739,3.83226332 9.08545613,4.42626743 9.5241119,5.1756377 C9.96276767,5.92500797 10.1820923,6.7474752 10.1820923,7.64306406 C10.1820923,8.52951425 9.96276767,9.34969685 9.5241119,10.1036365 C9.08545613,10.8575761 8.48916739,11.4538648 7.73522779,11.8925206 C6.98128819,12.3311763 6.15653633,12.5505009 5.26094747,12.5505009 C4.37449727,12.5505009 3.55431468,12.3311763 2.80037508,11.8925206 C2.04643547,11.4538648 1.45014673,10.8575761 1.01149097,10.1036365 C0.572835198,9.34969685 0.353510604,8.52951425 0.353510604,7.64306406 C0.353510604,6.7474752 0.572835198,5.92500797 1.01149097,5.1756377 C1.45014673,4.42626743 2.04643547,3.83226332 2.80037508,3.39360755 C3.55431468,2.95495178 4.37449727,2.73562719 5.26094747,2.73562719 Z M5.26094747,3.53068679 C4.52071586,3.53068679 3.83532651,3.71574192 3.20475884,4.08585772 C2.57419117,4.45597353 2.07385694,4.95402313 1.70374114,5.58002146 C1.33362533,6.2060198 1.14857021,6.89369379 1.14857021,7.64306406 C1.14857021,8.38329567 1.33362533,9.06868502 1.70374114,9.69925269 C2.07385694,10.3298204 2.57419117,10.8301546 3.20475884,11.2002704 C3.83532651,11.5703862 4.52071586,11.7554413 5.26094747,11.7554413 C6.01031774,11.7554413 6.70027636,11.5703862 7.33084403,11.2002704 C7.96141169,10.8301546 8.46174592,10.3298204 8.83186173,9.69925269 C9.20197753,9.06868502 9.38703266,8.38329567 9.38703266,7.64306406 C9.38703266,6.89369379 9.20197753,6.2060198 8.83186173,5.58002146 C8.46174592,4.95402313 7.96141169,4.45597353 7.33084403,4.08585772 C6.70027636,3.71574192 6.01031774,3.53068679 5.26094747,3.53068679 Z M5.48027426,4.83293959 C5.86409805,4.83293959 6.22506978,4.88777074 6.56320027,4.99743468 C6.90133076,5.10709863 7.07039347,5.23046871 7.07039347,5.36754864 C7.07039347,5.46807392 7.02013158,5.5982979 6.9196063,5.75822448 C6.81908102,5.91815106 6.73226503,5.99811315 6.65915574,5.99811315 C6.64087842,5.99811315 6.53350075,5.9501359 6.33701952,5.85417995 C6.14053829,5.758224 5.85495939,5.71024674 5.48027426,5.71024674 C4.95023187,5.71024674 4.55955994,5.8678863 4.30824674,6.18317013 C4.05693354,6.49845396 3.93127882,6.98051114 3.93127882,7.62935613 C3.93127882,8.28733978 4.05693354,8.77853549 4.30824674,9.10295799 C4.55955994,9.42738048 4.94109335,9.58958929 5.45285841,9.58958929 C5.82754354,9.58958929 6.13596876,9.53018888 6.37814329,9.41138628 C6.62031783,9.29258368 6.75054181,9.23318327 6.76881913,9.23318327 C6.85106709,9.23318327 6.93559844,9.31314536 7.02241573,9.47307194 C7.10923302,9.63299852 7.15264101,9.74951471 7.15264101,9.82262401 C7.15264101,9.99625858 6.96987052,10.142475 6.60432404,10.2612776 C6.23877757,10.3800802 5.85495953,10.4394806 5.45285841,10.4394806 C4.58468554,10.4394806 3.94270417,10.2110175 3.52689506,9.75408439 C3.11108594,9.29715129 2.90318451,8.58891563 2.90318451,7.62935613 C2.90318451,5.76506912 3.76220583,4.83293959 5.48027426,4.83293959 Z" id="copyright"></path>
                </g>
            </g>
        </g>
    </g>
</svg>